<?xml version="1.0" encoding="UTF-8"?>
<svg width="178px" height="78px" viewBox="0 0 178 78" version="1.1" xmlns="http://www.w3.org/2000/svg" xmlns:xlink="http://www.w3.org/1999/xlink">
    <!-- Generator: Sketch 48.2 (47327) - http://www.bohemiancoding.com/sketch -->
    <title>1mc_logo-4943c3180507d8bda39460aa31fc9efd93009ee8a67ee5493abefd95fdecfc20</title>
    <desc>Created with Sketch.</desc>
    <defs></defs>
    <g id="Desktop" stroke="none" stroke-width="1" fill="none" fill-rule="evenodd" transform="translate(-924.000000, -1673.000000)">
        <g id="1mc_logo-4943c3180507d8bda39460aa31fc9efd93009ee8a67ee5493abefd95fdecfc20" transform="translate(924.000000, 1673.000000)" fill="#535353" fill-rule="nonzero">
            <g id="Group">
                <path d="M27.1141407,36.369678 C28.4209648,36.369678 29.5068543,35.8738136 30.2465829,34.9871864 L30.2465829,13.7332881 C29.5068543,12.8322881 28.4209648,12.328339 27.1141407,12.328339 C24.6203518,12.328339 22.863608,14.1420169 22.863608,17.0857627 L22.863608,31.6571695 C22.863608,34.6009153 24.6203518,36.369678 27.1141407,36.369678" id="Fill-2"></path>
                <path d="M64.1953869,17.0848644 L64.1953869,31.6571695 C64.1953869,34.6009153 65.9539196,36.3678814 68.4459196,36.3678814 C69.7527437,36.3678814 70.8386332,35.8738136 71.5828342,34.9871864 L71.5828342,13.7323898 C70.8386332,12.8322881 69.7527437,12.3265424 68.4459196,12.3265424 C65.9539196,12.3265424 64.1953869,14.1411186 64.1953869,17.0848644" id="Fill-3"></path>
                <path d="M71.5828342,43.4168814 L71.5828342,41.6966271 C70.5837085,41.9652203 69.5273367,42.1089492 68.4459196,42.1089492 C62.7785427,42.1089492 57.8419497,38.3791864 57.8419497,31.7065763 L57.8419497,16.9869492 C57.8419497,10.3161356 62.7785427,6.58727119 68.4459196,6.58727119 C69.5273367,6.58727119 70.5837085,6.72830508 71.5828342,6.99510169 L71.5828342,0.469813559 L50.7076382,0.469813559 L50.7076382,6.99689831 C49.7120905,6.72920339 48.658402,6.58727119 47.573407,6.58727119 C41.9087136,6.58727119 36.9739095,10.3161356 36.9739095,16.9878475 L36.9739095,31.7065763 C36.9739095,38.3809831 41.9087136,42.1089492 47.573407,42.1089492 C48.658402,42.1089492 49.7120905,41.9652203 50.7076382,41.699322 L50.7076382,43.418678 C50.7076382,48.2776102 53.3373869,52.2175763 56.5780603,52.2175763 L76.0605628,52.2175763 C76.0650352,52.1340339 76.0748744,52.0513898 76.0829246,51.9678475 C73.5023719,51.0434915 71.5828342,47.5706441 71.5828342,43.4168814 Z M50.7076382,34.9871864 C49.9661206,35.8738136 48.8820201,36.369678 47.573407,36.369678 C45.0823015,36.369678 43.3246633,34.6009153 43.3246633,31.6571695 L43.3246633,17.0857627 C43.3246633,14.1420169 45.0823015,12.328339 47.573407,12.328339 C48.8820201,12.328339 49.9661206,12.8322881 50.7076382,13.7332881 L50.7076382,34.9871864 Z" id="Fill-4"></path>
                <path d="M112.966492,43.4168814 L112.966492,41.6966271 C111.970945,41.9652203 110.919045,42.1089492 109.831367,42.1089492 C104.165779,42.1089492 99.2336583,38.3791864 99.2336583,31.7065763 L99.2336583,16.9869492 C99.2336583,10.3161356 104.165779,6.58727119 109.831367,6.58727119 C110.919045,6.58727119 111.970945,6.72830508 112.966492,6.99510169 L112.966492,0.468016949 L92.1637487,0.468016949 L92.1637487,6.99510169 C91.1655176,6.72830508 90.1118291,6.58727119 89.0259397,6.58727119 C83.3585628,6.58727119 78.4264422,10.3161356 78.4264422,16.9869492 L78.4264422,31.7065763 C78.4264422,38.3791864 83.3585628,42.1089492 89.0259397,42.1089492 C90.1118291,42.1089492 91.1655176,41.9652203 92.1637487,41.6966271 L92.1637487,43.4168814 C92.1637487,48.2776102 94.7899196,52.2175763 98.028804,52.2175763 L117.741186,52.2175763 C117.744764,52.1663729 117.753709,52.1151695 117.758181,52.0630678 C115.031829,51.304 112.966492,47.7251525 112.966492,43.4168814 Z M92.1637487,34.9871864 C91.4213367,35.8738136 90.3354472,36.3678814 89.0259397,36.3678814 C86.5357286,36.3678814 84.775407,34.6009153 84.775407,31.6571695 L84.775407,17.0848644 C84.775407,14.1411186 86.5357286,12.3265424 89.0259397,12.3265424 C90.3354472,12.3265424 91.4213367,12.8322881 92.1637487,13.7323898 L92.1637487,34.9871864 Z" id="Fill-8"></path>
                <path d="M112.966492,34.9871864 C112.225869,35.8738136 111.140874,36.3678814 109.831367,36.3678814 C107.340261,36.3678814 105.57994,34.6009153 105.57994,31.6571695 L105.57994,17.0848644 C105.57994,14.1411186 107.340261,12.3265424 109.831367,12.3265424 C111.140874,12.3265424 112.225869,12.8322881 112.966492,13.7323898 L112.966492,34.9871864" id="Fill-28"></path>
                <path d="M156.299206,0.468016949 L133.820221,0.468016949 L133.820221,6.99510169 C132.822884,6.72830508 131.767407,6.58727119 130.68599,6.58727119 C130.251276,6.58727119 129.82193,6.61691525 129.397055,6.6609322 C129.353226,6.66542373 129.309397,6.67261017 129.264673,6.67710169 C128.571457,6.75615254 127.897025,6.89269492 127.245849,7.08583051 C127.241377,7.08762712 127.237799,7.08852542 127.233327,7.09032203 C126.439035,7.32657627 125.682312,7.64277966 124.980151,8.04522034 C124.279779,8.44676271 123.635759,8.93094915 123.057035,9.49059322 C123.005156,9.54089831 122.95596,9.593 122.904975,9.64420339 C122.676884,9.8750678 122.461317,10.1185085 122.257377,10.3736271 C122.205497,10.4383051 122.152724,10.5011864 122.102633,10.567661 C121.875437,10.8676949 121.662553,11.1803051 121.470241,11.5117797 C121.460402,11.5288475 121.448774,11.5432203 121.439829,11.5593898 C121.238573,11.9124237 121.058784,12.284322 120.898673,12.6723898 C120.864683,12.7568305 120.836955,12.8457627 120.803859,12.932 C120.690261,13.2302373 120.588291,13.5374576 120.501528,13.8563559 C120.464854,13.9875085 120.432653,14.1204576 120.401347,14.2552034 C120.330683,14.5561356 120.273437,14.8669492 120.226925,15.1849492 C120.207246,15.3187966 120.18399,15.4508475 120.168784,15.5882881 C120.118693,16.0401356 120.085598,16.503661 120.085598,16.9869492 L120.085598,31.7065763 C120.085598,38.3791864 125.016824,42.1089492 130.68599,42.1089492 C131.767407,42.1089492 132.822884,41.9652203 133.820221,41.6966271 L133.820221,43.4168814 C133.820221,43.439339 133.822905,43.46 133.822905,43.4815593 C133.834533,45.8962034 134.492864,48.0790847 135.552814,49.6583051 C135.55997,49.6699831 135.568915,49.6798644 135.576965,49.6915424 C135.702191,49.8765932 135.831889,50.0544576 135.967849,50.2224407 C135.98395,50.2422034 136.002734,50.2592712 136.018834,50.2790339 C136.147638,50.4344407 136.28002,50.5853559 136.417769,50.7236949 C136.452653,50.7596271 136.490221,50.7883729 136.526,50.8225085 C136.648543,50.9401864 136.771085,51.0569661 136.898995,51.1611695 C136.951769,51.2042881 137.007226,51.2375254 137.060894,51.2779492 C137.176281,51.3650847 137.290774,51.4540169 137.410633,51.5294746 C137.479508,51.5734915 137.55196,51.6067288 137.622623,51.6462542 C137.72996,51.707339 137.836402,51.7720169 137.947317,51.8241186 C138.034975,51.8645424 138.126211,51.8923898 138.214764,51.9265254 C138.312261,51.9651525 138.408864,52.0091695 138.508151,52.0397119 C138.625327,52.0756441 138.74608,52.0963051 138.865045,52.1214576 C138.940181,52.1367288 139.013528,52.1609831 139.089558,52.172661 C139.286342,52.2023051 139.485809,52.2175763 139.68796,52.2175763 L171.290563,52.2175763 C174.528553,52.2175763 177.156513,48.2776102 177.156513,43.4168814 L177.156513,0.468016949 L156.299206,0.468016949 Z M133.820221,34.9871864 C133.077809,35.8738136 131.99192,36.3678814 130.68599,36.3678814 C128.193095,36.3678814 126.433668,34.6009153 126.433668,31.6571695 L126.433668,17.0848644 C126.433668,14.1411186 128.193095,12.3265424 130.68599,12.3265424 C131.99192,12.3265424 133.077809,12.8322881 133.820221,13.7323898 L133.820221,34.9871864 Z" id="Fill-29"></path>
                <path d="M30.2528442,41.7451356 L30.2465829,41.7586102 L30.2465829,41.699322 C29.2510352,41.9652203 28.1982412,42.1089492 27.1141407,42.1089492 C23.2634372,42.1089492 19.7544221,40.3842034 17.898392,37.1871356 C17.021809,35.6788814 16.5101709,33.846339 16.5101709,31.7065763 L16.5101709,16.9878475 C16.5101709,10.3161356 21.4467638,6.58727119 27.1141407,6.58727119 C28.1982412,6.58727119 29.2510352,6.72920339 30.2465829,6.99689831 L30.2465829,0.768050847 L19.3912663,0.768050847 C18.6873166,0.768050847 18.172995,0.827338983 17.9064422,1.02316949 C7.44827136,8.67762712 2.25764824,9.77266102 1.8801809,9.95052542 L1.92043216,14.6962712 C2.25764824,14.5669153 5.37220101,13.8383898 8.72021106,14.0710508 L8.72021106,26.659 L8.70053266,26.659 L8.70053266,41.6094915 C8.70053266,41.6094915 8.93041206,49.958339 0.72720603,52.1430169 L37.5061206,52.1430169 C37.5061206,52.1430169 31.1437387,51.0372034 30.2528442,41.7451356" id="Fill-30"></path>
            </g>
            <g id="Group" transform="translate(3.000000, 62.000000)">
                <polyline id="Fill-31" points="3.00553608 1.94666667 0.273556701 4.33866667 0.273556701 3.05866667 3.00553608 0.730666667 4.08451546 0.730666667 4.08451546 15.6702222 3.00553608 15.6702222 3.00553608 1.94666667"></polyline>
                <polyline id="Fill-32" points="23.6729691 15.6702222 23.6729691 6.96177778 20.793 12.6284444 18.8036598 12.6284444 15.9021649 6.96177778 15.9021649 15.6702222 12.9594124 15.6702222 12.9594124 0.730666667 15.8600103 0.730666667 19.7983299 8.80888889 23.7151237 0.730666667 26.6157216 0.730666667 26.6157216 15.6702222 23.6729691 15.6702222"></polyline>
                <polygon id="Fill-33" points="32.866268 0.730666667 35.8090206 0.730666667 35.8090206 15.6711111 32.866268 15.6711111"></polygon>
                <polyline id="Fill-34" points="42.0577732 15.6702222 42.0577732 0.730666667 45.0005258 0.730666667 45.0005258 13.0684444 51.8394433 13.0684444 51.8394433 15.6702222 42.0577732 15.6702222"></polyline>
                <polyline id="Fill-35" points="56.946433 15.6702222 56.946433 0.730666667 59.8891856 0.730666667 59.8891856 13.0684444 66.7281031 13.0684444 66.7281031 15.6702222 56.946433 15.6702222"></polyline>
                <polygon id="Fill-36" points="71.3041237 0.730666667 74.2477732 0.730666667 74.2477732 15.6711111 71.3041237 15.6711111"></polygon>
                <path d="M89.2826289,14.16 C88.2242784,15.2088889 86.9318351,15.7964444 85.2178454,15.7964444 C83.5029588,15.7964444 82.1898866,15.2088889 81.1306392,14.16 C79.6058969,12.6488889 79.6489485,10.7813333 79.6489485,8.2 C79.6489485,5.61955556 79.6058969,3.75111111 81.1306392,2.24088889 C82.1898866,1.192 83.5029588,0.603555556 85.2178454,0.603555556 C86.9318351,0.603555556 88.2242784,1.192 89.2826289,2.24088889 C90.8073711,3.75111111 90.7867423,5.61955556 90.7867423,8.2 C90.7867423,10.7813333 90.8073711,12.6488889 89.2826289,14.16 Z M87.1022474,4.00355556 C86.6780103,3.52 86.0223711,3.20622222 85.2178454,3.20622222 C84.4124227,3.20622222 83.7352577,3.52 83.3119175,4.00355556 C82.7396907,4.632 82.591701,5.32533333 82.591701,8.2 C82.591701,11.0746667 82.7396907,11.7671111 83.3119175,12.3973333 C83.7352577,12.88 84.4124227,13.1937778 85.2178454,13.1937778 C86.0223711,13.1937778 86.6780103,12.88 87.1022474,12.3973333 C87.6744742,11.7671111 87.8430928,11.0746667 87.8430928,8.2 C87.8430928,5.32533333 87.6744742,4.632 87.1022474,4.00355556 Z" id="Fill-37"></path>
                <polyline id="Fill-38" points="104.043928 15.6702222 98.0723196 6.50044444 98.0723196 15.6702222 95.1286701 15.6702222 95.1286701 0.730666667 97.7548144 0.730666667 103.725526 9.87911111 103.725526 0.730666667 106.669175 0.730666667 106.669175 15.6702222 104.043928 15.6702222"></polyline>
                <path d="M119.842948,15.7964444 C118.403412,15.7964444 117.069711,15.2515556 116.074144,14.264 C114.698289,12.9004444 114.676763,11.5573333 114.676763,8.2 C114.676763,4.82133333 114.698289,3.50044444 116.074144,2.136 C117.069711,1.14933333 118.403412,0.603555556 119.842948,0.603555556 C122.553402,0.603555556 124.45933,2.28266667 124.967876,4.968 L123.802794,4.968 C123.357928,2.89155556 121.876237,1.61155556 119.842948,1.61155556 C118.763969,1.61155556 117.747773,2.00977778 116.984505,2.76622222 C115.905526,3.83555556 115.82032,5.01066667 115.82032,8.2 C115.82032,11.3893333 115.905526,12.5644444 116.984505,13.6355556 C117.747773,14.3911111 118.763969,14.7893333 119.842948,14.7893333 C121.876237,14.7893333 123.400082,13.5102222 123.845845,11.4328889 L124.967876,11.4328889 C124.45933,14.1182222 122.512144,15.7964444 119.842948,15.7964444" id="Fill-39"></path>
                <path d="M136.361289,15.7964444 C133.334227,15.7964444 131.195103,13.7404444 131.195103,10.824 L131.195103,0.730666667 L132.339557,0.730666667 L132.339557,10.6764444 C132.339557,13.152 133.926186,14.7893333 136.361289,14.7893333 C138.796392,14.7893333 140.383918,13.152 140.383918,10.6764444 L140.383918,0.730666667 L141.528371,0.730666667 L141.528371,10.824 C141.528371,13.7404444 139.389247,15.7964444 136.361289,15.7964444" id="Fill-40"></path>
                <path d="M154.003454,9.33333333 L149.620268,9.33333333 L149.620268,15.6702222 L148.476711,15.6702222 L148.476711,0.730666667 L154.003454,0.730666667 C156.607175,0.730666667 158.555258,2.28266667 158.555258,5.032 C158.555258,7.76 156.607175,9.33333333 154.003454,9.33333333 Z M153.876093,1.73688889 L149.620268,1.73688889 L149.620268,8.32711111 L153.876093,8.32711111 C155.972165,8.32711111 157.412598,7.27644444 157.412598,5.032 C157.412598,2.78577778 155.972165,1.73688889 153.876093,1.73688889 Z" id="Fill-41"></path>
                <path d="M168.109113,15.7964444 C165.884784,15.7964444 164.465876,15.1866667 163.090021,13.824 L163.894546,13.0266667 C165.249773,14.3688889 166.371804,14.7893333 168.171,14.7893333 C170.563948,14.7893333 172.045639,13.656 172.045639,11.7048889 C172.045639,10.8026667 171.791814,10.0888889 171.220485,9.60622222 C170.649155,9.16533333 170.288598,8.97688889 169.040103,8.80888889 L167.282165,8.536 C166.138608,8.368 165.249773,8.01155556 164.593237,7.44444444 C163.80934,6.79466667 163.406629,5.87111111 163.406629,4.69688889 C163.406629,2.17777778 165.186093,0.603555556 168.086691,0.603555556 C169.949567,0.603555556 171.136175,1.10666667 172.426825,2.21866667 L171.685979,2.95466667 C170.797144,2.11466667 169.801577,1.56977778 168.02301,1.56977778 C165.821103,1.56977778 164.52866,2.744 164.52866,4.65422222 C164.52866,5.51377778 164.784278,6.16444444 165.312557,6.60622222 C165.841732,7.04533333 166.709938,7.38222222 167.556619,7.52888889 L169.187196,7.77955556 C170.606103,7.96888889 171.262639,8.24177778 171.877021,8.76711111 C172.702175,9.43822222 173.190093,10.4657778 173.190093,11.6622222 C173.190093,14.2017778 171.262639,15.7964444 168.109113,15.7964444" id="Fill-42"></path>
            </g>
        </g>
    </g>
</svg>