<?xml version="1.0" encoding="UTF-8"?>
<svg width="163px" height="78px" viewBox="0 0 163 78" version="1.1" xmlns="http://www.w3.org/2000/svg" xmlns:xlink="http://www.w3.org/1999/xlink">
    <!-- Generator: Sketch 48.2 (47327) - http://www.bohemiancoding.com/sketch -->
    <title>Group 2</title>
    <desc>Created with Sketch.</desc>
    <defs>
        <polygon id="path-1" points="1.99863253 2.83566103 3.43721786 2.83566103 3.43721786 0 0.560047204 0 0.560047204 2.83566103 1.99863253 2.83566103"></polygon>
        <path d="M8.53023362,0.210547832 C3.52451453,0.457959257 0.10645936,4.4647483 0.310151601,9.20313788 C0.515263301,13.9408186 4.52381305,17.6165442 9.26764212,17.4137944 C14.0107615,17.2103357 17.6914164,13.2056734 17.4877241,8.46799276 C17.2918389,3.87067731 13.5075635,0.199205188 8.95252241,0.199205188 C8.81270579,0.199205188 8.67217943,0.202749764 8.53023362,0.210547832 Z" id="path-3"></path>
        <polygon id="path-5" points="17.6235663 0.0233942035 0.0272535961 0.0233942035 0.0272535961 17.5986086 17.6235663 17.5986086 17.6235663 0.0233942035"></polygon>
    </defs>
    <g id="Desktop" stroke="none" stroke-width="1" fill="none" fill-rule="evenodd" transform="translate(-124.000000, -1673.000000)">
        <g id="Group-2" transform="translate(124.000000, 1673.000000)">
            <path d="M0,9.59488446 L0,61.7363106 L20.8859069,61.7363106 L28.5389154,54.1750205 L28.5389154,17.1583013 L20.4565208,9.59488446 L0,9.59488446 Z M10.5785117,52.4729149 L15.6026837,52.4729149 L15.6026837,19.9656058 L10.5785117,19.9656058 L10.5785117,52.4729149 Z" id="Fill-1" fill="#535353"></path>
            <polygon id="Fill-2" fill="#535353" points="32.4026804 61.7365942 44.2040553 61.7365942 44.2040553 9.59516802 32.4026804 9.59516802"></polygon>
            <polygon id="Fill-3" fill="#535353" points="76.5177357 29.5938801 65.0016719 29.5938801 65.0016719 19.4124392 59.9242702 19.4124392 59.9242702 51.9197484 65.0016719 51.9197484 65.0016719 39.4846658 76.5177357 39.4846658 76.5177357 54.1748078 68.7213619 61.7360979 56.5622836 61.7360979 48.1221856 54.1748078 48.1221856 17.1580887 55.8468767 9.5953807 68.7213619 9.5953807 76.5177357 17.1580887"></polygon>
            <polygon id="Fill-4" fill="#535353" points="92.0371682 31.848018 92.1798238 31.848018 99.9052246 9.59516802 111.99404 9.59516802 101.766844 33.9570409 113.567509 61.7365942 100.763287 61.7365942 92.1798238 39.4844531 92.0371682 39.4844531 92.0371682 61.7365942 80.2365031 61.7365942 80.2365031 9.59516802 92.0371682 9.59516802"></polygon>
            <polygon id="Fill-5" fill="#535353" points="152.035605 9.59502624 160.333048 17.1584431 160.333048 26.3934822 148.530963 26.3934822 148.530963 19.4127937 143.66719 19.4127937 143.66719 30.0302175 152.250653 30.7575645 160.333048 38.3209814 160.333048 54.1751623 152.608356 61.7364524 139.519533 61.7364524 131.866525 54.1751623 131.866525 45.0117236 143.66719 45.0117236 143.66719 51.9193939 148.530963 51.9193939 148.530963 41.0113148 140.090865 40.356986 131.866525 32.7935692 131.866525 17.1584431 139.590506 9.59502624"></polygon>
            <polygon id="Fill-6" fill="#535353" points="4.93822386 66.8109387 2.12556757 68.3258906 2.12556757 71.4394464 5.12062422 72.9380933 8.1894927 73.0678248 8.1894927 75.2548284 6.42226733 75.2548284 6.42226733 73.8703169 2.12556757 73.8703169 2.12556757 75.7071163 4.91196388 77.2220682 9.67353617 77.2220682 12.4861925 75.7071163 12.4861925 72.5333027 9.54365575 71.0325291 6.42226733 70.8886193 6.42226733 68.7767607 8.1894927 68.7767607 8.1894927 70.163399 12.4861925 70.163399 12.4861925 68.3258906 9.46558555 66.8109387"></polygon>
            <path d="M14.5342576,66.8109387 L14.5342576,77.2249039 L18.8302476,77.2249039 L18.8302476,73.6909613 L21.6521304,73.6909613 L24.5456958,72.2220889 L24.5456958,68.3258906 L21.6521304,66.8109387 L14.5342576,66.8109387 Z M18.8302476,71.7265571 L20.4257186,71.7265571 L20.4257186,68.7774696 L18.8302476,68.7774696 L18.8302476,71.7265571 Z" id="Fill-7" fill="#535353"></path>
            <path d="M28.6699314,66.8109387 L25.8317249,68.3258906 L25.8317249,75.7071163 L28.6699314,77.2213593 L33.4662804,77.2213593 L36.2264167,75.7071163 L36.2264167,68.3258906 L33.28388,66.8109387 L28.6699314,66.8109387 Z M30.1284246,75.2555373 L31.9304267,75.2555373 L31.9304267,68.7767607 L30.1284246,68.7767607 L30.1284246,75.2555373 Z" id="Fill-8" fill="#535353"></path>
            <path d="M38.4486494,66.8109387 L38.4486494,77.2249039 L42.7453492,77.2249039 L42.7453492,73.0345058 L44.5473512,73.0345058 L44.5473512,77.2249039 L48.7056538,77.2249039 L48.7056538,73.0345058 L46.5494969,72.0136678 L48.7056538,71.0091349 L48.7056538,68.3258906 L45.8220246,66.8109387 L38.4486494,66.8109387 Z M42.7453492,71.0686838 L44.5473512,71.0686838 L44.5473512,68.7774696 L42.7453492,68.7774696 L42.7453492,71.0686838 Z" id="Fill-9" fill="#535353"></path>
            <polygon id="Fill-10" fill="#535353" points="49.8900497 66.8109387 49.8900497 68.7774696 52.3144842 68.7774696 52.3144842 77.2249039 56.6111839 77.2249039 56.6111839 68.7774696 59.0356184 68.7774696 59.0356184 66.8109387"></polygon>
            <polygon id="Fill-11" fill="#535353" points="60.3823293 77.2242658 64.6790291 77.2242658 64.6790291 66.8067561 60.3823293 66.8067561"></polygon>
            <polygon id="Fill-12" fill="#535353" points="73.4007476 66.8071106 73.4007476 71.8205593 73.3489374 71.8205593 70.5937691 66.8071106 66.9904747 66.8071106 66.9904747 77.2246203 71.0387693 77.2246203 71.0387693 72.1544584 71.0905795 72.1544584 73.8698785 77.2246203 77.4490422 77.2246203 77.4490422 66.8071106"></polygon>
            <polygon id="Fill-13" fill="#535353" points="82.0194844 66.8109387 79.1543082 68.3258906 79.1543082 75.7071163 82.1493648 77.2213593 86.9194539 77.2213593 89.7583701 75.7071163 89.7583701 71.794613 84.3757849 71.794613 84.3757849 73.7618528 85.4609607 73.7618528 85.4609607 75.2548284 83.4524274 75.2548284 83.4524274 68.7774696 85.4609607 68.7774696 85.4609607 70.7191885 89.7583701 70.7191885 89.7583701 68.3258906 86.8420934 66.8109387"></polygon>
            <polygon id="Fill-14" fill="#535353" points="101.311198 66.8109387 98.4467314 68.3258906 98.4467314 75.7071163 101.442498 77.2213593 106.212587 77.2213593 109.050084 75.7071163 109.050084 71.794613 103.668918 71.794613 103.668918 73.7618528 104.754094 73.7618528 104.754094 75.2548284 102.744141 75.2548284 102.744141 68.7774696 104.754094 68.7774696 104.754094 70.7191885 109.050084 70.7191885 109.050084 68.3258906 106.133807 66.8109387"></polygon>
            <path d="M113.658993,66.8109387 L110.820077,68.3258906 L110.820077,75.7071163 L113.658993,77.2213593 L118.454632,77.2213593 L121.216898,75.7071163 L121.216898,68.3258906 L118.274361,66.8109387 L113.658993,66.8109387 Z M115.117486,75.2555373 L116.919489,75.2555373 L116.919489,68.7767607 L115.117486,68.7767607 L115.117486,75.2555373 Z" id="Fill-15" fill="#535353"></path>
            <path d="M126.172226,66.8109387 L123.33473,68.3258906 L123.33473,75.7071163 L126.172226,77.2213593 L130.969285,77.2213593 L133.729421,75.7071163 L133.729421,68.3258906 L130.787594,66.8109387 L126.172226,66.8109387 Z M127.632139,75.2555373 L129.432722,75.2555373 L129.432722,68.7767607 L127.632139,68.7767607 L127.632139,75.2555373 Z" id="Fill-16" fill="#535353"></path>
            <path d="M135.91709,66.8109387 L135.91709,77.2213593 L143.526096,77.2213593 L146.312492,75.7071163 L146.312492,68.3258906 L143.369955,66.8109387 L135.91709,66.8109387 Z M140.21379,75.2555373 L142.014373,75.2555373 L142.014373,68.7767607 L140.21379,68.7767607 L140.21379,75.2555373 Z" id="Fill-17" fill="#535353"></path>
            <polygon id="Fill-18" fill="#535353" points="150.931054 66.8109387 148.119107 68.3258906 148.119107 71.4394464 151.112744 72.9380933 154.184452 73.0678248 154.184452 75.2548284 152.415807 75.2548284 152.415807 73.8703169 148.119107 73.8703169 148.119107 75.7071163 150.904084 77.2220682 155.667786 77.2220682 158.479732 75.7071163 158.479732 72.5333027 155.537195 71.0325291 152.415807 70.8886193 152.415807 68.7767607 154.184452 68.7767607 154.184452 70.163399 158.479732 70.163399 158.479732 68.3258906 155.459835 66.8109387"></polygon>
            <g id="Group-292" transform="translate(112.846921, 0.685521)">
                <g id="Group-21" transform="translate(46.132389, 73.727187)">
                    <mask id="mask-2" fill="white">
                        <use xlink:href="#path-1"></use>
                    </mask>
                    <g id="Clip-20"></g>
                    <path d="M1.70200127,1.3150378 L1.70200127,0.809581225 L2.04054203,0.809581225 C2.21371592,0.809581225 2.39753575,0.847153734 2.39753575,1.04919458 C2.39753575,1.30015058 2.21087701,1.3150378 1.99866802,1.3150378 L1.70200127,1.3150378 Z M1.70200127,1.52558564 L1.98873181,1.52558564 L2.42024708,2.23450089 L2.69704142,2.23450089 L2.23145915,1.51424299 C2.47134757,1.48375964 2.65729659,1.3568638 2.65729659,1.0640818 C2.65729659,0.74152536 2.46425028,0.599033393 2.0788674,0.599033393 L1.4535961,0.599033393 L1.4535961,2.23450089 L1.70200127,2.23450089 L1.70200127,1.52558564 Z M2.00292639,2.83566103 C2.77795053,2.83566103 3.43728883,2.23450089 3.43728883,1.41357703 C3.43728883,0.599033393 2.77795053,0 2.00292639,0 C1.22222442,0 0.560047204,0.599033393 0.560047204,1.41357703 C0.560047204,2.23450089 1.22222442,2.83566103 2.00292639,2.83566103 Z M0.846777746,1.41357703 C0.846777746,0.74152536 1.35281457,0.235359866 2.00292639,0.235359866 C2.64594092,0.235359866 3.15197775,0.74152536 3.15197775,1.41357703 C3.15197775,2.09484459 2.64594092,2.59746551 2.00292639,2.59746551 C1.35281457,2.59746551 0.846777746,2.09484459 0.846777746,1.41357703 Z" id="Fill-19" fill="#FFFFFF" mask="url(#mask-2)"></path>
                </g>
                <path d="M6.02687727,31.1700823 C6.97933367,30.386731 7.6223482,29.6565482 8.03115214,28.9611024 C8.43995608,28.2663654 8.61100079,27.6021118 8.60958133,26.990318 C8.60958133,26.4267303 8.46763552,25.9163113 8.27529894,25.4604788 L7.53647099,25.7738194 C7.70112813,26.1608871 7.80687776,26.5607153 7.80687776,26.990318 C7.8054583,27.4567842 7.68480436,27.9650764 7.33845658,28.5556028 C6.99281852,29.1447114 6.41793798,29.8110918 5.51658207,30.5511993 L6.02687727,31.1700823 Z" id="Fill-22" fill="#FFFFFF"></path>
                <path d="M5.54724236,32.9486089 C7.20375,31.8462457 8.20872636,30.8686516 8.80631823,29.9371369 C9.40532956,29.007749 9.57282562,28.1223138 9.5699867,27.3127326 C9.5699867,27.1482643 9.56288941,26.9866316 9.55366293,26.8271257 L8.75379828,26.8788765 C8.7616053,27.0256219 8.76728313,27.1695317 8.76728313,27.3127326 C8.76586367,28.0216479 8.63811244,28.7050422 8.12994643,29.5054075 C7.61965123,30.304355 6.70339101,31.2181468 5.10082278,32.2815197 L5.54724236,32.9486089 Z" id="Fill-24" fill="#FFFFFF"></path>
                <path d="M4.71004596,34.8877757 C6.43184867,34.2256489 7.88466406,33.0906755 8.91873931,31.8897731 C9.43542207,31.2893219 9.84848439,30.6725656 10.1380538,30.0806213 C10.4254941,29.4879682 10.5915707,28.9229627 10.5944096,28.4033278 C10.5944096,28.3409433 10.5901513,28.2785588 10.5858929,28.2175921 L9.78602823,28.2863568 L9.7902866,28.4033278 C9.79170606,28.7428983 9.6682132,29.2129091 9.41483993,29.7297083 C9.03797379,30.5066794 8.38076468,31.3892789 7.52128278,32.1839729 C6.66180089,32.9786669 5.60288512,33.6875822 4.42189596,34.1384523 L4.71004596,34.8877757 Z" id="Fill-26" fill="#FFFFFF"></path>
                <path d="M10.8924249,22.5617243 C8.61774321,21.853518 6.20182548,23.1203496 5.49209642,25.3910051 C4.78378681,27.6616607 6.05207265,30.0762261 8.32533484,30.7844324 C10.5971776,31.4919298 13.0159342,30.2258072 13.7242438,27.9551516 C14.4325534,25.684496 13.1656871,23.2699307 10.8924249,22.5617243" id="Fill-28" fill="#000000"></path>
                <path d="M10.8924249,22.5617243 L10.9158459,22.4858704 C10.480782,22.3497587 10.0400403,22.2852474 9.60710553,22.2852474 C7.73625972,22.2852474 6.00168188,23.4896944 5.41544568,25.3676109 C5.28130688,25.802176 5.21601181,26.2417034 5.21601181,26.6741418 C5.21601181,28.5428424 6.42042203,30.2740134 8.30191378,30.8602864 C8.73555824,30.9963981 9.17629999,31.0609094 9.60852499,31.0609094 C11.4800805,31.0609094 13.2132389,29.8571713 13.7994751,27.9792547 C13.9364528,27.5446897 14.0017479,27.1044533 14.0017479,26.6713061 C14.0017479,24.8033144 12.7959182,23.0707255 10.9158459,22.4858704 L10.8924249,22.5617243 L10.8690038,22.6382872 C12.6795226,23.2018748 13.8406394,24.8713702 13.8406394,26.6713061 C13.8406394,27.0881483 13.7796027,27.5120796 13.6483028,27.9317574 C13.0826488,29.7409092 11.4105271,30.9006945 9.60852499,30.9006945 C9.19191403,30.9006945 8.76749605,30.83831 8.3487559,30.7078696 C6.5368176,30.143573 5.37570085,28.4747865 5.37570085,26.6741418 C5.37570085,26.2572996 5.43744728,25.8340772 5.56945688,25.4151083 C6.13369149,23.6052476 7.80368398,22.4447533 9.60710553,22.4447533 C10.0244262,22.4447533 10.4488442,22.5078468 10.8690038,22.6382872 L10.8924249,22.5617243 Z" id="Fill-30" fill="#000000"></path>
                <path d="M13.9157287,26.8778131 C13.8688866,26.8607991 13.8447558,26.8927003 13.8326904,26.9146767 C13.789397,27.0862342 13.710617,27.2081676 13.7219727,27.380434 C13.7233922,27.4470721 13.7602981,27.439274 13.7744926,27.338608 C13.7759121,27.2081676 13.9029536,27.0819807 13.9100509,26.9806058 C13.9029536,27.1436563 13.8355293,27.5675877 13.7993332,27.6767606 L13.7532008,27.6172117 C13.6701625,27.6795963 13.6332566,27.7760087 13.577188,27.8589518 C13.5317653,27.9284255 13.4764064,27.9943546 13.3947876,28.0276737 L13.4011752,28.0553213 C13.4359519,28.0950206 13.5140221,27.9858477 13.4863426,28.0822601 L13.5026664,28.1113257 C13.5459599,28.0850958 13.5402821,28.0425609 13.5708004,28.007824 C13.6368052,27.9050313 13.7077781,27.7937316 13.7922359,27.7036994 C13.7411354,27.9128294 13.6843571,28.0950206 13.5998993,28.292808 C13.5693809,28.2453106 13.5218291,28.2290056 13.4664702,28.2467285 C13.3500747,28.2807564 13.1712229,28.5324213 13.1243808,28.7011431 C13.103089,28.7706168 13.1215419,28.7883397 13.1612867,28.7422602 C13.2407764,28.643721 13.4316935,28.4069433 13.4969886,28.426084 C13.4274351,28.6132377 13.3529136,28.8727006 13.1726424,28.9166534 C13.1350268,28.9265782 13.069022,28.9584794 13.0981209,28.8429262 C12.9831447,28.9017662 12.856813,28.9875449 12.7262228,28.9747844 C12.644604,29.103807 12.3784556,29.5171046 12.167666,29.3306599 L12.0888861,29.3682324 C12.0690137,29.1243656 12.4849149,28.9499724 12.6900266,28.9386298 C12.7177061,28.927996 12.7347396,28.8904235 12.7013823,28.8152785 C12.6375067,28.6699509 12.2996757,28.844344 12.1194045,29.1824966 C11.94765,29.0236996 11.6878892,29.1966749 11.6268525,29.2782002 C11.5274904,29.4093495 11.1712064,29.5787802 10.9703531,29.2824537 C10.905058,29.2916696 10.839763,29.321444 10.7673706,29.3221529 C10.6460069,29.5291562 10.3351456,29.6525074 10.0995156,29.4511755 C10.0313816,29.4611003 9.96253785,29.4667716 9.89582331,29.4625181 C9.7879445,29.6673946 9.40540053,29.6759016 9.21945152,29.338458 C9.06685977,29.3363312 8.93130152,29.2427544 8.78154868,29.2264494 C8.64386124,29.3533452 8.44726629,29.3597254 8.29183563,29.2852893 C8.19886112,29.229285 8.1300174,29.1201121 8.10233797,29.0109391 L8.05620558,29.0045589 C7.97742565,28.6890916 7.75811937,28.4672011 7.33583058,28.6458478 C7.17898046,28.6479745 7.12220213,28.5005201 7.04129302,28.4133236 C7.02638871,28.2034846 6.92347799,27.9716693 6.72688304,27.8731301 C6.63532799,27.8277595 6.52461026,27.8291774 6.43163575,27.8710034 C6.38621309,27.8603697 6.3791158,27.807201 6.3620823,27.7745909 C6.2960775,27.6611645 6.15058304,27.6257187 6.1250328,27.4846446 C6.17684302,27.1961161 6.01005669,26.8253534 5.78010447,26.911841 C5.73894019,27.0770183 5.4976323,26.8849023 5.59415546,26.451755 C5.4266594,26.3071363 5.53737713,25.9852888 5.48485718,25.8385433 C5.45149991,25.7421309 5.5707344,25.3295422 5.65235324,25.0374691 C5.60835004,25.189177 5.6026722,25.4387151 5.6417073,25.5074799 L5.68712996,25.4911749 C5.74816666,25.355772 5.77300718,25.1331727 5.7148094,24.9814648 L5.67790349,24.9509814 C5.95043945,23.9953637 7.92206679,21.7218724 10.8120835,22.5335804 C13.042762,23.1609704 14.040641,25.2912608 13.9157287,26.8778131" id="Fill-32" fill="#FFFFFF"></path>
                <path d="M5.66789631,25.641394 C5.89855687,25.6871778 6.00057982,26.1272934 5.83497736,26.4684569 L5.71077551,26.4684569 L5.73443301,26.2395377 C5.81575564,26.046064 5.75217613,25.9101894 5.72260426,25.8703132 L5.66789631,25.641394 Z" id="Fill-34" fill="#000000"></path>
                <path d="M9.88879345,22.5781561 C10.1460687,22.5574796 10.3856008,22.4732964 10.4491803,22.4851116 C10.3427216,22.711077 9.51323073,22.7317535 9.2943989,22.6180324 C9.34614967,22.5648641 9.62264664,22.6003096 9.88879345,22.5781561" id="Fill-36" fill="#000000"></path>
                <path d="M9.0743915,22.6930353 C9.31392363,22.6221442 9.55641294,22.5128538 9.61999246,22.5261459 C9.40116064,22.7934644 8.71361471,22.9544463 8.53470491,22.8318638 C8.55392663,22.8052796 8.81415906,22.7668802 9.0743915,22.6930353" id="Fill-38" fill="#000000"></path>
                <path d="M8.63712668,22.8367944 C8.50109609,23.0036839 8.0516037,23.2444183 7.97323825,23.0790057 C8.32514348,23.0391295 8.41238049,22.7895337 8.64599824,22.6964891 L8.63712668,22.8367944 Z" id="Fill-40" fill="#000000"></path>
                <path d="M7.99146327,22.9659948 C7.97667734,23.2214981 7.54936385,23.4770015 7.45769106,23.3736186 C7.72827365,23.2141137 7.66765132,23.1122077 7.88500455,22.9187341 L7.99146327,22.9659948 Z" id="Fill-42" fill="#000000"></path>
                <path d="M6.96670049,23.6971908 C7.02140845,23.6676528 7.35113477,23.3988574 7.42950022,23.1743689 C7.57883815,23.3058128 7.01845126,23.8729416 6.96670049,23.6971908" id="Fill-44" fill="#000000"></path>
                <path d="M6.49125299,24.3520261 C6.69677747,24.2323974 6.9363096,23.846927 6.96736006,23.5737009 C7.07234019,23.8203428 6.85498697,24.3549799 6.49125299,24.3520261" id="Fill-46" fill="#000000"></path>
                <path d="M13.8142933,26.1820698 C13.7300135,26.5173257 13.9695456,26.9116574 13.8202077,26.9352878 C13.611726,26.7506756 13.4505594,25.9516738 13.8172505,25.8438602 C13.9532811,25.919182 13.8512582,26.0417645 13.8142933,26.1820698" id="Fill-48" fill="#000000"></path>
                <path d="M13.6660563,27.2834173 C13.645356,27.3971385 13.6364845,27.4000923 13.5847337,27.6659339 C13.4753178,27.4798447 13.605434,26.593706 13.9026313,26.6527819 C14.0179616,26.9141928 13.7178071,27.0943744 13.6660563,27.2834173" id="Fill-50" fill="#000000"></path>
                <path d="M6.38080477,24.4657442 C6.42072679,24.7507855 6.08656469,25.4065282 5.95349128,25.4301586 C6.15605858,25.1333021 6.1057864,24.6518333 6.29061057,24.411099 C6.36306165,24.3121468 6.37193321,24.4037145 6.38080477,24.4657442" id="Fill-52" fill="#000000"></path>
                <path d="M13.3768181,28.4226628 C13.2378303,28.3798328 13.5010199,27.3268046 13.8396178,27.3223739 C13.9978273,27.7949812 13.4004756,27.9928855 13.3768181,28.4226628" id="Fill-54" fill="#000000"></path>
                <path d="M13.6492915,28.3940531 C13.5738832,28.6702331 13.2826003,28.4752825 13.1243908,28.6318337 C13.0164535,28.7396473 12.9735743,28.9050598 12.8153648,28.888814 C12.898166,28.4989129 13.5590973,28.0218749 13.6492915,28.3940531" id="Fill-56" fill="#000000"></path>
                <path d="M5.37311555,26.8815766 L5.36128681,26.8933918 C5.33615072,26.5891508 5.4071232,26.2612794 5.47661709,25.9437464 C5.63926236,26.2302646 5.58159722,26.6245963 5.37311555,26.8815766" id="Fill-58" fill="#FFFFFF"></path>
                <path d="M6.06376874,27.394023 C5.97357455,27.018891 5.95139565,26.7205576 5.6275837,26.4916384 C5.79170756,25.9067868 6.39053788,26.6334206 6.06376874,27.394023" id="Fill-60" fill="#000000"></path>
                <path d="M5.67986216,27.1726005 L5.60149671,27.3261979 C5.35900739,27.194754 5.34717864,26.8786978 5.36787895,26.6350096 C5.50095236,26.7945146 5.62219701,26.9761731 5.67986216,27.1726005" id="Fill-62" fill="#FFFFFF"></path>
                <path d="M12.0118345,29.9672154 C11.8994614,29.9864151 11.7752595,30.0469679 11.6658436,29.9745999 C11.5993069,29.9273392 11.5091127,29.8697402 11.5209415,29.7722649 L11.529813,29.7442038 C11.8003956,29.7530652 12.0606281,29.6511593 12.3238177,29.5802682 L12.5958789,29.4473473 C12.5293422,29.6998969 12.2336235,29.828387 12.0118345,29.9672154" id="Fill-64" fill="#FFFFFF"></path>
                <path d="M7.99769673,23.2337991 C7.9829108,23.5424708 7.50976091,23.7699131 7.40921656,23.7211754 C7.76703616,23.6325616 7.62804839,23.2145994 7.91933128,23.148139 L7.99769673,23.2337991 Z" id="Fill-66" fill="#000000"></path>
                <path d="M7.40578237,23.6261833 C7.44274721,23.9378088 7.06718449,24.3144177 6.76407285,24.2110349 C6.7966019,24.1106058 7.29636646,23.9717774 7.3111524,23.4696321 L7.40578237,23.6261833 Z" id="Fill-68" fill="#000000"></path>
                <path d="M6.3332673,24.9815535 C6.79754563,24.7659264 6.73988048,24.2962728 6.67186519,24.0097546 C6.97201965,24.2445814 6.97793402,25.0391525 6.3332673,24.9815535" id="Fill-70" fill="#000000"></path>
                <path d="M13.7309974,27.1770945 C13.4130998,27.1091572 13.194268,27.7870533 13.1735677,28.0218801 C13.1277313,27.7501309 13.1159026,27.2760466 13.4766793,26.9422677 C13.5949668,26.8300234 13.7945769,26.9186373 13.7309974,27.1770945" id="Fill-72" fill="#000000"></path>
                <path d="M6.28981809,25.0670507 C6.37114072,25.2812009 6.16265906,26.0550954 5.96009176,26.0299881 C6.19518811,25.5219352 6.01184253,25.0921579 6.01184253,25.0921579 C5.96304895,24.9385605 6.18040218,24.7997321 6.28981809,25.0670507" id="Fill-74" fill="#000000"></path>
                <path d="M13.656939,27.758043 C13.5726592,28.0519456 13.1926607,27.9190248 13.0507158,28.220312 C13.0078365,28.3104028 12.9546072,28.4064012 12.8910277,28.4684309 C12.8880705,28.0740991 13.4780292,27.2278366 13.656939,27.758043" id="Fill-76" fill="#000000"></path>
                <path d="M6.30370314,25.6371985 C6.51957778,25.9887002 6.28891721,26.5543522 6.21055176,26.6887499 C6.24012363,26.4037086 6.32144626,26.1570666 6.08782851,25.8941788 C5.7758453,25.6135682 6.15880099,25.4112331 6.30370314,25.6371985" id="Fill-78" fill="#000000"></path>
                <path d="M13.2691366,28.2942265 C13.2454791,28.4301011 13.1745067,28.3769328 13.0384761,28.3695483 C12.8122513,28.35921 12.387895,28.8569247 12.387895,28.8569247 C12.4145097,28.4330549 13.0384761,27.5823617 13.2691366,28.2942265" id="Fill-80" fill="#000000"></path>
                <path d="M6.60583533,27.3934938 C6.38700351,27.3240796 6.63245001,26.6417527 6.03361969,26.4704325 C6.09719921,25.8619506 6.94147603,26.4571405 6.60583533,27.3934938" id="Fill-82" fill="#000000"></path>
                <path d="M12.8063635,28.6475847 C12.7767916,28.7642596 12.6525898,28.7066606 12.5786601,28.7332448 C12.2814628,28.845489 12.0463665,29.1083769 11.7890912,29.2590204 C11.7284689,28.9813636 12.6067534,28.0893173 12.8063635,28.6475847" id="Fill-84" fill="#000000"></path>
                <path d="M7.02664632,28.0470453 C6.9630668,28.0883985 6.91131603,28.0721526 6.8299934,27.9229859 C6.75162795,27.7708654 6.55645362,27.3602878 6.293264,27.3218884 C6.16019059,27.3026888 6.19271965,27.2052135 6.26664932,27.1298917 C6.76641388,26.6233157 7.29279313,27.733943 7.02664632,28.0470453" id="Fill-86" fill="#000000"></path>
                <path d="M12.0341485,29.2474052 C11.8522815,29.2606973 11.4279252,29.0952847 11.083413,29.4113409 C11.2608442,28.9151032 11.7975736,28.743783 12.0888565,28.8486428 C12.3490889,28.9431643 12.3771822,29.2252518 12.0341485,29.2474052" id="Fill-88" fill="#000000"></path>
                <path d="M8.3099736,28.870303 C8.29223048,28.9175637 8.20942925,29.087407 7.96102556,28.7329514 C7.87083136,28.6133227 7.65199954,28.2337599 7.06499797,28.2529596 C7.55293379,27.4746344 8.33954547,28.1776378 8.3099736,28.870303" id="Fill-90" fill="#000000"></path>
                <path d="M11.4835851,29.1987843 C11.553079,29.2918289 11.465842,29.7024065 11.0991509,29.5310864 C10.7383741,29.3405665 10.3835117,29.3257975 10.0508281,29.4971177 C10.5298924,28.6626703 11.2810178,28.9344196 11.4835851,29.1987843" id="Fill-92" fill="#000000"></path>
                <path d="M10.7068352,29.5311282 C10.754575,29.7438015 10.5086428,29.7526629 10.3567435,29.6537107 C10.1903777,29.5473741 9.63920028,29.4247915 9.32238179,29.5754351 C9.22979556,29.6226959 9.22690224,29.5458972 9.23992218,29.4986364 C9.30791519,28.9344614 10.537576,28.7291726 10.7068352,29.5311282" id="Fill-94" fill="#000000"></path>
                <path d="M9.59115231,29.516007 C9.54993598,29.7404955 9.27705546,29.5972364 9.14487896,29.4908997 C9.01412371,29.3904706 8.39161502,29.1571208 8.1670571,29.1615515 L8.11731325,29.0699838 C8.76682574,28.1867988 9.6693212,29.124629 9.59115231,29.516007" id="Fill-96" fill="#000000"></path>
                <path d="M8.3963257,29.4092873 C8.19671559,29.5348236 7.9483119,29.5628847 7.74130883,29.4373484 C7.56683481,29.3162427 7.46629046,29.0917542 7.44115437,28.8879423 C7.72948008,29.0282476 8.16566513,29.1331074 8.3963257,29.4092873" id="Fill-98" fill="#FFFFFF"></path>
                <path d="M7.785061,30.5737872 C7.53665731,30.4452971 7.26163895,30.2710231 7.04576431,30.0923185 C7.34296158,30.1868399 7.63720167,30.3182838 7.785061,30.5737872" id="Fill-100" fill="#FFFFFF"></path>
                <path d="M5.66789631,25.641394 C5.89855687,25.6871778 6.00057982,26.1272934 5.83497736,26.4684569 L5.71077551,26.4684569 L5.73443301,26.2395377 C5.81575564,26.046064 5.75217613,25.9101894 5.72260426,25.8703132 L5.66789631,25.641394 Z" id="Fill-102" fill="#000000"></path>
                <path d="M13.490214,29.0543956 C13.3867125,29.2522999 12.7967537,29.6230013 12.705081,29.3512521 C12.5172996,29.7278611 12.5365213,29.8858892 12.7745748,29.8460129 C13.1057798,29.7913677 13.3541835,29.3985128 13.490214,29.0543956" id="Fill-104" fill="#FFFFFF"></path>
                <path d="M12.8178488,29.8438992 C12.8666424,29.5780576 13.1239177,29.2649552 13.271777,29.2575707 C13.2481195,29.3535691 12.9538794,29.7405164 12.8178488,29.8438992" id="Fill-106" fill="#FFFFFF"></path>
                <path d="M12.9315378,29.5251163 C12.516053,29.6255454 12.301657,30.108491 12.3164429,30.2931033 C12.4672594,30.225166 12.6225117,29.9681857 12.6565194,29.9135405 C12.6890485,29.8588953 12.7955072,29.8027732 12.9078803,29.790958 C13.0853115,29.7688045 13.1311479,29.4778556 12.9315378,29.5251163" id="Fill-108" fill="#FFFFFF"></path>
                <path d="M11.9408656,30.1691021 C12.1523045,30.3906368 12.7437418,30.1011648 12.8590721,29.5591433 C12.7585278,29.7289866 12.2809421,30.0996879 12.113861,30.0036896 C11.9556515,29.910645 11.8018778,30.0140279 11.9408656,30.1691021" id="Fill-110" fill="#FFFFFF"></path>
                <path d="M12.3377135,30.0371904 C12.0656523,30.1582961 11.7403617,30.4300453 11.7255758,30.7889315 C11.8068984,30.709179 12.1765468,30.2587251 12.3406707,30.2542944 C12.5047945,30.2528175 12.5772456,29.9293769 12.3377135,30.0371904" id="Fill-112" fill="#FFFFFF"></path>
                <path d="M10.9964002,30.9908514 C11.1117305,30.4606451 12.0358513,30.2140031 12.3167841,30.4931368 C11.793362,30.4916599 11.2876831,30.6733184 10.9964002,30.9908514" id="Fill-114" fill="#FFFFFF"></path>
                <path d="M10.9353635,30.2402669 C11.2044675,30.6951515 12.0620516,30.3200194 12.0265654,29.87695 C11.9112351,29.9877173 11.5475011,30.3613725 10.9353635,30.2402669" id="Fill-116" fill="#FFFFFF"></path>
                <path d="M10.4973897,29.6986928 C10.558012,30.4784949 11.666957,30.274683 11.8281237,29.623371 C11.7334937,29.9172737 10.5461833,29.9837341 10.4973897,29.6986928" id="Fill-118" fill="#FFFFFF"></path>
                <path d="M10.4081562,30.2363696 C10.2026317,30.3811056 10.1567953,30.4401815 10.2499467,30.5302723 C10.3874559,30.6602393 11.0143795,30.5701485 11.1770248,30.1654785 C11.077959,30.332368 10.365277,30.4224588 10.4081562,30.2363696" id="Fill-120" fill="#FFFFFF"></path>
                <path d="M10.1674366,31.1455158 C10.351914,30.6167863 11.4213282,30.5222649 11.64603,30.8397979 C11.1619502,30.7629992 10.4850707,30.8737666 10.1674366,31.1455158" id="Fill-122" fill="#FFFFFF"></path>
                <path d="M9.2318008,31.0083798 C9.49504019,30.6258633 10.5388302,30.6170019 10.7103942,30.9640729 C10.2651136,30.8163831 9.5867156,30.875459 9.2318008,31.0083798" id="Fill-124" fill="#FFFFFF"></path>
                <path d="M9.93685179,29.8786765 C9.75498481,29.7147408 9.61599703,29.8831072 9.76089918,30.030797 C9.87622946,30.1445181 10.6303121,30.5019274 10.9186378,29.8609537 C10.826965,30.0027359 10.0921041,30.0175049 9.93685179,29.8786765" id="Fill-126" fill="#FFFFFF"></path>
                <path d="M10.2529418,30.3310102 C10.3741864,30.5983288 9.89512219,31.1565962 9.3554356,30.5850367 C9.52547384,30.6278667 10.1257828,30.8361093 10.2529418,30.3310102" id="Fill-128" fill="#FFFFFF"></path>
                <path d="M8.94343788,30.1261337 C9.39440887,30.8542444 10.1529273,30.5884028 10.2165068,30.1320413 C10.1218768,30.2649621 9.46833853,30.5751107 8.94343788,30.1261337" id="Fill-130" fill="#FFFFFF"></path>
                <path d="M8.51788434,29.527951 C8.75150209,30.5927944 9.97577741,30.30923 9.99352053,29.7937926 C9.89889056,29.9267135 9.01469171,30.3047993 8.51788434,29.527951" id="Fill-132" fill="#FFFFFF"></path>
                <path d="M9.23491873,30.2313941 C9.2408331,30.8280609 8.02838653,30.6404948 8.24426116,29.9463528 C8.31079786,30.1841334 8.92589271,30.6168645 9.23491873,30.2313941" id="Fill-134" fill="#FFFFFF"></path>
                <path d="M7.72774297,29.3604343 C7.96136072,30.4252778 8.96384704,30.3573405 9.06439139,29.8655334 C8.96976141,29.9984543 8.22750753,30.1372827 7.72774297,29.3604343" id="Fill-136" fill="#FFFFFF"></path>
                <path d="M9.47963305,30.4323729 C9.45301837,30.8710115 8.63979201,30.9980248 8.6190917,30.3600049 C8.72555042,30.5446171 9.13659939,30.6952607 9.47963305,30.4323729" id="Fill-138" fill="#FFFFFF"></path>
                <path d="M8.57836477,30.1955581 C8.94505593,30.9650219 7.43984786,30.5485367 7.65720109,29.8529178 C7.74148091,30.2177116 8.68186631,30.6622579 8.57836477,30.1955581" id="Fill-140" fill="#FFFFFF"></path>
                <path d="M8.17933281,29.6997667 C8.27987716,30.4766151 7.00385107,30.1088675 7.2212043,29.4132485 C7.28626241,29.7174895 7.87326398,30.0852371 8.17933281,29.6997667" id="Fill-142" fill="#FFFFFF"></path>
                <path d="M10.6840919,22.7064847 C11.0167754,22.7847603 11.2681363,22.7566992 11.3317158,22.7877141 C11.1661133,22.976757 10.1754558,22.7434072 10.0423824,22.5292569 C10.1089191,22.4908576 10.2878289,22.6104863 10.6840919,22.7064847" id="Fill-144" fill="#000000"></path>
                <path d="M11.5362754,23.0234755 C11.8482586,23.1534425 12.1173626,23.1711653 12.1779849,23.2125185 C11.9842892,23.3735003 10.9818028,22.9540613 10.8871729,22.7192345 C10.9551882,22.6926504 11.1607126,22.8669243 11.5362754,23.0234755" id="Fill-146" fill="#000000"></path>
                <path d="M12.3657361,23.5792056 C12.6451903,23.7682485 12.9083799,23.8406165 12.9601307,23.892308 C12.7383417,24.0119367 11.8378783,23.4019778 11.7876061,23.1553359 C11.8630144,23.1435207 12.0300954,23.3517633 12.3657361,23.5792056" id="Fill-148" fill="#000000"></path>
                <path d="M12.9835954,24.2387072 C13.1979915,24.501595 13.4256948,24.646331 13.4567453,24.7098376 C13.2112988,24.7600522 12.5296673,23.9123127 12.5562819,23.6597632 C12.6316902,23.6715784 12.7292774,23.9211741 12.9835954,24.2387072" id="Fill-150" fill="#000000"></path>
                <path d="M13.4300878,25.0812765 C13.5838615,25.3810868 13.7790359,25.5686528 13.796779,25.638067 C13.5483753,25.638067 13.0456536,24.8553111 13.1668982,24.4875635 C13.2393493,24.5126708 13.2393493,24.7179596 13.4300878,25.0812765" id="Fill-152" fill="#000000"></path>
                <path d="M13.6574544,25.7745127 C13.738777,26.102384 13.8910721,26.2707504 13.8910721,26.3401646 C13.6485828,26.2796118 13.3247709,25.4628872 13.5332525,25.1350158 C13.596832,25.1778459 13.564303,25.378704 13.6574544,25.7745127" id="Fill-154" fill="#000000"></path>
                <path d="M7.11472264,30.2341213 C6.9003266,30.0524629 6.66966604,29.8250206 6.4996278,29.5990552 C6.76873179,29.7600371 7.02452845,29.9535107 7.11472264,30.2341213" id="Fill-156" fill="#FFFFFF"></path>
                <path d="M6.61759327,29.6930533 C6.5200061,29.6059163 6.45642659,29.465611 6.36031802,29.3518899 C6.26273085,29.233738 6.1178287,29.1466011 6.06016356,29.0107264 C6.35144646,29.16137 6.55697094,29.4065351 6.61759327,29.6930533" id="Fill-158" fill="#FFFFFF"></path>
                <path d="M6.58429635,29.6577601 C6.63604712,29.4288409 6.56655323,29.1172154 6.22943394,28.7996824 C6.56655323,28.89125 6.85340035,29.4509944 6.58429635,29.6577601" id="Fill-160" fill="#FFFFFF"></path>
                <path d="M6.7241151,29.3438457 C6.99026191,29.8061148 7.52403412,29.9080207 7.3732176,29.5727649 C7.33329557,29.6215025 6.99913347,29.6082105 6.7241151,29.3438457" id="Fill-162" fill="#FFFFFF"></path>
                <path d="M6.7817512,29.4918202 C6.96953256,29.6808631 7.12034909,30.0545183 7.03606926,30.2583302 C6.99614724,30.146086 6.68859982,29.2555165 6.7817512,29.4918202" id="Fill-164" fill="#FFFFFF"></path>
                <path d="M6.31382073,28.5967908 C6.35374275,29.1683503 6.96588041,29.4356689 7.07677491,29.0339526 C6.85350731,29.1196127 6.53560973,28.9172777 6.31382073,28.5967908" id="Fill-166" fill="#FFFFFF"></path>
                <path d="M6.85497369,28.8640519 C6.65832077,29.0870635 7.56469851,30.0898772 7.83675969,29.6128391 C7.62088506,29.5345636 7.097463,29.3765355 6.85497369,28.8640519" id="Fill-168" fill="#FFFFFF"></path>
                <path d="M7.44927767,28.9048803 C7.26149631,29.2445668 6.46453447,29.0053094 6.47340603,28.0541871 C6.65231583,28.373197 7.0397073,28.7778671 7.44927767,28.9048803" id="Fill-170" fill="#FFFFFF"></path>
                <path d="M6.29736351,29.5786666 C6.4126938,29.2227342 5.98538031,28.4901928 5.73993381,28.3602258 C5.83308519,28.5625608 6.24265556,29.2123959 6.29736351,29.5786666" id="Fill-172" fill="#FFFFFF"></path>
                <path d="M6.15969045,28.9750044 C6.32677151,28.7711925 6.19665529,28.3650455 6.02957424,28.2144019 C6.09906813,28.416737 6.15081889,28.8036842 6.15969045,28.9750044" id="Fill-174" fill="#FFFFFF"></path>
                <path d="M6.09617718,27.8227971 C5.75757929,28.4519557 6.63290658,29.041238 6.76597998,28.5272775 C6.51166192,28.6985976 6.17454263,28.3382345 6.09617718,27.8227971" id="Fill-176" fill="#FFFFFF"></path>
                <path d="M5.57364429,27.7141204 C5.66679567,27.9445165 5.76438283,28.5219836 5.78804033,28.7922559 C5.86197,28.6091206 5.89745624,28.0227921 5.57364429,27.7141204" id="Fill-178" fill="#FFFFFF"></path>
                <path d="M5.78145447,27.1554243 C5.70308902,28.0962083 6.23833982,28.4299873 6.40837806,27.9396571 C6.21468233,27.8953502 5.884956,27.4286504 5.78145447,27.1554243" id="Fill-180" fill="#FFFFFF"></path>
                <path d="M5.91302809,27.8404929 C5.92781402,28.3411613 5.48275741,27.9793213 5.5093721,27.2526875 C5.62470238,27.3531166 5.60991645,27.4461611 5.64392409,27.5702206 C5.67645315,27.6957569 5.70158924,27.8774153 5.91302809,27.8404929" id="Fill-182" fill="#FFFFFF"></path>
                <path d="M6.02552878,24.2671618 L6.09792115,24.3146591 C6.92120686,23.0875268 8.26685317,22.424691 9.63379134,22.424691 C10.4379144,22.424691 11.248425,22.6543796 11.9652513,23.1343152 C13.1725005,23.9431875 13.8211928,25.2716947 13.8211928,26.6299763 C13.8211928,27.4466467 13.5855628,28.2739508 13.0937205,29.0069692 C12.2718543,30.2333926 10.9240788,30.8969373 9.55785033,30.8969373 C8.7537273,30.8969373 7.94250698,30.6665398 7.22568063,30.188022 C6.01985095,29.3791497 5.36973913,28.0506425 5.36831967,26.6923609 C5.36831967,25.8749816 5.60394972,25.0476775 6.09792115,24.3146591 L6.02552878,24.2671618 L5.95313642,24.2189555 C5.44213149,24.9796216 5.19798469,25.8416626 5.19798469,26.6923609 C5.19656523,28.105229 5.87435649,29.4883227 7.12915748,30.330514 C7.87437299,30.8295903 8.72037004,31.0692037 9.55785033,31.0692037 C10.9794376,31.0692037 12.3811526,30.3780113 13.2377955,29.1019638 C13.7495102,28.3420067 13.9950764,27.4799657 13.9950764,26.6299763 C13.9950764,25.2171082 13.3165755,23.8340146 12.0610647,22.9911143 C11.316559,22.492038 10.4712716,22.2524246 9.63379134,22.2524246 C8.21291376,22.2524246 6.8097794,22.9429081 5.95313642,24.2189555 L6.02552878,24.2671618 Z" id="Fill-184" fill="#000000"></path>
                <path d="M16.9611761,21.0711591 C16.8199401,17.7817923 14.0363827,15.2296974 10.7425301,15.3714804 C7.44938723,15.5118457 4.8943626,18.2929202 5.03417922,21.5815781 C5.17683477,24.8716538 7.96039216,27.4237487 11.2542447,27.2826746 C14.5466779,27.1408916 17.1009928,24.3605259 16.9611761,21.0711591" id="Fill-186" fill="#FFFFFF"></path>
                <path d="M16.9611761,21.0711591 L17.1222846,21.06407 C16.9803388,17.776121 14.2691738,15.2048854 11.0030007,15.2048854 C10.9142845,15.2048854 10.8248587,15.2070121 10.7361425,15.2105567 C7.44228994,15.3516308 4.86952208,18.0618138 4.86952208,21.322824 C4.86952208,21.4107295 4.87094154,21.4993439 4.87519991,21.5886673 C5.01501654,24.8780341 7.72902048,27.4492697 10.9923547,27.4492697 C11.0810709,27.4492697 11.169787,27.4471429 11.2599226,27.4435984 C14.5530654,27.3018153 17.1272527,24.5909234 17.1272527,21.3299132 C17.1272527,21.2412988 17.1258333,21.1533933 17.1222846,21.06407 L16.9611761,21.0711591 L16.8000676,21.0775394 C16.8029066,21.1619003 16.8057455,21.2462612 16.8057455,21.3299132 C16.8057455,24.4193659 14.3678261,26.9877659 11.2471475,27.1217508 C11.1612702,27.1260043 11.0768125,27.1267133 10.9923547,27.1267133 C7.89935546,27.1267133 5.32800706,24.6908804 5.19670718,21.5744889 C5.19244881,21.490128 5.19102935,21.406476 5.19102935,21.322824 C5.19102935,18.2340803 7.63107787,15.6649714 10.7496274,15.5316953 C10.8355046,15.5281507 10.9199624,15.526024 11.0030007,15.526024 C14.0959999,15.526024 16.6659289,17.9625657 16.8000676,21.0782483 L16.9611761,21.0711591 Z" id="Fill-188" fill="#000000"></path>
                <path d="M12.7097571,22.8180726 L14.1883505,21.5878166 L12.7097571,22.8180726 Z" id="Fill-190" fill="#FFFFFF"></path>
                <polyline id="Fill-192" fill="#000000" points="12.7874226 22.9192451 14.1206423 21.9294977 13.9745154 21.4423471 12.642049 22.4320945"></polyline>
                <path d="M8.32384441,20.0715177 L10.3090887,22.0544856" id="Fill-194" fill="#FFFFFF"></path>
                <polyline id="Fill-196" fill="#000000" points="8.20184198 20.2176081 9.37445743 21.4412277 9.68043537 21.1879493 8.50781992 19.9643297"></polyline>
                <path d="M16.230652,23.9476537 C15.3129723,23.4833142 14.5365287,22.7495869 14.0141682,21.8187811 L13.6131712,22.0427984 C14.1802448,23.0537115 15.0262418,23.8512412 16.0227014,24.3566978 L16.230652,23.9476537 Z" id="Fill-198" fill="#BDBFC1"></path>
                <path d="M9.13311093,26.8335059 C9.72136852,25.9849343 10.0353709,25.0434949 10.0353709,24.0864593 C10.0353709,23.2704978 9.80682485,22.4446115 9.3229035,21.6584245 L8.73365223,21.8420336 C9.18180117,22.5686717 9.3914673,23.3321734 9.3914673,24.0864593 C9.39345466,24.9711855 9.10031955,25.8438602 8.55677749,26.6300472 L9.13311093,26.8335059 Z" id="Fill-200" fill="#BDBFC1"></path>
                <path d="M14.4867767,21.7390753 L14.0871993,22.1820461 L13.2362341,22.360465 C13.1091926,22.3863049 13.0204765,22.5856418 13.0353808,22.8034358 C13.0509948,23.0212298 13.1659709,23.1775001 13.2901735,23.1504297 L14.2483078,22.9510928 L14.7351819,22.4096839 C14.8416413,22.2915584 14.8735791,22.0454634 14.8040256,21.8608922 C14.7366014,21.6750906 14.5946556,21.6209497 14.4867767,21.7390753" id="Fill-202" fill="#939598"></path>
                <path d="M14.9691796,22.3355854 L14.5880551,22.7757593 L13.7413483,23.033449 C13.616436,23.0710518 13.5355269,23.2590658 13.5610771,23.4537155 C13.5844982,23.6472593 13.7051521,23.7733392 13.8300644,23.7357364 L14.7775527,23.4481857 L15.2424253,22.910687 C15.3446263,22.7934547 15.3659181,22.567838 15.2906868,22.4096851 C15.2161653,22.2515321 15.0720903,22.2183532 14.9691796,22.3355854" id="Fill-204" fill="#939598"></path>
                <path d="M15.3393033,22.8750008 L14.9801804,23.3146936 L14.1483779,23.6399866 C14.0263045,23.6877361 13.9560413,23.8648069 13.9893986,24.0359091 C14.0227559,24.2070113 14.1497974,24.307484 14.2718708,24.2607294 L15.2023256,23.8956451 L15.6416479,23.3604534 C15.7374613,23.2430694 15.7466878,23.0401343 15.6636495,22.905839 C15.5806112,22.7715436 15.4351167,22.7576167 15.3393033,22.8750008" id="Fill-206" fill="#939598"></path>
                <path d="M15.8632963,23.2213987 L15.5318528,23.6568359 L14.7199227,24.0444922 C14.6021077,24.1012884 14.541071,24.2689723 14.5850742,24.4204287 C14.6297871,24.5709836 14.7625065,24.6476133 14.881741,24.5908172 L15.7894844,24.1580845 L16.1947397,23.6270855 C16.2820364,23.5107886 16.2791975,23.3268773 16.1876424,23.215088 C16.0960874,23.1023972 15.9520124,23.1060033 15.8632963,23.2213987" id="Fill-208" fill="#939598"></path>
                <path d="M16.1880816,24.0319931 L15.2426356,24.7449538 C15.1119174,24.8429268 15.0625898,25.0742849 15.1300042,25.2607879 C15.1990628,25.4472908 15.3593776,25.5192951 15.4892737,25.4213221 L16.4355418,24.7083614 C16.5654379,24.6103883 16.6164098,24.3790302 16.5481732,24.1925273 C16.4799367,24.0060243 16.3179777,23.93402 16.1880816,24.0319931" id="Fill-210" fill="#939598"></path>
                <path d="M8.70915632,23.8870432 L9.22087097,23.7662572 L9.27197147,23.7536954 L10.0689972,22.9825973 C10.1719079,22.8821033 10.1967484,22.686913 10.1229366,22.5468012 C10.0484151,22.4057231 9.90575952,22.3728693 9.80284881,22.472397 L9.09028083,23.1623269 L8.63037639,23.2705512 C8.50688354,23.3005061 8.42242578,23.4618763 8.44442738,23.6319431 C8.46642898,23.8029761 8.584244,23.9169981 8.70915632,23.8870432" id="Fill-212" fill="#939598"></path>
                <path d="M8.49985722,23.2012953 L9.05415562,23.0264565 L9.81143653,22.244142 C9.90937914,22.143342 9.92215426,21.9613669 9.84195488,21.8382661 C9.76104576,21.7151653 9.61555131,21.6973246 9.51902815,21.7990166 L8.84336608,22.4983719 L8.38913948,22.6419895 C8.26564663,22.680347 8.19041535,22.8373451 8.2209337,22.9916671 C8.25145205,23.1459891 8.37636436,23.2396528 8.49985722,23.2012953" id="Fill-214" fill="#939598"></path>
                <path d="M8.77430945,24.6685243 L9.29028248,24.591682 L9.34138297,24.5832609 L10.1731854,23.8243115 C10.2810642,23.7253638 10.3144215,23.5158896 10.2491264,23.3558891 C10.1824119,23.1948361 10.0397564,23.1453622 9.93329701,23.2443099 L9.19163014,23.9211538 L8.72888679,23.9906277 C8.60113555,24.0095751 8.50958051,24.176944 8.52235563,24.3632603 C8.53442102,24.5506293 8.64797767,24.6874717 8.77430945,24.6685243" id="Fill-216" fill="#939598"></path>
                <path d="M8.6953166,25.5491891 L9.21128963,25.5247487 L9.26380958,25.5224211 L10.129679,24.7833919 C10.242526,24.6867944 10.2851097,24.4598484 10.2269119,24.2748002 C10.1687141,24.0909157 10.0288975,24.0187586 9.91676032,24.1153561 L9.14599456,24.7729175 L8.68254148,24.796194 C8.55549998,24.8020131 8.45542818,24.9765869 8.45968655,25.1837479 C8.46252547,25.3909088 8.56898483,25.5550082 8.6953166,25.5491891" id="Fill-218" fill="#939598"></path>
                <path d="M8.6149043,26.242848 L9.13087733,26.2925077 L9.18339728,26.2988743 L10.0790754,25.6138256 C10.1954709,25.5246929 10.2494103,25.2827612 10.1990196,25.0726626 C10.150758,24.8638373 10.0151997,24.7657913 9.89880418,24.8549241 L9.10177844,25.4661199 L8.63832536,25.4202802 C8.51199358,25.4088203 8.40411477,25.5819925 8.39701748,25.8086443 C8.39062991,26.0365694 8.48715307,26.2301148 8.6149043,26.242848" id="Fill-220" fill="#939598"></path>
                <path d="M8.54975117,26.8906294 L9.06430474,26.9707606 L9.11824415,26.9786424 L10.0217292,26.3231427 C10.1395443,26.237757 10.1977421,25.9907952 10.1523194,25.7714195 C10.1047676,25.5533575 9.97346767,25.4456401 9.85423319,25.5310258 L9.0486907,26.1155897 L8.58736681,26.0433402 C8.46103504,26.0249494 8.3503173,26.1983482 8.33896164,26.4308601 C8.32902543,26.6646856 8.42199994,26.8696114 8.54975117,26.8906294" id="Fill-222" fill="#939598"></path>
                <path d="M9.18465745,27.7079473 L9.39625318,27.6503483 L9.42207786,27.6444407 L10.1751587,27.1688796 C10.3151118,27.0787888 10.3884206,26.8055627 10.3384373,26.5574438 C10.287621,26.3093249 10.1351721,26.1793579 9.99521906,26.2664949 L9.28878921,26.7125181 L9.10301815,26.7642095 C8.95556758,26.8055627 8.85560109,27.0492508 8.87892661,27.3091849 C8.90141907,27.5705958 9.03970604,27.7493005 9.18465745,27.7079473" id="Fill-224" fill="#939598"></path>
                <path d="M14.4396507,21.6803201 L14.0414927,22.1240372 L13.1891081,22.3022615 C13.0634861,22.3280733 12.9747699,22.5259637 12.9896742,22.7447494 C13.0052883,22.9635352 13.1202644,23.118406 13.244467,23.091365 L14.2011818,22.8910163 L14.6894754,22.3501977 C14.7959347,22.2309717 14.8264531,21.9863742 14.7583191,21.8007751 C14.6894754,21.615176 14.5475295,21.5623233 14.4396507,21.6803201" id="Fill-226" fill="#F9A13A"></path>
                <path d="M14.923473,22.2768304 L14.5423485,22.717935 L13.6956417,22.9755224 C13.5707294,23.0131102 13.4898203,23.199944 13.5153706,23.3945165 C13.5387916,23.5879834 13.6594456,23.7151188 13.7843579,23.6775309 L14.7318462,23.3889888 L15.1967187,22.8528091 C15.2989197,22.7345179 15.3202116,22.5100962 15.2449803,22.3509006 C15.1704587,22.1928105 15.0263837,22.1607503 14.923473,22.2768304" id="Fill-228" fill="#F9A13A"></path>
                <path d="M15.2935967,22.8168969 L14.9344738,23.2557446 L14.1012519,23.5821438 C13.9791785,23.6299095 13.9089153,23.8080359 13.9436921,23.9782013 C13.9770493,24.150357 14.1040908,24.2498689 14.2247448,24.2021032 L15.156619,23.8368943 L15.5945219,23.3025152 C15.6903353,23.1850911 15.6995618,22.9820867 15.6165235,22.8477456 C15.5334852,22.7134045 15.3879907,22.6994728 15.2935967,22.8168969" id="Fill-230" fill="#F9A13A"></path>
                <path d="M15.8175187,23.1621512 L15.4846558,23.5976902 L14.6741452,23.985437 C14.5563302,24.0422465 14.4952935,24.2108713 14.5392967,24.3614613 C14.5840096,24.5120514 14.716729,24.588699 14.8359634,24.5318896 L15.7437069,24.0990559 L16.1489622,23.5688346 C16.2348394,23.4525105 16.23342,23.2676544 16.1418649,23.1558391 C16.0503099,23.0440237 15.9062349,23.0467289 15.8175187,23.1621512" id="Fill-232" fill="#F9A13A"></path>
                <path d="M16.1429737,23.9737911 L15.1969415,24.6867518 C15.0661423,24.7859053 15.0167841,25.016083 15.0858856,25.2025859 C15.1549871,25.3890889 15.3154012,25.4610932 15.4453778,25.3631201 L16.3905873,24.6489791 C16.5205639,24.5521864 16.5707447,24.3208283 16.5032885,24.1343253 C16.434187,23.9478224 16.2729503,23.8758181 16.1429737,23.9737911" id="Fill-234" fill="#F9A13A"></path>
                <path d="M8.66203031,23.8280382 L9.17374496,23.7072319 L9.22626491,23.694668 L10.0232907,22.9234401 C10.1262014,22.8229292 10.1510419,22.627706 10.0772301,22.4875706 C10.0027085,22.3464688 9.86005297,22.3136095 9.75714225,22.4141204 L9.04457427,23.1032 L8.58466984,23.2114425 C8.45975753,23.2414025 8.37529977,23.4027998 8.39588191,23.5728952 C8.41930297,23.7429905 8.53711799,23.8579982 8.66203031,23.8280382" id="Fill-236" fill="#F9A13A"></path>
                <path d="M8.45273121,23.1426667 L9.00844906,22.968593 L9.76572998,22.1857078 C9.86367259,22.0839417 9.87644771,21.9027265 9.79624833,21.7795359 C9.71391975,21.6563453 9.56984475,21.6384916 9.4733216,21.7393651 L8.79765953,22.4392305 L8.34201347,22.5820602 C8.21994007,22.6204457 8.14328934,22.7766656 8.17380769,22.9319929 C8.20432604,23.0864275 8.32923835,23.1801595 8.45273121,23.1426667" id="Fill-238" fill="#F9A13A"></path>
                <path d="M8.72718344,24.6105193 L9.24457592,24.5315614 L9.29567642,24.524192 L10.1274789,23.766196 C10.2353577,23.6672354 10.268715,23.4577338 10.2034199,23.2966596 C10.1367054,23.137691 9.99404982,23.0871579 9.88759046,23.1861185 L9.14592358,23.8619983 L8.68176078,23.932534 C8.55400955,23.9514839 8.4624545,24.1188747 8.47522962,24.3062682 C8.48729501,24.4936616 8.60085166,24.6294692 8.72718344,24.6105193" id="Fill-240" fill="#F9A13A"></path>
                <path d="M8.64953908,25.4901231 L9.16551211,25.4657062 L9.21945152,25.4633808 L10.0831918,24.7227354 C10.1967484,24.6262306 10.2393322,24.3995024 10.1797149,24.2146318 C10.1215172,24.0309238 9.98170053,23.9599986 9.8709828,24.0565034 L9.10021703,24.7145965 L8.6353445,24.7378506 C8.50830299,24.7436642 8.4082312,24.9169078 8.41248957,25.1250326 C8.41532849,25.3319947 8.52178785,25.4959366 8.64953908,25.4901231" id="Fill-242" fill="#F9A13A"></path>
                <path d="M8.56777829,26.1851632 L9.08517078,26.2348657 L9.13769073,26.2399634 L10.0326591,25.555598 C10.1497644,25.4663884 10.2037038,25.2229735 10.153313,25.013968 C10.1050514,24.8049626 9.96949319,24.706832 9.85309762,24.7960416 L9.05607188,25.4064905 L8.59119935,25.3618857 C8.46628703,25.3491414 8.35698876,25.522463 8.34989147,25.7505848 C8.3435039,25.9774322 8.44144652,26.1711446 8.56777829,26.1851632" id="Fill-244" fill="#F9A13A"></path>
                <path d="M8.50262516,26.8343407 L9.01859819,26.9132285 L9.0725376,26.9198024 L9.9760227,26.2637192 C10.0938377,26.1782574 10.1520355,25.9310758 10.1066128,25.7128196 C10.059061,25.4945635 9.92776112,25.3867502 9.80852664,25.4722119 L9.00298415,26.0559814 L8.5402408,25.9849824 C8.41532849,25.9678901 8.30461075,26.1427579 8.29325509,26.3754768 C8.28331888,26.6095106 8.37629339,26.8146187 8.50262516,26.8343407" id="Fill-246" fill="#F9A13A"></path>
                <path d="M9.01530854,27.6365592 L9.33125196,27.5198842 L9.34352161,27.5154535 L10.0229533,27.1137373 C10.1533183,27.0398924 10.2284699,26.771097 10.1878267,26.5185474 C10.1479503,26.2659979 10.0099168,26.1242157 9.87801811,26.2010144 L9.22312569,26.5864847 L8.92098563,26.7002059 C8.78601951,26.7489435 8.69936513,26.9985393 8.72467128,27.2584733 C8.74997743,27.5184073 8.88034243,27.6867737 9.01530854,27.6365592" id="Fill-248" fill="#F9A13A"></path>
                <path d="M5.16881483,19.4300912 C4.98854365,20.0369226 4.90124697,20.6494254 4.90124697,21.2484588 C4.90124697,23.8813701 6.56627136,26.2817572 9.20575374,27.0658174 C9.78773158,27.2380838 10.3782262,27.320318 10.960204,27.320318 C13.6160101,27.320318 16.1043202,25.6019074 16.9056044,22.9129918 C17.061035,22.3919391 17.1277496,21.8964074 17.1277496,21.4093826 C17.1277496,20.8571376 17.0418723,20.3162353 16.901346,19.7618635 L16.8183077,19.7824221 C16.9552854,20.3318314 17.0404529,20.8656446 17.0404529,21.4093826 C17.0404529,21.8886093 16.9737384,22.3749252 16.8211466,22.8881798 C16.0326376,25.538105 13.5791042,27.2338303 10.960204,27.2338303 C10.3867429,27.2338303 9.8054748,27.1523051 9.23059426,26.9814565 C6.62872751,26.2094478 4.98854365,23.8459243 4.98854365,21.2484588 C4.98854365,20.6572235 5.0730014,20.0539366 5.25185313,19.4549032 L5.16881483,19.4300912 Z" id="Fill-250" fill="#000000"></path>
                <path d="M18.10895,15.1689433 C17.9414539,11.2224121 14.6007592,8.15918927 10.6482781,8.32862002 C6.69650664,8.49734185 3.63047708,11.834206 3.80081206,15.7814461 C3.96972757,19.7293952 7.30900282,22.7912002 11.261484,22.6217695 C15.2132554,22.4523387 18.2778655,19.1161835 18.10895,15.1689433" id="Fill-252" fill="#FFFFFF"></path>
                <path d="M18.10895,15.1689433 L18.2700585,15.1618542 C18.1018527,11.2330458 14.8612298,8.16131602 10.9605589,8.1606071 C10.8548092,8.1606071 10.7483499,8.16344277 10.640471,8.16840517 C6.7078623,8.33641809 3.63189654,11.5726162 3.63189654,15.4681056 C3.63189654,15.5744429 3.63402573,15.6807802 3.6382841,15.7885353 C3.80790935,19.7180526 7.04853225,22.7890735 10.9477837,22.7890735 C11.0535334,22.7890735 11.1599927,22.7869467 11.2664521,22.7826932 C15.2018997,22.6132625 18.276446,19.3763554 18.276446,15.4801571 C18.276446,15.3745288 18.2750266,15.2689004 18.2700585,15.1618542 L18.10895,15.1689433 L17.9478415,15.1760325 C17.9520999,15.2774074 17.9549388,15.3794912 17.9549388,15.4801571 C17.9549388,19.204089 15.015241,22.3006308 11.2543867,22.4615546 C11.1500565,22.4650992 11.049275,22.4679348 10.9477837,22.4679348 C7.22028669,22.4679348 4.12089986,19.5308989 3.96121083,15.774357 C3.95766218,15.6715643 3.95482326,15.5701894 3.95482326,15.4681056 C3.95482326,11.7448827 6.89452105,8.64975863 10.6553754,8.48883487 C10.7582861,8.48458138 10.8590676,8.48245463 10.9605589,8.48245463 C14.6894754,8.48245463 17.7874427,11.4194905 17.9478415,15.1760325 L18.10895,15.1689433 Z" id="Fill-254" fill="#000000"></path>
                <path d="M3.55808472,16.3067523 C3.73125861,20.3766348 7.17628349,23.5348523 11.2501283,23.3604592 C15.3268121,23.1853571 18.4872356,19.7449913 18.3126422,15.6751088 C18.1394683,11.6052263 14.6944435,8.44700887 10.6205986,8.62140202 C6.54533435,8.79579518 3.38349137,12.2361609 3.55808472,16.3067523" id="Fill-256" fill="#FFFFFF"></path>
                <polygon id="Fill-258" fill="#000000" points="9.28857913 16.4947567 11.520677 17.470933 13.1715068 15.9432206 12.0345209 13.4613083 9.60582802 13.9079249"></polygon>
                <polygon id="Fill-260" fill="#000000" points="9.28857913 16.4947567 9.10830794 16.9030919 11.6079737 17.9969481 13.7101912 16.0509757 12.2949914 12.9593963 9.20412137 13.5286552 8.80312445 16.7698158 9.10830794 16.9030919 9.28857913 16.4947567 9.73215979 16.5493431 10.0096639 14.2879035 11.7726309 13.9632203 12.6306933 15.8347566 11.4305414 16.9449179 9.46743085 16.0857126 9.28857913 16.4947567 9.73215979 16.5493431"></polygon>
                <path d="M15.8161702,16.1225762 L17.1951738,17.931019 L17.6763701,17.7374851 C17.9687785,16.9052186 18.1156924,16.0048962 18.0745281,15.069837 C18.061753,14.7791817 18.0269763,14.4941978 17.9829731,14.2134674 L16.91696,13.8980001 L15.8161702,16.1225762 Z" id="Fill-262" fill="#000000"></path>
                <path d="M15.8161702,16.1225762 L15.6486742,16.249472 L17.1263301,18.1848106 L17.8424467,17.8955732 L17.8729651,17.8069588 C18.1419524,17.044166 18.2902858,16.2260778 18.2902858,15.3760884 C18.2902858,15.2711689 18.2888663,15.1662495 18.2853177,15.06133 C18.2711231,14.7586232 18.2349269,14.4658412 18.1895042,14.1801483 L18.1682124,14.0504169 L16.806952,13.6470441 L15.5691845,16.1466793 L15.6486742,16.249472 L15.8161702,16.1225762 L16.0049582,16.2154441 L17.0262583,14.1489561 L17.9233558,14.4147993 L17.9829731,14.2134674 L17.7750225,14.2467864 C17.8190257,14.5225544 17.8538024,14.7990314 17.8651581,15.0790529 C17.8708359,15.178301 17.8715456,15.2775492 17.8715456,15.3760884 C17.8715456,16.1771626 17.731729,16.9477535 17.4783557,17.6673025 L17.6763701,17.7374851 L17.5975902,17.5425334 L17.2647273,17.6765184 L15.9822468,15.9956803 L15.8161702,16.1225762 L16.0049582,16.2154441 L15.8161702,16.1225762 Z" id="Fill-264" fill="#000000"></path>
                <path d="M10.5625428,21.1463041 L11.4014426,22.5315245 C12.505781,22.4577974 13.5348881,22.1373677 14.4397927,21.6255308 L14.6548406,20.8237477 L12.3177028,19.6398592 L10.5625428,21.1463041 Z" id="Fill-266" fill="#000000"></path>
                <path d="M10.5625428,21.1463041 L10.3836911,21.2547682 L11.2871762,22.7491615 L11.4149274,22.7406545 C12.5519134,22.6648006 13.6108291,22.3344461 14.5434131,21.808431 L14.6200639,21.7644782 L14.9011166,20.7138658 L12.285765,19.3889032 L10.2907166,21.1030603 L10.3836911,21.2547682 L10.5625428,21.1463041 L10.6995205,21.3051011 L12.3482211,19.8893974 L14.4078549,20.9336296 L14.2375199,21.5716533 L14.4397927,21.6255308 L14.336882,21.4433396 C13.4582374,21.9395803 12.4603583,22.2507941 11.387248,22.3223945 L11.4014426,22.5315245 L11.5802943,22.4230605 L10.7413945,21.0378401 L10.5625428,21.1463041 L10.6995205,21.3051011 L10.5625428,21.1463041 Z" id="Fill-268" fill="#000000"></path>
                <path d="M5.62907413,17.5830125 L5.04567684,19.4814875 C5.48499913,20.1095865 6.01303755,20.6660849 6.62411427,21.1240442 L7.79587696,20.1847315 L7.48217671,17.5624539 L5.62907413,17.5830125 Z" id="Fill-270" fill="#000000"></path>
                <path d="M5.62907413,17.5830125 L5.42964026,17.5220458 L4.81430516,19.5176422 L4.87250294,19.6012942 C5.32389063,20.247116 5.87038201,20.8192106 6.49849223,21.2913482 L6.62837265,21.3891785 L8.01731243,20.2754726 L7.66670627,17.3511972 L5.47364346,17.3753003 L5.42964026,17.5220458 L5.62907413,17.5830125 L5.63191304,17.7928514 L7.29551797,17.7744196 L7.5723123,20.0939903 L6.49423386,20.9609937 L6.62411427,21.1240442 L6.75044605,20.9560313 C6.15853201,20.5122503 5.64397844,19.9727658 5.21743127,19.3616809 L5.04567684,19.4814875 L5.2451107,19.5431632 L5.82992745,17.6446881 L5.62907413,17.5830125 L5.63191304,17.7928514 L5.62907413,17.5830125 Z" id="Fill-272" fill="#000000"></path>
                <polyline id="Fill-274" fill="#000000" points="7.1510881 18.0406173 9.39667086 16.6738287 9.17878404 16.3158265 6.93320128 17.6826151"></polyline>
                <polyline id="Fill-276" fill="#000000" points="12.6182021 20.0143791 11.476248 16.1571712 11.0709927 16.2755601 12.2150759 20.1334769"></polyline>
                <polyline id="Fill-278" fill="#000000" points="16.3706106 16.3547197 12.5394931 15.5146104 12.5032969 16.1499872 16.3358339 16.9915084"></polyline>
                <polyline id="Fill-280" fill="#000000" points="17.0803397 17.5175796 14.1917424 20.8650774 14.4351794 21.0749164 17.323067 17.7274185"></polyline>
                <polyline id="Fill-282" fill="#000000" points="10.8536027 21.1025298 7.38231783 19.9424242 7.28437522 20.2592167 10.7535309 21.4193222"></polyline>
                <path d="M6.41501822,17.9156355 L4.42977395,13.9691043" id="Fill-284" fill="#000000"></path>
                <polyline id="Fill-286" fill="#000000" points="5.9256699 17.8637429 4.58215278 13.9179206 4.27767902 14.0207133 5.6204864 17.9672445"></polyline>
                <polyline id="Fill-288" fill="#000000" points="17.1982257 14.2281419 15.4019014 11.081976 15.1215584 11.240773 16.9178827 14.3869389"></polyline>
                <path d="M8.53023362,0.210264266 C3.52451453,0.458384606 0.10645936,4.46517365 0.310151601,9.20285432 C0.515263301,13.940535 4.52381305,17.6162606 9.26764212,17.4135108 C14.0107615,17.2100522 17.6914164,13.2060988 17.4877241,8.46770919 C17.2918389,3.87110266 13.5075635,0.198921621 8.95252241,0.198921621 C8.81270579,0.198921621 8.67217943,0.203175113 8.53023362,0.210264266" id="Fill-290" fill="#FFFFFF"></path>
            </g>
            <g id="Group-295" transform="translate(112.846921, 0.685521)">
                <mask id="mask-4" fill="white">
                    <use xlink:href="#path-3"></use>
                </mask>
                <g id="Clip-294"></g>
                <polygon id="Fill-293" fill="#FFFFFF" mask="url(#mask-4)" points="0.10645936 17.6165442 17.6914164 17.6165442 17.6914164 0.199205188 0.10645936 0.199205188"></polygon>
            </g>
            <g id="Group-311" transform="translate(112.846921, 0.685521)">
                <path d="M8.53037557,0.209768025 L8.52753665,0.165815279 C3.64105204,0.408973213 0.257773596,4.21939273 0.257773596,8.8039477 C0.257773596,8.93651485 0.260612512,9.07049984 0.267000074,9.20448482 C0.46714367,13.8407906 4.29116387,17.4654743 8.89375685,17.4654743 C9.01866916,17.4654743 9.14287175,17.4626387 9.26920352,17.4576763 C13.9101219,17.2584711 17.5389666,13.4388357 17.5389666,8.84293804 C17.5389666,8.71746004 17.5361277,8.59198204 17.532579,8.46650404 C17.3338549,3.8465033 13.5318363,0.155890465 8.95195463,0.15518155 C8.81142828,0.15518155 8.66877273,0.158726126 8.52753665,0.165815279 L8.53037557,0.209768025 L8.53321448,0.253011856 C8.67303111,0.245922703 8.81284773,0.242378127 8.95195463,0.242378127 C13.4835747,0.242378127 17.2493971,3.89612737 17.4452823,8.47004861 C17.448831,8.5948177 17.4530894,8.71887787 17.4530894,8.84293804 C17.4530894,13.3920473 13.8604408,17.1741102 9.26494515,17.3704797 C9.14003283,17.3754421 9.01724971,17.3782778 8.89375685,17.3782778 C4.33871571,17.3782778 0.551601429,13.7904576 0.354296749,9.20094025 C0.349328645,9.06766418 0.345070271,8.93509702 0.345070271,8.8039477 C0.346489729,4.26263656 3.69002335,0.494043044 8.53321448,0.253011856 L8.53037557,0.209768025 Z" id="Fill-296" fill="#000000"></path>
                <path d="M1.43031698,5.24448419 L1.42180023,5.08426934 C1.21668853,5.09419415 1.09177622,5.12467751 0.91718287,5.14807171 L0.827047278,5.16083219 L0.792980283,5.2451931 C0.346560702,6.31423731 0.0548620567,7.48182074 0.0548620567,8.71533329 C0.0548620567,8.79614963 0.0562815148,8.87696597 0.059120431,8.95849123 C0.171967352,12.4137442 1.98035701,15.134561 4.6908123,16.5233259 L4.7738506,16.5651519 L4.85121107,16.5155279 C6.56875541,15.4174181 7.81078127,13.360855 7.81362019,11.1816495 C7.81362019,11.1008331 7.81078127,11.0200168 7.80794235,10.9399094 C7.66670627,7.64983366 4.95412179,5.07859802 1.68794863,5.07859802 C1.60065196,5.07859802 1.51051637,5.08001585 1.42180023,5.08426934 L1.43031698,5.24448419 L1.43741427,5.40540795 C1.52187203,5.40186338 1.60491033,5.39973663 1.68794863,5.39973663 C4.78094789,5.39973663 7.35371575,7.83627837 7.48643509,10.9533788 C7.489274,11.0292327 7.49069346,11.1050866 7.49069346,11.1816495 C7.49353238,13.2360859 6.30544592,15.2082881 4.67803718,16.2447223 L4.7639144,16.3801251 L4.83914568,16.2369242 C2.22876218,14.8970743 0.49205516,12.2960643 0.380627697,8.94856641 C0.379917968,8.87058574 0.37849851,8.79260506 0.37849851,8.71533329 C0.37849851,7.53286264 0.655292845,6.40710521 1.08822757,5.36854436 L0.9398942,5.30757765 L0.961895801,5.46637467 C1.15565184,5.4401448 1.26282092,5.41320602 1.43741427,5.40540795 L1.43031698,5.24448419 Z" id="Fill-298" fill="#000000"></path>
                <path d="M12.4269301,0.920739138 L12.3325361,0.791007645 C10.8023602,1.90542243 9.88893894,3.68479973 9.88893894,5.690321 C9.88893894,5.78460672 9.8903584,5.88031028 9.89461677,5.97601384 C10.0358529,9.26538064 12.7484373,11.8366163 16.0146105,11.8366163 C16.1033266,11.8366163 16.1920428,11.8344895 16.2807589,11.830945 C16.524196,11.8203112 16.7626649,11.7919546 16.9947463,11.7543821 L17.0884306,11.7394949 L17.1203684,11.6508805 C17.4560702,10.7236193 17.6405998,9.72617556 17.6405998,8.68903254 C17.6405998,8.56213671 17.6377609,8.43453196 17.632083,8.3062183 C17.4865886,4.92611035 15.3616598,2.1081722 12.4950641,0.774702594 L12.4091868,0.73500334 L12.3325361,0.791007645 L12.4269301,0.920739138 L12.3587961,1.06677568 C15.1260297,2.35345687 17.1735981,5.07072906 17.3105758,8.3203966 C17.3162536,8.44374786 17.3190925,8.56709911 17.3190925,8.68903254 C17.3190925,9.68860305 17.1416602,10.6484743 16.8187335,11.5409986 L16.9691961,11.5955851 L16.9443556,11.4367881 C16.7215006,11.4729428 16.4950971,11.4998815 16.2665643,11.5098064 C16.1821066,11.5133509 16.0976488,11.5147688 16.0146105,11.5147688 C12.9216112,11.5147688 10.3488434,9.07822701 10.216124,5.96254445 C10.2118657,5.87109439 10.2104462,5.78035323 10.2104462,5.690321 C10.2104462,3.78263004 11.0741865,2.10533653 12.521324,1.05117955 L12.4269301,0.920739138 L12.3587961,1.06677568 L12.4269301,0.920739138 Z" id="Fill-300" fill="#000000"></path>
                <polyline id="Fill-302" fill="#000000" points="5.71779026 0.806887347 11.8214602 17.4316591 12.1230951 17.3210683 6.02013484 0.696296567"></polyline>
                <polyline id="Fill-304" fill="#000000" points="1.13783764 12.5268162 7.53391596 9.83860952 7.4104231 9.54299186 1.01292532 12.2311985"></polyline>
                <polyline id="Fill-306" fill="#000000" points="10.5638913 8.17641591 16.8485421 5.53641549 16.7243396 5.23938 10.438979 7.88008934"></polyline>
                <g id="Group-310">
                    <mask id="mask-6" fill="white">
                        <use xlink:href="#path-5"></use>
                    </mask>
                    <g id="Clip-309"></g>
                    <path d="M6.36513414,17.0825183 L6.40984707,16.9329372 C2.72351431,15.8404988 0.340953842,12.4667711 0.340953842,8.81373073 C0.340953842,8.01478324 0.453091035,7.20236635 0.694398916,6.39774753 C1.7880914,2.71705951 5.16498229,0.335813158 8.82008697,0.335813158 C9.62137108,0.335813158 10.4333011,0.449948514 11.2402631,0.688852957 C14.9265958,1.78200028 17.3105758,5.15360125 17.3105758,8.80664158 C17.3105758,9.60558908 17.1970191,10.4187149 16.9571307,11.2240426 C15.8620187,14.9047306 12.4865473,17.285977 8.82860372,17.285977 C8.03015852,17.285977 7.21467983,17.1718416 6.40984707,16.9329372 L6.36513414,17.0825183 L6.32042121,17.2320994 C7.15506259,17.4802198 7.99964017,17.5986086 8.82860372,17.5986086 C12.6206861,17.5986086 16.1210699,15.1294568 17.2580558,11.3133659 C17.5057513,10.4782638 17.6235663,9.63536352 17.6235663,8.80664158 C17.6235663,5.01748952 15.1508702,1.5225373 11.3303987,0.389690717 C10.4943378,0.140861462 9.65046998,0.0231815289 8.82008697,0.0231815289 C5.02729485,0.0231815289 1.5290403,2.49233337 0.393473793,6.30842421 C0.145068621,7.14281747 0.0272535961,7.9850088 0.0272535961,8.81373073 C0.0272535961,12.6028828 2.49923993,16.0992528 6.32042121,17.2320994 L6.36513414,17.0825183 Z" id="Fill-308" fill="#000000" mask="url(#mask-6)"></path>
                </g>
            </g>
        </g>
    </g>
</svg>