<?xml version="1.0" encoding="UTF-8"?>
<svg width="145px" height="55px" viewBox="0 0 145 55" version="1.1" xmlns="http://www.w3.org/2000/svg" xmlns:xlink="http://www.w3.org/1999/xlink">
    <!-- Generator: Sketch 48.2 (47327) - http://www.bohemiancoding.com/sketch -->
    <title>ford-logo</title>
    <desc>Created with Sketch.</desc>
    <defs></defs>
    <g id="Desktop" stroke="none" stroke-width="1" fill="none" fill-rule="evenodd" transform="translate(-528.000000, -1485.000000)">
        <g id="ford-logo" transform="translate(528.000000, 1485.000000)" fill-rule="nonzero">
            <path d="M72.5,0.0277522936 C32.534,0.0277522936 0.497,12.117156 0.497,27.2744495 C0.497,42.3394037 32.798,54.522156 72.5,54.522156 C112.203,54.522156 144.504,42.2985321 144.504,27.2744495 C144.504,12.2508716 112.203,0.0277522936 72.5,0.0277522936" id="Fill-1" fill="#535353"></path>
            <path d="M100.8615,33.046422 C100.883,33.171055 101.043,33.2906422 101.2,33.3476606 C101.255,33.3683486 101.286,33.4087156 101.2235,33.5388991 C100.775,34.5087156 100.363,35.0677982 99.801,35.9104587 C99.284,36.6890367 98.7015,37.2965596 97.9965,37.8808716 C96.933,38.768945 95.456,39.7357339 94.235,39.0858257 C93.6925,38.8017431 93.458,38.0357798 93.4685,37.4156422 C93.497,35.671789 94.263,33.8815138 95.6825,32.1215138 C97.413,29.9719725 99.326,28.8568349 100.5815,29.4663761 C101.8805,30.0915596 101.466,31.6093578 100.8845,32.8006881 C100.8415,32.8930275 100.8385,32.9712385 100.8615,33.046422 Z M114.801,19.4588991 C114.8945,19.2928899 114.796,19.1707798 114.588,19.1707798 C113.503,19.1707798 112.0795,19.1733028 110.949,19.1733028 C110.6795,19.1733028 110.5405,19.2066055 110.4135,19.4588991 C109.9965,20.2657339 104.911,27.9566514 103.9645,29.4502294 C103.805,29.6777982 103.6105,29.6460092 103.588,29.387156 C103.492,28.5000917 102.733,27.4803211 101.537,26.9923853 C100.6255,26.6189908 99.7345,26.5513761 98.808,26.6755046 C97.1355,26.9025688 95.6455,27.7931651 94.3355,28.7972936 C92.361,30.3120642 90.6575,32.2754128 88.4585,33.7261009 C87.258,34.5157798 85.614,35.2045413 84.514,34.1766972 C83.5185,33.2452294 83.631,31.1759174 85.154,29.5763761 C85.3145,29.4083486 85.507,29.5486239 85.4765,29.6994954 C85.333,30.4230734 85.5095,31.1426147 86.0535,31.6472018 C86.718,32.2476606 87.669,32.3162844 88.483,31.9151376 C89.4435,31.4347706 90.008,30.5073394 90.1725,29.4547706 C90.427,27.8219266 89.1815,26.3813303 87.623,26.2662844 C86.357,26.1764679 85.143,26.6210092 83.96,27.6064679 C83.367,28.1029817 83.03,28.4698165 82.517,29.2060092 C82.392,29.387156 82.2,29.4058257 82.206,29.1378899 C82.2655,27.0473853 81.408,25.8711927 79.6955,25.832844 C78.366,25.801055 76.946,26.5281651 75.839,27.4192661 C74.6255,28.4027064 73.5645,29.706055 72.427,30.9306881 C72.2855,31.0815596 72.162,31.0744954 72.1225,30.7818349 C72.0885,29.3967431 71.743,28.0550459 71.108,27.1023853 C70.883,26.7708716 70.41,26.6068807 70.0125,26.8309174 C69.829,26.9323394 69.1905,27.2285321 68.7255,27.6064679 C68.495,27.798211 68.405,28.0757339 68.507,28.4314679 C69.12,30.5007798 68.9855,32.8536697 68.1535,34.8407339 C67.3895,36.6607798 65.905,38.3022018 64.16,38.8577523 C63.0105,39.2255963 61.8155,39.0454587 61.076,38.0171101 C60.0605,36.5977064 60.4705,34.1292661 61.9845,32.0791284 C63.3205,30.2747248 65.253,29.1283028 67.1805,28.3900917 C67.407,28.301789 67.454,28.1549541 67.3895,27.9601835 C67.285,27.6402752 67.118,27.2048165 67.05,27.0060092 C66.873,26.5311927 66.378,26.4539908 65.7735,26.5205963 C64.373,26.6850917 63.1095,27.1694954 61.8615,27.8436239 C58.5935,29.6096789 56.955,33.0277523 56.237,34.8563761 C55.8915,35.7348624 55.5955,36.282844 55.2135,36.7687615 C54.698,37.4222018 54.0515,38.0171101 52.869,39.0651376 C52.762,39.1615138 52.6825,39.3618349 52.7725,39.5480275 C52.893,39.8003211 53.508,40.676789 53.6815,40.755 C53.874,40.850367 54.0975,40.717156 54.187,40.6520642 C55.0145,40.0859174 56.0045,39.1887615 56.489,38.5802294 C56.659,38.3718349 56.8335,38.459633 56.924,38.7760092 C57.376,40.4038073 58.56,41.7328899 60.197,42.288945 C63.1935,43.3087156 66.3015,41.8327982 68.6475,39.2629358 C70.1385,37.6295872 70.6765,36.5790367 71.248,35.8650459 C72.2165,34.6540367 74.127,31.9449083 76.4025,30.2055963 C77.237,29.5642661 78.2245,29.0748165 78.721,29.3997706 C79.1195,29.6601376 79.2485,30.2661468 78.609,31.4398165 C76.289,35.7151835 72.8755,40.7383486 72.2495,41.956422 C72.135,42.167844 72.235,42.3338532 72.454,42.3338532 C73.668,42.3277982 74.8715,42.3308257 75.9735,42.3308257 C76.157,42.3217431 76.239,42.2374771 76.331,42.106789 C78.1115,39.2942202 79.787,36.6173853 81.583,33.8497248 C81.6835,33.6867431 81.7765,33.8128899 81.78,33.8845413 C81.8175,34.5263761 81.9735,35.4048624 82.351,35.9816055 C83.03,37.0477982 83.992,37.5059633 85.059,37.5130275 C85.908,37.5231193 86.3375,37.3929358 87.253,37.0477982 C87.998,36.7687615 88.596,36.4029358 89.055,36.0719266 C89.323,35.8837156 89.37,36.198578 89.3635,36.2465138 C88.9515,38.4793119 89.46,41.1248624 91.659,42.2218349 C94.2905,43.5312385 97.1815,41.6910092 98.845,40.0294037 C99.008,39.8694495 99.1825,39.8861009 99.199,40.2312385 C99.2345,40.8655046 99.5185,41.6183486 100.0385,42.1451376 C101.4325,43.5569725 104.2455,42.9973853 107.0685,40.7923394 C108.881,39.3805046 110.7775,37.3858716 112.4905,35.2736697 C112.554,35.1919266 112.6015,35.0602294 112.479,34.9275229 C112.218,34.6520183 111.8405,34.3366514 111.582,34.093945 C111.464,33.9925229 111.291,34.021789 111.1915,34.0974771 C109.4355,35.7827982 107.855,37.7047706 105.5705,39.2942202 C104.8,39.8366514 103.572,40.274633 103.0205,39.5212844 C102.8055,39.2291284 102.83,38.8244495 103.042,38.2936239 C103.708,36.6173853 114.2535,20.4145872 114.801,19.4588991 Z" id="Fill-2" fill="#FFFFFF"></path>
            <path d="M65.1855,21.4136697 C65.2305,21.6543578 65.323,21.7007798 65.4315,21.6805963 C65.9685,21.5721101 66.5565,21.1255505 66.9045,20.6093578 C67.2215,20.1405963 67.37,19.463945 67.0555,19.1929817 C66.7745,18.9497706 66.3175,19.0188991 65.9785,19.3206422 C65.3035,19.9226147 65.0985,20.7763761 65.1855,21.4136697 M38.308,42.2702752 C34.376,42.2985321 30.912,39.8457339 30.5145,35.6006422 C30.2935,33.2482569 30.9525,31.1516972 32.2715,29.4244954 C33.442,27.8855046 35.4225,26.6068807 37.099,26.2945413 C37.6445,26.1931193 38.3775,26.2577064 38.6805,26.6220183 C39.156,27.1800917 39.019,27.7931651 38.544,28.0383945 C37.265,28.6973853 35.726,29.8256422 34.9645,31.3656422 C34.3465,32.623578 34.222,34.1388532 35.1655,35.5824771 C36.7445,37.9883486 41.146,38.0544495 45.2385,34.2175688 C46.252,33.2785321 47.159,32.3763303 48.081,31.3076147 C49.8835,29.2277064 50.483,28.4698165 52.879,25.1158257 C52.9075,25.0769725 52.9155,25.0260092 52.903,25.0012844 C52.883,24.9583945 52.8495,24.946789 52.78,24.9422477 C51.1805,24.9866514 49.786,25.4680275 48.4305,26.4903211 C48.04,26.7774312 47.4785,26.7370642 47.2325,26.3591284 C46.959,25.9317431 47.155,25.3741743 47.6055,25.0603211 C49.786,23.5299083 52.168,23.2523853 54.6005,22.8381193 C54.5985,22.8381193 54.7695,22.8466972 54.9085,22.6594954 C55.907,21.3667431 56.661,20.199633 57.7255,18.8922477 C58.798,17.5651835 60.1835,16.3466055 61.242,15.4312844 C62.7195,14.1491284 63.667,13.7177064 64.63,13.1883945 C64.884,13.0551835 64.5975,12.8947248 64.5205,12.8947248 C59.144,11.8754587 53.5555,10.5559633 48.216,12.5511009 C44.518,13.9437615 42.8975,16.9031651 43.677,18.8806422 C44.2315,20.2833945 46.0595,20.5114679 47.771,19.6662844 C49.1925,18.9628899 50.508,17.8305963 51.4405,16.3723394 C51.9625,15.5624771 53.0615,16.146789 52.4675,17.5525688 C50.905,21.2592661 47.92,24.1989908 44.284,24.3226147 C41.1895,24.4245413 39.193,22.127156 39.1995,19.2928899 C39.211,13.7025688 45.379,10.0200917 51.86,9.46958716 C59.665,8.81866972 67.0575,10.9167431 74.807,11.865367 C80.7445,12.5904587 86.437,12.6061009 92.405,11.2220183 C93.1105,11.0676147 93.6055,11.5222477 93.5595,12.2412844 C93.501,13.2807339 92.7035,14.2813303 90.738,15.3636697 C88.5025,16.6009174 86.164,16.9758257 83.7215,16.9960092 C77.8155,17.0454587 72.314,14.7223394 66.621,13.4739908 C66.629,13.7252752 66.6935,14.0260092 66.4845,14.1844495 C63.331,16.531789 60.4805,18.9154587 58.5715,22.2628899 C58.507,22.3405963 58.5415,22.4142661 58.653,22.4066972 C60.3105,22.3178899 61.801,22.2744954 63.3485,22.1498624 C63.619,22.127156 63.629,22.0590367 63.6055,21.8597248 C63.4685,20.7052294 63.8025,19.3897706 64.8085,18.4845413 C65.838,17.5525688 67.127,17.4466055 67.9815,18.1177064 C68.953,18.882156 68.867,20.2561468 68.336,21.2865138 C67.795,22.3320183 66.9015,22.8905963 66.044,23.1625688 C66.044,23.1625688 65.864,23.2024312 65.8905,23.3669266 C65.925,23.6308257 67.0925,24.2842661 67.1925,24.4583486 C67.289,24.6238532 67.239,24.8806881 67.0615,25.0769725 C66.9375,25.2202752 66.744,25.3544954 66.496,25.3499541 C66.296,25.3459174 66.174,25.2757798 65.918,25.1360092 C65.3935,24.8488991 64.7385,24.3781193 64.3015,23.8225688 C64.1525,23.6348624 64.077,23.6308257 63.705,23.6510092 C62.0305,23.7488991 59.4195,24.0037156 57.6505,24.2267431 C57.2215,24.2802294 57.1585,24.3614679 57.0705,24.5108257 C54.25,29.205 51.2385,34.2665138 47.932,37.6553211 C44.3855,41.2888532 41.4375,42.2455505 38.308,42.2702752" id="Fill-3" fill="#FFFFFF"></path>
            <path d="M72.4985,4.48376147 C35.731,4.48376147 5.928,14.7369725 5.928,27.2835321 C5.928,39.8311009 35.731,50.0853211 72.4985,50.0853211 C109.2655,50.0853211 139.0665,39.8311009 139.0665,27.2835321 C139.0665,14.7369725 109.2655,4.48376147 72.4985,4.48376147 Z M72.4985,52.1516055 C34.3925,52.1516055 3.502,41.0178899 3.502,27.2835321 C3.502,13.547156 34.3925,2.41495413 72.4985,2.41495413 C110.601,2.41495413 141.4895,13.547156 141.4895,27.2835321 C141.4895,41.0178899 110.601,52.1516055 72.4985,52.1516055 Z" id="Fill-4" fill="#FFFFFF"></path>
        </g>
    </g>
</svg>