<?xml version="1.0" encoding="UTF-8"?>
<svg width="207px" height="54px" viewBox="0 0 207 54" version="1.1" xmlns="http://www.w3.org/2000/svg" xmlns:xlink="http://www.w3.org/1999/xlink">
    <!-- Generator: Sketch 48.2 (47327) - http://www.bohemiancoding.com/sketch -->
    <title>lincolnmotor-logo</title>
    <desc>Created with Sketch.</desc>
    <defs></defs>
    <g id="Desktop" stroke="none" stroke-width="1" fill="none" fill-rule="evenodd" transform="translate(-104.000000, -1486.000000)">
        <g id="lincolnmotor-logo" transform="translate(104.000000, 1486.000000)" fill="#535353" fill-rule="nonzero">
            <path d="M6.57605267,0.151125 C7.22344361,0.1045 8.08183696,0.10125 8.08183696,0.10125 C8.08183696,0.10125 8.93547744,0.1045 9.58499467,0.151125 L9.58449436,0.149375 L9.58449436,0.1475 C10.3063052,0.202375 11.0623868,0.29025 11.9035197,0.416625 C13.5820333,0.66775 13.7004799,0.82775 13.9612623,2.429875 C14.5945197,6.335125 15.9119403,15.018875 16.0283856,25.520875 C16.0283856,25.522 16.0295113,25.522 16.0295113,25.523625 C16.0342642,25.9355 16.0335137,25.897125 16.0524001,27.005875 C16.0335137,28.11525 16.0342642,28.078125 16.0295113,28.489375 L16.0283856,28.491 C15.9119403,38.99425 14.5945197,47.67675 13.9612623,51.584 C13.7004799,53.185375 13.5820333,53.343625 11.9035197,53.597 C11.1473131,53.7105 10.4617741,53.791625 9.80637835,53.845125 C9.80337654,53.845125 9.80024965,53.8465 9.79587201,53.848375 C9.1437282,53.90875 8.08183696,53.91375 8.08183696,53.91375 C8.08183696,53.91375 7.02269738,53.90875 6.36680131,53.848375 C6.36517533,53.8465 6.36367442,53.8465 6.36092276,53.845125 C5.7024001,53.791625 5.01523515,53.7105 4.25540131,53.597 C2.57701279,53.343625 2.45844119,53.185375 2.1992847,51.584 C1.56552699,47.67675 0.248356599,38.99425 0.132161433,28.491 L0.130535451,28.489375 C0.125782581,28.078125 0.125782581,28.115 0.107646629,27.005875 C0.125782581,25.897125 0.125782581,25.9355 0.130535451,25.523625 C0.130535451,25.522 0.132161433,25.522 0.132161433,25.520875 C0.248356599,15.018875 1.56552699,6.335125 2.1992847,2.429875 C2.45844119,0.82775 2.57701279,0.66775 4.25540131,0.416625 C5.09816022,0.29025 5.85349134,0.202375 6.57605267,0.1475 L6.57605267,0.149375 L6.57605267,0.151125 Z M11.9430436,25.933625 C13.02995,25.995625 14.7281004,26.13325 15.5980007,26.199125 C15.527333,25.948 15.461043,25.874625 15.3492255,25.826625 C15.1233391,25.732 14.9656188,25.68575 14.6079028,25.54925 C14.4239167,25.479 14.3132249,25.41175 14.3168521,25.23575 L14.3168521,25.1525 L14.3132249,25.151125 C14.13962,14.364375 12.448724,5.9445 12.2442255,4.945875 C11.9679336,3.595 11.6222249,3.55825 10.6084877,3.428875 C10.4177475,3.40275 10.2410158,3.382125 10.0629083,3.361375 L10.0610321,3.36 C9.93370524,3.342125 9.89680796,3.30375 9.85603334,3.038 C9.77585992,2.519625 9.73083273,2.26825 9.57086113,1.29175 C9.57086113,1.29175 9.53959225,0.91425 9.13522306,0.82775 C9.45128893,9.33075 9.58336868,22.83825 9.58336868,23.60825 C9.58336868,25.26475 9.76547865,25.809 11.9430436,25.933625 Z M0.811071402,25.826625 C0.700004333,25.874625 0.634089529,25.94625 0.563046629,26.194875 C1.52812941,26.123875 3.12621944,25.995625 4.22263152,25.933625 C6.39807019,25.809 6.58068047,25.26475 6.58068047,23.60825 C6.58068047,22.884875 6.7195143,9.34375 7.03020192,0.82775 C6.62570766,0.91425 6.59318802,1.29175 6.59318802,1.29175 C6.4343421,2.26825 6.38893968,2.519625 6.30864119,3.038 C6.26774149,3.306875 6.22984361,3.342125 6.098014,3.361375 C5.91865569,3.382125 5.74179889,3.40275 5.55255962,3.428875 C4.5375717,3.55825 4.19086234,3.595 3.91694693,4.945875 C3.71157291,5.9445 2.02017654,14.364375 1.84632155,25.151125 L1.84369497,25.1525 C1.84319467,25.170375 1.84319467,25.19575 1.84319467,25.23575 C1.84632155,25.41175 1.73738077,25.479 1.55214391,25.54925 C1.1944279,25.68575 1.03620735,25.732 0.811071402,25.826625 Z M9.58336868,30.40525 C9.58336868,31.184875 9.45128893,44.7705 9.13684905,53.187 C9.53959225,53.09925 9.57086113,52.723 9.57086113,52.723 C9.73083273,51.747 9.77585992,51.49575 9.85603334,50.976875 C9.89680796,50.710875 9.93370524,50.673 10.0610321,50.6535 L10.0629083,50.652125 C10.2410158,50.63125 10.4177475,50.6105 10.6084877,50.58675 C11.6222249,50.453625 11.9679336,50.418125 12.2442255,49.067875 C12.448724,48.067125 14.13962,39.64775 14.3132249,28.86075 L14.3168521,28.86075 L14.3168521,28.776375 C14.3132249,28.6 14.4239167,28.532875 14.6079028,28.464 C14.9656188,28.328125 15.1233391,28.28175 15.3492255,28.18525 C15.461043,28.13875 15.527333,28.065375 15.5972503,27.815625 C14.5097185,27.894125 12.983672,28.01875 11.9430436,28.0795 C9.76547865,28.203 9.58336868,28.748875 9.58336868,30.40525 Z M1.84319467,28.776375 C1.84319467,28.81775 1.84319467,28.843375 1.84369497,28.86075 L1.84632155,28.86075 C2.02017654,39.64775 3.71157291,48.067125 3.91694693,49.067875 C4.19086234,50.418125 4.5375717,50.453625 5.55255962,50.58675 C5.74179889,50.6105 5.91865569,50.63125 6.098014,50.652125 L6.098014,50.6535 C6.22984361,50.673 6.26774149,50.708375 6.30864119,50.976875 C6.38893968,51.49575 6.4343421,51.747 6.59318802,52.723 C6.59318802,52.723 6.62570766,53.10275 7.0313276,53.188875 C6.71413605,44.752875 6.58068047,31.183 6.58068047,30.40525 C6.58068047,28.748875 6.39807019,28.203 4.22263152,28.0795 C3.19426053,28.020625 1.65470584,27.901875 0.56442246,27.823625 C0.634089529,28.067 0.700504635,28.13875 0.811071402,28.18525 C1.03620735,28.28175 1.1944279,28.328125 1.55214391,28.464 C1.73738077,28.532875 1.84632155,28.6 1.84319467,28.776375 Z" id="path-1"></path>
            <polygon id="Fill-4" points="31.5236176 53.206625 32.476443 53.206625 32.476443 0.81025 31.5236176 0.81025"></polygon>
            <path d="M52.7784362,22.4124757 L52.7784362,13.6049757 L55.932841,13.6049757 L55.932841,11.5737257 L47.2826174,11.5737257 L47.2826174,13.6049757 L50.4532821,13.6049757 L50.4532821,22.4124757 L52.7784362,22.4124757 Z M68.6692821,22.4124757 L68.6692821,11.5737257 L66.344128,11.5737257 L66.344128,15.8312257 L61.2222851,15.8312257 L61.2222851,11.5737257 L58.9133908,11.5737257 L58.9133908,22.4124757 L61.2222851,22.4124757 L61.2222851,17.8624757 L66.344128,17.8624757 L66.344128,22.4124757 L68.6692821,22.4124757 Z M79.9748591,22.4124757 L79.9748591,20.3812257 L74.6091189,20.3812257 L74.6091189,17.9274757 L79.8610404,17.9274757 L79.8610404,15.8962257 L74.6091189,15.8962257 L74.6091189,13.6049757 L79.9748591,13.6049757 L79.9748591,11.5737257 L72.3002247,11.5737257 L72.3002247,22.4124757 L79.9748591,22.4124757 Z M95.8381884,22.4124757 L95.8381884,20.3812257 L91.2529195,20.3812257 L91.2529195,11.5737257 L88.9440253,11.5737257 L88.9440253,22.4124757 L95.8381884,22.4124757 Z M101.257711,22.4124757 L101.257711,11.5737257 L98.9488168,11.5737257 L98.9488168,22.4124757 L101.257711,22.4124757 Z M114.612025,22.4124757 L114.612025,11.5737257 L112.303131,11.5737257 L112.303131,18.3824757 L107.278847,11.5737257 L104.904914,11.5737257 L104.904914,22.4124757 L107.213808,22.4124757 L107.213808,15.3437257 L112.38443,22.4124757 L114.612025,22.4124757 Z M123.511149,22.6074757 C125.901342,22.6074757 127.267167,21.2912257 128.047638,19.9424757 L126.063941,18.9837258 C125.608666,19.8774757 124.633077,20.5599757 123.511149,20.5599757 C121.543711,20.5599757 120.112847,19.0487257 120.112847,17.0012257 C120.112847,14.9537258 121.543711,13.4424757 123.511149,13.4424757 C124.633077,13.4424757 125.608666,14.1412258 126.063941,15.0187257 L128.047638,14.0437258 C127.283427,12.6949757 125.901342,11.3949757 123.511149,11.3949757 C120.259185,11.3949757 117.738914,13.6699758 117.738914,17.0012257 C117.738914,20.3324758 120.259185,22.6074757 123.511149,22.6074757 Z M136.068732,22.6074757 C132.800509,22.6074757 130.410315,20.2674757 130.410315,17.0012257 C130.410315,13.7349758 132.800509,11.3949757 136.068732,11.3949757 C139.353215,11.3949757 141.743409,13.7349758 141.743409,17.0012257 C141.743409,20.2674757 139.353215,22.6074757 136.068732,22.6074757 Z M136.068732,20.5599757 C138.06869,20.5599757 139.369475,19.0162258 139.369475,17.0012257 C139.369475,14.9699757 138.06869,13.4424757 136.068732,13.4424757 C134.068774,13.4424757 132.784249,14.9699757 132.784249,17.0012257 C132.784249,19.0162258 134.068774,20.5599757 136.068732,20.5599757 Z M151.76446,22.4124757 L151.76446,20.3812257 L147.179191,20.3812257 L147.179191,11.5737257 L144.870297,11.5737257 L144.870297,22.4124757 L151.76446,22.4124757 Z M164.5822,22.4124757 L164.5822,11.5737257 L162.273306,11.5737257 L162.273306,18.3824757 L157.249022,11.5737257 L154.875089,11.5737257 L154.875089,22.4124757 L157.183983,22.4124757 L157.183983,15.3437257 L162.354605,22.4124757 L164.5822,22.4124757 Z M59.7051189,42.2874757 L59.7051189,31.4487258 L56.4531552,31.4487258 L53.8190646,37.9974757 L51.1849739,31.4487258 L47.94927,31.4487258 L47.94927,42.2874757 L50.2581643,42.2874757 L50.2581643,34.6987258 L53.3150102,42.2874757 L54.3231189,42.2874757 L57.3799649,34.6987258 L57.3799649,42.2874757 L59.7051189,42.2874757 Z M68.4904241,42.4824758 C65.2222005,42.4824758 62.8320072,40.1424758 62.8320072,36.8762258 C62.8320072,33.6099757 65.2222005,31.2699758 68.4904241,31.2699758 C71.7749075,31.2699758 74.1651008,33.6099757 74.1651008,36.8762258 C74.1651008,40.1424758 71.7749075,42.4824758 68.4904241,42.4824758 Z M68.4904241,40.4349758 C70.4903818,40.4349758 71.7911673,38.8912258 71.7911673,36.8762258 C71.7911673,34.8449758 70.4903818,33.3174757 68.4904241,33.3174757 C66.4904664,33.3174757 65.2059407,34.8449758 65.2059407,36.8762258 C65.2059407,38.8912258 66.4904664,40.4349758 68.4904241,40.4349758 Z M81.7309195,42.2874757 L81.7309195,33.4799758 L84.8853244,33.4799758 L84.8853244,31.4487258 L76.2351008,31.4487258 L76.2351008,33.4799758 L79.4057655,33.4799758 L79.4057655,42.2874757 L81.7309195,42.2874757 Z M92.6137413,42.4824758 C89.3455177,42.4824758 86.9553244,40.1424758 86.9553244,36.8762258 C86.9553244,33.6099757 89.3455177,31.2699758 92.6137413,31.2699758 C95.8982247,31.2699758 98.288418,33.6099757 98.288418,36.8762258 C98.288418,40.1424758 95.8982247,42.4824758 92.6137413,42.4824758 Z M92.6137413,40.4349758 C94.613699,40.4349758 95.9144845,38.8912258 95.9144845,36.8762258 C95.9144845,34.8449758 94.613699,33.3174757 92.6137413,33.3174757 C90.6137836,33.3174757 89.3292579,34.8449758 89.3292579,36.8762258 C89.3292579,38.8912258 90.6137836,40.4349758 92.6137413,40.4349758 Z M110.195608,42.2874757 L107.545258,42.2874757 L105.415222,38.4362257 L103.724201,38.4362257 L103.724201,42.2874757 L101.415306,42.2874757 L101.415306,31.4487258 L106.48837,31.4487258 C108.748484,31.4487258 110.130569,32.9274757 110.130569,34.9424757 C110.130569,36.8599757 108.927343,37.8837258 107.756636,38.1599758 L110.195608,42.2874757 Z M106.146914,36.4049757 C107.073723,36.4049757 107.772895,35.8524758 107.772895,34.9424757 C107.772895,34.0324758 107.073723,33.4799758 106.146914,33.4799758 L103.724201,33.4799758 L103.724201,36.4049757 L106.146914,36.4049757 Z M124.286617,42.4824758 C126.676811,42.4824758 128.042635,41.1662258 128.823107,39.8174757 L126.839409,38.8587257 C126.384134,39.7524758 125.408545,40.4349758 124.286617,40.4349758 C122.319179,40.4349758 120.888315,38.9237258 120.888315,36.8762258 C120.888315,34.8287257 122.319179,33.3174757 124.286617,33.3174757 C125.408545,33.3174757 126.384134,34.0162257 126.839409,34.8937258 L128.823107,33.9187258 C128.058895,32.5699757 126.676811,31.2699758 124.286617,31.2699758 C121.034654,31.2699758 118.514382,33.5449757 118.514382,36.8762258 C118.514382,40.2074758 121.034654,42.4824758 124.286617,42.4824758 Z M136.8442,42.4824758 C133.575977,42.4824758 131.185783,40.1424758 131.185783,36.8762258 C131.185783,33.6099757 133.575977,31.2699758 136.8442,31.2699758 C140.128684,31.2699758 142.518877,33.6099757 142.518877,36.8762258 C142.518877,40.1424758 140.128684,42.4824758 136.8442,42.4824758 Z M136.8442,40.4349758 C138.844158,40.4349758 140.144944,38.8912258 140.144944,36.8762258 C140.144944,34.8449758 138.844158,33.3174757 136.8442,33.3174757 C134.844243,33.3174757 133.559717,34.8449758 133.559717,36.8762258 C133.559717,38.8912258 134.844243,40.4349758 136.8442,40.4349758 Z M157.401614,42.2874757 L157.401614,31.4487258 L154.149651,31.4487258 L151.51556,37.9974757 L148.881469,31.4487258 L145.645765,31.4487258 L145.645765,42.2874757 L147.95466,42.2874757 L147.95466,34.6987258 L151.011506,42.2874757 L152.019614,42.2874757 L155.07646,34.6987258 L155.07646,42.2874757 L157.401614,42.2874757 Z M163.357711,42.2874757 L161.048817,42.2874757 L161.048817,31.4487258 L166.12188,31.4487258 C168.479554,31.4487258 169.76408,33.0412258 169.76408,34.9424757 C169.76408,36.8274757 168.463294,38.4362257 166.12188,38.4362257 L163.357711,38.4362257 L163.357711,42.2874757 Z M165.812944,36.4049757 C166.723493,36.4049757 167.406406,35.8362257 167.406406,34.9424757 C167.406406,34.0324758 166.723493,33.4799758 165.812944,33.4799758 L163.357711,33.4799758 L163.357711,36.4049757 L165.812944,36.4049757 Z M181.606231,42.2874757 L178.97214,42.2874757 L178.305487,40.4512258 L173.655179,40.4512258 L172.972267,42.2874757 L170.338176,42.2874757 L174.533209,31.4487258 L177.427457,31.4487258 L181.606231,42.2874757 Z M177.671354,38.4199757 L175.980333,33.7562257 L174.289312,38.4199757 L177.671354,38.4199757 Z M193.822357,42.2874757 L193.822357,31.4487258 L191.513463,31.4487258 L191.513463,38.2574757 L186.489179,31.4487258 L184.115246,31.4487258 L184.115246,42.2874757 L186.42414,42.2874757 L186.42414,35.2187257 L191.594762,42.2874757 L193.822357,42.2874757 Z M202.80278,42.2874757 L202.80278,37.8512257 L206.949034,31.4487258 L204.314944,31.4487258 L201.648333,35.8037257 L198.949203,31.4487258 L196.315113,31.4487258 L200.493886,37.8512257 L200.493886,42.2874757 L202.80278,42.2874757 Z" id="THE-LINCOLN-MOTOR-CO"></path>
        </g>
    </g>
</svg>