<?xml version="1.0" encoding="UTF-8"?>
<svg width="289px" height="54px" viewBox="0 0 289 54" version="1.1" xmlns="http://www.w3.org/2000/svg" xmlns:xlink="http://www.w3.org/1999/xlink">
    <!-- Generator: Sketch 48.2 (47327) - http://www.bohemiancoding.com/sketch -->
    <title>logo-liveblue</title>
    <desc>Created with Sketch.</desc>
    <defs></defs>
    <g id="Desktop" stroke="none" stroke-width="1" fill="none" fill-rule="evenodd" transform="translate(-455.000000, -1686.000000)">
        <g id="logo-liveblue" transform="translate(455.000000, 1686.000000)">
            <path d="M243.67875,29.9524186 C243.67875,30.5225581 243.475,31.0110698 243.07,31.4154419 C242.66875,31.8185581 242.1775,32.022 241.60625,32.022 C241.0325,32.022 240.54625,31.8185581 240.14375,31.4154419 C239.7425,31.0123256 239.54375,30.523814 239.54375,29.9524186 C239.54375,29.3835349 239.745,28.9013023 240.15,28.4969302 C240.55125,28.0950698 241.0375,27.8953953 241.60625,27.8953953 C242.1775,27.8953953 242.6675,28.0950698 243.07,28.4969302 C243.475,28.8987907 243.67875,29.3835349 243.67875,29.9524186 Z M241.6075,28.1766977 C241.1175,28.1766977 240.69875,28.35 240.34875,28.6991163 C240.00375,29.0457209 239.83,29.463907 239.83,29.9536744 C239.83,30.4497209 240.0025,30.8704186 240.3475,31.2182791 C240.6925,31.5673953 241.11125,31.7419535 241.60625,31.7419535 C242.1,31.7419535 242.52125,31.5673953 242.865,31.2182791 C243.21,30.8704186 243.38375,30.4497209 243.38375,29.9536744 C243.38375,29.4651628 243.21,29.0469767 242.865,28.6991163 C242.5175,28.35 242.09875,28.1766977 241.60625,28.1766977 L241.6075,28.1766977 Z M241.56875,28.8133953 C241.84875,28.8133953 242.0575,28.8410233 242.1875,28.8962791 C242.42375,28.9929767 242.5425,29.1851163 242.5425,29.470186 C242.5425,29.6711163 242.46625,29.821814 242.31875,29.916 C242.24,29.9674884 242.13125,30.0026512 241.99125,30.0277674 C242.16875,30.0541395 242.29875,30.1294884 242.38125,30.2475349 C242.46375,30.368093 242.50375,30.4848837 242.50375,30.6004186 L242.50375,30.766186 L242.51,30.9344651 L242.53,31.0525116 L242.545,31.0788837 L242.16875,31.0788837 L242.16375,31.0550233 L242.15875,31.0311628 L242.15,30.9583256 L242.15,30.7787442 C242.15,30.5175349 242.07875,30.3429767 241.93625,30.260093 C241.85125,30.2123721 241.70375,30.1872558 241.49125,30.1872558 L241.17625,30.1872558 L241.17625,31.0776279 L240.775,31.0776279 L240.775,28.8133953 L241.57125,28.8133953 L241.56875,28.8133953 Z M242.15125,29.5015814 C242.15125,29.3383256 242.10125,29.227814 242,29.1713023 C241.9,29.1135349 241.74,29.0846512 241.51375,29.0846512 L241.17375,29.0846512 L241.17375,29.9072093 L241.535,29.9072093 C241.705,29.9072093 241.8325,29.8896279 241.91625,29.8557209 C242.07375,29.794186 242.15125,29.6761395 242.15125,29.5015814 Z M278.17875,29.9524186 C278.17875,30.5225581 277.97625,31.0110698 277.57,31.4154419 C277.16875,31.8185581 276.68,32.022 276.10875,32.022 C275.53375,32.022 275.04625,31.8185581 274.645,31.4154419 C274.245,31.0123256 274.045,30.523814 274.045,29.9524186 C274.045,29.3835349 274.2475,28.9013023 274.65,28.4969302 C275.0525,28.0950698 275.5375,27.8953953 276.10875,27.8953953 C276.68,27.8953953 277.16875,28.0950698 277.57,28.4969302 C277.97625,28.8987907 278.17875,29.3835349 278.17875,29.9524186 Z M276.10875,28.1766977 C275.6175,28.1766977 275.19875,28.35 274.85,28.6991163 C274.50375,29.0457209 274.33,29.463907 274.33,29.9536744 C274.33,30.4497209 274.5025,30.8704186 274.8475,31.2182791 C275.19125,31.5673953 275.61125,31.7419535 276.1075,31.7419535 C276.6,31.7419535 277.01875,31.5673953 277.365,31.2182791 C277.7125,30.8704186 277.88625,30.4497209 277.88625,29.9536744 C277.88625,29.4651628 277.71375,29.0469767 277.365,28.6991163 C277.0175,28.35 276.59875,28.1766977 276.1075,28.1766977 L276.10875,28.1766977 Z M276.06875,28.8133953 C276.35,28.8133953 276.5575,28.8410233 276.6875,28.8962791 C276.92375,28.9929767 277.0425,29.1851163 277.0425,29.470186 C277.0425,29.6711163 276.9675,29.821814 276.82,29.916 C276.74,29.9674884 276.63125,30.0026512 276.4925,30.0277674 C276.6675,30.0541395 276.79875,30.1294884 276.88125,30.2475349 C276.96375,30.368093 277.005,30.4848837 277.005,30.6004186 L277.005,30.766186 L277.01,30.9344651 L277.03,31.0525116 L277.045,31.0788837 L276.66875,31.0788837 L276.665,31.0550233 L276.65875,31.0311628 L276.65125,30.9583256 L276.65125,30.7787442 C276.65125,30.5175349 276.58,30.3429767 276.4375,30.260093 C276.35375,30.2123721 276.20375,30.1872558 275.9925,30.1872558 L275.6775,30.1872558 L275.6775,31.0776279 L275.2775,31.0776279 L275.2775,28.8133953 L276.0725,28.8133953 L276.06875,28.8133953 Z M276.65,29.5015814 C276.65,29.3383256 276.6,29.227814 276.5,29.1713023 C276.4,29.1135349 276.23875,29.0846512 276.015,29.0846512 L275.67375,29.0846512 L275.67375,29.9072093 L276.03375,29.9072093 C276.20375,29.9072093 276.33375,29.8896279 276.41625,29.8557209 C276.57375,29.794186 276.65,29.6761395 276.65,29.5015814 Z M212.37625,50.240093 L213.945,50.240093 L213.9425,50.5553023 L208.86375,50.5553023 L208.86375,50.240093 L210.225,50.240093 L207.31625,44.9204651 L206.14625,44.9204651 L206.14625,50.240093 L207.67875,50.240093 L207.67875,50.5553023 L202.8925,50.5553023 L202.8925,50.240093 L204.3725,50.240093 L204.3725,40.2312558 L202.8925,40.2312558 L202.8925,39.9160465 L207.67875,39.9160465 L207.67875,40.2312558 L206.14625,40.2312558 L206.14625,44.5311628 L207.24875,44.5311628 L210.04,40.2312558 L208.5575,40.2312558 L208.5575,39.9160465 L212.01625,39.9160465 L212.01625,40.2312558 L210.605,40.2312558 L208.50375,43.3946512 L212.37625,50.240093 Z M219.15625,47.1658605 C219.15625,48.0763256 219.065,48.667814 218.865,49.0772093 C218.51625,49.7465581 217.865,50.1898605 217.21125,50.1898605 C216.44,50.1898605 216.09375,49.7026047 216.09625,48.5698605 C216.09625,47.898 216.2275,47.4371163 216.55875,47.1306977 C216.86875,46.8129767 217.15875,46.7049767 218.21,46.4487907 C218.5875,46.3508372 218.80875,46.2867907 219.1575,46.1737674 L219.1575,47.1646047 L219.15625,47.1658605 Z M222.02,50.2313023 L221.62875,50.240093 C220.84,50.240093 220.71625,50.004 220.71625,48.4392558 L220.71625,45.6237209 C220.71625,44.6203256 220.62625,44.2473488 220.3225,43.8894419 C219.9075,43.3946512 219.04875,43.1196279 217.915,43.1196279 C216.04125,43.1246512 214.94125,43.7575814 214.94125,44.8463721 C214.94125,45.2570233 215.16625,45.4152558 215.695,45.4152558 C216.22875,45.4152558 216.46875,45.2281395 216.505,44.8162326 C216.54375,44.0602326 216.54375,44.0602326 216.69125,43.8542791 C216.90625,43.5830233 217.29125,43.4386047 217.81125,43.4386047 C218.46625,43.4386047 218.8775,43.6571163 219.0175,44.0740465 C219.09875,44.347814 219.1375,44.7647442 219.155,45.7982791 C218.46625,46.0130233 217.93375,46.1574419 217.52125,46.2365581 C215.71125,46.5856744 215.71125,46.5856744 215.2525,46.8267907 C214.665,47.1294419 214.335,47.736 214.335,48.566093 C214.335,49.9236279 215.07625,50.6545116 216.4675,50.6545116 C217.67125,50.6545116 218.46625,50.287814 219.0475,49.4614884 C219.155,50.1609767 219.685,50.5540465 220.5225,50.5540465 L221.19625,50.5540465 C221.85125,50.5540465 221.85125,50.5540465 222.02,50.5402326 L222.02,50.2287907 L222.02,50.2313023 Z M225.88125,44.6667907 C226.2125,44.1079535 226.415,43.902 226.8325,43.6483256 C227.36375,43.3155349 228.05625,43.1196279 228.7525,43.1196279 C229.68625,43.1196279 230.37375,43.47 230.64875,44.1192558 C230.85625,44.5512558 230.85625,44.5512558 230.85625,45.7292093 L230.85625,50.240093 L232.1325,50.240093 L232.1325,50.5553023 L227.94125,50.5553023 L227.94125,50.240093 L229.25,50.240093 L229.25,45.724186 C229.25,44.1694884 228.9625,43.6395349 228.09625,43.6395349 C227.3,43.6395349 226.575,44.1066977 226.1675,44.853907 C225.85125,45.4730233 225.78625,45.8535349 225.78625,47.3228372 L225.78625,50.2388372 L227.13875,50.2388372 L227.14125,50.5540465 L222.71125,50.5540465 L222.71125,50.2388372 L224.15375,50.2388372 L224.15375,43.6031163 L222.72875,43.6081395 L222.72875,43.287907 L223.5375,43.287907 C224.15625,43.287907 225.42875,43.2263721 225.88125,43.179907 L225.88125,44.6655349 L225.88125,44.6667907 Z M238.24375,45.4742791 L237.81875,45.4742791 C237.68125,44.2473488 236.9575,43.5302791 235.875,43.5302791 C235.04875,43.5302791 234.45875,43.9735814 234.45875,44.6140465 C234.45875,45.2394419 234.8425,45.4918605 236.32125,45.9577674 C238.16375,46.5153488 238.865,47.1708837 238.865,48.3212093 C238.865,49.693814 237.61125,50.6808837 235.88625,50.6808837 C235.06375,50.6808837 234.47625,50.5854419 233.0825,50.240093 L233.0825,47.8477674 L233.55125,47.8477674 C233.61875,49.4928837 234.375,50.3053953 235.875,50.3053953 C236.9275,50.3053953 237.64875,49.7942791 237.64875,49.0294884 C237.64875,48.3714419 237.195,47.9771163 236.06375,47.6091628 C234.91125,47.2449767 234.37625,47.013907 234.01375,46.6999535 C233.57,46.3294884 233.345,45.8522791 233.345,45.2444651 C233.345,44.0326047 234.44625,43.1196279 235.9075,43.1196279 C236.6475,43.1196279 237.14625,43.233907 238.24375,43.6093953 L238.24375,45.4742791 Z M244.89125,47.1658605 C244.89125,48.0763256 244.80625,48.667814 244.59875,49.0797209 C244.25875,49.7465581 243.605,50.1898605 242.9525,50.1898605 C242.17625,50.1898605 241.8325,49.7026047 241.8325,48.566093 C241.8325,47.898 241.96875,47.4358605 242.3,47.128186 C242.60375,46.8129767 242.9025,46.7037209 243.94625,46.4487907 C244.32625,46.3508372 244.55125,46.2867907 244.8925,46.1737674 L244.8925,47.1646047 L244.89125,47.1658605 Z M247.75875,50.2313023 L247.36375,50.240093 C246.5725,50.240093 246.4525,50.004 246.4525,48.4392558 L246.4525,45.6237209 C246.4525,44.6203256 246.365,44.2473488 246.055,43.8894419 C245.645,43.3921395 244.78625,43.1196279 243.655,43.1196279 C241.77875,43.1196279 240.6825,43.7575814 240.6825,44.8463721 C240.6825,45.2620465 240.9,45.4152558 241.43625,45.4152558 C241.9675,45.4152558 242.21125,45.2281395 242.23875,44.8162326 C242.28,44.0602326 242.28,44.0602326 242.43625,43.8542791 C242.635,43.5830233 243.03625,43.4386047 243.55,43.4386047 C244.20375,43.4386047 244.6175,43.6571163 244.75125,44.0740465 C244.83875,44.347814 244.87875,44.7672558 244.89125,45.8020465 C244.20375,46.0117674 243.675,46.156186 243.25625,46.2302791 C241.4525,46.5844186 241.4525,46.5844186 240.99,46.8217674 C240.40375,47.128186 240.0775,47.736 240.0775,48.566093 C240.0775,49.9236279 240.81875,50.6545116 242.21125,50.6545116 C243.41,50.6545116 244.20375,50.287814 244.7875,49.4614884 C244.8925,50.1609767 245.4275,50.5540465 246.2625,50.5540465 L246.93625,50.5540465 C247.59125,50.5540465 247.59125,50.5540465 247.76,50.5402326 L247.76,50.2287907 L247.75875,50.2313023 Z M253.77,45.4742791 L253.33625,45.4742791 C253.2,44.2473488 252.47625,43.5302791 251.39125,43.5302791 C250.5675,43.5302791 249.97875,43.9735814 249.97875,44.6140465 C249.97875,45.2394419 250.3625,45.4918605 251.845,45.9577674 C253.68375,46.5203721 254.38875,47.1708837 254.3875,48.3212093 C254.3875,49.693814 253.1275,50.6808837 251.40875,50.6808837 C250.585,50.6808837 249.99875,50.5854419 248.6075,50.240093 L248.6075,47.8477674 L249.07,47.8477674 C249.13625,49.4928837 249.89625,50.3053953 251.39125,50.3053953 C252.44375,50.3053953 253.165,49.7942791 253.165,49.0294884 C253.165,48.3714419 252.72,47.9771163 251.5825,47.6091628 C250.4325,47.2449767 249.89625,47.013907 249.5375,46.6999535 C249.09,46.3294884 248.86125,45.8522791 248.86125,45.2444651 C248.86125,44.0326047 249.96625,43.1196279 251.4275,43.1196279 C252.16875,43.1196279 252.6675,43.233907 253.77125,43.6056279 L253.77125,45.4755349 L253.77,45.4742791 Z M269.3525,43.3733023 L268.8525,43.3733023 C268.8275,42.2543721 268.5975,41.6766977 267.9625,41.0563256 C267.3625,40.4623256 266.555,40.1571628 265.62375,40.1571628 C264.42,40.1571628 263.38375,40.6368837 262.795,41.472 C262.2825,42.2367907 262.0425,43.3733023 262.0425,45.1490233 C262.0425,47.229907 262.30125,48.4493023 262.92125,49.2166047 C263.49875,49.929907 264.3825,50.3179535 265.4175,50.3179535 C267.3775,50.3179535 268.66875,48.9767442 268.8525,46.7150233 L269.3525,46.7150233 L269.35,49.6875349 C267.82,50.4309767 266.63625,50.7286047 265.31125,50.7286047 C262.0425,50.7286047 259.94625,48.6226047 259.94625,45.326093 C259.94625,41.9165581 262.1425,39.7427442 265.585,39.7427442 C266.7925,39.7427442 267.82125,39.9675349 269.3525,40.5565116 L269.3525,43.3720465 L269.3525,43.3733023 Z M274.04125,40.9081395 C274.04125,41.3891163 273.6075,41.7872093 273.09625,41.7872093 C272.56,41.7872093 272.1475,41.3891163 272.1475,40.8955814 C272.1475,40.4183721 272.57875,40.034093 273.10875,40.034093 C273.60875,40.0378605 274.04,40.4296744 274.04,40.9081395 L274.04125,40.9081395 Z M272.31,43.6056279 L270.92,43.6106512 L270.92,43.2904186 L271.55125,43.2904186 C272.17625,43.2904186 273.4125,43.2288837 273.895,43.1824186 L273.895,50.2413488 L275.21875,50.2413488 L275.21875,50.5565581 L270.865,50.5565581 L270.865,50.2413488 L272.31,50.2413488 L272.31,43.6056279 Z M278.165,41.2924186 L278.165,43.220093 L279.9275,43.220093 L279.9275,43.6797209 L278.1725,43.6834884 L278.16625,48.2383256 C278.16625,49.1475349 278.1875,49.423814 278.28875,49.6712093 C278.3925,49.9512558 278.725,50.1760465 279.0275,50.1760465 C279.55,50.1760465 279.92875,49.8909767 280.18125,49.2982326 L280.525,49.4250698 C280.11125,50.3028837 279.495,50.6821395 278.43125,50.6821395 C277.52,50.6821395 276.9525,50.4284651 276.73375,49.9186047 C276.575,49.5958605 276.5575,49.3446977 276.5575,47.9871628 L276.5625,43.686 L275.39375,43.686 L275.39375,43.2226047 L276.5625,43.2226047 L276.5575,41.2949302 L278.1675,41.2949302 L278.165,41.2924186 Z M287.16,43.6093953 L285.78125,43.6093953 L285.78125,43.2891628 L288.865,43.2891628 L288.8625,43.6093953 L287.62625,43.6043721 L284.94125,51.5072093 C284.32,53.3130698 283.7175,53.9108372 282.5275,53.9108372 C281.61,53.9108372 280.9825,53.426093 280.9825,52.6864186 C280.9825,52.2054419 281.27625,51.9040465 281.74125,51.9090698 C282.22625,51.9090698 282.42875,52.1577209 282.42875,52.7642791 C282.445,53.2452558 282.60125,53.4336279 282.9975,53.4336279 C283.65,53.4336279 284.115,52.8132558 284.61125,51.2535349 L284.83875,50.5666047 L281.56875,43.6031163 L280.4025,43.6081395 L280.4025,43.287907 L284.73375,43.287907 L284.73625,43.6081395 L283.305,43.6031163 L285.5125,48.5183721 L287.16,43.6068837 L287.16,43.6093953 Z M0.04875,0.0226046512 L4.4825,0.0226046512 L4.4825,28.2809302 L19.53125,28.2809302 L19.53125,32.2543256 L0.05,32.2543256 L0.05,0.0226046512 L0.04875,0.0226046512 Z M23.425,0.111767442 L28.48625,0.111767442 L28.48625,4.71055814 L23.425,4.71055814 L23.425,0.111767442 Z M23.8725,9.84306977 L28.08125,9.84306977 L28.08125,32.2530698 L23.8725,32.2530698 L23.8725,9.84306977 Z M32.87375,9.84432558 L37.575,9.84432558 L44.74125,27.6128372 L51.7275,9.84432558 L56.385,9.84432558 L46.5325,32.2543256 L42.2775,32.2543256 L32.87375,9.84432558 Z M61.93625,21.8059535 C61.84625,26.4524651 63.7725,29.8883721 68.38625,29.8883721 C71.1175,29.8883721 73.3125,28.4592558 73.67125,25.2431163 L77.87875,25.2431163 C77.74625,26.3607907 77.56625,28.1905116 75.955,29.9323256 C74.96875,31.0474884 72.72875,32.9236744 68.20625,32.9236744 C61.13,32.9236744 57.77125,28.5496744 57.77125,21.4493023 C57.77125,17.030093 58.6675,13.3681395 62.20625,10.9130233 C64.355,9.396 67.04125,9.26288372 68.34125,9.26288372 C78.4175,9.26288372 78.19375,18.1465116 78.105,21.8046977 L61.93625,21.8046977 L61.93625,21.8059535 Z M73.805,18.8610698 C73.84875,16.7186512 73.4475,12.2554884 68.25,12.2554884 C65.51875,12.2554884 62.20625,13.9068837 62.115,18.8610698 L73.80375,18.8610698 L73.805,18.8610698 Z M199.16,10.6706512 C199.13875,10.388093 198.9875,10.2486977 198.695,10.2486977 C198.47125,10.2486977 198.24875,10.3642326 198.24875,10.6078605 C198.24875,10.9117674 198.52,10.9469302 198.76125,11.0034419 C199.18875,11.1126977 199.82,11.2332558 199.82,11.7958605 C199.82,12.4903256 199.2125,12.7326977 198.61,12.7326977 C197.9675,12.7326977 197.51125,12.4840465 197.52875,11.7757674 L198.1475,11.7757674 C198.1225,12.0872093 198.30125,12.2969302 198.61875,12.2969302 C198.8575,12.2969302 199.1775,12.2215814 199.1775,11.9226977 C199.1775,11.5924186 198.77625,11.569814 198.535,11.5082791 C198.1425,11.4103256 197.60375,11.232 197.60375,10.7346977 C197.60375,10.0942326 198.195,9.81167442 198.77375,9.81167442 C199.3175,9.81167442 199.74375,10.1055349 199.74375,10.6681395 L199.16,10.6681395 L199.16,10.6706512 Z M202.075,12.6736744 L201.57375,12.6736744 L200.83,10.2687907 L200.8225,10.2750698 L200.8225,12.6736744 L200.25875,12.6736744 L200.25875,9.87195349 L201.2475,9.87195349 L201.835,11.9088837 L201.84375,11.9088837 L202.48125,9.87195349 L203.435,9.87195349 L203.435,12.6736744 L202.87125,12.6736744 L202.87125,10.2750698 L202.86,10.2687907 L202.075,12.6736744 Z M84.475,0.0665581395 L103.51,0.0665581395 C112.1075,0.0665581395 115.55625,3.9055814 115.55625,8.01334884 C115.55625,11.6740465 112.87,14.5310233 108.705,15.5570233 L108.705,15.6474419 C113.7225,16.0932558 116.94375,19.1737674 116.94375,23.2802791 C116.94375,27.6555349 113.81,32.2982791 103.5525,32.2982791 L84.47375,32.2982791 L84.47375,0.0665581395 L84.475,0.0665581395 Z M93.61125,13.2362791 L99.47875,13.2362791 C103.51,13.2362791 105.88375,12.1198605 105.88375,9.6207907 C105.88375,6.94088372 103.8675,6.04925581 100.24,6.04925581 L93.61,6.04925581 L93.61,13.2375349 L93.61125,13.2362791 Z M93.61125,26.3168372 L102.0325,26.3168372 C104.9875,26.3168372 107.2725,25.5118605 107.2725,22.6548837 C107.2725,19.9762326 104.81,18.9502326 102.48,18.9502326 L93.61125,18.9502326 L93.61125,26.3155814 L93.61125,26.3168372 Z M122.0475,0.0665581395 L130.64625,0.0665581395 L130.64625,32.2982791 L122.0475,32.2982791 L122.0475,0.0665581395 Z M164.77125,27.6994884 C164.77125,29.1286047 164.81625,30.78 164.95,32.2970233 L156.62,32.2970233 C156.53,30.9570698 156.4425,29.6196279 156.4425,28.2796744 L156.35,28.2796744 C154.11125,31.2685116 150.7525,33.1446977 146.81,33.1446977 C138.61625,33.1446977 135.52625,28.5032093 135.52625,22.6536279 L135.52625,9.88827907 L144.125,9.88827907 L144.125,21.3613953 C144.125,24.9316744 145.69125,27.432 149.59,27.432 C153.12625,27.432 156.1725,24.7093953 156.1725,19.7539535 L156.1725,9.88953488 L164.7725,9.88953488 L164.7725,27.7007442 L164.77125,27.6994884 Z M177.03875,23.1911163 C177.21875,26.6722326 179.27875,28.5044651 182.905,28.5044651 C186.66625,28.5044651 187.34,26.9849302 187.78625,25.467907 L196.92375,25.467907 C195.1325,32.5657674 188.99625,33.1459535 182.7725,33.1459535 C174.98125,33.1459535 168.1725,30.2889767 168.1725,21.4493023 C168.1725,12.7892093 174.9325,9.03934884 182.63625,9.03934884 C193.61,9.03934884 197.3725,14.4406047 197.4175,23.1911163 L177.03875,23.1911163 Z M188.28,18.5471163 C188.1925,14.8864186 185.7725,13.682093 182.7275,13.682093 C178.74,13.682093 177.57625,16.2276279 177.1725,18.5471163 L188.28,18.5471163 Z M246.4475,9.2427907 L237.5225,9.2427907 L237.52375,0.349116279 L223,0.349116279 L223,9.2427907 L214.075,9.2427907 L214.075,23.719814 L223,23.719814 L223,32.6197674 L237.5225,32.6197674 L237.52375,23.719814 L246.44875,23.719814 L246.44875,9.2427907 L246.4475,9.2427907 Z M275.57375,0.0866511628 C275.57375,0.0866511628 272.40375,2.58195349 264.22625,2.57944186 L264.22625,2.58446512 C256.135,2.56562791 252.99125,0.0992093023 252.99125,0.0992093023 C244.525,21.9528837 264.14125,32.7591628 264.33125,32.8646512 L264.33875,32.8696744 L264.33875,32.8608837 C264.52875,32.7553953 284.04375,21.9340465 275.57375,0.0866511628 Z M264.255,29.4149302 C278.835,18.5044186 273.71625,4.39534884 273.71625,4.39534884 C273.71625,4.39534884 265.835,7.61274419 254.93,4.39534884 C254.93,4.39534884 250.12875,18.5320465 264.7075,29.4425581 L264.255,29.4149302 Z" id="Shape" fill="#535353" fill-rule="nonzero"></path>
            <path d="M264.255,29.4149302 C278.835,18.5044186 273.71625,4.39534884 273.71625,4.39534884 C273.71625,4.39534884 265.835,7.61274419 254.93,4.39534884 C254.93,4.39534884 250.12875,18.5320465 264.7075,29.4425581" id="Shape" stroke="#FFFFFF" stroke-width="0.87375"></path>
            <path d="M262.83625,8.50060465 C262.83625,8.50060465 260.94,7.71823256 259.94,9.27418605 C258.94125,10.8313953 259.44,13.3794419 263.22125,13.8202326 C267.005,14.2660465 265.725,15.153907 265.725,15.153907 L265.555,16.7575814 C265.555,16.7575814 267.8975,16.9321395 267.8975,14.3753023 C267.895,12.4903256 265.2275,12.2165581 265.2275,12.2165581 C265.2275,12.2165581 260.9975,12.3295814 261.2775,10.6066047 C261.2775,10.6066047 261.165,9.82423256 262.775,10.5513488 C262.775,10.5513488 264.335,10.7698605 263.44125,10.1670698 C263.44125,10.1670698 261.9975,9.65846512 263.5,9.65846512 C263.5,9.65846512 263.725,10.0075814 264.3925,9.39725581 C264.3925,9.39725581 264.11,8.82837209 263.27875,8.61111628 C263.27875,8.61111628 263.6125,9.38972093 262.8325,9.05693023 C262.8325,9.05693023 262.0575,8.66386047 262.8375,8.50186047 M265.55375,20.9746047 C265.55375,20.9746047 267.725,20.5325581 267.17375,18.920093 C266.6175,17.3151628 264.39125,17.4294419 264.39125,17.4294419 C264.39125,17.4294419 262.9975,17.5336744 263.3375,16.8166047 C263.3375,16.8166047 263.165,15.7064651 262.71875,15.6499535 C262.71875,15.6499535 261.27625,16.5365581 262.05625,17.6994419 C262.835,18.8673488 263.6675,18.8221395 264.39125,18.9276279 C265.1125,19.0356279 266.5025,19.3621395 265.44875,20.0264651 C265.44875,20.0264651 265.22625,20.6380465 265.55375,20.9746047 M263.7775,20.9746047 L263.7775,20.3052558 C263.7775,20.3052558 263.72375,19.6974419 263.165,20.0867442 C262.61,20.4773023 261.77625,21.6389302 263.5,22.5267907 C265.2275,23.4133953 265.7825,23.746186 265.28,24.1342326 L265.39,24.6842791 C265.39,24.6842791 266.67375,24.8550698 266.50375,23.3606512 C266.34,21.8612093 264.3925,21.6477209 264.3925,21.6477209 C264.3925,21.6477209 263.5525,21.4668837 263.77875,20.9733488 M263.835,24.7433023 C263.835,24.7433023 262.44125,25.4666512 263.3375,26.4122791 C263.3375,26.4122791 263.55125,26.7400465 263.72375,25.9664651 C263.72375,25.9664651 263.7775,25.5771628 263.945,25.4113953 L263.835,24.7420465 M264.22125,23.3631628 L264.22125,26.5177674 C264.22125,26.5177674 264.27625,27.182093 264.66625,27.1783256 C265.05375,27.1833488 265.1125,26.4135349 265.1125,26.4135349 L265.1125,23.8566977 C265.1125,23.8566977 264.83375,23.4686512 264.22,23.3631628 M264.00375,19.2566512 L264.00375,21.0813488 C264.00375,21.0813488 264.165,21.417907 265.22,21.5271628 L265.225,19.4224186 L264.0025,19.2566512 M263.8925,17.0401395 L265.2275,17.1493953 L265.555,14.9303721 C265.555,14.9303721 265.56,14.3753023 264.725,14.3753023 L263.5,14.1555349 C263.5,14.1555349 262.8325,14.539814 263.11,15.369907 C263.39,16.2050233 263.8925,17.0388837 263.8925,17.0388837 M263.49875,10.8828837 L263.49875,11.6049767 C263.49875,11.6049767 264.55625,11.9415349 265.505,11.9415349 L265.66625,11.6049767 C265.66625,11.6049767 267.50625,9.99502326 267.8925,9.60697674 C268.28125,9.22269767 267.7775,8.44032558 267.0575,8.77186047 C267.0575,8.77186047 265.88875,9.49646512 265.66625,9.5492093 L265.4475,8.22181395 C265.4475,8.22181395 263.4975,7.33395349 263.44125,8.0547907 C263.44125,8.0547907 263.27625,8.0547907 264.21875,8.66260465 C264.21875,8.66260465 265.05375,9.54544186 264.7225,9.72 C264.39125,9.8907907 264.10625,9.93976744 263.89,9.93976744 C263.66625,9.93976744 264.61125,10.7171163 263.4975,10.8841395 M230.42375,8.74925581 C228.5075,8.74423256 229.845,10.9092558 229.845,10.9092558 C230.675,12.7402326 229.015,12.6523256 229.015,12.6523256 L223.94625,12.6523256 L223.6875,13.155907 L228.0125,13.986 C228.0125,13.986 230.01375,13.986 228.6775,16.5679535 L225.7775,22.4476744 L226.28125,22.8633488 L229.34625,18.3110233 C229.34625,18.3110233 229.76,17.2335349 230.515,17.2335349" id="Shape" fill="#FFFFFF" fill-rule="nonzero"></path>
            <path d="M230.42375,8.74925581 C228.5075,8.74423256 229.845,10.9092558 229.845,10.9092558 C230.675,12.7402326 229.015,12.6523256 229.015,12.6523256 L223.94625,12.6523256 L223.6875,13.155907 L228.0125,13.986 C228.0125,13.986 230.01375,13.986 228.6775,16.5679535 L225.7775,22.4476744 L226.28125,22.8633488 L229.34625,18.3110233 C229.34625,18.3110233 229.76,17.2335349 230.515,17.2335349" id="Shape" stroke="#FFFFFF" stroke-width="1.83875"></path>
            <path d="M230.42375,8.74925581 C232.3475,8.74423256 231.0125,10.9142791 231.0125,10.9142791 C230.1825,12.7414884 231.8425,12.6523256 231.8425,12.6523256 L236.60375,12.6523256 L236.85125,13.155907 L232.84875,13.986 C232.84875,13.986 230.8475,13.986 232.18,16.5679535 L235.0625,22.0947907 L234.455,22.5142326 L231.625,18.3122791 C231.625,18.3122791 231.09625,17.2347907 230.345,17.2347907" id="Shape" fill="#999999" fill-rule="nonzero"></path>
            <path d="M230.42375,8.74925581 C232.3475,8.74423256 231.0125,10.9142791 231.0125,10.9142791 C230.1825,12.7414884 231.8425,12.6523256 231.8425,12.6523256 L236.60375,12.6523256 L236.85125,13.155907 L232.84875,13.986 C232.84875,13.986 230.8475,13.986 232.18,16.5679535 L235.0625,22.0947907 L234.455,22.5142326 L231.625,18.3122791 C231.625,18.3122791 231.09625,17.2347907 230.345,17.2347907" id="Shape" stroke="#FFFFFF" stroke-width="1.83875"></path>
            <path d="M230.2625,24.8086047 C234.8725,24.8086047 238.61,21.0813488 238.61,16.4813023 C238.61,11.8837674 234.87125,8.16027907 230.2625,8.16027907 C225.64875,8.16530233 221.91375,11.8875349 221.91375,16.4813023 C221.91625,21.0813488 225.64875,24.8086047 230.2625,24.8086047 Z" id="Shape" fill="#535353" fill-rule="nonzero"></path>
            <path d="M230.2625,24.8086047 C234.8725,24.8086047 238.61,21.0813488 238.61,16.4813023 C238.61,11.8837674 234.87125,8.16027907 230.2625,8.16027907 C225.64875,8.16530233 221.91375,11.8875349 221.91375,16.4813023 C221.91625,21.0813488 225.64875,24.8086047 230.2625,24.8086047 Z" id="Shape" stroke="#FFFFFF" stroke-width="0.95625"></path>
            <path d="M232.91125,13.986 L239.165,13.0453953 L238.9175,12.5443256 L231.9075,12.5443256 C231.9075,12.5443256 230.2425,12.7414884 231.075,10.9092558 C231.075,10.9092558 232.41125,8.74423256 230.49375,8.74423256 C228.57375,8.74423256 229.90625,10.9130233 229.90625,10.9130233 C230.74375,12.7402326 229.07125,12.5430698 229.07125,12.5430698 L222.0625,12.5430698 L221.815,13.1546512 L228.07125,13.9847442 C228.07125,13.9847442 230.0725,13.9847442 228.73625,16.5666977 L224.9,23.8855814 L225.40125,24.3012558 L229.35375,18.3110233 C229.35375,18.3110233 229.79125,17.3226977 230.48875,17.2473488 C231.195,17.3239535 231.69125,18.3085116 231.69125,18.3085116 L235.58375,24.3 L236.08375,23.8843256 L232.25,16.5654419 C230.9125,13.9834884 232.9125,13.9834884 232.9125,13.9834884" id="Shape" fill="#FFFFFF" fill-rule="nonzero"></path>
        </g>
    </g>
</svg>