<?xml version="1.0" encoding="UTF-8"?>
<svg width="78px" height="64px" viewBox="0 0 78 64" version="1.1" xmlns="http://www.w3.org/2000/svg" xmlns:xlink="http://www.w3.org/1999/xlink">
    <!-- Generator: Sketch 48.2 (47327) - http://www.bohemiancoding.com/sketch -->
    <title>QT LOGO 3 Copy</title>
    <desc>Created with Sketch.</desc>
    <defs></defs>
    <g id="Desktop" stroke="none" stroke-width="1" fill="none" fill-rule="evenodd" transform="translate(-974.000000, -1481.000000)">
        <g id="QT-LOGO-3-Copy" transform="translate(974.000000, 1481.000000)">
            <path d="M7.99257278,0.235912128 L69.7832887,0.235912128 C74.1729032,0.235912128 77.8877734,3.66628196 77.8877734,8.12461203 L77.8877734,55.7930721 C77.8877734,60.2514022 74.5102754,63.6804935 70.1206609,63.6804935 L7.65520063,63.6804935 C3.6029583,63.6804935 0.226719119,60.2514022 0.226719119,55.7930721 L0.226719119,8.12461203 C0.226719119,4.00893537 3.6029583,0.235912128 7.99257278,0.235912128" id="Fill-142" fill="#535353"></path>
            <path d="M66.1075688,51.836448 C66.1075688,52.8631297 66.9182691,53.6315428 67.8850669,53.6315428 C68.8468293,53.6315428 69.6524941,52.8631297 69.6524941,51.836448 C69.6524941,50.8289447 68.8468293,50.059253 67.8850669,50.059253 C66.9182691,50.059253 66.1075688,50.8289447 66.1075688,51.836448 L66.1075688,51.836448 Z M66.4273171,51.836448 C66.4273171,50.981093 67.0592604,50.3213573 67.8850669,50.3213573 C68.7008025,50.3213573 69.3327459,50.981093 69.3327459,51.836448 C69.3327459,52.7109813 68.7008025,53.3694385 67.8850669,53.3694385 C67.0592604,53.3694385 66.4273171,52.7109813 66.4273171,51.836448 L66.4273171,51.836448 Z M67.1964752,52.8861437 L67.5174823,52.8861437 L67.5174823,51.9898749 L67.8561133,51.9898749 L68.417561,52.8861437 L68.7612274,52.8861437 L68.172085,51.9655823 C68.4792447,51.9323398 68.7146499,51.7750772 68.7146499,51.3979028 C68.7146499,50.9964357 68.4830212,50.7995379 67.9933281,50.7995379 L67.1964752,50.7995379 L67.1964752,52.8861437 Z M67.5174823,51.0629207 L67.9417152,51.0629207 C68.1582376,51.0629207 68.3936428,51.1063917 68.3936428,51.3825601 C68.3936428,51.7111494 68.1343194,51.7264921 67.8523367,51.7264921 L67.5174823,51.7264921 L67.5174823,51.0629207 L67.5174823,51.0629207 Z" id="Fill-141" fill="#000000"></path>
            <path d="M24.7578285,43.1262749 C20.7030685,41.828539 17.6302124,36.2220643 17.6302124,29.5390441 C17.6302124,22.945523 21.4243902,15.9236851 26.5655389,15.9236851 C31.5115657,15.9236851 33.8807238,20.8972738 33.8807238,20.8972738 C33.8807238,20.8972738 27.2226593,20.9906085 24.101967,28.5698975 C21.0077105,36.0878157 24.7578285,43.1262749 24.7578285,43.1262749 M49.1870968,59.0750014 L54.0122738,53.9952924 L63.0168371,53.9952924 L63.0168371,22.7294467 L70.1142408,22.7294467 L70.1142408,15.3969194 L64.2983478,10.2289899 L64.143509,17.244435 L41.1392604,17.244435 C41.1392604,17.244435 45.5691581,23.191006 44.6917388,32.7686804 C43.9011802,41.4040579 35.656963,49.4512989 28.5734068,50.00875 C21.2708104,51.0111391 15.5468135,46.1347207 15.5468135,46.1347207 C17.1380016,47.3135508 27.8621558,61.8724853 42.3011802,52.3037608 L49.1870968,59.0750014" id="Fill-143" fill="#000000"></path>
            <path d="M27.0603934,37.4028121 L31.3971361,41.5888095 C30.4529976,42.3802366 29.053155,43.656237 26.2433989,43.4235395 C20.7887962,42.9696516 17.564878,35.8864429 17.6303383,29.4054348 C17.6945397,23.0126472 21.2923367,15.9562883 26.6185366,15.9562883 C32.126011,15.9562883 35.9277419,22.3887112 35.9856491,29.1612304 C36.0083084,31.7451951 35.8547286,33.1260372 35.1308891,35.4862544 L31.9069709,32.3243817 L27.0603934,37.4028121 Z M48.5149961,17.3230663 L48.5149961,48.6438899 L57.2035877,48.6438899 L57.2035877,17.3230663 L64.3009913,17.3230663 L64.3009913,10.238579 L40.6219984,10.238579 L40.6219984,16.2043284 C37.3301023,12.0144954 32.4709363,9.24897552 26.6185366,9.24897552 C15.8238867,9.24897552 8.86747443,18.6898443 8.63081039,29.3900922 C8.38533438,40.5966488 15.8238867,50.258708 26.6185366,50.258708 C30.2817939,50.258708 33.8556727,48.9596936 36.7308891,46.846238 L43.7275846,53.6826851 L48.507443,48.6285472 L41.4679465,41.723058 C44.2512667,38.0957903 45.0884028,34.9147392 45.0884028,29.3900922 C45.0884028,22.7914568 41.4792762,17.3230663 41.4792762,17.3230663 L48.5149961,17.3230663 L48.5149961,17.3230663 Z" id="Fill-144" fill="#FFFFFF"></path>
        </g>
    </g>
</svg>