<?xml version="1.0" encoding="UTF-8"?>
<svg width="232px" height="64px" viewBox="0 0 232 64" version="1.1" xmlns="http://www.w3.org/2000/svg" xmlns:xlink="http://www.w3.org/1999/xlink">
    <!-- Generator: Sketch 48.2 (47327) - http://www.bohemiancoding.com/sketch -->
    <title>swappa_small_color</title>
    <desc>Created with Sketch.</desc>
    <defs></defs>
    <g id="Desktop" stroke="none" stroke-width="1" fill="none" fill-rule="evenodd" transform="translate(-92.000000, -1866.000000)">
        <g id="swappa_small_color" transform="translate(84.000000, 1858.000000)">
            <rect id="BOUNDS" x="0" y="0" width="248" height="80"></rect>
            <g id="new" transform="translate(8.000000, 8.000000)">
                <rect id="BOUNDS-2" x="0" y="0" width="64" height="64"></rect>
                <path d="M32,38 C21.2,38 14,34.7 14,32 C14,36 20,42 32,42 C44,42 50,36 50,32 C50,34.7 42.8,38 32,38 Z" id="Shape" fill="#000000" fill-rule="nonzero"></path>
                <path d="M32,38.0000003 C42.8,38.0000003 50,34.7000002 50,32.0000002 C49.9999999,22.0588747 41.9411254,14.0000003 32,14.0000003 C22.0588746,14.0000003 14.0000001,22.0588747 14,32.0000002 C14,34.7000002 21.2,38.0000003 32,38.0000003 Z" id="Shape" fill="#535353" fill-rule="nonzero"></path>
                <circle id="Oval" fill="#FFFFFF" fill-rule="nonzero" cx="24" cy="26" r="3"></circle>
                <circle id="Oval" fill="#FFFFFF" fill-rule="nonzero" cx="40" cy="26" r="3"></circle>
                <path d="M50.82,53.4 L49.44,45.4 C48.860982,46.1664334 48.2330049,46.8946196 47.56,47.58 C43.4339032,51.7080341 37.8365521,54.0273025 32,54.0273025 C26.1634479,54.0273025 20.5660968,51.7080341 16.44,47.58 C15.8979451,47.04003 15.3839368,46.4726182 14.9,45.88 L7.18,43 L5.9,50.46 C11.8524242,58.8792061 21.4969664,63.9144092 31.8076061,63.9857905 C42.1182457,64.0571719 51.8315783,59.1559848 57.9,50.82 L50.82,53.4 Z" id="Shape" fill="#535353" fill-rule="nonzero"></path>
                <path d="M41.12,5 L34.88,10.2 C41.5451843,11.0859421 47.4392888,14.971225 50.8808739,20.7474753 C54.3224589,26.5237256 54.933617,33.556675 52.54,39.84 L54,48 L61.1,45.4 C65.4200062,36.0239672 64.9514011,25.1397282 59.8415313,16.169685 C54.7316614,7.19964172 45.6082387,1.24570139 35.34,0.18 L41.12,5 Z" id="Shape" fill="#535353" fill-rule="nonzero"></path>
                <path d="M4,37.6 L11.6,40.4 C9.07778078,34.194326 9.52030058,27.1775925 12.8021733,21.3379614 C16.0840459,15.4983303 21.8476896,11.4720684 28.46,10.4 L34.88,5 L29.06,0.14 C18.7964704,1.09397298 9.62089754,6.93355252 4.41060197,15.827535 C-0.799693608,24.7215175 -1.40667424,35.5807716 2.78,45 L4,37.6 Z" id="Shape" fill="#535353" fill-rule="nonzero"></path>
            </g>
            <g id="new-2" transform="translate(80.000000, 20.000000)" fill="#535353" fill-rule="nonzero">
                <path d="M4.84,25.48 C7.02662298,27.7015926 9.904579,29.1123554 13,29.48 C15.8933333,29.76 17.8933333,29.28 19,28.04 C20.0201599,27.0617201 20.3090961,25.5448049 19.72,24.26 C19.1333333,22.9266667 16.38,21.7866667 11.46,20.84 C6.54,19.8933333 3.42,17.8933333 2.1,14.84 C0.792332253,11.7450575 1.09929352,8.20377261 2.92,5.38 C4.78666667,2.07333333 8.2,0.353333333 13.16,0.22 C18.1403908,0.0885862325 22.9586473,1.99566227 26.5,5.5 L21.54,10.46 C19.2458781,8.43810739 16.3340853,7.25364931 13.28,7.1 C10.52,7.1 8.98666667,8.01333333 8.68,9.84 C8.37333333,11.6666667 9.85333333,12.94 13.12,13.66 C16.3187433,14.3222226 19.4272814,15.3628779 22.38,16.76 C25.2443176,18.0963082 27.1040899,20.9402101 27.18,24.1 C27.6149361,27.2456475 26.5658473,30.415078 24.34,32.68 C21.8798793,34.9921465 18.6156799,36.2547819 15.24,36.2 C11.9138579,36.4321959 8.58055506,35.8629281 5.52,34.54 C3.29184261,33.6601397 1.3720294,32.1437655 0,30.18 L4.84,25.48 Z" id="Shape"></path>
                <polygon id="Shape" points="27.26 10 34.52 10 38 24.12 41.5 10 47.5 10 51.38 24.12 54.6 10 61.66 10 54 36 48.46 36 44.46 20.74 40.58 36 34.84 36"></polygon>
                <path d="M77.32,36 L77.32,34 C75.5845426,35.5878098 73.2900021,36.4221882 70.94,36.32 C68.481769,36.3155233 66.1218177,35.3543273 64.36,33.64 C62.4665428,31.785716 61.5049046,29.1797499 61.74,26.54 C61.6303686,23.9335164 63.0001326,21.4880619 65.28,20.22 C67.4625923,19.0145416 69.9275188,18.4138453 72.42,18.48 C74.1105497,18.3492715 75.8033414,18.7030927 77.3,19.5 L77.3,18 C77.2976562,17.1068191 76.9289433,16.2537185 76.28,15.64 C75.0752721,14.8175771 73.5955982,14.5015302 72.16,14.76 C70.0940218,14.8913162 68.1027945,15.5827146 66.4,16.76 L63.72,11.82 C66.4904785,10.1628299 69.6518868,9.27238958 72.88,9.24 C75.6906014,9.04917606 78.4898571,9.74898998 80.88,11.24 C83.0615906,12.9028111 84.2391438,15.5674026 84,18.3 L84,36 L77.32,36 Z M77.32,28 L77.32,24.88 C76.0977125,24.1692271 74.7300035,23.7452374 73.32,23.64 C72.1720329,23.5333217 71.0192041,23.7848479 70.02,24.36 C69.1408364,24.8912293 68.6140811,25.8531303 68.64,26.88 C68.5530051,27.8898375 68.9818037,28.8753221 69.78,29.5 C70.7783957,30.172063 71.9850132,30.4630707 73.18,30.32 C74.8201903,30.1484803 76.3174749,29.3094222 77.32,28 Z" id="Shape"></path>
                <path d="M153.32,36 L153.32,34 C151.584543,35.5878098 149.290002,36.4221882 146.94,36.32 C144.481769,36.3155233 142.121818,35.3543273 140.36,33.64 C138.466543,31.785716 137.504905,29.1797499 137.74,26.54 C137.630369,23.9335164 139.000133,21.4880619 141.28,20.22 C143.462592,19.0145416 145.927519,18.4138453 148.42,18.48 C150.11055,18.3492715 151.803341,18.7030927 153.3,19.5 L153.3,18 C153.297656,17.1068191 152.928943,16.2537185 152.28,15.64 C151.075272,14.8175771 149.595598,14.5015302 148.16,14.76 C146.094022,14.8913162 144.102794,15.5827146 142.4,16.76 L139.72,11.82 C142.490478,10.1628299 145.651887,9.27238958 148.88,9.24 C151.690601,9.04917606 154.489857,9.74898998 156.88,11.24 C159.061591,12.9028111 160.239144,15.5674026 160,18.3 L160,36 L153.32,36 Z M153.32,28 L153.32,24.88 C152.097712,24.1692271 150.730004,23.7452374 149.32,23.64 C148.172033,23.5333217 147.019204,23.7848479 146.02,24.36 C145.140836,24.8912293 144.614081,25.8531303 144.64,26.88 C144.553005,27.8898375 144.981804,28.8753221 145.78,29.5 C146.778396,30.172063 147.985013,30.4630707 149.18,30.32 C150.82019,30.1484803 152.317475,29.3094222 153.32,28 Z" id="Shape"></path>
                <path d="M114,46 L114,10 L120.9,10 L120.9,11.4 C124.452419,8.20164561 129.910683,8.43277733 133.18,11.92 C135.14,13.7733333 136.2,17.2333333 136.36,22.3 C136.52,27.3666667 135.58,31 133.54,33.2 C131.793923,35.2532404 129.235288,36.4375229 126.54,36.44 C124.392873,36.603578 122.29461,35.7435126 120.88,34.12 L120.88,46 L114,46 Z M120.9,27.76 C122.049867,28.9026195 123.510528,29.6816387 125.1,30 C126.215619,30.001993 127.28138,29.537988 128.04,28.72 C129.177234,27.1248225 129.689616,25.1678071 129.48,23.22 C129.700406,21.2164267 129.265323,19.1953953 128.24,17.46 C127.505652,16.454393 126.344878,15.8481285 125.1,15.82 C123.528821,15.9195038 122.039292,16.5548479 120.88,17.62 L120.9,27.76 Z" id="Shape"></path>
                <path d="M88,46 L88,10 L94.9,10 L94.9,11.4 C98.4524191,8.20164561 103.910683,8.43277733 107.18,11.92 C109.14,13.7733333 110.2,17.2333333 110.36,22.3 C110.52,27.3666667 109.58,31 107.54,33.2 C105.793923,35.2532404 103.235288,36.4375229 100.54,36.44 C98.3928726,36.603578 96.2946097,35.7435126 94.88,34.12 L94.88,46 L88,46 Z M94.9,27.76 C96.0498674,28.9026195 97.5105282,29.6816387 99.1,30 C100.207759,29.9806121 101.257858,29.5026361 102,28.68 C103.137234,27.0848225 103.649616,25.1278071 103.44,23.18 C103.660406,21.1764267 103.225323,19.1553953 102.2,17.42 C101.465652,16.414393 100.304878,15.8081285 99.06,15.78 C97.4888205,15.8795038 95.9992916,16.5148479 94.84,17.58 L94.9,27.76 Z" id="Shape"></path>
            </g>
        </g>
    </g>
</svg>