<?xml version="1.0" encoding="UTF-8"?>
<svg width="228px" height="44px" viewBox="0 0 228 44" version="1.1" xmlns="http://www.w3.org/2000/svg" xmlns:xlink="http://www.w3.org/1999/xlink">
    <!-- Generator: Sketch 48.2 (47327) - http://www.bohemiancoding.com/sketch -->
    <title>AUSC_horiz</title>
    <desc>Created with Sketch.</desc>
    <defs></defs>
    <g id="Desktop" stroke="none" stroke-width="1" fill="none" fill-rule="evenodd" transform="translate(-487.000000, -1876.000000)">
        <g id="AUSC_horiz" transform="translate(487.000000, 1876.000000)" fill="#535353" fill-rule="nonzero">
            <g id="Group-2" transform="translate(0.138773, 0.471429)">
                <polygon id="Fill-1" points="91.1857595 26.7672325 104.881224 26.7672325 104.881224 0 91.1857595 0"></polygon>
                <polyline id="Fill-2" points="118.301218 26.7672325 131.99618 26.7672325 131.99618 6.57739975 140.961812 6.57739975 140.961812 0 109.334579 0 109.334579 6.57739975 118.301218 6.57739975 118.301218 26.7672325"></polyline>
                <path d="M59.2875891,6.57689071 L70.6347562,6.57689071 L70.6347562,26.7672325 L84.3297174,26.7672325 L84.3297174,5.48651145 C84.3297174,5.48345718 84.330221,5.48091193 84.330221,5.47785766 C84.330221,5.47531244 84.3297174,5.47225814 84.3297174,5.46971291 C84.3246815,2.45208069 81.9063832,0.00712666175 78.9215324,0.00101809454 C78.9180071,0.00101809454 78.914482,0 78.9109566,0 C78.9074315,0 78.9039062,0.00101809454 78.9008847,0.00101809454 C78.5025351,0.000509047268 78.0971354,0 77.6776347,0 L45.5931315,0 L45.5931315,26.7672325 L59.2875891,26.7672325 L59.2875891,6.57689071" id="Fill-3"></path>
                <path d="M25.042632,20.1908509 L13.6959684,20.1908509 L13.6959684,0 L0.00100720462,0 L0.00100720462,21.2812301 C0.00100720462,21.2837754 0,21.2868296 0,21.2893749 C0,21.2924291 0.00100720462,21.2949744 0.00100720462,21.2980287 C0.00553962541,24.3156609 2.42383791,26.7606149 5.4091924,26.7667235 C5.41271761,26.7667235 5.41624283,26.7672325 5.41926446,26.7672325 C5.42278968,26.7672325 5.42631489,26.7667235 5.42984011,26.7667235 C5.82818952,26.7667235 6.23358939,26.7672325 6.65309011,26.7672325 L38.7375931,26.7672325 L38.7375931,0 L25.042632,0 L25.042632,20.1908509" id="Fill-4"></path>
                <path d="M210.904618,0 C211.324119,0 211.729015,0.000509047268 212.148516,0.00101809454 C215.133367,0.00712666175 217.551665,2.45208069 217.556198,5.46971291 L217.556198,21.2980287 C217.551665,24.3156609 215.133367,26.7606149 212.127365,26.7667235 C211.729015,26.7667235 211.324119,26.7672325 210.904618,26.7672325 L178.819612,26.7672325 L178.819612,0 L210.904618,0 Z M192.514573,20.1908509 L203.861237,20.1908509 L203.861237,6.57689071 L192.514573,6.57689071 L192.514573,20.1908509 Z" id="Fill-5"></path>
                <polyline id="Fill-6" points="174.371293 20.1908509 159.110632 20.1908509 159.110632 15.7545039 170.457295 15.7545039 170.457295 10.7073002 159.110632 10.7073002 159.110632 6.57739975 174.371293 6.57739975 174.371293 0 145.416174 0 145.416174 26.7672325 174.371293 26.7672325 174.371293 20.1908509"></polyline>
                <polyline id="Fill-7" points="219.542405 0.930029361 220.78731 0.930029361 220.78731 3.73182554 221.687247 3.73182554 221.687247 0.930029361 222.931649 0.930029361 222.931649 0.216854136 219.542405 0.216854136 219.542405 0.930029361"></polyline>
                <polyline id="Fill-8" points="225.666209 1.70378121 224.591522 0.216854136 223.62108 0.216854136 223.62108 3.73182554 224.509435 3.73182554 224.509435 1.45180281 225.648583 2.9387299 225.672253 2.9387299 226.823487 1.43704044 226.823487 3.73182554 227.711842 3.73182554 227.711842 0.216854136 226.7414 0.216854136 225.666209 1.70378121"></polyline>
                <path d="M9.06484156,34.3113131 L9.06484156,37.1436522 C9.06484156,38.2610109 10.2231269,39.0632694 11.8341507,39.0632694 L16.6420419,39.0632694 L16.6420419,40.6993473 L9.06534518,40.6993473 L9.06534518,43.4059515 L18.6388251,43.4059515 C20.2498489,43.4059515 21.4061198,42.6031839 21.4061198,41.4863343 L21.4061198,38.6539952 C21.4061198,37.5366365 20.2498489,36.7348871 18.6388251,36.7348871 L13.8289194,36.7348871 L13.8289194,35.097791 L21.4242494,35.097791 L21.4242494,32.3922047 L11.8341507,32.3911869 C10.2231269,32.3911869 9.06484156,33.1939544 9.06484156,34.3113131" id="Fill-9"></path>
                <path d="M196.132452,34.3113131 L196.132452,37.1436522 C196.132452,38.2610109 197.290737,39.0632694 198.901257,39.0632694 L203.709652,39.0632694 L203.709652,40.6993473 L196.132956,40.6993473 L196.132956,43.4059515 L205.706435,43.4059515 C207.317459,43.4059515 208.47373,42.6031839 208.47373,41.4863343 L208.47373,38.6539952 C208.47373,37.5366365 207.317459,36.7348871 205.706435,36.7348871 L200.89653,36.7348871 L200.89653,35.097791 L208.491356,35.097791 L208.491356,32.3922047 L198.901257,32.3911869 C197.290737,32.3911869 196.132452,33.1939544 196.132452,34.3113131" id="Fill-10"></path>
                <path d="M34.6553929,32.3911869 C36.2659131,32.3911869 37.4221841,33.1939544 37.4221841,34.3113131 L37.4221841,41.4863343 C37.4221841,42.6031839 36.2659131,43.4059515 34.6553929,43.4059515 L26.4889779,43.4059515 C24.8784577,43.4059515 23.7201724,42.6031839 23.7201724,41.4863343 L23.7201724,34.3113131 C23.7201724,33.1939544 24.8784577,32.3911869 26.4889779,32.3911869 L34.6553929,32.3911869 Z M28.4837467,40.6993473 L32.6586098,40.6993473 L32.6586098,35.097791 L28.4837467,35.097791 L28.4837467,40.6993473 Z" id="Fill-11"></path>
                <path d="M39.7186107,34.3113131 L39.7186107,41.4863343 C39.7186107,42.6031839 40.8768959,43.4059515 42.487416,43.4059515 L51.6066467,43.4059515 L51.6066467,40.6993473 L44.4826883,40.6993473 L44.4826883,35.097791 L51.6066467,35.097791 L51.6066467,32.3911869 L42.487416,32.3911869 C40.8768959,32.3911869 39.7186107,33.1939544 39.7186107,34.3113131" id="Fill-12"></path>
                <path d="M65.7901021,35.097791 L65.7916129,32.3911869 L56.6723823,32.3911869 C55.0618621,32.3911869 53.9035769,33.1939544 53.9035769,34.3113131 L53.9035769,41.4863343 C53.9035769,42.6031839 55.0618621,43.4059515 56.6723823,43.4059515 L65.7901021,43.4059515 L65.7916129,40.6993473 L58.6671512,40.6993473 L58.6671512,35.097791 L65.7901021,35.097791" id="Fill-13"></path>
                <polyline id="Fill-14" points="80.1976606 35.097791 80.2016895 32.3911869 68.0880395 32.3911869 68.0880395 43.4059515 80.1976606 43.4059515 80.2016895 40.6993473 72.8516138 40.6993473 72.8516138 38.8744128 78.8404522 38.8744128 78.8404522 36.7974999 72.8516138 36.7974999 72.8516138 35.097791 80.1976606 35.097791"></polyline>
                <path d="M111.43309,35.097791 L118.554027,35.097791 L118.558056,32.3911869 L109.438321,32.3911869 C107.827298,32.3911869 106.669012,33.1939544 106.669012,34.3113131 L106.669012,41.4863343 C106.669012,42.6031839 107.827298,43.4059515 109.438321,43.4059515 L118.554027,43.4059515 L118.558056,40.6993473 L111.43309,40.6993473 L111.43309,35.097791" id="Fill-15"></path>
                <path d="M131.404447,32.3911869 C133.015471,32.3911869 134.171742,33.1939544 134.171742,34.3113131 L134.171742,41.4863343 C134.171742,42.6031839 133.015471,43.4059515 131.404447,43.4059515 L123.238536,43.4059515 C121.627512,43.4059515 120.46973,42.6031839 120.46973,41.4863343 L120.46973,34.3113131 C120.46973,33.1939544 121.627512,32.3911869 123.238536,32.3911869 L131.404447,32.3911869 Z M125.233304,40.6993473 L129.408168,40.6993473 L129.408168,35.097791 L125.233304,35.097791 L125.233304,40.6993473 Z" id="Fill-16"></path>
                <path d="M151.539474,34.3113131 L151.539474,41.4863343 C151.539474,42.6031839 152.69776,43.4059515 154.30828,43.4059515 L163.427511,43.4059515 L163.427511,40.6993473 L156.303552,40.6993473 L156.303552,35.097791 L163.427511,35.097791 L163.427511,32.3911869 L154.30828,32.3911869 C152.69776,32.3911869 151.539474,33.1939544 151.539474,34.3113131" id="Fill-17"></path>
                <polyline id="Fill-18" points="174.66036 36.561302 174.66036 36.7974999 170.488015 36.7974999 170.488015 32.3911869 165.723937 32.3911869 165.723937 43.4059515 170.488015 43.4059515 170.488015 38.8744128 174.66036 38.8744128 174.66036 43.4059515 179.426452 43.4059515 179.426452 32.3911869 174.66036 32.3911869 174.66036 36.561302"></polyline>
                <path d="M141.712683,38.6188709 L142.799457,35.614983 L142.814564,35.5742593 L142.828665,35.614983 L143.915943,38.6188709 L141.712683,38.6188709 Z M139.344745,32.3911869 L135.01175,43.4059515 L139.980794,43.4059515 L140.961308,40.6957838 L144.666814,40.6957838 L145.648335,43.4059515 L150.616875,43.4059515 L146.283377,32.3911869 L139.344745,32.3911869 Z" id="Fill-19"></path>
                <polyline id="Fill-20" points="193.82696 35.097791 193.836025 32.3911869 181.722375 32.3911869 181.722375 43.4059515 193.82696 43.4059515 193.836025 40.6993473 186.48595 40.6993473 186.48595 38.8744128 192.474788 38.8744128 192.474788 36.7974999 186.48595 36.7974999 186.48595 35.097791 193.82696 35.097791"></polyline>
                <path d="M91.1847522,36.4085879 L91.1847522,36.7944455 L87.2616901,36.7944455 L87.2616901,35.097791 L91.1847522,35.097791 L91.1847522,36.4085879 Z M95.9488301,36.9736303 L95.9488301,34.3113131 C95.9488301,33.1939544 94.7925591,32.3911869 93.182039,32.3911869 L82.4976122,32.3911869 L82.4976122,43.4059515 L87.2616901,43.4059515 L87.2616901,38.8937565 L88.8072457,38.8937565 L92.0252644,43.4059515 L96.926322,43.4059515 L93.5134093,38.8728856 C94.9451507,38.7680219 95.9488301,38.0105594 95.9488301,36.9736303 Z" id="Fill-21"></path>
            </g>
        </g>
    </g>
</svg>