<?xml version="1.0" encoding="UTF-8"?>
<svg width="193px" height="66px" viewBox="0 0 193 66" version="1.1" xmlns="http://www.w3.org/2000/svg" xmlns:xlink="http://www.w3.org/1999/xlink">
    <!-- Generator: Sketch 48.2 (47327) - http://www.bohemiancoding.com/sketch -->
    <title>zaarly-logo</title>
    <desc>Created with Sketch.</desc>
    <defs></defs>
    <g id="Desktop" stroke="none" stroke-width="1" fill="none" fill-rule="evenodd" transform="translate(-916.000000, -1865.000000)">
        <g id="zaarly-logo" transform="translate(916.000000, 1865.000000)" fill="#535353">
            <path d="M20.2644903,50.8050621 C26.8567622,50.8003772 34.9626915,50.6658554 39.5289807,50.8887199 C39.5289807,50.8887199 39.0159893,44.8787418 38.859427,42.1936603 C34.7621586,42.3308591 29.2984677,42.3991239 23.1512325,42.3991239 L15.7081945,42.3991239 C23.9033977,30.5986858 31.4230513,18.6610489 40.0286476,7.40940618 L39.140573,2.3330494 C34.2918055,2.53851302 28.8281146,2.60744707 19.9500333,2.60744707 C11.4803464,2.60744707 8.4763491,2.53851302 2.19320453,2.3330494 C2.19320453,5.62582137 2.12458361,8.5076661 1.9200533,11.2516427 C6.42638241,11.183378 10.7981346,11.0455099 16.6035976,11.0455099 L24.3884077,11.0455099 C16.2611592,22.6404843 8.57761492,34.129046 0,46.1041616 L0.819453698,51.1811876 C5.80546302,50.9061207 12.5469687,50.8050621 20.2644903,50.8050621 L20.2644903,50.8050621 Z M56.479014,44.5943052 C53.5423051,44.5943052 51.42505,43.0168532 51.42505,40.1350085 C51.42505,37.184899 53.6788807,34.9897177 57.5036642,34.9897177 C59.1425716,34.9897177 60.9866755,35.3323801 62.4896736,35.9501095 L62.4896736,38.9691531 C62.4896736,42.1247262 60.2358428,44.5943052 56.479014,44.5943052 L56.479014,44.5943052 Z M70.6848767,50.9061207 C72.3917388,50.9061207 74.1678881,50.4262594 75.7388408,49.8085301 L76.2171885,43.908311 C75.532978,44.1144439 74.9187209,44.1827087 74.5776149,44.1827087 C73.3484344,44.1827087 72.6648901,42.8796544 72.6648901,39.2435507 L72.6648901,28.6089681 C72.6648901,19.0726454 66.1085943,15.2993429 57.0259827,15.2993429 C51.1518987,15.2993429 46.3037975,16.8774641 43.1612258,20.0330372 L46.3037975,27.0315162 C48.6942039,24.6984668 51.5622918,23.738075 54.9087275,23.738075 C59.6202532,23.738075 62.4896736,25.5216598 62.4896736,29.8444269 L62.4896736,30.5986858 C60.6455696,29.638294 58.5962692,29.0205646 55.5236509,29.0205646 C47.4643571,29.0205646 42.0006662,33.6177294 42.0006662,40.8899367 C42.0006662,47.1328182 46.8500999,51.3183865 53.5423051,51.3183865 C57.8454364,51.3183865 61.6695536,49.2597347 63.5822785,46.2413604 C64.7435043,49.0542711 66.8600933,50.9061207 70.6848767,50.9061207 L70.6848767,50.9061207 Z M93.4257162,44.5943052 C90.4890073,44.5943052 88.3717522,43.0168532 88.3717522,40.1350085 C88.3717522,37.184899 90.6255829,34.9897177 94.4503664,34.9897177 C96.0892738,34.9897177 97.9333777,35.3323801 99.4363757,35.9501095 L99.4363757,38.9691531 C99.4363757,42.1247262 97.182545,44.5943052 93.4257162,44.5943052 L93.4257162,44.5943052 Z M107.631579,50.9061207 C109.338441,50.9061207 111.11459,50.4262594 112.685543,49.8085301 L113.163891,43.908311 C112.481013,44.1144439 111.865423,44.1827087 111.523651,44.1827087 C110.295137,44.1827087 109.611592,42.8796544 109.611592,39.2435507 L109.611592,28.6089681 C109.611592,19.0726454 103.055296,15.2993429 93.9726849,15.2993429 C88.0986009,15.2993429 83.2504997,16.8774641 80.107928,20.0330372 L83.2504997,27.0315162 C85.6409061,24.6984668 88.508994,23.738075 91.8554297,23.738075 C96.5669554,23.738075 99.4363757,25.5216598 99.4363757,29.8444269 L99.4363757,30.5986858 C97.5922718,29.638294 95.5429714,29.0205646 92.4703531,29.0205646 C84.4110593,29.0205646 78.9473684,33.6177294 78.9473684,40.8899367 C78.9473684,47.1328182 83.7968021,51.3183865 90.4890073,51.3183865 C94.7921386,51.3183865 98.6162558,49.2597347 100.528981,46.2413604 C101.690207,49.0542711 103.806795,50.9061207 107.631579,50.9061207 L107.631579,50.9061207 Z M127.43571,35.0579825 C127.43571,28.6779022 130.851432,25.453395 136.04064,25.453395 C136.656229,25.453395 137.271153,25.5216598 137.88541,25.5905938 L138.021985,15.1621441 L138.021985,15.0938793 C132.8994,15.0938793 129.348434,18.4555853 127.162558,23.5326113 L127.162558,16.7402653 L116.850766,16.7402653 C116.987342,18.3866513 117.260493,26.8943174 117.260493,34.0293259 C117.260493,41.0954003 117.191206,45.9669628 116.850766,50.3573254 L127.708861,50.3573254 C127.572285,48.7109394 127.43571,42.4680579 127.43571,35.0579825 L127.43571,35.0579825 Z M152.636243,19.4159771 C152.636243,9.26192504 152.568954,3.22450718 152.226516,0 L141.027315,0 C141.640906,3.56783889 142.11992,9.26192504 142.11992,19.0043806 L142.11992,39.2435507 C142.11992,45.6925651 144.237175,50.9061207 151.271153,50.9061207 C153.251832,50.9061207 155.026649,50.4262594 156.598268,49.8085301 L157.075949,43.2912509 C156.256496,43.6339134 155.778814,43.7711122 155.2998,43.7711122 C153.729514,43.7711122 152.636243,42.3991239 152.636243,38.6940862 L152.636243,19.4159771 Z M162.197868,66 C170.461692,66 176.53964,61.9522998 180.364424,51.1811876 L186.990007,32.5884035 C189.652898,25.1100633 192.521652,17.9750548 193,16.7402653 L182.345769,16.7402653 L179.409061,26.4137868 C177.906063,31.0792164 176.53964,35.6757119 175.105929,39.5179484 C173.94537,35.9501095 172.988674,32.176807 171.622918,26.8943174 C170.734843,23.3947432 169.847435,19.8958384 169.301133,16.8085301 L157.826782,16.8085301 L163.291139,33.4805305 C165.544304,40.4094062 167.456362,47.3389511 167.73018,48.7798734 L171.418388,48.7798734 L170.939374,50.2890606 C168.823451,56.6008761 165.818121,58.2472621 162.197868,58.2472621 C160.423051,58.2472621 158.646902,57.7674008 157.28048,56.8752738 L155.232512,64.4908128 C156.666223,65.2450718 159.32978,66 162.197868,66 L162.197868,66 Z" id="Fill-1"></path>
        </g>
    </g>
</svg>