<?xml version="1.0" encoding="UTF-8"?>
<svg width="54px" height="54px" viewBox="0 0 54 54" version="1.1" xmlns="http://www.w3.org/2000/svg" xmlns:xlink="http://www.w3.org/1999/xlink">
    <!-- Generator: Sketch 52.5 (67469) - http://www.bohemiancoding.com/sketch -->
    <title>instagram</title>
    <desc>Created with Sketch.</desc>
    <g id="Page-1" stroke="none" stroke-width="1" fill="none" fill-rule="evenodd">
        <g id="Desktop" transform="translate(-783.000000, -5017.000000)" fill="#FFFFFF">
            <g id="Group-3" transform="translate(0.000000, 4938.000000)">
                <g id="social" transform="translate(364.000000, 79.000000)">
                    <g id="instagram" transform="translate(419.000000, 0.000000)">
                        <path d="M38.2018561,15 L35.8,15 C35.361949,15 35,15.358403 35,15.8003714 L35,18.1996286 C35,18.641597 35.3600928,19 35.8,19 L38.2018561,19 C38.6399072,19 39,18.641597 39,18.1996286 L39,15.8003714 C38.9981439,15.36026 38.6399072,15 38.2018561,15 L38.2018561,15 Z" id="Shape"></path>
                        <path d="M27,0 C12.087,0 0,12.087 0,27 C0,41.913 12.087,54 27,54 C41.913,54 54,41.913 54,27 C54,12.087 41.913,0 27,0 L27,0 Z M41,36.5234892 C41,38.9955922 39.038586,41 36.6257931,41 L17.3742069,41 C14.9577884,41 13,38.9955922 13,36.5234892 L13,25.0018559 L18.6939013,25.0018559 C18.5887608,25.5400766 18.5343778,26.0968565 18.5343778,26.666628 C18.5343778,31.4549356 22.3248738,35.333836 27,35.333836 C31.6751262,35.333836 35.4656222,31.4549356 35.4656222,26.666628 C35.4656222,26.0968565 35.4112392,25.5400766 35.3060987,25 L41,25 L41,36.5234892 L41,36.5234892 Z M22,27 C22,24.239819 24.2390397,22 27,22 C29.7609603,22 32,24.239819 32,27 C32,29.7636617 29.7609603,32 27,32 C24.2390397,32 22,29.7636617 22,27 L22,27 Z M41,22 L33.9120808,22 C32.3784799,19.8614039 29.8551081,18.4655001 27.0018128,18.4655001 C24.1485174,18.4655001 21.6215201,19.8614039 20.089732,22 L13,22 L13,17.3201432 C13,14.9345794 14.9577884,13 17.3742069,13 L36.6257931,13 C39.038586,13 41,14.9345794 41,17.3201432 L41,22 L41,22 Z" id="Shape"></path>
                    </g>
                </g>
            </g>
        </g>
    </g>
</svg>