<?xml version="1.0" encoding="UTF-8" standalone="no"?>
<svg width="175px" height="131px" viewBox="0 0 175 131" version="1.1" xmlns="http://www.w3.org/2000/svg" xmlns:xlink="http://www.w3.org/1999/xlink" xmlns:sketch="http://www.bohemiancoding.com/sketch/ns">
    <!-- Generator: Sketch 3.1.1 (8761) - http://www.bohemiancoding.com/sketch -->
    <title>logo-lovely_little_invitations</title>
    <desc>Created with Sketch.</desc>
    <defs></defs>
    <g id="Page-1" stroke="none" stroke-width="1" fill="none" fill-rule="evenodd" sketch:type="MSPage">
        <g id="Desktop" sketch:type="MSArtboardGroup" transform="translate(-509.000000, -6460.000000)" fill="#999999">
            <g id="logo-lovely_little_invitations" sketch:type="MSLayerGroup" transform="translate(510.000000, 6461.000000)">
                <path d="M28.3676585,120.460543 L30.3488537,120.460543 L30.3488537,129.437609 L28.3676585,129.437609 L28.3676585,120.460543 Z" id="Fill-1" sketch:type="MSShapeGroup"></path>
                <path d="M35.9592927,120.460543 L38.6485122,120.460543 L42.471561,126.702663 L42.4991463,126.702663 L42.4991463,120.460543 L44.4768049,120.460543 L44.4768049,129.437609 L41.889439,129.437609 L37.9666585,123.046413 L37.9397805,123.046413 L37.9397805,129.437609 L35.9592927,129.437609 L35.9592927,120.460543" id="Fill-2" sketch:type="MSShapeGroup"></path>
                <path d="M49.2229024,120.460543 L51.4841951,120.460543 L53.7002195,126.34375 L53.7263902,126.34375 L55.9876829,120.460543 L58.1096341,120.460543 L54.4054146,129.437609 L52.8104146,129.437609 L49.2229024,120.460543" id="Fill-3" sketch:type="MSShapeGroup"></path>
                <path d="M62.8253171,120.460543 L64.8065122,120.460543 L64.8065122,129.437609 L62.8253171,129.437609 L62.8253171,120.460543 Z" id="Fill-4" sketch:type="MSShapeGroup"></path>
                <path d="M72.1597805,122.207065 L69.5950488,122.207065 L69.5950488,120.460543 L76.7064146,120.460543 L76.7064146,122.207065 L74.1310732,122.207065 L74.1310732,129.437609 L72.1597805,129.437609 L72.1597805,122.207065" id="Fill-5" sketch:type="MSShapeGroup"></path>
                <path d="M83.3028537,120.462663 L84.941,120.462663 L88.8545854,129.437609 L86.6180488,129.437609 L85.842122,127.532826 L82.3493902,127.532826 L81.6024634,129.437609 L79.415439,129.437609 L83.3028537,120.462663 L83.3028537,120.462663 Z M84.0660488,123.071848 L82.9732439,125.864022 L85.1694634,125.864022 L84.0660488,123.071848 L84.0660488,123.071848 Z" id="Fill-6" sketch:type="MSShapeGroup"></path>
                <path d="M94.1311707,122.207065 L91.5650244,122.207065 L91.5650244,120.460543 L98.673561,120.460543 L98.673561,122.207065 L96.1123659,122.207065 L96.1123659,129.437609 L94.1311707,129.437609 L94.1311707,122.207065" id="Fill-7" sketch:type="MSShapeGroup"></path>
                <path d="M103.458561,120.460543 L105.438341,120.460543 L105.438341,129.437609 L103.458561,129.437609 L103.458561,120.460543 Z" id="Fill-8" sketch:type="MSShapeGroup"></path>
                <path d="M115.420707,120.23163 C118.226634,120.23163 120.272902,122.069293 120.272902,124.951902 C120.272902,127.829565 118.226634,129.668641 115.420707,129.668641 C112.609829,129.668641 110.564268,127.829565 110.564268,124.951902 C110.564268,122.069293 112.609829,120.23163 115.420707,120.23163 M115.420707,127.843696 C117.111195,127.843696 118.213902,126.623533 118.213902,124.951902 C118.213902,123.279565 117.111195,122.056576 115.420707,122.056576 C113.729512,122.056576 112.623976,123.279565 112.623976,124.951902 C112.623976,126.623533 113.729512,127.843696 115.420707,127.843696" id="Fill-9" sketch:type="MSShapeGroup"></path>
                <path d="M125.41722,120.460543 L128.107146,120.460543 L131.928073,126.702663 L131.957073,126.702663 L131.957073,120.460543 L133.934732,120.460543 L133.934732,129.437609 L131.344537,129.437609 L127.424585,123.046413 L127.395585,123.046413 L127.395585,129.437609 L125.41722,129.437609 L125.41722,120.460543" id="Fill-10" sketch:type="MSShapeGroup"></path>
                <path d="M144.014,122.654293 C143.697829,122.248043 143.061244,122.056576 142.581683,122.056576 C142.020073,122.056576 141.242732,122.313043 141.242732,122.982826 C141.242732,124.621957 145.381951,123.56712 145.381951,126.712554 C145.381951,128.716957 143.772098,129.668641 141.91539,129.668641 C140.762463,129.668641 139.744634,129.327391 138.895146,128.541033 L140.306951,126.992337 C140.711537,127.526467 141.376415,127.844402 142.036341,127.844402 C142.678585,127.844402 143.403585,127.532826 143.403585,126.903315 C143.403585,125.254293 139.187268,126.143098 139.187268,123.151685 C139.187268,121.231359 140.850878,120.233043 142.617049,120.233043 C143.632049,120.233043 144.611683,120.494457 145.367805,121.166359 L144.014,122.654293" id="Fill-11" sketch:type="MSShapeGroup"></path>
                <path d="M0.205121951,92.9464674 L8.58682927,92.9464674 L8.58682927,94.7346739 L6.81429268,94.7346739 C6.2102439,94.7346739 5.96834146,94.998913 5.96834146,95.6595109 L5.96834146,104.66837 C5.96834146,105.65538 6.37080488,106.057391 7.33982927,106.057391 L7.91134146,106.057391 C9.85858537,106.057391 10.687561,104.932609 10.687561,102.317772 L10.687561,102.05212 C10.687561,101.637391 11.0405122,101.635978 11.0405122,101.635978 L12.6164146,101.635978 L12.6164146,107.031685 C12.6164146,107.031685 12.5386098,107.765761 11.8758537,107.765761 L-0.228463415,107.765761 L-0.228463415,105.974728 L0.799268293,105.974728 C1.60490244,105.974728 1.84680488,105.734511 1.84680488,104.911413 L1.84680488,95.5429348 C1.84680488,94.9551087 1.566,94.7346739 0.799268293,94.7346739 L0.195219512,94.7346739 C0.195219512,94.7346739 -0.245439024,94.7410326 -0.245439024,94.2542391 L-0.245439024,93.4339674 C-0.245439024,92.9429348 0.205121951,92.9464674 0.205121951,92.9464674" id="Fill-12" sketch:type="MSShapeGroup"></path>
                <path d="M58.5906098,92.9464674 L66.9687805,92.9464674 L66.9687805,94.7346739 L65.2004878,94.7346739 C64.5992683,94.7346739 64.3538293,94.998913 64.3538293,95.6595109 L64.3538293,104.66837 C64.3538293,105.65538 64.7598293,106.057391 65.7253171,106.057391 L66.2968293,106.057391 C68.2476098,106.057391 69.0772927,104.932609 69.0772927,102.317772 L69.0772927,102.05212 C69.0772927,101.637391 69.426,101.635978 69.426,101.635978 L71.0096829,101.635978 L71.0096829,107.031685 C71.0096829,107.031685 70.9283415,107.765761 70.2585122,107.765761 L58.1633902,107.765761 L58.1633902,105.974728 L59.1918293,105.974728 C59.9946341,105.974728 60.2358293,105.734511 60.2358293,104.911413 L60.2358293,95.5429348 C60.2358293,94.9551087 59.9507805,94.7346739 59.1918293,94.7346739 L58.577878,94.7346739 C58.577878,94.7346739 58.1442927,94.7410326 58.1442927,94.2542391 L58.1442927,93.4339674 C58.1442927,92.9429348 58.5906098,92.9464674 58.5906098,92.9464674" id="Fill-13" sketch:type="MSShapeGroup"></path>
                <path d="M27.782,101.113152 C27.782,105.394674 25.1387561,108.29 20.835439,108.29 C16.5483902,108.29 13.8167317,105.292935 13.8167317,101.089837 C13.8167317,95.2052174 16.6629756,92.428587 20.7286341,92.428587 L20.8729268,92.428587 C23.7283659,92.5275 27.782,93.0778804 27.782,101.113152 M19.2673171,105.83837 C19.7079756,106.176793 20.2328049,106.340707 20.835439,106.340707 C22.9290976,106.340707 23.4100732,104.853478 23.4100732,100.935815 C23.4100732,99.1045109 23.2198049,96.4854348 22.7720732,95.7061413 C22.2691707,94.8378261 21.763439,94.3531522 20.8149268,94.3531522 C19.8904634,94.3531522 19.3048049,94.8816304 18.9249756,95.6609239 C18.4220732,96.6288587 18.2600976,99.0020652 18.2600976,101.013533 C18.2600976,103.766141 18.3018293,105.0725 19.2673171,105.83837" id="Fill-14" sketch:type="MSShapeGroup"></path>
                <path d="M28.1377805,92.9464674 L35.1444634,92.9464674 L35.1444634,94.6357609 L34.4003659,94.6357609 C33.6930488,94.6357609 33.4384146,94.7933152 33.4384146,95.2002717 C33.4384146,95.3804348 33.5756341,95.9209239 33.7743902,96.5271196 L35.7527561,104.507989 L37.8018537,96.9446739 C38.2234146,95.68 38.3040488,95.4002174 38.3040488,95.1388043 C38.3040488,94.7346739 38.0826585,94.6357609 37.2374146,94.6357609 L36.8080732,94.6357609 C36.8080732,94.6357609 36.5781951,94.6082065 36.5781951,94.346087 L36.5781951,93.2644022 C36.5781951,92.9464674 36.8717317,92.9464674 36.8717317,92.9464674 L42.4036585,92.9464674 L42.4036585,94.6357609 L41.9233902,94.6357609 C41.3030732,94.6357609 41.0010488,94.8773913 40.7591463,95.5796739 L40.4153902,96.5271196 L37.162439,107.293098 C37.162439,107.293098 37.0315854,107.765761 36.5385854,107.765761 L33.1342683,107.765761 L29.9294146,96.9086413 C29.3494146,95.1388043 29.0325366,94.64 28.2332683,94.64 L28.0953415,94.6357609 C28.0953415,94.6357609 27.782,94.6894565 27.782,94.2846196 L27.782,93.4339674 C27.782,92.9874457 27.866878,92.9464674 28.1377805,92.9464674" id="Fill-15" sketch:type="MSShapeGroup"></path>
                <path d="M43.8260732,107.765054 L43.8260732,105.974728 L44.8141951,105.974728 C45.516561,105.974728 45.7966585,105.65538 45.7966585,104.83087 L45.7966585,95.7188587 C45.7966585,95.0179891 45.4932195,94.7346739 44.8141951,94.7346739 L44.1627561,94.7346739 C44.1627561,94.7346739 43.8260732,94.7311413 43.8260732,94.378587 L43.8260732,93.4975543 C43.8260732,92.9457609 43.8713415,92.9457609 44.3183659,92.9457609 L56.5217073,92.9457609 L56.5217073,98.1118478 L54.7527073,98.1316304 C54.6713659,96.6260326 54.5928537,96.263587 54.1465366,95.5422283 C53.8027805,94.9544022 53.1407317,94.6760326 52.1349268,94.6760326 L50.2067805,94.6760326 C49.3778049,94.6760326 49.6218293,95.0971196 49.6218293,96.1441848 L49.6218293,98.6353804 L50.1261463,98.6353804 C50.8292195,98.6141848 51.1729756,98.7208696 51.1729756,97.7564674 L51.1729756,97.4696196 C51.1729756,97.1566304 51.4700488,97.1502717 51.4700488,97.1502717 L52.8797317,97.1502717 L52.8797317,103.357065 C52.8797317,103.357065 51.7310488,103.376848 51.4269024,103.376848 C51.127,103.376848 51.1496341,103.125326 51.1496341,103.125326 L51.1496341,102.617337 C51.1496341,101.693913 50.7881951,101.815435 50.0073171,101.815435 L49.6218293,101.815435 L49.6218293,104.507989 C49.6218293,105.791739 49.3778049,106.097663 50.6856341,106.097663 L51.7763171,106.097663 C53.826122,106.073641 54.7527073,105.029402 54.7527073,102.759348 C54.7527073,102.420217 55.0497805,102.396196 55.0497805,102.396196 L56.6030488,102.396196 L56.6030488,107.211848 C56.6030488,107.211848 56.5973902,107.765054 56.1079268,107.765054 L43.8260732,107.765054" id="Fill-16" sketch:type="MSShapeGroup"></path>
                <path d="M70.3929024,92.9464674 L77.4604146,92.9464674 L77.4604146,94.7346739 L76.6788293,94.7346739 C76.0917561,94.7346739 75.993439,94.7933152 75.993439,95.0978261 C75.993439,95.3196739 76.0585122,95.4404891 76.4340976,96.1229891 L77.9024878,100.66875 L79.8299268,95.9392935 C80.0732439,95.5563587 80.1736829,95.2963587 80.1736829,95.0978261 C80.1736829,94.8773913 80.0951707,94.7346739 79.9296585,94.7346739 L78.8460488,94.7346739 L78.8460488,92.9464674 L84.4755854,92.9464674 L84.4755854,94.7346739 L83.957122,94.7346739 C83.4704878,94.7346739 83.3092195,94.7558696 83.1352195,94.8773913 C82.9675854,94.9777174 82.8473415,95.0978261 82.7511463,95.2172283 C82.7511463,95.2363043 82.6259512,95.4404891 82.386878,95.8396739 L78.8460488,103.181141 L78.8460488,105.150217 C78.8460488,105.815761 79.0285366,105.995217 79.689878,105.995217 L81.3817805,105.995217 L81.3817805,107.266957 C81.3817805,107.266957 81.3916829,107.765761 80.9736585,107.765761 L72.9845122,107.765761 L72.9845122,105.995217 L74.6226585,105.995217 C75.2076098,105.995217 75.3893902,105.792446 75.3893902,105.150217 L75.3893902,103.181141 L71.8874634,95.7619565 C71.3293902,94.7933152 71.2621951,94.7346739 70.6609756,94.7346739 L70.3639024,94.7346739 C69.9388049,94.7346739 69.9388049,94.6725 69.9388049,94.3531522 L69.9388049,93.3294022 C69.9388049,92.9415217 70.3929024,92.9464674 70.3929024,92.9464674" id="Fill-17" sketch:type="MSShapeGroup"></path>
                <path d="M161.219488,107.765054 L161.219488,105.974728 L162.206195,105.974728 C162.910683,105.974728 163.187951,105.65538 163.187951,104.83087 L163.187951,95.7188587 C163.187951,95.0179891 162.887341,94.7346739 162.206195,94.7346739 L161.556171,94.7346739 C161.556171,94.7346739 161.219488,94.7311413 161.219488,94.378587 L161.219488,93.4975543 C161.219488,92.9457609 161.264756,92.9457609 161.708951,92.9457609 L173.915122,92.9457609 L173.915122,98.1118478 L172.143293,98.1316304 C172.065488,96.6260326 171.983439,96.263587 171.539951,95.5422283 C171.196902,94.9544022 170.534146,94.6760326 169.529049,94.6760326 L167.597366,94.6760326 C166.771927,94.6760326 167.015951,95.0971196 167.015951,96.1441848 L167.015951,98.6353804 L167.518146,98.6353804 C168.220512,98.6141848 168.562854,98.7208696 168.562854,97.7564674 L168.562854,97.4696196 C168.562854,97.1566304 168.860634,97.1502717 168.860634,97.1502717 L170.270317,97.1502717 L170.270317,103.357065 C170.270317,103.357065 169.124463,103.376848 168.821024,103.376848 C168.517585,103.376848 168.540927,103.125326 168.540927,103.125326 L168.540927,102.617337 C168.540927,101.693913 168.180902,101.815435 167.397902,101.815435 L167.015951,101.815435 L167.015951,104.507989 C167.015951,105.791739 166.771927,106.097663 168.076927,106.097663 L169.169732,106.097663 C171.220244,106.073641 172.143293,105.029402 172.143293,102.759348 C172.143293,102.420217 172.440366,102.396196 172.440366,102.396196 L173.994341,102.396196 L173.994341,107.211848 C173.994341,107.211848 173.990805,107.765054 173.498512,107.765054 L161.219488,107.765054" id="Fill-18" sketch:type="MSShapeGroup"></path>
                <path d="M147.869585,92.9464674 L156.247756,92.9464674 L156.247756,94.7346739 L154.47522,94.7346739 C153.878244,94.7346739 153.630683,94.998913 153.630683,95.6595109 L153.630683,104.66837 C153.630683,105.65538 154.038805,106.057391 155.001463,106.057391 L155.572268,106.057391 C157.526585,106.057391 158.356268,104.932609 158.356268,102.317772 L158.356268,102.05212 C158.356268,101.637391 158.702146,101.635978 158.702146,101.635978 L160.285122,101.635978 L160.285122,107.031685 C160.285122,107.031685 160.20661,107.765761 159.537488,107.765761 L147.439537,107.765761 L147.439537,105.974728 L148.467268,105.974728 C149.272902,105.974728 149.514805,105.734511 149.514805,104.911413 L149.514805,95.5429348 C149.514805,94.9551087 149.229049,94.7346739 148.467268,94.7346739 L147.856146,94.7346739 C147.856146,94.7346739 147.422561,94.7410326 147.422561,94.2542391 L147.422561,93.4339674 C147.422561,92.9429348 147.869585,92.9464674 147.869585,92.9464674" id="Fill-19" sketch:type="MSShapeGroup"></path>
                <path d="M132.95439,92.9492935 L145.954171,92.9492935 L145.954171,98.7576087 L144.374732,98.7576087 C143.917098,98.7576087 143.920634,98.2715217 143.920634,98.2715217 L143.920634,97.1884239 C143.920634,95.2794022 143.521707,94.7346739 142.086561,94.7346739 L140.905341,94.7346739 L140.905341,105.08875 C140.882,105.755707 141.146537,105.978261 141.901951,105.978261 L143.460171,105.99875 L143.460171,107.121413 C143.460171,107.121413 143.52878,107.765761 142.801659,107.765761 L134.537366,107.765761 L134.537366,105.99875 L135.620976,105.99875 C137.010854,105.99875 137.169293,105.85462 137.169293,104.671196 L137.169293,94.7346739 L136.348805,94.7346739 C134.69722,94.7346739 134.296171,95.2998913 134.296171,97.6490761 L134.296171,98.7745652 L132.57739,98.7745652 C132.57739,98.7745652 132.184122,98.8035326 132.184122,98.294837 L132.184122,93.5286413 C132.184122,92.8736957 132.95439,92.9492935 132.95439,92.9492935" id="Fill-20" sketch:type="MSShapeGroup"></path>
                <path d="M93.7683171,92.9464674 L102.14578,92.9464674 L102.14578,94.7346739 L100.373244,94.7346739 C99.775561,94.7346739 99.5287073,94.998913 99.5287073,95.6595109 L99.5287073,104.66837 C99.5287073,105.65538 99.936122,106.057391 100.89878,106.057391 L101.469585,106.057391 C103.425317,106.057391 104.253585,104.932609 104.253585,102.317772 L104.253585,102.05212 C104.253585,101.637391 104.599463,101.635978 104.599463,101.635978 L106.183146,101.635978 L106.183146,107.031685 C106.183146,107.031685 106.103927,107.765761 105.434805,107.765761 L93.3368537,107.765761 L93.3368537,105.974728 L94.3652927,105.974728 C95.1709268,105.974728 95.412122,105.734511 95.412122,104.911413 L95.412122,95.5429348 C95.412122,94.9551087 95.1270732,94.7346739 94.3652927,94.7346739 L93.7541707,94.7346739 C93.7541707,94.7346739 93.3205854,94.7410326 93.3205854,94.2542391 L93.3205854,93.4339674 C93.3205854,92.9429348 93.7683171,92.9464674 93.7683171,92.9464674" id="Fill-21" sketch:type="MSShapeGroup"></path>
                <path d="M115.676049,92.9464674 L115.676049,94.6152717 L115.096049,94.6152717 C113.724561,94.6357609 113.588049,94.7805978 113.588049,96.022663 L113.588049,104.707228 C113.588049,105.691413 113.826415,105.995217 114.608707,105.995217 L115.676049,105.995217 L115.676049,107.252826 C115.676049,107.252826 115.676049,107.765761 115.232561,107.765761 L107.641634,107.765761 L107.641634,105.995217 L108.526488,105.995217 C109.475707,105.995217 109.674463,105.714728 109.674463,104.528478 L109.674463,95.8820652 C109.674463,94.9551087 109.354049,94.6357609 108.469195,94.6357609 L108.023585,94.6357609 C107.856659,94.6357609 107.624659,94.6272826 107.624659,94.3142935 L107.624659,93.3802717 C107.624659,92.9464674 108.005902,92.9464674 108.005902,92.9464674 L115.676049,92.9464674" id="Fill-22" sketch:type="MSShapeGroup"></path>
                <path d="M117.89278,92.9492935 L130.891854,92.9492935 L130.891854,98.7576087 L129.313122,98.7576087 C128.855488,98.7576087 128.860439,98.2715217 128.860439,98.2715217 L128.860439,97.1884239 C128.860439,95.2794022 128.460098,94.7346739 127.02778,94.7346739 L125.842317,94.7346739 L125.842317,105.08875 C125.82039,105.755707 126.08422,105.978261 126.845293,105.978261 L128.398561,105.99875 L128.398561,107.121413 C128.398561,107.121413 128.467171,107.765761 127.738634,107.765761 L119.475756,107.765761 L119.475756,105.99875 L120.562195,105.99875 C121.949244,105.99875 122.107683,105.85462 122.107683,104.671196 L122.107683,94.7346739 L121.287902,94.7346739 C119.63561,94.7346739 119.236683,95.2998913 119.236683,97.6490761 L119.236683,98.7745652 L117.517902,98.7745652 C117.517902,98.7745652 117.122512,98.8035326 117.122512,98.294837 L117.122512,93.5286413 C117.122512,92.8736957 117.89278,92.9492935 117.89278,92.9492935" id="Fill-23" sketch:type="MSShapeGroup"></path>
                <path d="M119.293268,77.9293478 L118.451561,77.9293478 L118.453683,80.1930435 L118.072439,80.1930435 L118.067488,77.9293478 L117.210927,77.9328804 L117.210927,77.595163 L119.293268,77.5895109 L119.293268,77.9293478 L119.293268,77.9293478 Z M122.621902,80.1852717 L122.238537,80.1852717 L122.237122,77.9971739 L122.226512,77.9971739 L121.358634,80.1866848 L121.111073,80.1888043 L120.229049,78.0007065 L120.213488,78.0007065 L120.216317,80.1895109 L119.837195,80.1895109 L119.835073,77.5866848 L120.41861,77.5866848 L121.23839,79.5769565 L122.053927,77.5831522 L122.619073,77.5831522 L122.621902,80.1852717 L122.621902,80.1852717 Z" id="Fill-24" sketch:type="MSShapeGroup"></path>
                <path d="M104.081,51.2602717 L101.786463,51.2652174 C101.786463,51.2652174 101.623073,56.1896739 101.46039,58.225163 C101.291341,60.2663043 99.3285366,64.1655978 91.205,64.2920652 C82.8926098,64.4227717 80.4127561,60.3277717 79.7627317,56.95625 C79.7457561,56.5146739 79.7337317,56.0526087 79.7337317,55.5693478 L79.7011951,40.4172826 C78.2427073,41.8197283 76.3789268,43.4150543 73.9896098,45.352337 C71.7962195,43.5853261 70.0477317,42.1044565 68.6422927,40.7945652 L68.6727073,55.5855978 C68.6896829,63.1778804 66.5924878,65.0748913 64.7923659,65.4825543 L62.1979268,65.8902174 L62.1993415,68.0846739 L72.1258293,68.0613587 L86.2643902,68.0415761 L104.114244,68.0055435 L104.081,51.2602717" id="Fill-25" sketch:type="MSShapeGroup"></path>
                <path d="M68.5163902,15.6784239 L68.5383171,25.7527174 C68.7179756,25.7357609 68.888439,25.7046739 69.0723415,25.7046739 C72.2750732,25.6997283 73.9683902,30.1253804 73.9683902,30.1253804 C73.9683902,30.1253804 75.658878,25.6933696 78.8552439,25.6855978 C79.0837073,25.6855978 79.2966098,25.7195109 79.5130488,25.74 L79.4925366,15.6621739 C79.4748537,8.15891304 81.5416341,6.28521739 83.3240732,5.8888587 L85.8866829,5.48048913 L85.8852683,3.31146739 L62.0663659,3.35456522 L62.073439,5.52358696 L64.641,5.91782609 C66.4213171,6.30853261 68.5029512,8.17516304 68.5163902,15.6784239" id="Fill-26" sketch:type="MSShapeGroup"></path>
                <path d="M115.141317,57.8245652 L107.621122,47.7509783 L97.9216829,47.7714674 L97.935122,53.3657065 C97.9414878,57.0586957 96.1470244,59.4629891 94.2436341,59.4658152 C92.6436829,59.4700543 90.6426829,58.77625 90.6370244,56.0780435 L90.6101463,42.9395652 C93.6622195,39.8753804 94.6468049,37.7430978 94.6411463,34.9911957 C94.6333659,31.5129891 93.0129024,29.478913 90.5811463,28.9313587 L90.5754878,25.6771196 C90.5627561,20.2835326 92.1577561,18.1830435 93.9614146,17.9809783 L97.0601707,17.4722826 L97.0439024,9.5811413 L89.625561,-0.187228261 L58.5616098,-0.132119565 L58.5807073,9.05831522 L61.783439,9.64684783 C63.6825854,9.84538043 65.0823659,11.2372283 65.0922683,15.8345652 L65.1120732,25.0716304 C64.1656829,25.7689674 61.8478049,27.8482609 61.8478049,31.6253261 C61.8478049,35.6927717 64.1897317,38.4566848 65.1417805,39.4168478 L65.1743171,55.3241848 C65.1799756,58.8207609 64.4853902,61.6171739 62.5883659,62.0191848 L58.6917561,62.6282065 L58.711561,71.8186413 L65.1276341,80.195163 L115.187293,80.097663 L115.141317,57.8245652 L115.141317,57.8245652 Z M60.5039024,70.0177174 L60.494,64.3210326 L63.6889512,63.8186957 C66.0881707,63.3078804 66.8810732,60.4125543 66.8711707,55.8194565 L66.8365122,38.9809239 C64.5780488,36.5328261 63.7427073,34.6344022 63.6521707,32.3480978 C63.6493415,32.2859239 63.6458049,32.2209239 63.6458049,32.1615761 C63.6443902,32.0902174 63.6387317,32.0252174 63.6387317,31.9559783 C63.6387317,31.8881522 63.6493415,31.8309239 63.6514634,31.7623913 C63.6564146,31.6154348 63.6677317,31.4698913 63.6825854,31.3271739 C63.842439,28.6466304 65.0137561,26.89375 66.8103415,26.1391848 L66.789122,15.8310326 C66.7792195,11.1347826 65.5753659,8.24440217 63.5708293,7.84521739 L60.375878,7.3548913 L60.3631463,1.66103261 L87.8310976,1.61228261 L87.843122,7.30543478 L84.6453415,7.8098913 C82.6443415,8.21684783 81.4503902,11.1121739 81.4595854,15.8070109 L81.4793902,26.3002717 C83.2109024,27.1919022 84.3121951,29.0592391 84.316439,31.9114674 C84.3220976,34.2613587 83.6112439,36.1534239 81.5048537,38.5619565 L81.5338537,53.2003804 C81.548,58.8921196 82.9598049,62.0841848 90.2515366,62.0693478 C97.252561,62.0538043 99.7493902,59.7547826 99.7380732,54.9617391 L99.7267561,49.466413 L106.024707,49.4515761 L106.07139,69.9294022 L60.5039024,70.0177174 L60.5039024,70.0177174 Z" id="Fill-27" sketch:type="MSShapeGroup"></path>
            </g>
        </g>
    </g>
</svg>