<svg width="140" height="140" viewBox="0 0 140 140" xmlns="http://www.w3.org/2000/svg" xmlns:sketch="http://www.bohemiancoding.com/sketch/ns"><title>logo-lifeline_response</title><desc>Created with Sketch.</desc><path sketch:type="MSShapeGroup" d="M121.405 130.583v-.02.02m-117.657-29.418v16.801h9.309v3.04h-12.951v-19.841h3.642m15.774 0h3.642v19.842h-3.642v-19.842zm15.089 19.842h-3.644v-19.841h12.667v3.039h-9.023v5.131h7.716v3.04h-7.716v8.631m18.91-3.041h9.783v3.04h-13.425v-19.841h12.889v3.039h-9.248v5.131h7.94v3.04h-7.94v5.59m20.336-16.8v16.801h9.308v3.04h-12.95v-19.841h3.643m15.773 0h3.642v19.842h-3.642v-19.842zm21.81 9.223c1.426 2.027 2.586 3.826 3.478 5.397h.09c-.12-2.579-.178-4.459-.178-5.633v-8.987h3.642v19.841h-3.822l-6.482-9.136c-1.14-1.58-2.322-3.415-3.54-5.501h-.089c.119 2.432.178 4.315.178 5.65v8.986h-3.642v-19.841h3.822l6.543 9.223m18.478 7.579h9.783v3.04h-13.425v-19.841h12.889v3.039h-9.247v5.131h7.94v3.04h-7.94v5.59m-116.785 21.444c-.19 0-.357-.077-.501-.228l-5.06-5.439h-3.954c-.449 0-.675-.212-.675-.639 0-.425.226-.638.675-.638h5.866c.463 0 .876-.123 1.238-.369.397-.273.595-.624.595-1.052v-1.513c0-.429-.198-.783-.595-1.064-.362-.245-.775-.369-1.238-.369h-7.691v10.66c0 .425-.225.639-.672.639-.449 0-.674-.214-.674-.639v-11.297c0-.426.225-.64.674-.64h8.363c.837 0 1.57.25 2.192.747.66.52.99 1.174.99 1.963v1.513c0 .781-.331 1.433-.99 1.961-.622.491-1.354.737-2.192.737h-.11l4.269 4.602c.114.125.174.262.174.413 0 .432-.228.651-.684.651m15.777.001h-8.94c-.448 0-.672-.215-.672-.641v-11.307c0-.426.224-.64.672-.64h8.363c.45 0 .675.213.675.64 0 .424-.225.638-.675.638h-7.689v2.851h7.689c.45 0 .675.212.675.639 0 .419-.225.627-.675.627h-7.689v5.913h8.266c.448 0 .674.215.674.639 0 .426-.226.641-.674.641m15.549 0h-8.363c-.449 0-.674-.215-.674-.641 0-.424.225-.639.674-.639h8.363c.462 0 .875-.122 1.237-.367.396-.275.596-.624.596-1.05v-1.538c0-.427-.2-.777-.596-1.05-.362-.245-.776-.369-1.237-.369h-5.865c-.841 0-1.567-.25-2.185-.748-.656-.528-.987-1.18-.987-1.961v-1.528c0-.778.331-1.433.987-1.959.618-.493 1.344-.737 2.185-.737h5.865c.448 0 .672.213.672.64 0 .424-.225.638-.672.638h-5.865c-.456 0-.866.123-1.229.369-.397.281-.595.632-.595 1.05v1.528c0 .42.198.769.595 1.052.363.254.772.38 1.229.38h5.865c.837 0 1.57.244 2.191.737.66.527.991 1.179.991 1.96v1.538c0 .795-.342 1.455-1.022 1.981-.623.476-1.343.717-2.16.717m18.729-5.658h-5.866c-.449 0-.674-.212-.674-.639 0-.427.225-.638.674-.638h5.866c.463 0 .876-.126 1.238-.38.396-.273.597-.624.597-1.052v-1.528c0-.424-.201-.775-.597-1.05-.363-.245-.775-.369-1.238-.369h-7.691v10.669c0 .426-.225.641-.674.641-.447 0-.672-.215-.672-.641v-11.307c0-.426.225-.64.672-.64h8.365c.838 0 1.572.244 2.192.737.659.527.99 1.181.99 1.959v1.528c0 .797-.336 1.456-1.011 1.983-.629.485-1.355.726-2.171.726m18.731 5.656h-5.868c-.84 0-1.565-.246-2.183-.737-.657-.528-.985-1.182-.985-1.961v-7.18c0-.789.323-1.443.977-1.963.621-.497 1.351-.747 2.191-.747h5.868c.839 0 1.57.25 2.194.747.66.52.988 1.174.988 1.963v7.18c0 .795-.341 1.455-1.02 1.981-.623.476-1.344.717-2.162.717zm1.835-9.878c0-.429-.198-.783-.597-1.064-.363-.245-.776-.369-1.237-.369h-5.868c-.462 0-.87.127-1.223.379-.401.277-.599.625-.599 1.055v7.18c0 .418.198.769.599 1.05.359.245.77.367 1.223.367h5.868c.462 0 .874-.122 1.237-.367.399-.275.597-.624.597-1.05v-7.18zm19.445 9.878c-.2 0-.38-.085-.542-.251l-9.698-10.008v9.618c0 .426-.225.641-.674.641-.448 0-.674-.215-.674-.641v-11.275c0-.454.211-.683.63-.683.195 0 .378.088.544.261l9.698 10.007v-9.63c0-.425.225-.638.674-.638.45 0 .675.213.675.638v11.278c0 .455-.212.683-.634.683m16.181 0h-8.363c-.449 0-.672-.215-.672-.641 0-.424.223-.639.672-.639h8.363c.463 0 .877-.122 1.239-.367.398-.275.598-.624.598-1.05v-1.538c0-.427-.2-.777-.598-1.05-.362-.245-.776-.369-1.239-.369h-5.866c-.839 0-1.565-.25-2.183-.748-.657-.528-.986-1.18-.986-1.961v-1.528c0-.778.33-1.433.986-1.959.618-.493 1.344-.737 2.183-.737h5.866c.449 0 .675.213.675.64 0 .424-.226.638-.675.638h-5.866c-.455 0-.864.123-1.225.369-.401.281-.598.632-.598 1.05v1.528c0 .42.197.769.598 1.052.361.254.769.38 1.225.38h5.866c.84 0 1.572.244 2.195.737.66.527.987 1.179.987 1.96v1.538c0 .795-.34 1.455-1.018 1.981-.624.476-1.345.717-2.164.717m19.307-.003h-8.939c-.448 0-.672-.215-.672-.641v-11.307c0-.426.225-.64.672-.64h8.365c.448 0 .672.213.672.64 0 .424-.224.638-.672.638h-7.691v2.851h7.691c.448 0 .672.212.672.639 0 .419-.224.627-.672.627h-7.691v5.913h8.266c.448 0 .675.215.675.639 0 .426-.228.641-.675.641m-68.03-135.936c23.421 0 42.459 18.709 42.91 41.96.05-.85.079-1.706.079-2.568 0-23.677-19.246-42.872-42.987-42.872-23.742 0-42.988 19.195-42.988 42.872 0 .873.029 1.741.081 2.601.434-23.266 19.475-41.993 42.906-41.993m-.001 14.816c16.708 0 30.252 13.506 30.252 30.17 0 5.522-1.495 10.693-4.092 15.145 3.77-5.253 5.996-11.684 5.996-18.637 0-17.711-14.396-32.068-32.156-32.068-17.759 0-32.153 14.357-32.153 32.068 0 6.953 2.226 13.384 5.995 18.637-2.597-4.452-4.092-9.623-4.092-15.145 0-16.664 13.542-30.17 30.25-30.17m21.851 31.963c0-12.035-9.782-21.792-21.851-21.792-12.069 0-21.851 9.757-21.851 21.792 0 9.183 4.194 16.264 12.255 19.472-6.746-3.092-9.929-9.114-9.929-17.003 0-10.799 8.781-19.554 19.609-19.554 10.831 0 19.607 8.755 19.607 19.554 0 7.421-4.143 13.875-10.249 17.189 7.341-3.514 12.409-10.995 12.409-19.658m-8.491 35.057l-13.014-31.071-16.231 31.071-37.898 4.447 41.728.89 11.727-27.747 9.571 27.747 44.543-.89-40.426-4.447" fill="#999"/></svg>