<?xml version="1.0" encoding="UTF-8" standalone="no"?>
<svg width="359px" height="65px" viewBox="0 0 359 65" version="1.1" xmlns="http://www.w3.org/2000/svg" xmlns:xlink="http://www.w3.org/1999/xlink" xmlns:sketch="http://www.bohemiancoding.com/sketch/ns">
    <!-- Generator: Sketch 3.1.1 (8761) - http://www.bohemiancoding.com/sketch -->
    <title>logo-chaat20</title>
    <desc>Created with Sketch.</desc>
    <defs></defs>
    <g id="Page-1" stroke="none" stroke-width="1" fill="none" fill-rule="evenodd" sketch:type="MSPage">
        <g id="Desktop" sketch:type="MSArtboardGroup" transform="translate(-421.000000, -2827.000000)" fill="#FFFFFF">
            <g id="chaat20" sketch:type="MSLayerGroup" transform="translate(0.000000, 2753.000000)">
                <g id="logo-chaat20" transform="translate(421.000000, 75.000000)" sketch:type="MSShapeGroup">
                    <path d="M308.480286,47.4732005 C310.181679,47.4732005 311.032376,48.3197857 311.032376,50.0145872 L311.032376,59.5031919 C311.032376,61.1971778 310.181679,62.0445785 308.480286,62.0445785 L272.249124,62.0445785 C270.633701,62.0445785 269.697853,61.1131717 269.697853,59.5031919 L269.697853,52.2175029 C269.697853,32.7313636 294.702111,27.2244822 296.063717,20.531729 C296.573808,17.9903423 295.213021,15.7874266 291.896204,15.7874266 C287.898176,15.7874266 285.942147,17.9903423 285.346905,21.4639514 C285.092269,23.1579373 284.241572,23.9205164 282.540179,23.5820455 L272.845185,21.4639514 C271.314095,21.1246648 270.54855,20.1932581 270.633701,18.6680998 C271.143792,12.5682825 274.375456,1.21604862 291.896204,1.21604862 C310.947224,1.21604862 311.627618,16.2107192 311.542466,18.7529215 C311.542466,35.3575719 289.258963,37.9845958 286.282753,46.5409781 C286.11245,47.133914 286.367904,47.4732005 287.048298,47.4732005 L308.480286,47.4732005" id="Fill-1"></path>
                    <path d="M337.293438,0.453469505 C316.626177,0.453469505 315.945783,20.1932581 315.945783,31.6303136 C315.945783,42.7280826 317.137086,62.8071577 337.293438,62.8071577 C357.450609,62.8071577 358.641093,42.7280826 358.641093,31.6303136 C358.641093,20.531729 358.131002,0.453469505 337.293438,0.453469505 L337.293438,0.453469505 Z M341.810563,50.0162184 C341.810563,51.07812 341.248891,51.6930768 340.127183,51.6930768 L333.843163,51.6930768 C332.77795,51.6930768 332.160601,51.07812 332.160601,50.0162184 L332.160601,43.7573605 C332.160601,42.6399986 332.77795,42.080502 333.843163,42.080502 L340.127183,42.080502 C341.248891,42.080502 341.810563,42.6399986 341.810563,43.7573605 L341.810563,50.0162184 L341.810563,50.0162184 Z M350.786682,23.1359163 C350.786682,32.4124669 344.279139,33.1954358 342.259247,37.8337112 C341.866239,38.7838766 341.361062,39.2308213 340.351525,39.2308213 L334.011829,39.2308213 C332.890121,39.2308213 332.216277,38.5595886 332.441438,37.3867664 C333.787487,29.7862586 339.397664,30.568412 340.575866,24.868235 C340.912378,23.1913766 340.015012,21.1793096 337.827273,21.1793096 C335.190031,21.1793096 333.899658,22.6326956 333.506651,24.9236953 C333.338804,26.0418728 332.77795,26.5442779 331.655424,26.3208055 L325.260052,24.9236953 C324.249696,24.700223 323.745337,24.0852661 323.801013,23.0796404 C324.137525,19.0563219 326.269589,11.5675503 337.827273,11.5675503 C350.393675,11.5675503 350.842358,21.4590578 350.786682,23.1359163 L350.786682,23.1359163 Z" id="Fill-2"></path>
                    <path d="M0.153109019,20.7837471 C0.153109019,15.0574712 1.37306858,-0.300953682 22.0174045,-0.300953682 C40.5714338,-0.300953682 43.446117,12.1066571 43.7940921,18.7879919 C43.8816999,20.003225 43.0973232,20.9574684 41.8781824,21.2176424 L32.2093888,23.3871188 C30.3794495,23.7345613 28.9859118,22.5193283 28.7247258,20.6972943 C28.2891429,16.8795052 26.7212083,14.6235759 22.0174045,14.6235759 C15.5712691,14.6235759 15.1356863,18.7015391 15.1356863,25.382874 L15.1356863,37.8777532 C15.1356863,44.559088 15.5712691,48.6370512 22.0174045,48.6370512 C26.8079974,48.6370512 28.114746,46.381122 28.6379367,42.3896116 C28.8991227,40.5675777 30.2926604,39.4396131 32.0349919,39.8735083 L41.8781824,42.0421692 C43.0973232,42.3031588 43.8816999,43.2574022 43.7940921,44.559088 C43.446117,51.1531545 40.5714338,63.5615808 22.0174045,63.5615808 C1.37306858,63.5615808 0.153109019,48.2031559 0.153109019,42.4760644 L0.153109019,20.7837471" id="Fill-3"></path>
                    <path d="M62.172087,1.26090621 C63.8276294,1.26090621 64.7855843,2.2151496 64.7855843,3.86427791 L64.7855843,25.5565952 C64.7855843,27.2049079 65.7435391,28.1591513 67.3990815,28.1591513 L75.7611265,28.1591513 C77.503458,28.1591513 78.3746238,27.2049079 78.3746238,25.5565952 L78.3746238,3.86427791 C78.3746238,2.2151496 79.3325786,1.26090621 80.9873023,1.26090621 L90.7437037,1.26090621 C92.4860353,1.26090621 93.357201,2.12869678 93.357201,3.86427791 L93.357201,59.3963493 C93.357201,61.0454776 92.4860353,61.9997209 90.7437037,61.9997209 L80.9873023,61.9997209 C79.3325786,61.9997209 78.3746238,61.0454776 78.3746238,59.3963493 L78.3746238,45.6870526 C78.3746238,43.9514715 77.503458,43.083681 75.7611265,43.083681 L67.3990815,43.083681 C65.7435391,43.083681 64.7855843,43.9514715 64.7855843,45.6870526 L64.7855843,59.3963493 C64.7855843,61.0454776 63.9144185,61.9997209 62.172087,61.9997209 L52.4165043,61.9997209 C50.7609618,61.9997209 49.803007,61.0454776 49.803007,59.3963493 L49.803007,3.86427791 C49.803007,2.12869678 50.6741728,1.26090621 52.4165043,1.26090621 L62.172087,1.26090621" id="Fill-4"></path>
                    <path d="M144.31221,59.0497224 C144.31221,60.9582091 143.441044,61.9997209 141.698713,61.9997209 L131.94313,61.9997209 C130.287588,61.9997209 129.329633,61.1319304 129.329633,59.3963493 L129.329633,51.8480394 C129.329633,50.1124583 128.458467,49.2446677 126.716136,49.2446677 L119.225256,49.2446677 C117.570533,49.2446677 116.611759,50.1124583 116.611759,51.8480394 L116.611759,59.3963493 C116.611759,61.1319304 115.741412,61.9997209 113.999081,61.9997209 L104.242679,61.9997209 C102.587955,61.9997209 101.630001,60.9582091 101.630001,59.0497224 L101.630001,22.2591542 C101.630001,11.3261349 103.371513,-0.300953682 122.970287,-0.300953682 C142.569879,-0.300953682 144.31221,11.3261349 144.31221,22.2591542 L144.31221,59.0497224 L144.31221,59.0497224 Z M129.329633,22.2591542 C129.329633,18.0939226 128.719653,16.0117146 122.970287,16.0117146 C117.221739,16.0117146 116.611759,18.0939226 116.611759,22.2591542 L116.611759,31.7167664 C116.611759,33.3658947 117.570533,34.3201381 119.225256,34.3201381 L126.716136,34.3201381 C128.458467,34.2336853 129.329633,33.3658947 129.329633,31.6303136 L129.329633,22.2591542 L129.329633,22.2591542 Z" id="Fill-5"></path>
                    <path d="M194.831636,59.0497224 C194.831636,60.9582091 193.960471,61.9997209 192.218139,61.9997209 L182.462556,61.9997209 C180.807014,61.9997209 179.849059,61.1319304 179.849059,59.3963493 L179.849059,51.8480394 C179.849059,50.1124583 178.977893,49.2446677 177.236381,49.2446677 L169.744683,49.2446677 C168.089959,49.2446677 167.132004,50.1124583 167.132004,51.8480394 L167.132004,59.3963493 C167.132004,61.1319304 166.260838,61.9997209 164.518507,61.9997209 L154.762105,61.9997209 C153.107382,61.9997209 152.148608,60.9582091 152.148608,59.0497224 L152.148608,22.2591542 C152.148608,11.3261349 153.89094,-0.300953682 173.490532,-0.300953682 C193.089305,-0.300953682 194.831636,11.3261349 194.831636,22.2591542 L194.831636,59.0497224 L194.831636,59.0497224 Z M179.849059,22.2591542 C179.849059,18.0939226 179.239079,16.0117146 173.490532,16.0117146 C167.741165,16.0117146 167.132004,18.0939226 167.132004,22.2591542 L167.132004,31.7167664 C167.132004,33.3658947 168.089959,34.3201381 169.744683,34.3201381 L177.236381,34.3201381 C178.977893,34.2336853 179.849059,33.3658947 179.849059,31.6303136 L179.849059,22.2591542 L179.849059,22.2591542 Z" id="Fill-6"></path>
                    <path d="M215.299938,18.7879919 C215.299938,17.0524108 214.428772,16.1854358 212.687259,16.1854358 L200.491757,16.1854358 C198.837034,16.1854358 197.879079,15.2303769 197.879079,13.5820642 L197.879079,3.86427791 C197.879079,2.12869678 198.837034,1.26090621 200.491757,1.26090621 L245.090695,1.26090621 C246.833027,1.26090621 247.704193,2.12869678 247.704193,3.86427791 L247.704193,13.5820642 C247.704193,15.2303769 246.833027,16.1854358 245.090695,16.1854358 L232.896012,16.1854358 C231.241289,16.1854358 230.282515,17.0524108 230.282515,18.7879919 L230.282515,59.3963493 C230.282515,61.0454776 229.411349,61.9997209 227.669837,61.9997209 L217.913435,61.9997209 C216.258711,61.9997209 215.299938,61.0454776 215.299938,59.3963493 L215.299938,18.7879919" id="Fill-7"></path>
                </g>
            </g>
        </g>
    </g>
</svg>