<?xml version="1.0" encoding="UTF-8" standalone="no"?>
<svg width="255px" height="66px" viewBox="0 0 255 66" version="1.1" xmlns="http://www.w3.org/2000/svg" xmlns:xlink="http://www.w3.org/1999/xlink" xmlns:sketch="http://www.bohemiancoding.com/sketch/ns">
    <!-- Generator: Sketch 3.1.1 (8761) - http://www.bohemiancoding.com/sketch -->
    <title>logo-ebcfo</title>
    <desc>Created with Sketch.</desc>
    <defs></defs>
    <g id="Page-1" stroke="none" stroke-width="1" fill="none" fill-rule="evenodd" sketch:type="MSPage">
        <g id="Desktop" sketch:type="MSArtboardGroup" transform="translate(-473.000000, -4423.000000)" fill="#FFFFFF">
            <g id="logo-ebcfo" sketch:type="MSLayerGroup" transform="translate(473.000000, 4424.000000)">
                <path d="M0.0443023256,8.76761364 L41.6087442,8.76761364 L41.6087442,19.5576136 L12.0871512,19.5576136 L12.0871512,30.7405682 L38.0675116,30.7405682 L38.0675116,41.5290909 L12.0871512,41.5290909 L12.0871512,53.1035227 L42.0045116,53.1035227 L42.0045116,63.8935227 L0.0443023256,63.8935227 L0.0443023256,8.76761364" id="Fill-1" sketch:type="MSShapeGroup"></path>
                <path d="M49.6318953,8.76761364 L75.2164884,8.76761364 C81.5148023,8.76761364 86.4737093,10.5004545 89.6206512,13.6514773 C92.1414535,16.1702273 93.4011163,19.2444318 93.4011163,23.0232955 L93.4011163,23.1813636 C93.4011163,29.4006818 90.094686,32.8678409 86.1591628,35.0704545 C92.5357442,37.5123864 96.4712674,41.2144318 96.4712674,48.6155682 L96.4712674,48.7736364 C96.4712674,58.8530682 88.2856744,63.8935227 75.8455814,63.8935227 L49.6318953,63.8935227 L49.6318953,8.76761364 L49.6318953,8.76761364 Z M81.3567907,25.0693182 C81.3567907,21.4470455 78.5214419,19.3995455 73.4045233,19.3995455 L61.4399419,19.3995455 L61.4399419,31.0567045 L72.6188953,31.0567045 C77.9706163,31.0567045 81.3567907,29.3223864 81.3567907,25.2273864 L81.3567907,25.0693182 L81.3567907,25.0693182 Z M75.4512907,41.1361364 L61.4399419,41.1361364 L61.4399419,53.2630682 L75.8455814,53.2630682 C81.1973023,53.2630682 84.4269419,51.3721591 84.4269419,47.2786364 L84.4269419,47.1205682 C84.4269419,43.42 81.6713372,41.1361364 75.4512907,41.1361364 L75.4512907,41.1361364 Z" id="Fill-2" sketch:type="MSShapeGroup"></path>
                <path d="M102.443221,36.4901136 L102.443221,36.3305682 C102.443221,20.7394318 114.096209,7.82363636 129.997791,7.82363636 C139.837337,7.82363636 145.742837,11.4473864 151.410581,16.6444318 L148.498442,19.6359091 C143.694593,14.9884091 138.18486,11.5242045 129.918047,11.5242045 C116.693802,11.5242045 106.696244,22.3127273 106.696244,36.1739773 L106.696244,36.3305682 C106.696244,50.2701136 116.850337,61.1384091 129.997791,61.1384091 C137.950058,61.1384091 143.37857,58.0656818 148.969523,52.5525 L151.723651,55.2307955 C145.899372,60.9788636 139.602535,64.8360227 129.838302,64.8360227 C114.096209,64.8360227 102.443221,52.3190909 102.443221,36.4901136" id="Fill-3" sketch:type="MSShapeGroup"></path>
                <path d="M156.579186,8.76761364 L195.388023,8.76761364 L195.388023,12.5494318 L160.671244,12.5494318 L160.671244,35.14875 L191.846791,35.14875 L191.846791,38.9290909 L160.671244,38.9290909 L160.671244,63.8935227 L156.579186,63.8935227 L156.579186,8.76761364" id="Fill-4" sketch:type="MSShapeGroup"></path>
                <path d="M238.799872,20.5193182 L226.917988,30.8528409 C224.98493,30.1851136 222.755047,30.6829545 221.296023,32.2946591 C219.839953,33.9034091 219.562326,36.1651136 220.4085,38.0205682 L211.233488,50.9644318 L223.087314,40.6560227 C225.10307,41.5379545 227.541174,41.0888636 229.09914,39.3663636 C230.663012,37.6409091 230.868279,35.1635227 229.784349,33.2415909 L238.799872,20.5193182 L238.799872,20.5193182 Z M226.50007,37.0086364 C225.847349,37.7280682 224.738314,37.7827273 224.020616,37.13125 C223.299965,36.48125 223.248279,35.3718182 223.898047,34.6509091 C224.547814,33.9329545 225.659802,33.8768182 226.3775,34.5268182 C227.093721,35.1797727 227.149837,36.2892045 226.50007,37.0086364 L226.50007,37.0086364 Z" id="Fill-5" sketch:type="MSShapeGroup"></path>
                <path d="M222.518767,14.105 L223.626326,14.105 L226.187,17.4702273 L226.187,14.105 L227.372826,14.105 L227.372826,19.5709091 L226.350919,19.5709091 L223.704593,16.0963636 L223.704593,19.5709091 L222.518767,19.5709091 L222.518767,14.105" id="Fill-6" sketch:type="MSShapeGroup"></path>
                <path d="M230.020628,7.28443182 C229.732663,6.67431818 229.329512,6.13068182 228.837756,5.68011364 C229.113907,5.13204545 229.270442,4.51159091 229.270442,3.85568182 C229.270442,1.61318182 227.446663,-0.212727273 225.204965,-0.212727273 C222.961791,-0.212727273 221.136535,1.61318182 221.136535,3.85568182 C221.136535,4.58840909 221.331465,5.27534091 221.672593,5.87068182 C221.269442,6.28136364 220.934221,6.75852273 220.684651,7.28443182 C206.961267,9.52545455 196.452756,21.46625 196.452756,35.8179545 C196.452756,51.7577273 209.420047,64.7267045 225.355593,64.7267045 C241.29114,64.7267045 254.255477,51.7577273 254.255477,35.8179545 C254.255477,21.4632955 243.745488,9.52102273 230.020628,7.28443182 L230.020628,7.28443182 Z M225.204965,1.42556818 C226.544372,1.42556818 227.634209,2.51579545 227.634209,3.85568182 C227.634209,4.18068182 227.569233,4.48943182 227.454047,4.77306818 C226.811663,4.48647727 226.101349,4.32693182 225.35264,4.32693182 C224.507942,4.32693182 223.711977,4.53079545 223.00757,4.88977273 C222.859895,4.57659091 222.774244,4.22647727 222.774244,3.85568182 C222.774244,2.51579545 223.864081,1.42556818 225.204965,1.42556818 L225.204965,1.42556818 Z M226.932756,61.2772727 L225.197581,59.1884091 L223.477174,61.2580682 C211.003116,60.3451136 200.992267,50.4178409 199.945256,37.9777273 L201.841395,36.4029545 L199.875849,34.7690909 C200.426674,21.1855682 211.644023,10.3054545 225.355593,10.3054545 C239.065686,10.3054545 250.281558,21.1855682 250.83386,34.7690909 L248.868314,36.4029545 L250.764453,37.9777273 C249.707105,50.5182955 239.545628,60.5031818 226.932756,61.2772727 L226.932756,61.2772727 Z" id="Fill-7" sketch:type="MSShapeGroup"></path>
            </g>
        </g>
    </g>
</svg>