<svg width="255" height="66" viewBox="0 0 255 66" xmlns="http://www.w3.org/2000/svg" xmlns:sketch="http://www.bohemiancoding.com/sketch/ns"><title>logo-ebcfo</title><desc>Created with Sketch.</desc><g sketch:type="MSLayerGroup" fill="#fff"><path d="M.044 9.768h41.564v10.79h-29.522v11.183h25.98v10.789h-25.98v11.574h29.917v10.79h-41.96v-55.126m49.589 0h25.585c6.298 0 11.257 1.733 14.404 4.884 2.521 2.519 3.78 5.593 3.78 9.372v.158c0 6.219-3.306 9.686-7.242 11.889 6.377 2.442 10.312 6.144 10.312 13.545v.158c0 10.079-8.186 15.12-20.626 15.12h-26.214v-55.126zm31.725 16.302c0-3.622-2.835-5.67-7.952-5.67h-11.965v11.657h11.179c5.352 0 8.738-1.734 8.738-5.829v-.158zm-5.906 16.067h-14.011v12.127h14.406c5.352 0 8.581-1.891 8.581-5.984v-.158c0-3.701-2.756-5.984-8.976-5.984zm26.992-4.647v-.16c0-15.591 11.653-28.507 27.555-28.507 9.84 0 15.745 3.624 21.413 8.821l-2.912 2.991c-4.804-4.647-10.314-8.112-18.58-8.112-13.224 0-23.222 10.789-23.222 24.65v.157c0 13.94 10.154 24.808 23.302 24.808 7.952 0 13.381-3.073 18.972-8.586l2.754 2.678c-5.824 5.748-12.121 9.605-21.885 9.605-15.742 0-27.395-12.517-27.395-28.346m54.134-27.721h38.809v3.782h-34.717v22.599h31.176v3.78h-31.176v24.964h-4.092v-55.126m82.221 11.752l-11.882 10.334c-1.933-.668-4.163-.17-5.622 1.442-1.456 1.609-1.734 3.87-.888 5.726l-9.175 12.944 11.854-10.308c2.016.882 4.454.433 6.012-1.29 1.564-1.725 1.769-4.203.685-6.125l9.016-12.722zm-12.3 16.489c-.653.719-1.762.774-2.479.123-.721-.65-.772-1.759-.123-2.48.65-.718 1.762-.774 2.479-.124.716.653.772 1.762.123 2.482zm-3.981-22.903h1.108l2.561 3.365v-3.365h1.186v5.466h-1.022l-2.646-3.475v3.475h-1.186v-5.466" sketch:type="MSShapeGroup"/><path d="M230.021 8.284c-.288-.61-.691-1.154-1.183-1.604.276-.548.433-1.169.433-1.824 0-2.242-1.824-4.068-4.065-4.068-2.243 0-4.068 1.826-4.068 4.068 0 .733.195 1.42.536 2.015-.403.411-.738.888-.988 1.414-13.723 2.241-24.232 14.182-24.232 28.534 0 15.94 12.967 28.909 28.903 28.909 15.936 0 28.9-12.969 28.9-28.909 0-14.355-10.51-26.297-24.235-28.534zm-4.816-5.859c1.339 0 2.429 1.09 2.429 2.43 0 .325-.065.634-.18.917-.642-.287-1.353-.446-2.101-.446-.845 0-1.641.204-2.345.563-.148-.313-.233-.663-.233-1.034 0-1.34 1.09-2.43 2.431-2.43zm1.728 59.852l-1.735-2.089-1.72 2.07c-12.474-.913-22.485-10.84-23.532-23.28l1.896-1.575-1.966-1.634c.551-13.584 11.768-24.464 25.48-24.464 13.71 0 24.926 10.88 25.478 24.464l-1.966 1.634 1.896 1.575c-1.057 12.541-11.219 22.525-23.832 23.3z" sketch:type="MSShapeGroup"/></g></svg>