<svg xmlns="http://www.w3.org/2000/svg" viewBox="150 -2 359 65" enable-background="new 150 -2 359 65"><path d="M441.9.2c-17.5 0-20.8 11.4-21.3 17.5-.1 1.5.7 2.5 2.2 2.8l9.7 2.1c1.7.3 2.6-.4 2.8-2.1.6-3.5 2.6-5.7 6.5-5.7 3.3 0 4.7 2.2 4.2 4.7-1.4 6.7-26.4 12.2-26.4 31.7v7.3c0 1.6.9 2.5 2.6 2.5h36.2c1.7 0 2.6-.8 2.6-2.5v-9.5c0-1.7-.9-2.5-2.6-2.5h-21.4c-.7 0-.9-.3-.8-.9 3-8.6 25.3-11.2 25.3-27.8.1-2.6-.6-17.6-19.6-17.6zm45.4-.7c-20.7 0-21.3 19.7-21.3 31.2 0 11.1 1.2 31.2 21.3 31.2s21.3-20.1 21.3-31.2c0-11.2-.5-31.2-21.3-31.2zm4.5 49.5c0 1.1-.6 1.7-1.7 1.7h-6.3c-1.1 0-1.7-.6-1.7-1.7v-6.3c0-1.1.6-1.7 1.7-1.7h6.3c1.1 0 1.7.6 1.7 1.7v6.3zm9-26.9c0 9.3-6.5 10.1-8.5 14.7-.4 1-.9 1.4-1.9 1.4h-6.4c-1.1 0-1.8-.7-1.6-1.8 1.3-7.6 7-6.8 8.1-12.5.3-1.7-.6-3.7-2.7-3.7-2.6 0-3.9 1.5-4.3 3.7-.2 1.1-.7 1.6-1.9 1.4l-6.4-1.4c-1-.2-1.5-.8-1.5-1.8.3-4 2.5-11.5 14-11.5 12.7 0 13.1 9.9 13.1 11.5zm-328.8-8.5c4.7 0 6.3 2.3 6.7 6.1.3 1.8 1.7 3 3.5 2.7l9.7-2.2c1.2-.3 2-1.2 1.9-2.4-.3-6.7-3.2-19.1-21.8-19.1-20.6 0-21.9 15.4-21.9 21.1v21.7c0 5.7 1.2 21.1 21.9 21.1 18.6 0 21.4-12.4 21.8-19 .1-1.3-.7-2.3-1.9-2.5l-9.8-2.2c-1.7-.4-3.1.7-3.4 2.5-.5 4-1.8 6.2-6.6 6.2-6.4 0-6.9-4.1-6.9-10.8v-12.4c-.1-6.7.4-10.8 6.8-10.8zm68.7-13.3h-9.7c-1.7 0-2.6 1-2.6 2.6v21.7c0 1.6-.9 2.6-2.6 2.6h-8.4c-1.7 0-2.6-1-2.6-2.6v-21.7c0-1.6-1-2.6-2.6-2.6h-9.8c-1.7 0-2.6.9-2.6 2.6v55.5c0 1.6 1 2.6 2.6 2.6h9.8c1.7 0 2.6-1 2.6-2.6v-13.7c0-1.7 1-2.6 2.6-2.6h8.4c1.7 0 2.6.9 2.6 2.6v13.7c0 1.6 1 2.6 2.6 2.6h9.8c1.7 0 2.6-1 2.6-2.6v-55.5c0-1.8-.9-2.6-2.7-2.6zm32.3-1.6c-19.6 0-21.3 11.6-21.3 22.6v36.7c0 1.9 1 3 2.6 3h9.8c1.7 0 2.6-.9 2.6-2.6v-7.5c0-1.7 1-2.6 2.6-2.6h7.5c1.7 0 2.6.9 2.6 2.6v7.5c0 1.7 1 2.6 2.6 2.6h9.8c1.7 0 2.6-1 2.6-3v-36.7c-.1-11-1.8-22.6-21.4-22.6zm6.3 22.6v9.4c0 1.7-.9 2.6-2.6 2.7h-7.5c-1.7 0-2.6-1-2.6-2.6v-9.5c0-4.2.6-6.2 6.4-6.2 5.7-.1 6.3 2 6.3 6.2zm44.2-22.6c-19.6 0-21.3 11.6-21.3 22.6v36.7c0 1.9 1 3 2.6 3h9.8c1.7 0 2.6-.9 2.6-2.6v-7.5c0-1.7 1-2.6 2.6-2.6h7.5c1.7 0 2.6.9 2.6 2.6v7.5c0 1.7 1 2.6 2.6 2.6h9.8c1.7 0 2.6-1 2.6-3v-36.7c-.1-11-1.8-22.6-21.4-22.6zm6.3 31.9c0 1.7-.9 2.6-2.6 2.7h-7.5c-1.7 0-2.6-1-2.6-2.6v-9.5c0-4.2.6-6.2 6.4-6.2 5.7 0 6.4 2.1 6.4 6.2v9.4zm65.3-30.3h-44.6c-1.7 0-2.6.9-2.6 2.6v9.7c0 1.6 1 2.6 2.6 2.6h12.2c1.7 0 2.6.9 2.6 2.6v40.6c0 1.6 1 2.6 2.6 2.6h9.8c1.7 0 2.6-1 2.6-2.6v-40.6c0-1.7 1-2.6 2.6-2.6h12.2c1.7 0 2.6-1 2.6-2.6v-9.7c0-1.8-.9-2.6-2.6-2.6z" fill="#fff"/></svg>