<?xml version="1.0" encoding="UTF-8" standalone="no"?>
<svg width="232px" height="43px" viewBox="0 0 232 43" version="1.1" xmlns="http://www.w3.org/2000/svg" xmlns:xlink="http://www.w3.org/1999/xlink" xmlns:sketch="http://www.bohemiancoding.com/sketch/ns">
    <!-- Generator: Sketch 3.1.1 (8761) - http://www.bohemiancoding.com/sketch -->
    <title>logo-liveblue</title>
    <desc>Created with Sketch.</desc>
    <defs></defs>
    <g id="Page-1" stroke="none" stroke-width="1" fill="none" fill-rule="evenodd" sketch:type="MSPage">
        <g id="Desktop" sketch:type="MSArtboardGroup" transform="translate(-878.000000, -6052.000000)">
            <g id="logo-liveblue" sketch:type="MSLayerGroup" transform="translate(878.000000, 6052.000000)">
                <path d="M194.942797,23.8506534 C194.942797,24.3049855 194.780282,24.6933949 194.456148,25.0158816 C194.134707,25.3365866 193.742334,25.4987208 193.285315,25.4987208 C192.826499,25.4987208 192.43682,25.3365866 192.115379,25.0158816 C191.794837,24.6951766 191.635015,24.3058763 191.635015,23.8506534 C191.635015,23.398103 191.795735,23.013257 192.119869,22.6916611 C192.441309,22.3718469 192.83009,22.2123853 193.285315,22.2123853 C193.742334,22.2123853 194.134707,22.3718469 194.456148,22.6916611 C194.780282,23.0114753 194.942797,23.398103 194.942797,23.8506534 L194.942797,23.8506534 Z M193.285315,22.4368788 C192.892942,22.4368788 192.558033,22.5749601 192.278793,22.8529045 C192.003145,23.1290671 191.863974,23.462244 191.863974,23.8515442 C191.863974,24.2461895 192.002247,24.5811481 192.277895,24.8582016 C192.553544,25.1361459 192.88935,25.2751181 193.285315,25.2751181 C193.680381,25.2751181 194.017085,25.1361459 194.292734,24.8582016 C194.568382,24.5811481 194.707553,24.2461895 194.707553,23.8515442 C194.707553,23.462244 194.568382,23.1290671 194.292734,22.8529045 C194.014392,22.5749601 193.679483,22.4368788 193.285315,22.4368788 L193.285315,22.4368788 Z M193.253889,22.9437709 C193.478358,22.9437709 193.645364,22.9660421 193.74862,23.0096936 C193.937174,23.0863064 194.032349,23.2395322 194.032349,23.4666982 C194.032349,23.6270507 193.971293,23.7464242 193.853671,23.8212554 C193.79082,23.8622344 193.703726,23.8907415 193.591491,23.9103401 C193.733356,23.9317205 193.83751,23.9914072 193.903055,24.0849462 C193.969498,24.1811577 194.000923,24.2738058 194.000923,24.3655631 L194.000923,24.4974085 C194.000923,24.5392783 194.003617,24.5829298 194.006311,24.6310356 C194.009004,24.6782505 194.014392,24.710321 194.022472,24.7254654 L194.034145,24.7468457 L193.733356,24.7468457 C193.732458,24.7415006 193.730662,24.7352647 193.729764,24.7281379 C193.727071,24.7227928 193.726173,24.7165569 193.725275,24.7094301 L193.718092,24.651525 L193.718092,24.5089895 C193.718092,24.3005312 193.660628,24.1624499 193.546597,24.0956364 C193.478358,24.0573299 193.360736,24.0377313 193.190139,24.0377313 L192.937836,24.0377313 L192.937836,24.7468457 L192.617293,24.7468457 L192.617293,22.9437709 L193.253889,22.9437709 L193.253889,22.9437709 Z M193.719887,23.4916419 C193.719887,23.3615782 193.679483,23.2733844 193.598674,23.228842 C193.518763,23.1825179 193.390366,23.1602468 193.209893,23.1602468 L192.937836,23.1602468 L192.937836,23.8150195 L193.226952,23.8150195 C193.362532,23.8150195 193.46489,23.8007659 193.532231,23.7740405 C193.657934,23.7250439 193.719887,23.6306141 193.719887,23.4916419 L193.719887,23.4916419 Z" id="Fill-1" fill="#999999" sketch:type="MSShapeGroup"></path>
                <path d="M222.542671,23.8506534 C222.542671,24.3049855 222.381053,24.6933949 222.056022,25.0158816 C221.734581,25.3365866 221.344004,25.4987208 220.886984,25.4987208 C220.427271,25.4987208 220.036694,25.3365866 219.716151,25.0158816 C219.396507,24.6951766 219.235787,24.3058763 219.235787,23.8506534 C219.235787,23.398103 219.397405,23.013257 219.719743,22.6916611 C220.042081,22.3718469 220.429964,22.2123853 220.886984,22.2123853 C221.344004,22.2123853 221.734581,22.3718469 222.056022,22.6916611 C222.381053,23.0114753 222.542671,23.398103 222.542671,23.8506534 L222.542671,23.8506534 Z M220.886984,22.4368788 C220.493714,22.4368788 220.158805,22.5749601 219.880463,22.8529045 C219.603019,23.1290671 219.464745,23.462244 219.464745,23.8515442 C219.464745,24.2461895 219.603019,24.5811481 219.878667,24.8582016 C220.153418,25.1361459 220.489224,25.2751181 220.886984,25.2751181 C221.281153,25.2751181 221.616061,25.1361459 221.892608,24.8582016 C222.17095,24.5811481 222.309223,24.2461895 222.309223,23.8515442 C222.309223,23.462244 222.17095,23.1290671 221.892608,22.8529045 C221.614266,22.5749601 221.279357,22.4368788 220.886984,22.4368788 L220.886984,22.4368788 Z M220.854661,22.9437709 C221.080028,22.9437709 221.245238,22.9660421 221.349392,23.0096936 C221.537946,23.0863064 221.633121,23.2395322 221.633121,23.4666982 C221.633121,23.6270507 221.572963,23.7464242 221.455341,23.8212554 C221.391592,23.8622344 221.304498,23.8907415 221.193161,23.9103401 C221.33323,23.9317205 221.438281,23.9914072 221.503827,24.0849462 C221.569372,24.1811577 221.602593,24.2738058 221.602593,24.3655631 L221.602593,24.4974085 C221.602593,24.5392783 221.605287,24.5829298 221.606185,24.6310356 C221.610674,24.6782505 221.614266,24.710321 221.622346,24.7254654 L221.634019,24.7468457 L221.33323,24.7468457 C221.332332,24.7415006 221.331434,24.7352647 221.330536,24.7281379 C221.326945,24.7227928 221.326945,24.7165569 221.325149,24.7094301 L221.318864,24.651525 L221.318864,24.5089895 C221.318864,24.3005312 221.261399,24.1624499 221.147369,24.0956364 C221.080028,24.0573299 220.96061,24.0377313 220.790911,24.0377313 L220.538608,24.0377313 L220.538608,24.7468457 L220.218963,24.7468457 L220.218963,22.9437709 L220.854661,22.9437709 L220.854661,22.9437709 Z M221.319762,23.4916419 C221.319762,23.3615782 221.279357,23.2733844 221.199446,23.228842 C221.119535,23.1825179 220.99024,23.1602468 220.811563,23.1602468 L220.538608,23.1602468 L220.538608,23.8150195 L220.826826,23.8150195 C220.963304,23.8150195 221.06656,23.8007659 221.133003,23.7740405 C221.258706,23.7250439 221.319762,23.6306141 221.319762,23.4916419 L221.319762,23.4916419 Z" id="Fill-2" fill="#999999" sketch:type="MSShapeGroup"></path>
                <path d="M169.900978,40.0061682 L171.156212,40.0061682 L171.154416,40.2573871 L167.091518,40.2573871 L167.091518,40.0061682 L168.180644,40.0061682 L165.853344,35.7701895 L164.916857,35.7701895 L164.916857,40.0061682 L166.14246,40.0061682 L166.14246,40.2573871 L162.313908,40.2573871 L162.313908,40.0061682 L163.498209,40.0061682 L163.498209,32.0357579 L162.313908,32.0357579 L162.313908,31.784539 L166.14246,31.784539 L166.14246,32.0357579 L164.916857,32.0357579 L164.916857,35.4601747 L165.798573,35.4601747 L168.031596,32.0357579 L166.845499,32.0357579 L166.845499,31.784539 L169.612759,31.784539 L169.612759,32.0357579 L168.484126,32.0357579 L166.803299,34.5550739 L169.900978,40.0061682" id="Fill-3" fill="#999999" sketch:type="MSShapeGroup"></path>
                <path d="M175.325059,37.55812 C175.325059,38.2832696 175.252331,38.753637 175.091611,39.0805779 C174.812371,39.6133046 174.291602,39.9660801 173.769037,39.9660801 C173.152195,39.9660801 172.87475,39.5785615 172.876546,38.6761333 C172.876546,38.1416249 172.981598,37.773705 173.246472,37.5305037 C173.494286,37.2775031 173.726836,37.1910909 174.56725,36.9879777 C174.868937,36.9095832 175.045819,36.8588049 175.325059,36.7688293 L175.325059,37.55812 L175.325059,37.55812 Z M177.616444,39.9990414 C177.469192,40.0061682 177.369528,40.0061682 177.303085,40.0061682 C176.671877,40.0061682 176.57311,39.8181994 176.57311,38.5719041 L176.57311,36.3296416 C176.57311,35.5305516 176.50128,35.2338995 176.257955,34.9488284 C175.92574,34.5550739 175.238863,34.3359255 174.332006,34.3359255 C172.83255,34.3403797 171.952629,34.8437084 171.952629,35.7105028 C171.952629,36.0374437 172.133103,36.1630532 172.556003,36.1630532 C172.983393,36.1630532 173.174641,36.0142817 173.204271,35.6864499 C173.234799,35.0842372 173.234799,35.0842372 173.353319,34.9203213 C173.525712,34.7047362 173.833684,34.5898169 174.249402,34.5898169 C174.773762,34.5898169 175.102386,34.7635322 175.21462,35.0958182 C175.279268,35.3140758 175.310693,35.6454709 175.325059,36.4686138 C174.773762,36.6396565 174.348168,36.7545758 174.017749,36.8178259 C172.569472,37.0957703 172.569472,37.0957703 172.203137,37.2881933 C171.733547,37.528722 171.468673,38.0124521 171.468673,38.6734607 C171.468673,39.7540584 172.061273,40.3366725 173.174641,40.3366725 C174.137167,40.3366725 174.773762,40.0444746 175.238863,39.3870294 C175.325059,39.9438089 175.748858,40.2573871 176.418675,40.2573871 L176.957402,40.2573871 C177.481763,40.2573871 177.481763,40.2573871 177.616444,40.246697 L177.616444,39.9990414 L177.616444,39.9990414 Z" id="Fill-4" fill="#999999" sketch:type="MSShapeGroup"></path>
                <path d="M180.705145,35.5679672 C180.970019,35.1225436 181.132535,34.9586277 181.465648,34.7572962 C181.890344,34.4927146 182.444335,34.3359255 183.001917,34.3359255 C183.748952,34.3359255 184.298453,34.6147607 184.519331,35.1323429 C184.685438,35.47621 184.685438,35.47621 184.685438,36.4142721 L184.685438,40.0061682 L185.706326,40.0061682 L185.706326,40.2573871 L182.353649,40.2573871 L182.353649,40.0061682 L183.400575,40.0061682 L183.400575,36.4098179 C183.400575,35.1715402 183.170718,34.7501694 182.477556,34.7501694 C181.840961,34.7501694 181.260931,35.1225436 180.935002,35.7176296 C180.6818,36.2102681 180.629723,36.514047 180.629723,37.6837294 L180.629723,40.0061682 L181.711666,40.0061682 L181.713462,40.2573871 L178.169537,40.2573871 L178.169537,40.0061682 L179.323311,40.0061682 L179.323311,34.7225532 L178.183005,34.7261166 L178.183005,34.4713343 L178.830375,34.4713343 C179.325106,34.4713343 180.3433,34.4223377 180.705145,34.3849221 L180.705145,35.5679672" id="Fill-5" fill="#999999" sketch:type="MSShapeGroup"></path>
                <path d="M190.595272,36.2111589 L190.254976,36.2111589 C190.144537,35.2338995 189.566304,34.6628664 188.699851,34.6628664 C188.039013,34.6628664 187.566729,35.0156419 187.566729,35.5260974 C187.566729,36.024081 187.873803,36.2254125 189.056309,36.5960049 C190.530625,37.0396469 191.091798,37.5616834 191.091798,38.4783652 C191.091798,39.5714348 190.088869,40.357162 188.70883,40.357162 C188.050685,40.357162 187.581095,40.28144 186.465931,40.0061682 L186.465931,38.1015368 L186.841244,38.1015368 C186.895116,39.4110823 187.500286,40.0587282 188.699851,40.0587282 C189.542061,40.0587282 190.118499,39.651611 190.118499,39.0422715 C190.118499,38.5184533 189.755756,38.2039842 188.850695,37.9108955 C187.928574,37.6213701 187.500286,37.4369647 187.211169,37.1866367 C186.856508,36.8917662 186.676034,36.5113745 186.676034,36.0276444 C186.676034,35.0628568 187.556852,34.3359255 188.72589,34.3359255 C189.317591,34.3359255 189.717147,34.4267919 190.595272,34.7261166 L190.595272,36.2111589" id="Fill-6" fill="#999999" sketch:type="MSShapeGroup"></path>
                <path d="M195.912506,37.55812 C195.912506,38.2832696 195.844267,38.753637 195.67816,39.0823596 C195.406103,39.6133046 194.883537,39.9660801 194.360972,39.9660801 C193.739641,39.9660801 193.46489,39.5785615 193.46489,38.6734607 C193.46489,38.1416249 193.573533,37.773705 193.838407,37.528722 C194.081732,37.2775031 194.320568,37.1910909 195.155595,36.9879777 C195.459975,36.9095832 195.639551,36.8588049 195.912506,36.7688293 L195.912506,37.55812 L195.912506,37.55812 Z M198.206584,39.9990414 C198.059332,40.0061682 197.959668,40.0061682 197.890531,40.0061682 C197.257527,40.0061682 197.161454,39.8181994 197.161454,38.5719041 L197.161454,36.3296416 C197.161454,35.5305516 197.09142,35.2338995 196.843605,34.9488284 C196.51588,34.5532922 195.829003,34.3359255 194.923942,34.3359255 C193.42269,34.3359255 192.545463,34.8437084 192.545463,35.7105028 C192.545463,36.0410071 192.719651,36.1630532 193.148837,36.1630532 C193.573533,36.1630532 193.768373,36.0142817 193.79082,35.6864499 C193.824041,35.0842372 193.824041,35.0842372 193.948846,34.9203213 C194.107771,34.7047362 194.429211,34.5898169 194.839541,34.5898169 C195.362106,34.5898169 195.693423,34.7635322 195.800271,35.0958182 C195.870305,35.3140758 195.902629,35.6481435 195.912506,36.4721772 C195.362106,36.6396565 194.939206,36.7545758 194.604297,36.8133717 C193.161407,37.0957703 193.161407,37.0957703 192.791482,37.2846299 C192.322789,37.528722 192.061507,38.0124521 192.061507,38.6734607 C192.061507,39.7540584 192.654106,40.3366725 193.768373,40.3366725 C194.727307,40.3366725 195.362106,40.0444746 195.829003,39.3870294 C195.912506,39.9438089 196.340794,40.2573871 197.008815,40.2573871 L197.547542,40.2573871 C198.071903,40.2573871 198.071903,40.2573871 198.206584,40.246697 L198.206584,39.9990414 L198.206584,39.9990414 Z" id="Fill-7" fill="#999999" sketch:type="MSShapeGroup"></path>
                <path d="M203.015619,36.2111589 L202.66814,36.2111589 C202.559497,35.2338995 201.980366,34.6628664 201.112118,34.6628664 C200.453075,34.6628664 199.982587,35.0156419 199.982587,35.5260974 C199.982587,36.024081 200.289661,36.2254125 201.475758,36.5960049 C202.946483,37.0441011 203.511248,37.5616834 203.509452,38.4783652 C203.509452,39.5714348 202.501135,40.357162 201.126484,40.357162 C200.467441,40.357162 199.998749,40.28144 198.88538,40.0061682 L198.88538,38.1015368 L199.255306,38.1015368 C199.308281,39.4110823 199.916144,40.0587282 201.112118,40.0587282 C201.954327,40.0587282 202.530765,39.651611 202.530765,39.0422715 C202.530765,38.5184533 202.175205,38.2039842 201.264757,37.9108955 C200.344432,37.6213701 199.916144,37.4369647 199.628823,37.1866367 C199.27057,36.8917662 199.0883,36.5113745 199.0883,36.0276444 C199.0883,35.0628568 199.97271,34.3359255 201.14085,34.3359255 C201.733449,34.3359255 202.133005,34.4267919 203.015619,34.7225532 L203.015619,36.2111589" id="Fill-8" fill="#999999" sketch:type="MSShapeGroup"></path>
                <path d="M215.481758,34.5381478 L215.082203,34.5381478 C215.062449,33.6473006 214.878384,33.1876234 214.370185,32.6932032 C213.88982,32.2201633 213.244246,31.976962 212.499007,31.976962 C211.536482,31.976962 210.706843,32.3591354 210.236355,33.0237075 C209.826024,33.633047 209.633878,34.5381478 209.633878,35.9519224 C209.633878,37.6088983 209.84039,38.5799218 210.336917,39.191043 C210.799324,39.7594035 211.505954,40.0685275 212.333798,40.0685275 C213.901493,40.0685275 214.934951,39.0004017 215.082203,37.1999994 L215.481758,37.1999994 L215.479963,39.5669805 C214.256155,40.1593939 213.308893,40.3963593 212.248499,40.3963593 C209.633878,40.3963593 207.956642,38.7188939 207.956642,36.0944579 C207.956642,33.3791555 209.71379,31.6482393 212.467582,31.6482393 C213.433698,31.6482393 214.256155,31.8272996 215.481758,32.2958853 L215.481758,34.5381478" id="Fill-9" fill="#999999" sketch:type="MSShapeGroup"></path>
                <path d="M219.233093,32.5747205 C219.233093,32.9577848 218.885614,33.2749264 218.47708,33.2749264 C218.047894,33.2749264 217.718373,32.9577848 217.718373,32.5649212 C217.718373,32.1845294 218.063158,31.8789688 218.487854,31.8789688 C218.88741,31.8816413 219.233093,32.1943287 219.233093,32.5747205 L219.233093,32.5747205 Z M217.847667,34.7225532 L216.736094,34.7261166 L216.736094,34.4713343 L217.240701,34.4713343 C217.74082,34.4713343 218.729383,34.4223377 219.115471,34.3849221 L219.115471,40.0061682 L220.174967,40.0061682 L220.174967,40.2573871 L216.692098,40.2573871 L216.692098,40.0061682 L217.847667,40.0061682 L217.847667,34.7225532 L217.847667,34.7225532 Z" id="Fill-10" fill="#999999" sketch:type="MSShapeGroup"></path>
                <path d="M222.531897,32.8811719 L222.531897,34.4161017 L223.941565,34.4161017 L223.941565,34.78224 L222.537284,34.7849125 L222.531897,38.4115516 C222.531897,39.1358105 222.548957,39.3558497 222.629766,39.552727 C222.71237,39.7754388 222.97904,39.9544991 223.220569,39.9544991 C223.638083,39.9544991 223.941565,39.727333 224.143588,39.255184 L224.418339,39.3558497 C224.087022,40.0551648 223.594087,40.357162 222.743796,40.357162 C222.014719,40.357162 221.560393,40.1549397 221.385307,39.7487134 C221.258706,39.4912585 221.24434,39.2917087 221.24434,38.2102202 L221.247931,34.7849125 L220.31324,34.7849125 L220.31324,34.4161017 L221.247931,34.4161017 L221.24434,32.8811719 L222.531897,32.8811719" id="Fill-11" fill="#999999" sketch:type="MSShapeGroup"></path>
                <path d="M229.72839,34.7261166 L228.625795,34.7261166 L228.625795,34.4713343 L231.093164,34.4713343 L231.091369,34.7261166 L230.101907,34.7225532 L227.954183,41.0154981 C227.457656,42.4533256 226.975495,42.9299289 226.022847,42.9299289 C225.288383,42.9299289 224.786469,42.544192 224.786469,41.955342 C224.786469,41.5722777 225.021713,41.3326398 225.393434,41.3362032 C225.781318,41.3362032 225.942936,41.5339712 225.942936,42.0177013 C225.956404,42.4007656 226.081209,42.550428 226.39816,42.550428 C226.919827,42.550428 227.292446,42.0560077 227.689309,40.8141667 L227.871578,40.2671865 L225.255161,34.7225532 L224.322266,34.7261166 L224.322266,34.4713343 L227.787177,34.4713343 L227.788973,34.7261166 L226.644178,34.7225532 L228.410305,38.636936 L229.72839,34.7261166" id="Fill-12" fill="#999999" sketch:type="MSShapeGroup"></path>
                <path d="M0.0386087571,0.017816945 L3.58522714,0.017816945 L3.58522714,22.5197276 L15.6239763,22.5197276 L15.6239763,25.684017 L0.0386087571,25.684017 L0.0386087571,0.017816945" id="Fill-13" fill="#999999" sketch:type="MSShapeGroup"></path>
                <path d="M18.7396132,0.0890847248 L22.7890433,0.0890847248 L22.7890433,3.75135776 L18.7396132,3.75135776 L18.7396132,0.0890847248 Z M19.0978666,7.83856494 L22.4649093,7.83856494 L22.4649093,25.684017 L19.0978666,25.684017 L19.0978666,7.83856494 Z" id="Fill-14" fill="#999999" sketch:type="MSShapeGroup"></path>
                <path d="M26.2988487,7.83856494 L30.0600599,7.83856494 L35.7930114,21.9878918 L41.3823024,7.83856494 L45.1084964,7.83856494 L37.2260248,25.684017 L33.8221691,25.684017 L26.2988487,7.83856494" id="Fill-15" fill="#999999" sketch:type="MSShapeGroup"></path>
                <path d="M49.5494014,17.3643946 C49.4775711,21.0640832 51.0183299,23.8007659 54.7095066,23.8007659 C56.8949419,23.8007659 58.6502935,22.663154 58.9376145,20.1019682 L62.3037594,20.1019682 C62.1978097,20.9919246 62.0541493,22.4493506 60.7647963,23.835509 C59.9755615,24.7236837 58.1842948,26.2176345 54.5658461,26.2176345 C48.9047249,26.2176345 46.2182737,22.7344218 46.2182737,17.0811051 C46.2182737,13.5622585 46.9347804,10.6465155 49.76579,8.69110575 C51.4843286,7.48311688 53.6338487,7.37710606 54.6735915,7.37710606 C62.7347408,7.37710606 62.5551652,14.4513241 62.4842329,17.3643946 L49.5494014,17.3643946 L49.5494014,17.3643946 Z M59.044462,15.0196846 C59.0794792,13.3137121 58.7580389,9.7592316 54.6008634,9.7592316 C52.416326,9.7592316 49.76579,11.0741221 49.6930619,15.0196846 L59.044462,15.0196846 L59.044462,15.0196846 Z" id="Fill-16" fill="#999999" sketch:type="MSShapeGroup"></path>
                <path d="M159.327566,8.49690105 C159.310506,8.2715167 159.189293,8.16105164 158.955844,8.16105164 C158.777167,8.16105164 158.598489,8.25280891 158.598489,8.44701361 C158.598489,8.68932406 158.815775,8.71694032 159.008819,8.76237353 C159.350911,8.84967656 159.855518,8.94499722 159.855518,9.39309338 C159.855518,9.94630952 159.369766,10.1387325 158.887606,10.1387325 C158.374019,10.1387325 158.008583,9.94096444 158.022949,9.37705813 L158.51768,9.37705813 C158.497927,9.62471367 158.640689,9.79219295 158.894789,9.79219295 C159.086037,9.79219295 159.341932,9.73250618 159.341932,9.49464997 C159.341932,9.23185003 159.020492,9.21403309 158.828346,9.16503649 C158.514088,9.08753278 158.083107,8.94499722 158.083107,8.54946104 C158.083107,8.03900557 158.556289,7.81451206 159.018696,7.81451206 C159.454167,7.81451206 159.794462,8.04880489 159.794462,8.49690105 L159.327566,8.49690105" id="Fill-17" fill="#999999" sketch:type="MSShapeGroup"></path>
                <path d="M161.660253,10.0915176 L161.258902,10.0915176 L160.663608,8.17619604 L160.657323,8.18154113 L160.657323,10.0915176 L160.206588,10.0915176 L160.206588,7.86083612 L160.997619,7.86083612 L161.467209,9.48306895 L161.474392,9.48306895 L161.984387,7.86083612 L162.747583,7.86083612 L162.747583,10.0915176 L162.296849,10.0915176 L162.296849,8.18154113 L162.28787,8.17619604 L161.660253,10.0915176" id="Fill-18" fill="#999999" sketch:type="MSShapeGroup"></path>
                <path d="M67.5796909,0.0525599876 L82.807703,0.0525599876 C89.685449,0.0525599876 92.4446283,3.10994774 92.4446283,6.38024799 C92.4446283,9.29510019 90.2960061,11.5703241 86.9639806,12.387231 L86.9639806,12.4593896 C90.9774956,12.8139468 93.5553035,15.2673401 93.5553035,18.5376404 C93.5553035,22.021744 91.0484279,25.71876 82.8427202,25.71876 L67.5796909,25.71876 L67.5796909,0.0525599876 L67.5796909,0.0525599876 Z M74.8884184,10.5396138 L79.582525,10.5396138 C82.807703,10.5396138 84.7067151,9.65054824 84.7067151,7.66039549 C84.7067151,5.52681633 83.0941261,4.81592022 80.1921842,4.81592022 L74.8884184,4.81592022 L74.8884184,10.5396138 L74.8884184,10.5396138 Z M74.8884184,20.9553998 L81.6251976,20.9553998 C83.9893105,20.9553998 85.8173903,20.3148806 85.8173903,18.0396568 C85.8173903,15.9069685 83.8474458,15.0900615 81.9834509,15.0900615 L74.8884184,15.0900615 L74.8884184,20.9553998 L74.8884184,20.9553998 Z" id="Fill-19" fill="#999999" sketch:type="MSShapeGroup"></path>
                <path d="M97.6379551,0.0525599876 L104.516599,0.0525599876 L104.516599,25.71876 L97.6379551,25.71876 L97.6379551,0.0525599876 Z" id="Fill-20" fill="#999999" sketch:type="MSShapeGroup"></path>
                <path d="M131.81748,22.0573779 C131.81748,23.1949898 131.853395,24.5107712 131.960242,25.71876 L125.296191,25.71876 C125.224361,24.651525 125.154326,23.5869626 125.154326,22.5197276 L125.0807,22.5197276 C123.289434,24.9000714 120.602983,26.3940223 117.448737,26.3940223 C110.893329,26.3940223 108.421471,22.697897 108.421471,18.0396568 L108.421471,7.87419882 L115.300115,7.87419882 L115.300115,17.0098374 C115.300115,19.8525309 116.553552,21.8435745 119.671883,21.8435745 C122.501097,21.8435745 124.937938,19.6752523 124.937938,15.7296899 L124.937938,7.87419882 L131.81748,7.87419882 L131.81748,22.0573779" id="Fill-21" fill="#999999" sketch:type="MSShapeGroup"></path>
                <path d="M141.631287,18.4672635 C141.774947,21.2395801 143.423452,22.697897 146.324496,22.697897 C149.333285,22.697897 149.872012,21.4881265 150.229367,20.2801376 L157.538993,20.2801376 C156.105979,25.9316725 151.19728,26.3940223 146.217648,26.3940223 C139.984579,26.3940223 134.53805,24.1187984 134.53805,17.0802143 C134.53805,10.1841657 139.94597,7.19804576 146.109005,7.19804576 C154.887559,7.19804576 157.898144,11.4990563 157.934059,18.4672635 L141.631287,18.4672635 L141.631287,18.4672635 Z M150.624434,14.7693565 C150.554399,11.8545043 148.618574,10.8950618 146.182631,10.8950618 C142.99247,10.8950618 142.061371,12.9217393 141.738134,14.7693565 L150.624434,14.7693565 L150.624434,14.7693565 Z" id="Fill-22" fill="#999999" sketch:type="MSShapeGroup"></path>
                <path d="M197.157863,7.36017996 L190.017936,7.36017996 L190.018834,0.277944341 L178.399394,0.277944341 L178.399394,7.36017996 L171.259468,7.36017996 L171.259468,18.8886342 L178.399394,18.8886342 L178.399394,25.9753241 L190.017038,25.9753241 L190.017936,18.8886342 L197.157863,18.8886342 L197.157863,7.36017996" id="Fill-23" fill="#999999" sketch:type="MSShapeGroup"></path>
                <path d="M220.458696,0.0685952381 C220.458696,0.0685952381 217.923089,2.05607545 211.380251,2.05340291 L211.380251,2.05785714 C204.907448,2.04271274 202.392492,0.0792854051 202.392492,0.0792854051 C195.619797,17.4810955 211.31291,26.08668 211.464652,26.1704196 C211.46555,26.1704196 211.470937,26.173983 211.470937,26.173983 L211.470937,26.1668562 C211.622678,26.0831166 227.234982,17.4659511 220.458696,0.0685952381" id="Fill-24" fill="#999999" sketch:type="MSShapeGroup"></path>
                <path d="M211.404494,23.4230467 C223.068828,14.7355043 218.973606,3.50013884 218.973606,3.50013884 C218.973606,3.50013884 212.668706,6.06221552 203.944923,3.50013884 C203.944923,3.50013884 200.103801,14.7568847 211.767237,23.4453179" id="Fill-25" fill="#999999" sketch:type="MSShapeGroup"></path>
                <path d="M211.404494,23.4230467 C223.068828,14.7355043 218.973606,3.50013884 218.973606,3.50013884 C218.973606,3.50013884 212.668706,6.06221552 203.944923,3.50013884 C203.944923,3.50013884 200.103801,14.7568847 211.767237,23.4453179" id="Stroke-26" stroke="#FFFFFF" stroke-width="0.699" sketch:type="MSShapeGroup"></path>
                <path d="M210.268678,6.76865739 C210.268678,6.76865739 208.751264,6.14595516 207.951255,7.38423284 C207.152143,8.62429221 207.551699,10.6536422 210.57665,11.0046361 C213.603397,11.3600841 212.579816,12.066526 212.579816,12.066526 L212.443339,13.3440009 C212.443339,13.3440009 214.31721,13.4829731 214.31721,11.4473871 C214.315415,9.94630952 212.181159,9.72805195 212.181159,9.72805195 C212.181159,9.72805195 208.797056,9.81802752 209.021526,8.44612276 C209.021526,8.44612276 208.931738,7.82342053 210.219295,8.40247124 C210.219295,8.40247124 211.467345,8.57618646 210.752635,8.09601979 C210.752635,8.09601979 209.597963,7.69068429 210.799324,7.69068429 C210.799324,7.69068429 210.9789,7.96862863 211.513137,7.48222604 C211.513137,7.48222604 211.286872,7.02967563 210.622442,6.85596042 C210.622442,6.85596042 210.889112,7.47599011 210.265087,7.21051763 C210.265087,7.21051763 209.645551,6.89783024 210.268678,6.76865739" id="Fill-27" fill="#999999" sketch:type="MSShapeGroup"></path>
                <path d="M212.443339,16.7024951 C212.443339,16.7024951 214.180733,16.3506104 213.738977,15.0668995 C213.293629,13.7885337 211.513137,13.880291 211.513137,13.880291 C211.513137,13.880291 210.397973,13.9631398 210.67003,13.3921067 C210.67003,13.3921067 210.531757,12.5083862 210.175299,12.462953 C210.175299,12.462953 209.021526,13.1693949 209.645551,14.0949852 C210.268678,15.0250297 210.934904,14.9893958 211.513137,15.0731354 C212.090473,15.1586568 213.202046,15.4187842 212.358938,15.9479474 C212.358938,15.9479474 212.181159,16.4352409 212.443339,16.7024951" id="Fill-28" fill="#999999" sketch:type="MSShapeGroup"></path>
                <path d="M211.021998,16.7024951 L211.021998,16.1697684 C211.021998,16.1697684 210.9789,15.6860383 210.531757,15.9960532 C210.087307,16.3069589 209.421081,17.2325492 210.799324,17.938991 C212.181159,18.6454329 212.625608,18.9100145 212.223359,19.2191385 L212.311351,19.6574354 C212.311351,19.6574354 213.338523,19.793735 213.202046,18.6035631 C213.070956,17.4098278 211.513137,17.2396759 211.513137,17.2396759 C211.513137,17.2396759 210.841524,17.0953587 211.021998,16.7024951" id="Fill-29" fill="#999999" sketch:type="MSShapeGroup"></path>
                <path d="M211.06779,19.7028686 C211.06779,19.7028686 209.952625,20.2792468 210.67003,21.0320127 C210.67003,21.0320127 210.841524,21.2930309 210.9789,20.6774555 C210.9789,20.6774555 211.021998,20.3674406 211.155782,20.2355952 L211.06779,19.7028686" id="Fill-30" fill="#999999" sketch:type="MSShapeGroup"></path>
                <path d="M211.37666,18.6035631 L211.37666,21.1157523 C211.37666,21.1157523 211.420656,21.6449156 211.733117,21.6413522 C212.042885,21.6449156 212.090473,21.0320127 212.090473,21.0320127 L212.090473,18.9964267 C212.090473,18.9964267 211.867799,18.6873027 211.37666,18.6035631" id="Fill-31" fill="#999999" sketch:type="MSShapeGroup"></path>
                <path d="M211.203369,15.3341537 L211.203369,16.7871255 C211.203369,16.7871255 211.332664,17.0552706 212.176669,17.1416827 L212.181159,15.4659991 L211.203369,15.3341537" id="Fill-32" fill="#999999" sketch:type="MSShapeGroup"></path>
                <path d="M211.113581,13.5693853 L212.181159,13.6566883 L212.443339,11.8892474 C212.443339,11.8892474 212.447828,11.4473871 211.779807,11.4473871 L210.799324,11.2727811 C210.799324,11.2727811 210.265087,11.5792325 210.48776,12.2402412 C210.71223,12.9057041 211.113581,13.5693853 211.113581,13.5693853" id="Fill-33" fill="#999999" sketch:type="MSShapeGroup"></path>
                <path d="M210.799324,8.66616203 L210.799324,9.2407585 C210.799324,9.2407585 211.645125,9.50890353 212.40473,9.50890353 L212.534025,9.2407585 C212.534025,9.2407585 214.005647,7.95882931 214.315415,7.64970532 C214.626081,7.34325387 214.222933,6.72055164 213.647393,6.98513327 C213.647393,6.98513327 212.712702,7.56240229 212.534025,7.60427211 L212.358938,6.54683643 C212.358938,6.54683643 210.799324,5.83950371 210.75443,6.41410019 C210.75443,6.41410019 210.622442,6.41410019 211.37666,6.89783024 C211.37666,6.89783024 212.044681,7.60070872 211.779807,7.73968089 C211.514933,7.87598052 211.286872,7.91428695 211.113581,7.91428695 C210.934904,7.91428695 211.690917,8.53342579 210.799324,8.66616203" id="Fill-34" fill="#999999" sketch:type="MSShapeGroup"></path>
                <path d="M184.338857,6.96731633 C182.80618,6.96375294 183.875552,8.68754236 183.875552,8.68754236 C184.539982,10.1458593 183.211123,10.0754824 183.211123,10.0754824 L179.156305,10.0754824 L178.949793,10.4763636 L182.409317,11.1373723 C182.409317,11.1373723 184.010234,11.1373723 182.940861,13.1934477 L180.620744,17.8757409 L181.023892,18.2071361 L183.475997,14.5822786 C183.475997,14.5822786 183.807314,13.7243927 184.410688,13.7243927" id="Fill-35" fill="#999999" sketch:type="MSShapeGroup"></path>
                <path d="M184.338857,6.96731633 C182.80618,6.96375294 183.875552,8.68754236 183.875552,8.68754236 C184.539982,10.1458593 183.211123,10.0754824 183.211123,10.0754824 L179.156305,10.0754824 L178.949793,10.4763636 L182.409317,11.1373723 C182.409317,11.1373723 184.010234,11.1373723 182.940861,13.1934477 L180.620744,17.8757409 L181.023892,18.2071361 L183.475997,14.5822786 C183.475997,14.5822786 183.807314,13.7243927 184.410688,13.7243927" id="Stroke-36" stroke="#FFFFFF" stroke-width="1.471" sketch:type="MSShapeGroup"></path>
                <path d="M184.338857,6.96731633 C185.87782,6.96375294 184.810243,8.69110575 184.810243,8.69110575 C184.145814,10.1458593 185.474673,10.0754824 185.474673,10.0754824 L189.283472,10.0754824 L189.481903,10.4763636 L186.28007,11.1373723 C186.28007,11.1373723 184.679153,11.1373723 185.744934,13.1934477 L188.050685,17.5942331 L187.564933,17.9283009 L185.301383,14.5822786 C185.301383,14.5822786 184.878482,13.7243927 184.276904,13.7243927" id="Fill-37" fill="#999999" sketch:type="MSShapeGroup"></path>
                <path d="M184.338857,6.96731633 C185.87782,6.96375294 184.810243,8.69110575 184.810243,8.69110575 C184.145814,10.1458593 185.474673,10.0754824 185.474673,10.0754824 L189.283472,10.0754824 L189.481903,10.4763636 L186.28007,11.1373723 C186.28007,11.1373723 184.679153,11.1373723 185.744934,13.1934477 L188.050685,17.5942331 L187.564933,17.9283009 L185.301383,14.5822786 C185.301383,14.5822786 184.878482,13.7243927 184.276904,13.7243927" id="Stroke-38" stroke="#FFFFFF" stroke-width="1.471" sketch:type="MSShapeGroup"></path>
                <path d="M184.210461,19.7554286 C187.898046,19.7554286 190.888878,16.7871255 190.888878,13.1239617 C190.888878,9.46257947 187.898046,6.49783983 184.210461,6.49783983 C180.519284,6.50140322 177.531146,9.46614286 177.531146,13.1239617 C177.532942,16.7871255 180.519284,19.7554286 184.210461,19.7554286 L184.210461,19.7554286 Z" id="Fill-39" fill="#999999" sketch:type="MSShapeGroup"></path>
                <path d="M184.210461,19.7554286 C187.898046,19.7554286 190.888878,16.7871255 190.888878,13.1239617 C190.888878,9.46257947 187.898046,6.49783983 184.210461,6.49783983 C180.519284,6.50140322 177.531146,9.46614286 177.531146,13.1239617 C177.532942,16.7871255 180.519284,19.7554286 184.210461,19.7554286 L184.210461,19.7554286 Z" id="Stroke-40" stroke="#FFFFFF" stroke-width="0.765" sketch:type="MSShapeGroup"></path>
                <path d="M186.329453,11.1373723 L191.33243,10.3881698 L191.133999,9.98907019 L185.525852,9.98907019 C185.525852,9.98907019 184.193401,10.1458593 184.859627,8.68754236 C184.859627,8.68754236 185.928999,6.96375294 184.394526,6.96375294 C182.858256,6.96375294 183.924936,8.69110575 183.924936,8.69110575 C184.594753,10.1458593 183.256914,9.98907019 183.256914,9.98907019 L177.649666,9.98907019 L177.452133,10.4763636 L182.456905,11.1373723 C182.456905,11.1373723 184.057822,11.1373723 182.988449,13.1934477 L179.919502,19.0213704 L180.320853,19.3518748 L183.48318,14.5822786 C183.48318,14.5822786 183.833352,13.7956605 184.390934,13.7350829 C184.9557,13.7956605 185.352562,14.5804969 185.352562,14.5804969 L188.466403,19.3518748 L188.866857,19.0213704 L185.799705,13.1934477 C184.729434,11.1373723 186.329453,11.1373723 186.329453,11.1373723" id="Fill-41" fill="#999999" sketch:type="MSShapeGroup"></path>
            </g>
        </g>
    </g>
</svg>