<svg width="175" height="131" viewBox="0 0 175 131" xmlns="http://www.w3.org/2000/svg" xmlns:sketch="http://www.bohemiancoding.com/sketch/ns"><title>logo-lovely_little_invitations</title><desc>Created with Sketch.</desc><g sketch:type="MSLayerGroup" fill="#999"><path d="M29.368 121.461h1.981v8.977h-1.981v-8.977zm7.591 0h2.689l3.823 6.242h.028v-6.242h1.978v8.977h-2.587l-3.923-6.391h-.027v6.391h-1.98v-8.977m13.263 0h2.261l2.216 5.883h.026l2.261-5.883h2.122l-3.704 8.977h-1.595l-3.588-8.977m13.603 0h1.981v8.977h-1.981v-8.977zm9.335 1.746h-2.565v-1.747h7.111v1.747h-2.575v7.231h-1.971v-7.231m11.143-1.744h1.638l3.914 8.975h-2.237l-.776-1.905h-3.493l-.747 1.905h-2.187l3.887-8.975zm.763 2.609l-1.093 2.792h2.196l-1.103-2.792zm10.065-.865h-2.566v-1.747h7.109v1.747h-2.561v7.231h-1.981v-7.231m9.327-1.746h1.98v8.977h-1.98v-8.977zm11.962-.229c2.806 0 4.852 1.838 4.852 4.72 0 2.878-2.046 4.717-4.852 4.717-2.811 0-4.856-1.839-4.856-4.717 0-2.883 2.046-4.72 4.856-4.72m0 7.612c1.69 0 2.793-1.22 2.793-2.892s-1.103-2.895-2.793-2.895c-1.691 0-2.797 1.223-2.797 2.895s1.106 2.892 2.797 2.892m9.996-7.383h2.69l3.821 6.242h.029v-6.242h1.978v8.977h-2.59l-3.92-6.391h-.029v6.391h-1.978v-8.977m18.596 2.193c-.316-.406-.953-.598-1.432-.598-.562 0-1.339.256-1.339.926 0 1.639 4.139.584 4.139 3.73 0 2.004-1.61 2.956-3.467 2.956-1.153 0-2.171-.341-3.02-1.128l1.412-1.549c.405.534 1.069.852 1.729.852.642 0 1.367-.312 1.367-.941 0-1.649-4.216-.76-4.216-3.752 0-1.92 1.664-2.919 3.43-2.919 1.015 0 1.995.261 2.751.933l-1.354 1.488m-143.809-29.706h8.382v1.788h-1.773c-.604 0-.846.264-.846.925v9.009c0 .987.402 1.389 1.371 1.389h.572c1.947 0 2.776-1.125 2.776-3.74v-.266c0-.415.353-.416.353-.416h1.576v5.396s-.078.734-.741.734h-12.104v-1.791h1.028c.806 0 1.048-.24 1.048-1.063v-9.368c0-.588-.281-.808-1.048-.808h-.604s-.441.006-.441-.48v-.82c0-.491.451-.487.451-.487m58.386-.002h8.378v1.788h-1.768c-.601 0-.847.264-.847.925v9.009c0 .987.406 1.389 1.371 1.389h.572c1.951 0 2.78-1.125 2.78-3.74v-.266c0-.415.349-.416.349-.416h1.584v5.396s-.081.734-.751.734h-12.095v-1.791h1.028c.803 0 1.044-.24 1.044-1.063v-9.368c0-.588-.285-.808-1.044-.808h-.614s-.434.006-.434-.48v-.82c0-.491.446-.487.446-.487m-30.808 8.165c0 4.282-2.643 7.177-6.947 7.177-4.287 0-7.019-2.997-7.019-7.2 0-5.885 2.846-8.661 6.912-8.661h.144c2.855.099 6.909.649 6.909 8.685m-8.515 4.725c.441.338.965.502 1.568.502 2.094 0 2.575-1.487 2.575-5.405 0-1.831-.19-4.45-.638-5.23-.503-.868-1.009-1.353-1.957-1.353-.924 0-1.51.528-1.89 1.308-.503.968-.665 3.341-.665 5.353 0 2.753.042 4.059 1.007 4.825m8.872-12.893h7.007v1.689h-.744c-.707 0-.962.158-.962.565 0 .18.137.721.336 1.327l1.978 7.981 2.049-7.563c.422-1.265.502-1.544.502-1.806 0-.404-.221-.503-1.067-.503h-.429s-.23-.028-.23-.29v-1.082c0-.318.294-.318.294-.318h5.532v1.689h-.48c-.62 0-.922.242-1.164.944l-.344.947-3.253 10.766s-.131.473-.624.473h-3.404l-3.205-10.857c-.58-1.77-.897-2.269-1.696-2.269l-.138-.004s-.313.054-.313-.351v-.851c0-.447.085-.487.356-.487m15.687 14.819v-1.79h.988c.702 0 .982-.319.982-1.144v-9.112c0-.701-.303-.984-.982-.984h-.651s-.337-.004-.337-.356v-.881c0-.552.045-.552.492-.552h12.203v5.166l-1.769.02c-.081-1.506-.16-1.868-.606-2.589-.344-.588-1.006-.866-2.012-.866h-1.928c-.829 0-.585.421-.585 1.468v2.491h.504c.703-.021 1.047.085 1.047-.879v-.287c0-.313.297-.319.297-.319h1.41v6.207s-1.149.02-1.453.02c-.3 0-.277-.252-.277-.252v-.508c0-.923-.361-.802-1.142-.802h-.385v2.693c0 1.284-.244 1.59 1.064 1.59h1.091c2.05-.024 2.976-1.068 2.976-3.338 0-.339.297-.363.297-.363h1.553v4.816s-.006.553-.495.553h-12.282m26.567-14.821h7.068v1.788h-.782c-.587 0-.685.059-.685.363 0 .222.065.343.441 1.025l1.468 4.546 1.927-4.729c.243-.383.344-.643.344-.841 0-.22-.079-.363-.244-.363h-1.084v-1.788h5.63v1.788h-.518c-.487 0-.648.021-.822.143-.168.1-.288.22-.384.34 0 .019-.125.223-.364.622l-3.541 7.341v1.969c0 .666.182.845.844.845h1.692v1.272s.01.499-.408.499h-7.989v-1.771h1.638c.585 0 .767-.203.767-.845v-1.969l-3.502-7.419c-.558-.969-.625-1.027-1.226-1.027h-.297c-.425 0-.425-.062-.425-.382v-1.024c0-.388.454-.383.454-.383m90.824 14.819v-1.79h.987c.704 0 .982-.319.982-1.144v-9.112c0-.701-.301-.984-.982-.984h-.65s-.337-.004-.337-.356v-.881c0-.552.045-.552.489-.552h12.206v5.166l-1.772.02c-.078-1.506-.16-1.868-.603-2.589-.343-.588-1.006-.866-2.011-.866h-1.932c-.825 0-.581.421-.581 1.468v2.491h.502c.702-.021 1.045.085 1.045-.879v-.287c0-.313.298-.319.298-.319h1.41v6.207s-1.146.02-1.449.02c-.303 0-.28-.252-.28-.252v-.508c0-.923-.36-.802-1.143-.802h-.382v2.693c0 1.284-.244 1.59 1.061 1.59h1.093c2.051-.024 2.974-1.068 2.974-3.338 0-.339.297-.363.297-.363h1.554v4.816s-.004.553-.496.553h-12.279m-13.35-14.821h8.378v1.788h-1.773c-.597 0-.845.264-.845.925v9.009c0 .987.408 1.389 1.371 1.389h.571c1.954 0 2.784-1.125 2.784-3.74v-.266c0-.415.346-.416.346-.416h1.583v5.396s-.079.734-.748.734h-12.098v-1.791h1.028c.806 0 1.048-.24 1.048-1.063v-9.368c0-.588-.286-.808-1.048-.808h-.611s-.434.006-.434-.48v-.82c0-.491.447-.487.447-.487m-14.915.001h13v5.808h-1.579c-.458 0-.454-.486-.454-.486v-1.083c0-1.909-.399-2.454-1.834-2.454h-1.181v10.354c-.023.667.241.89.997.89l1.558.02v1.123s.069.644-.659.644h-8.264v-1.767h1.084c1.39 0 1.548-.144 1.548-1.328v-9.937h-.82c-1.652 0-2.053.565-2.053 2.914v1.125h-1.719s-.393.029-.393-.48v-4.766c0-.655.77-.579.77-.579m-39.187-.001h8.377v1.788h-1.773c-.598 0-.845.264-.845.925v9.009c0 .987.407 1.389 1.37 1.389h.571c1.956 0 2.784-1.125 2.784-3.74v-.266c0-.415.346-.416.346-.416h1.584v5.396s-.079.734-.748.734h-12.098v-1.791h1.028c.806 0 1.047-.24 1.047-1.063v-9.368c0-.588-.285-.808-1.047-.808h-.611s-.434.006-.434-.48v-.82c0-.491.448-.487.448-.487m21.909-.002v1.669h-.58c-1.371.02-1.508.165-1.508 1.407v8.685c0 .984.238 1.288 1.021 1.288h1.067v1.258s0 .513-.443.513h-7.591v-1.771h.885c.949 0 1.148-.28 1.148-1.467v-8.646c0-.927-.32-1.246-1.205-1.246h-.446c-.167 0-.399-.008-.399-.321v-.934c0-.434.381-.434.381-.434h7.67m2.217.002h12.999v5.808h-1.579c-.458 0-.453-.486-.453-.486v-1.083c0-1.909-.4-2.454-1.833-2.454h-1.185v10.354c-.022.667.242.89 1.003.89l1.553.02v1.123s.069.644-.66.644h-8.263v-1.767h1.086c1.387 0 1.545-.144 1.545-1.328v-9.937h-.82c-1.652 0-2.051.565-2.051 2.914v1.125h-1.719s-.395.029-.395-.48v-4.766c0-.655.77-.579.77-.579m1.402-15.018h-.842l.002 2.264h-.381l-.005-2.264-.857.004v-.338l2.082-.006v.34zm3.329 2.256h-.383l-.001-2.188h-.011l-.868 2.19-.248.002-.882-2.188h-.016l.003 2.189h-.379l-.002-2.603h.584l.82 1.99.816-1.994h.565l.003 2.602zm-18.541-28.925l-2.295.005s-.163 4.924-.326 6.96c-.169 2.041-2.132 5.94-10.255 6.067-8.312.131-10.792-3.964-11.442-7.336-.017-.442-.029-.904-.029-1.387l-.033-15.152c-1.458 1.402-3.322 2.998-5.712 4.935-2.193-1.767-3.942-3.248-5.347-4.558l.03 14.791c.017 7.592-2.08 9.489-3.88 9.897l-2.594.408.001 2.194 9.926-.023 14.139-.02 17.85-.036-.033-16.745m-35.565-35.582l.022 10.074c.18-.017.35-.048.534-.048 3.203-.005 4.896 4.421 4.896 4.421s1.69-4.432 4.887-4.44c.228 0 .441.034.658.054l-.021-10.078c-.018-7.503 2.049-9.377 3.832-9.773l2.563-.408-.001-2.169-23.819.043.007 2.169 2.568.394c1.78.391 3.862 2.257 3.875 9.761" sketch:type="MSShapeGroup"/><path d="M116.141 58.825l-7.52-10.074-9.699.02.013 5.594c.006 3.693-1.788 6.097-3.691 6.1-1.6.004-3.601-.69-3.607-3.388l-.027-13.138c3.052-3.064 4.037-5.196 4.031-7.948-.008-3.478-1.628-5.512-4.06-6.06l-.006-3.254c-.013-5.394 1.582-7.494 3.386-7.696l3.099-.509-.016-7.891-7.418-9.768-31.064.055.019 9.19 3.203.589c1.899.199 3.299 1.59 3.309 6.188l.02 9.237c-.946.697-3.264 2.777-3.264 6.554 0 4.067 2.342 6.831 3.294 7.792l.033 15.907c.006 3.497-.689 6.293-2.586 6.695l-3.897.609.02 9.19 6.416 8.377 50.06-.097-.046-22.273zm-54.637 12.193l-.01-5.697 3.195-.502c2.399-.511 3.192-3.406 3.182-7.999l-.035-16.839c-2.258-2.448-3.094-4.347-3.184-6.633l-.006-.187-.007-.206.013-.194.031-.435c.16-2.681 1.331-4.433 3.128-5.188l-.021-10.308c-.01-4.696-1.214-7.587-3.218-7.986l-3.195-.49-.013-5.694 27.468-.049.012 5.693-3.198.504c-2.001.407-3.195 3.302-3.186 7.997l.02 10.493c1.732.892 2.833 2.759 2.837 5.611.006 2.35-.705 4.242-2.812 6.65l.029 14.638c.014 5.692 1.426 8.884 8.718 8.869 7.001-.016 9.498-2.315 9.487-7.108l-.011-5.495 6.298-.015.047 20.478-45.567.088z" sketch:type="MSShapeGroup"/></g></svg>