<svg width="527" height="79" viewBox="0 0 527 79" xmlns="http://www.w3.org/2000/svg" xmlns:sketch="http://www.bohemiancoding.com/sketch/ns"><title>logo-coffeedesign</title><desc>Created with Sketch.</desc><g sketch:type="MSLayerGroup" fill="none"><path d="M111.249 70.053c-1.411 1.488-3.132 2.658-5.16 3.507-2.028.851-4.302 1.277-6.822 1.277-2.476 0-4.753-.438-6.825-1.307-2.072-.874-3.865-2.09-5.381-3.642-1.516-1.555-2.692-3.407-3.524-5.558-.832-2.151-1.25-4.483-1.25-6.995 0-2.51.417-4.842 1.25-6.993.832-2.151 2.008-4.001 3.524-5.558 1.516-1.552 3.309-2.768 5.381-3.642 2.072-.869 4.349-1.307 6.825-1.307 2.136 0 4.195.359 6.182 1.086 1.987.721 3.706 1.784 5.158 3.185l-1.024.958c-1.24-1.277-2.809-2.232-4.71-2.869-1.9-.637-3.77-.956-5.606-.956-2.307 0-4.42.426-6.344 1.274-1.921.851-3.567 1.998-4.935 3.44-1.365 1.447-2.423 3.16-3.17 5.135-.748 1.975-1.122 4.07-1.122 6.279 0 2.209.374 4.302 1.122 6.282.748 1.975 1.795 3.695 3.14 5.163 1.347 1.465 2.978 2.622 4.902 3.473 1.923.851 4.057 1.274 6.408 1.274 2.22 0 4.282-.403 6.182-1.208 1.9-.81 3.514-1.914 4.838-3.318l.963 1.019z" fill="#fff" sketch:type="MSShapeGroup"/><path d="M111.249 70.053c-1.411 1.488-3.132 2.658-5.16 3.507-2.028.851-4.302 1.277-6.822 1.277-2.476 0-4.753-.438-6.825-1.307-2.072-.874-3.865-2.09-5.381-3.642-1.516-1.555-2.692-3.407-3.524-5.558-.832-2.151-1.25-4.483-1.25-6.995 0-2.51.417-4.842 1.25-6.993.832-2.151 2.008-4.001 3.524-5.558 1.516-1.552 3.309-2.768 5.381-3.642 2.072-.869 4.349-1.307 6.825-1.307 2.136 0 4.195.359 6.182 1.086 1.987.721 3.706 1.784 5.158 3.185l-1.024.958c-1.24-1.277-2.809-2.232-4.71-2.869-1.9-.637-3.77-.956-5.606-.956-2.307 0-4.42.426-6.344 1.274-1.921.851-3.567 1.998-4.935 3.44-1.365 1.447-2.423 3.16-3.17 5.135-.748 1.975-1.122 4.07-1.122 6.279 0 2.209.374 4.302 1.122 6.282.748 1.975 1.795 3.695 3.14 5.163 1.347 1.465 2.978 2.622 4.902 3.473 1.923.851 4.057 1.274 6.408 1.274 2.22 0 4.282-.403 6.182-1.208 1.9-.81 3.514-1.914 4.838-3.318l.963 1.019z" stroke="#fff" stroke-width="2" sketch:type="MSShapeGroup"/><path d="M151.546 57.303c0 2.548-.415 4.898-1.247 7.044-.835 2.148-2.021 3.996-3.557 5.548-1.537 1.552-3.365 2.765-5.478 3.634-2.113.869-4.454 1.307-7.017 1.307-2.52 0-4.835-.438-6.95-1.307s-3.931-2.082-5.445-3.634c-1.519-1.552-2.704-3.4-3.557-5.548-.855-2.146-1.283-4.495-1.283-7.044 0-2.551.428-4.898 1.283-7.044.853-2.148 2.039-3.988 3.557-5.515 1.514-1.532 3.329-2.722 5.445-3.573 2.115-.849 4.43-1.274 6.95-1.274 2.564 0 4.904.426 7.017 1.274 2.113.851 3.941 2.041 5.478 3.573 1.537 1.526 2.722 3.366 3.557 5.515.832 2.146 1.247 4.493 1.247 7.044zm-1.409 0c0-2.209-.364-4.304-1.088-6.279-.727-1.978-1.785-3.688-3.173-5.132-1.388-1.447-3.065-2.594-5.027-3.445-1.967-.849-4.167-1.274-6.602-1.274-2.433 0-4.635.426-6.597 1.274-1.967.851-3.631 1.998-4.999 3.445-1.368 1.445-2.412 3.155-3.14 5.132-.727 1.975-1.088 4.07-1.088 6.279 0 2.253.361 4.355 1.088 6.312.727 1.955 1.772 3.675 3.14 5.163 1.368 1.488 3.032 2.655 4.999 3.507 1.962.851 4.164 1.274 6.597 1.274 2.435 0 4.635-.423 6.602-1.274 1.962-.851 3.639-2.018 5.027-3.507 1.388-1.488 2.446-3.208 3.173-5.163.725-1.957 1.088-4.06 1.088-6.312z" fill="#fff" sketch:type="MSShapeGroup"/><path d="M151.546 57.303c0 2.548-.415 4.898-1.247 7.044-.835 2.148-2.021 3.996-3.557 5.548-1.537 1.552-3.365 2.765-5.478 3.634-2.113.869-4.454 1.307-7.017 1.307-2.52 0-4.835-.438-6.95-1.307s-3.931-2.082-5.445-3.634c-1.519-1.552-2.704-3.4-3.557-5.548-.855-2.146-1.283-4.495-1.283-7.044 0-2.551.428-4.898 1.283-7.044.853-2.148 2.039-3.988 3.557-5.515 1.514-1.532 3.329-2.722 5.445-3.573 2.115-.849 4.43-1.274 6.95-1.274 2.564 0 4.904.426 7.017 1.274 2.113.851 3.941 2.041 5.478 3.573 1.537 1.526 2.722 3.366 3.557 5.515.832 2.146 1.247 4.493 1.247 7.044zm-1.409 0c0-2.209-.364-4.304-1.088-6.279-.727-1.978-1.785-3.688-3.173-5.132-1.388-1.447-3.065-2.594-5.027-3.445-1.967-.849-4.167-1.274-6.602-1.274-2.433 0-4.635.426-6.597 1.274-1.967.851-3.631 1.998-4.999 3.445-1.368 1.445-2.412 3.155-3.14 5.132-.727 1.975-1.088 4.07-1.088 6.279 0 2.253.361 4.355 1.088 6.312.727 1.955 1.772 3.675 3.14 5.163 1.368 1.488 3.032 2.655 4.999 3.507 1.962.851 4.164 1.274 6.597 1.274 2.435 0 4.635-.423 6.602-1.274 1.962-.851 3.639-2.018 5.027-3.507 1.388-1.488 2.446-3.208 3.173-5.163.725-1.957 1.088-4.06 1.088-6.312z" stroke="#fff" stroke-width="2" sketch:type="MSShapeGroup"/><path d="M163.334 42.066v14.279h16.403v1.277h-16.403v16.322h-1.409v-33.155h19.031v1.277h-17.622z" fill="#fff" sketch:type="MSShapeGroup"/><path d="M163.334 42.066v14.279h16.403v1.277h-16.403v16.322h-1.409v-33.155h19.031v1.277h-17.622z" stroke="#fff" stroke-width="2" sketch:type="MSShapeGroup"/><path d="M192.104 42.066v14.279h16.403v1.277h-16.403v16.322h-1.411v-33.155h19.031v1.277h-17.62z" fill="#fff" sketch:type="MSShapeGroup"/><path d="M192.104 42.066v14.279h16.403v1.277h-16.403v16.322h-1.411v-33.155h19.031v1.277h-17.62z" stroke="#fff" stroke-width="2" sketch:type="MSShapeGroup"/><path d="M219.46 73.944v-33.155h19.479v1.277h-18.068v14.026h16.979v1.274h-16.979v15.303h18.772v1.274h-20.183z" fill="#fff" sketch:type="MSShapeGroup"/><path d="M219.46 73.944v-33.155h19.479v1.277h-18.068v14.026h16.979v1.274h-16.979v15.303h18.772v1.274h-20.183z" stroke="#fff" stroke-width="2" sketch:type="MSShapeGroup"/><path d="M250.02 73.944v-33.155h19.479v1.277h-18.068v14.026h16.979v1.274h-16.979v15.303h18.772v1.274h-20.183z" fill="#fff" sketch:type="MSShapeGroup"/><path d="M250.02 73.944v-33.155h19.479v1.277h-18.068v14.026h16.979v1.274h-16.979v15.303h18.772v1.274h-20.183z" stroke="#fff" stroke-width="2" sketch:type="MSShapeGroup"/><path d="M321.333 73.944l-5.127-5.484c-2.692 4.251-6.215 6.376-10.572 6.376-1.324 0-2.564-.204-3.716-.607-1.152-.403-2.156-.999-3.012-1.784-.855-.787-1.526-1.756-2.018-2.903-.492-1.147-.735-2.444-.735-3.886 0-2.426.735-4.434 2.208-6.027 1.475-1.595 3.365-2.943 5.673-4.049-.855-.935-1.549-1.774-2.082-2.518-.535-.744-.963-1.445-1.283-2.105-.32-.657-.545-1.295-.671-1.911-.131-.614-.195-1.264-.195-1.944 0-2.039.694-3.751 2.082-5.132 1.388-1.381 3.173-2.072 5.352-2.072 2.177 0 3.918.637 5.219 1.911 1.304 1.277 1.957 2.806 1.957 4.592 0 2.041-.674 3.774-2.021 5.196-1.345 1.425-3.427 2.88-6.246 4.368l9.803 10.329 5.127-9.564h1.537l-5.703 10.453 6.28 6.761h-1.857zm-16.467-17.472c-.983.471-1.921 1.002-2.82 1.595-.896.596-1.677 1.264-2.338 2.008-.663.744-1.186 1.572-1.57 2.487-.384.915-.576 1.944-.576 3.094 0 1.274.213 2.401.64 3.377.425.979 1.014 1.807 1.762 2.487.745.68 1.624 1.2 2.628 1.562 1.001.359 2.082.543 3.235.543 2.008 0 3.79-.53 5.35-1.595 1.56-1.06 2.917-2.592 4.069-4.59l-10.38-10.968zm8.136-9.88c0-1.656-.556-2.987-1.665-3.986-1.111-.999-2.523-1.498-4.231-1.498-1.621 0-3.009.556-4.162 1.656-1.155 1.109-1.731 2.531-1.731 4.274 0 1.404.33 2.711.991 3.919.663 1.213 1.7 2.584 3.109 4.113 2.648-1.315 4.592-2.666 5.831-4.047 1.237-1.381 1.857-2.859 1.857-4.432z" fill="#fff" sketch:type="MSShapeGroup"/><path d="M321.333 73.944l-5.127-5.484c-2.692 4.251-6.215 6.376-10.572 6.376-1.324 0-2.564-.204-3.716-.607-1.152-.403-2.156-.999-3.012-1.784-.855-.787-1.526-1.756-2.018-2.903-.492-1.147-.735-2.444-.735-3.886 0-2.426.735-4.434 2.208-6.027 1.475-1.595 3.365-2.943 5.673-4.049-.855-.935-1.549-1.774-2.082-2.518-.535-.744-.963-1.445-1.283-2.105-.32-.657-.545-1.295-.671-1.911-.131-.614-.195-1.264-.195-1.944 0-2.039.694-3.751 2.082-5.132 1.388-1.381 3.173-2.072 5.352-2.072 2.177 0 3.918.637 5.219 1.911 1.304 1.277 1.957 2.806 1.957 4.592 0 2.041-.674 3.774-2.021 5.196-1.345 1.425-3.427 2.88-6.246 4.368l9.803 10.329 5.127-9.564h1.537l-5.703 10.453 6.28 6.761h-1.857zm-16.467-17.472c-.983.471-1.921 1.002-2.82 1.595-.896.596-1.677 1.264-2.338 2.008-.663.744-1.186 1.572-1.57 2.487-.384.915-.576 1.944-.576 3.094 0 1.274.213 2.401.64 3.377.425.979 1.014 1.807 1.762 2.487.745.68 1.624 1.2 2.628 1.562 1.001.359 2.082.543 3.235.543 2.008 0 3.79-.53 5.35-1.595 1.56-1.06 2.917-2.592 4.069-4.59l-10.38-10.968zm8.136-9.88c0-1.656-.556-2.987-1.665-3.986-1.111-.999-2.523-1.498-4.231-1.498-1.621 0-3.009.556-4.162 1.656-1.155 1.109-1.731 2.531-1.731 4.274 0 1.404.33 2.711.991 3.919.663 1.213 1.7 2.584 3.109 4.113 2.648-1.315 4.592-2.666 5.831-4.047 1.237-1.381 1.857-2.859 1.857-4.432z" stroke="#fff" stroke-width="2" sketch:type="MSShapeGroup"/><path d="M378.42 57.492c0 2.852-.481 5.306-1.442 7.365-.96 2.064-2.254 3.764-3.877 5.102-1.621 1.338-3.544 2.337-5.765 2.997-2.223.66-4.571.989-7.048.989h-9.547v-33.155h9.547c2.476 0 4.817.331 7.017.989 2.197.657 4.121 1.669 5.765 3.027 1.642 1.361 2.948 3.094 3.908 5.196.96 2.105 1.442 4.602 1.442 7.49zm-26.27-15.425v30.604h7.819c2.435 0 4.699-.319 6.792-.958 2.09-.637 3.895-1.583 5.414-2.839 1.516-1.251 2.702-2.824 3.555-4.715.855-1.891 1.283-4.116 1.283-6.667 0-2.548-.428-4.788-1.283-6.723-.853-1.934-2.039-3.54-3.555-4.816-1.519-1.274-3.324-2.24-5.414-2.9-2.092-.657-4.356-.986-6.792-.986h-7.819z" fill="#fff" sketch:type="MSShapeGroup"/><path d="M378.42 57.492c0 2.852-.481 5.306-1.442 7.365-.96 2.064-2.254 3.764-3.877 5.102-1.621 1.338-3.544 2.337-5.765 2.997-2.223.66-4.571.989-7.048.989h-9.547v-33.155h9.547c2.476 0 4.817.331 7.017.989 2.197.657 4.121 1.669 5.765 3.027 1.642 1.361 2.948 3.094 3.908 5.196.96 2.105 1.442 4.602 1.442 7.49zm-26.27-15.425v30.604h7.819c2.435 0 4.699-.319 6.792-.958 2.09-.637 3.895-1.583 5.414-2.839 1.516-1.251 2.702-2.824 3.555-4.715.855-1.891 1.283-4.116 1.283-6.667 0-2.548-.428-4.788-1.283-6.723-.853-1.934-2.039-3.54-3.555-4.816-1.519-1.274-3.324-2.24-5.414-2.9-2.092-.657-4.356-.986-6.792-.986h-7.819z" stroke="#fff" stroke-width="2" sketch:type="MSShapeGroup"/><path d="M388.797 73.944v-33.155h19.479v1.277h-18.068v14.026h16.979v1.274h-16.979v15.303h18.772v1.274h-20.183z" fill="#fff" sketch:type="MSShapeGroup"/><path d="M388.797 73.944v-33.155h19.479v1.277h-18.068v14.026h16.979v1.274h-16.979v15.303h18.772v1.274h-20.183z" stroke="#fff" stroke-width="2" sketch:type="MSShapeGroup"/><path d="M436.019 65.909c0 1.447-.277 2.722-.832 3.825-.556 1.106-1.293 2.041-2.213 2.806-.917.767-1.998 1.338-3.235 1.723-1.24.382-2.523.573-3.844.573-2.051 0-3.929-.372-5.637-1.116-1.711-.742-3.119-1.776-4.231-3.091l1.088-.956c1.111 1.231 2.425 2.166 3.941 2.803s3.109.956 4.774.956c1.155 0 2.264-.158 3.332-.477 1.065-.319 1.995-.798 2.786-1.435.791-.637 1.432-1.425 1.923-2.357.489-.938.735-2.018.735-3.254 0-1.274-.246-2.337-.735-3.188-.492-.849-1.152-1.572-1.985-2.166-.835-.596-1.775-1.093-2.822-1.498-1.045-.403-2.103-.775-3.17-1.116-1.324-.426-2.553-.869-3.685-1.338-1.132-.469-2.113-1.052-2.945-1.756-.832-.701-1.485-1.539-1.957-2.518-.469-.976-.702-2.166-.702-3.568 0-1.404.274-2.658.832-3.764.553-1.103 1.301-2.041 2.241-2.803.94-.767 2.028-1.351 3.268-1.756 1.24-.403 2.543-.604 3.908-.604 1.795 0 3.439.341 4.932 1.019 1.498.68 2.715 1.616 3.652 2.806l-1.088.956c-.853-1.106-1.931-1.944-3.235-2.518-1.304-.573-2.743-.859-4.325-.859-1.109 0-2.19.158-3.235.477-1.05.319-1.977.798-2.786 1.435-.814.637-1.475 1.425-1.987 2.357-.512.938-.768 2.018-.768 3.254 0 1.231.233 2.271.704 3.122s1.078 1.575 1.826 2.169c.748.594 1.603 1.096 2.564 1.498.96.405 1.931.754 2.914 1.052 1.409.469 2.722.945 3.941 1.432 1.216.492 2.272 1.086 3.17 1.786.896.701 1.603 1.542 2.115 2.518.51.979.768 2.169.768 3.57z" fill="#fff" sketch:type="MSShapeGroup"/><path d="M436.019 65.909c0 1.447-.277 2.722-.832 3.825-.556 1.106-1.293 2.041-2.213 2.806-.917.767-1.998 1.338-3.235 1.723-1.24.382-2.523.573-3.844.573-2.051 0-3.929-.372-5.637-1.116-1.711-.742-3.119-1.776-4.231-3.091l1.088-.956c1.111 1.231 2.425 2.166 3.941 2.803s3.109.956 4.774.956c1.155 0 2.264-.158 3.332-.477 1.065-.319 1.995-.798 2.786-1.435.791-.637 1.432-1.425 1.923-2.357.489-.938.735-2.018.735-3.254 0-1.274-.246-2.337-.735-3.188-.492-.849-1.152-1.572-1.985-2.166-.835-.596-1.775-1.093-2.822-1.498-1.045-.403-2.103-.775-3.17-1.116-1.324-.426-2.553-.869-3.685-1.338-1.132-.469-2.113-1.052-2.945-1.756-.832-.701-1.485-1.539-1.957-2.518-.469-.976-.702-2.166-.702-3.568 0-1.404.274-2.658.832-3.764.553-1.103 1.301-2.041 2.241-2.803.94-.767 2.028-1.351 3.268-1.756 1.24-.403 2.543-.604 3.908-.604 1.795 0 3.439.341 4.932 1.019 1.498.68 2.715 1.616 3.652 2.806l-1.088.956c-.853-1.106-1.931-1.944-3.235-2.518-1.304-.573-2.743-.859-4.325-.859-1.109 0-2.19.158-3.235.477-1.05.319-1.977.798-2.786 1.435-.814.637-1.475 1.425-1.987 2.357-.512.938-.768 2.018-.768 3.254 0 1.231.233 2.271.704 3.122s1.078 1.575 1.826 2.169c.748.594 1.603 1.096 2.564 1.498.96.405 1.931.754 2.914 1.052 1.409.469 2.722.945 3.941 1.432 1.216.492 2.272 1.086 3.17 1.786.896.701 1.603 1.542 2.115 2.518.51.979.768 2.169.768 3.57z" stroke="#fff" stroke-width="2" sketch:type="MSShapeGroup"/><path d="M446.012 40.789h1.411v33.155h-1.411v-33.155z" fill="#fff" sketch:type="MSShapeGroup"/><path d="M446.012 40.789h1.411v33.155h-1.411v-33.155z" stroke="#fff" stroke-width="2" sketch:type="MSShapeGroup"/><path d="M482.116 73.944c-2.028.594-4.325.892-6.889.892-2.605 0-4.973-.449-7.109-1.34-2.136-.897-3.975-2.13-5.509-3.705-1.539-1.575-2.725-3.44-3.557-5.589-.832-2.148-1.25-4.462-1.25-6.929 0-2.472.428-4.768 1.28-6.898.855-2.13 2.041-3.983 3.555-5.558 1.516-1.575 3.334-2.801 5.447-3.675 2.115-.869 4.454-1.307 7.017-1.307 2.305 0 4.42.359 6.341 1.086 1.923.721 3.567 1.7 4.935 2.931l-1.024 1.019c-1.24-1.231-2.799-2.143-4.679-2.742-1.88-.594-3.757-.889-5.637-.889-2.392 0-4.561.426-6.505 1.274-1.944.851-3.608 1.998-4.996 3.44-1.388 1.447-2.456 3.15-3.204 5.102-.748 1.957-1.122 4.039-1.122 6.249 0 2.209.364 4.294 1.088 6.249.727 1.955 1.785 3.677 3.173 5.163 1.388 1.488 3.076 2.668 5.06 3.537 1.987.872 4.238 1.307 6.761 1.307 2.177 0 4.131-.232 5.862-.701 1.731-.466 3.278-1.06 4.643-1.784v-12.37h-8.454v-1.274h9.865v14.472c-1.368.767-3.065 1.445-5.094 2.041z" fill="#fff" sketch:type="MSShapeGroup"/><path d="M482.116 73.944c-2.028.594-4.325.892-6.889.892-2.605 0-4.973-.449-7.109-1.34-2.136-.897-3.975-2.13-5.509-3.705-1.539-1.575-2.725-3.44-3.557-5.589-.832-2.148-1.25-4.462-1.25-6.929 0-2.472.428-4.768 1.28-6.898.855-2.13 2.041-3.983 3.555-5.558 1.516-1.575 3.334-2.801 5.447-3.675 2.115-.869 4.454-1.307 7.017-1.307 2.305 0 4.42.359 6.341 1.086 1.923.721 3.567 1.7 4.935 2.931l-1.024 1.019c-1.24-1.231-2.799-2.143-4.679-2.742-1.88-.594-3.757-.889-5.637-.889-2.392 0-4.561.426-6.505 1.274-1.944.851-3.608 1.998-4.996 3.44-1.388 1.447-2.456 3.15-3.204 5.102-.748 1.957-1.122 4.039-1.122 6.249 0 2.209.364 4.294 1.088 6.249.727 1.955 1.785 3.677 3.173 5.163 1.388 1.488 3.076 2.668 5.06 3.537 1.987.872 4.238 1.307 6.761 1.307 2.177 0 4.131-.232 5.862-.701 1.731-.466 3.278-1.06 4.643-1.784v-12.37h-8.454v-1.274h9.865v14.472c-1.368.767-3.065 1.445-5.094 2.041z" stroke="#fff" stroke-width="2" sketch:type="MSShapeGroup"/><path d="M523.732 73.944l-22.555-31.241h-.128v31.241h-1.409v-33.155h1.923l22.549 31.241h.131v-31.241h1.409v33.155h-1.921z" fill="#fff" sketch:type="MSShapeGroup"/><path d="M523.732 73.944l-22.555-31.241h-.128v31.241h-1.409v-33.155h1.923l22.549 31.241h.131v-31.241h1.409v33.155h-1.921z" stroke="#fff" stroke-width="2" sketch:type="MSShapeGroup"/><path d="M17.374 23.81c-.753 0-1.375-.591-1.406-1.346-.259-6.529 1.265-8.017 4.208-10.288.684-.528 1.457-1.126 2.295-1.901 3.414-3.16 2.638-7.645 2.605-7.836-.138-.757.364-1.488 1.127-1.631.766-.14 1.496.357 1.642 1.114.049.25 1.119 6.172-3.455 10.405-.927.861-1.757 1.501-2.487 2.064-2.356 1.82-3.332 2.571-3.119 7.961.031.775-.574 1.427-1.352 1.455l-.056.003m9.809.683c-.755 0-1.38-.596-1.406-1.353-.172-4.977.925-6.19 2.876-7.905.461-.408.94-.828 1.475-1.391 2.123-2.24 1.621-5.578 1.616-5.612-.123-.762.4-1.481 1.163-1.605.768-.125 1.488.387 1.616 1.149.033.191.753 4.722-2.346 7.992-.622.657-1.173 1.142-1.66 1.567-1.498 1.318-2.059 1.812-1.926 5.708.028.772-.581 1.422-1.357 1.447l-.051.003" fill="#fff" sketch:type="MSShapeGroup"/><path d="M57.43 49.829c0-3.856-1.119-6.447-3.324-7.706-1.711-.976-3.926-1.058-6.582-.242-.494.15-.955.319-1.368.487l.079-.752c.62-6.552.574-11.213.571-11.407l-.018-1.386h-46.784l.049 1.45c1.452 42.293 14.733 48.277 15.299 48.511l.259.11h16.324l.387-.313c3.675-2.956 6.707-7.602 9.05-13.838 5.642-.706 16.057-4.684 16.057-14.913zm-13.45-18.203c-.02 1.445-.095 3.935-.323 7.034-5.954 3.968-13.54 2.548-20.89 1.167-1.222-.232-2.379-.449-3.534-.642-6.093-1.019-12.398-.15-15.791.507-.223-2.518-.397-5.201-.517-8.066h41.055zm-13.053 44.464h-14.68c-1.421-.864-9.675-6.983-12.531-33.59 3.112-.614 9.266-1.521 15.048-.55 1.129.189 2.272.403 3.48.629 3.783.711 7.806 1.468 11.747 1.468 3.237 0 6.418-.51 9.363-1.972-.63 6.302-1.66 12.011-3.071 16.965-2.261 7.948-5.409 13.682-9.358 17.051zm17.036-16.348c-2.074 1.07-4.174 1.656-5.539 1.957.195-.622.387-1.251.571-1.899 1.206-4.233 2.138-8.991 2.794-14.172 1.298-.719 4.894-2.227 6.917-1.073 1.265.721 1.908 2.495 1.908 5.273 0 4.302-2.238 7.638-6.651 9.913z" fill="#fff" sketch:type="MSShapeGroup"/></g></svg>