<?xml version="1.0" encoding="UTF-8" standalone="no"?>
<svg width="527px" height="79px" viewBox="0 0 527 79" version="1.1" xmlns="http://www.w3.org/2000/svg" xmlns:xlink="http://www.w3.org/1999/xlink" xmlns:sketch="http://www.bohemiancoding.com/sketch/ns">
    <!-- Generator: Sketch 3.1.1 (8761) - http://www.bohemiancoding.com/sketch -->
    <title>logo-coffeedesign</title>
    <desc>Created with Sketch.</desc>
    <defs></defs>
    <g id="Page-1" stroke="none" stroke-width="1" fill="none" fill-rule="evenodd" sketch:type="MSPage">
        <g id="Desktop" sketch:type="MSArtboardGroup" transform="translate(-337.000000, -1199.000000)">
            <g id="logo-coffeedesign" sketch:type="MSLayerGroup" transform="translate(337.000000, 1200.000000)">
                <path d="M111.24878,69.0526129 C109.837683,70.540871 108.116707,71.7105806 106.088415,72.5591935 C104.060122,73.4103548 101.785976,73.8359355 99.2659756,73.8359355 C96.7895122,73.8359355 94.5128049,73.3976129 92.4409756,72.5286129 C90.3691463,71.6545161 88.5764634,70.4389355 87.0603659,68.8869677 C85.5442683,67.3324516 84.3687805,65.4797742 83.5364634,63.3289355 C82.7041463,61.1780968 82.2867073,58.8463226 82.2867073,56.3336129 C82.2867073,53.8234516 82.7041463,51.4916774 83.5364634,49.3408387 C84.3687805,47.19 85.5442683,45.339871 87.0603659,43.7828065 C88.5764634,42.2308387 90.3691463,41.0152581 92.4409756,40.1411613 C94.5128049,39.2721613 96.7895122,38.8338387 99.2659756,38.8338387 C101.401829,38.8338387 103.460854,39.1931613 105.448171,39.9194516 C107.435488,40.6406452 109.153902,41.7033226 110.605976,43.1049355 L109.581585,44.063129 C108.342073,42.7863871 106.772195,41.8307419 104.871951,41.1936452 C102.971707,40.5565484 101.102195,40.238 99.2659756,40.238 C96.9585366,40.238 94.8457317,40.6635806 92.922439,41.5121935 C91.0017073,42.3633548 89.355,43.510129 87.987439,44.9525161 C86.622439,46.4 85.5647561,48.1125161 84.8169512,50.0875161 C84.0691463,52.0625161 83.6952439,54.1572903 83.6952439,56.3667419 C83.6952439,58.5761935 84.0691463,60.6684194 84.8169512,62.6485161 C85.5647561,64.6235161 86.6121951,66.3436774 87.9567073,67.8115484 C89.3037805,69.276871 90.935122,70.4338387 92.8584146,71.285 C94.7817073,72.1361613 96.915,72.5591935 99.2659756,72.5591935 C101.486341,72.5591935 103.547927,72.1565484 105.448171,71.3512581 C107.348415,70.540871 108.961829,69.4374194 110.285854,68.0332581 L111.24878,69.0526129 L111.24878,69.0526129 Z" id="Fill-1" fill="#FFFFFF" sketch:type="MSShapeGroup"></path>
                <path d="M111.24878,69.0526129 C109.837683,70.540871 108.116707,71.7105806 106.088415,72.5591935 C104.060122,73.4103548 101.785976,73.8359355 99.2659756,73.8359355 C96.7895122,73.8359355 94.5128049,73.3976129 92.4409756,72.5286129 C90.3691463,71.6545161 88.5764634,70.4389355 87.0603659,68.8869677 C85.5442683,67.3324516 84.3687805,65.4797742 83.5364634,63.3289355 C82.7041463,61.1780968 82.2867073,58.8463226 82.2867073,56.3336129 C82.2867073,53.8234516 82.7041463,51.4916774 83.5364634,49.3408387 C84.3687805,47.19 85.5442683,45.339871 87.0603659,43.7828065 C88.5764634,42.2308387 90.3691463,41.0152581 92.4409756,40.1411613 C94.5128049,39.2721613 96.7895122,38.8338387 99.2659756,38.8338387 C101.401829,38.8338387 103.460854,39.1931613 105.448171,39.9194516 C107.435488,40.6406452 109.153902,41.7033226 110.605976,43.1049355 L109.581585,44.063129 C108.342073,42.7863871 106.772195,41.8307419 104.871951,41.1936452 C102.971707,40.5565484 101.102195,40.238 99.2659756,40.238 C96.9585366,40.238 94.8457317,40.6635806 92.922439,41.5121935 C91.0017073,42.3633548 89.355,43.510129 87.987439,44.9525161 C86.622439,46.4 85.5647561,48.1125161 84.8169512,50.0875161 C84.0691463,52.0625161 83.6952439,54.1572903 83.6952439,56.3667419 C83.6952439,58.5761935 84.0691463,60.6684194 84.8169512,62.6485161 C85.5647561,64.6235161 86.6121951,66.3436774 87.9567073,67.8115484 C89.3037805,69.276871 90.935122,70.4338387 92.8584146,71.285 C94.7817073,72.1361613 96.915,72.5591935 99.2659756,72.5591935 C101.486341,72.5591935 103.547927,72.1565484 105.448171,71.3512581 C107.348415,70.540871 108.961829,69.4374194 110.285854,68.0332581 L111.24878,69.0526129 L111.24878,69.0526129 Z" id="Stroke-2" stroke="#FFFFFF" stroke-width="2" sketch:type="MSShapeGroup"></path>
                <path d="M151.545732,56.3030323 C151.545732,58.8514194 151.130854,61.2010323 150.298537,63.3467742 C149.463659,65.4950645 148.277927,67.3426452 146.741341,68.8946129 C145.204756,70.4465806 143.37622,71.6596129 141.263415,72.5286129 C139.15061,73.3976129 136.809878,73.8359355 134.246341,73.8359355 C131.726341,73.8359355 129.41122,73.3976129 127.295854,72.5286129 C125.180488,71.6596129 123.364756,70.4465806 121.85122,68.8946129 C120.332561,67.3426452 119.146829,65.4950645 118.294024,63.3467742 C117.438659,61.2010323 117.010976,58.8514194 117.010976,56.3030323 C117.010976,53.7520968 117.438659,51.4050323 118.294024,49.2592903 C119.146829,47.111 120.332561,45.2710645 121.85122,43.7445806 C123.364756,42.213 125.180488,41.0229032 127.295854,40.1717419 C129.41122,39.323129 131.726341,38.8975484 134.246341,38.8975484 C136.809878,38.8975484 139.15061,39.323129 141.263415,40.1717419 C143.37622,41.0229032 145.204756,42.213 146.741341,43.7445806 C148.277927,45.2710645 149.463659,47.111 150.298537,49.2592903 C151.130854,51.4050323 151.545732,53.7520968 151.545732,56.3030323 L151.545732,56.3030323 Z M150.137195,56.3030323 C150.137195,54.0935806 149.773537,51.9988065 149.04878,50.0238065 C148.321463,48.0462581 147.26378,46.3362903 145.875732,44.8913548 C144.487683,43.443871 142.810244,42.2970968 140.848537,41.4459355 C138.881707,40.5973226 136.681829,40.1717419 134.246341,40.1717419 C131.813415,40.1717419 129.610976,40.5973226 127.649268,41.4459355 C125.682439,42.2970968 124.017805,43.443871 122.650244,44.8913548 C121.282683,46.3362903 120.237805,48.0462581 119.510488,50.0238065 C118.783171,51.9988065 118.422073,54.0935806 118.422073,56.3030323 C118.422073,58.5558065 118.783171,60.6582258 119.510488,62.6153871 C120.237805,64.57 121.282683,66.2901613 122.650244,67.7784194 C124.017805,69.2666774 125.682439,70.4338387 127.649268,71.285 C129.610976,72.1361613 131.813415,72.5591935 134.246341,72.5591935 C136.681829,72.5591935 138.881707,72.1361613 140.848537,71.285 C142.810244,70.4338387 144.487683,69.2666774 145.875732,67.7784194 C147.26378,66.2901613 148.321463,64.57 149.04878,62.6153871 C149.773537,60.6582258 150.137195,58.5558065 150.137195,56.3030323 L150.137195,56.3030323 Z" id="Fill-3" fill="#FFFFFF" sketch:type="MSShapeGroup"></path>
                <path d="M151.545732,56.3030323 C151.545732,58.8514194 151.130854,61.2010323 150.298537,63.3467742 C149.463659,65.4950645 148.277927,67.3426452 146.741341,68.8946129 C145.204756,70.4465806 143.37622,71.6596129 141.263415,72.5286129 C139.15061,73.3976129 136.809878,73.8359355 134.246341,73.8359355 C131.726341,73.8359355 129.41122,73.3976129 127.295854,72.5286129 C125.180488,71.6596129 123.364756,70.4465806 121.85122,68.8946129 C120.332561,67.3426452 119.146829,65.4950645 118.294024,63.3467742 C117.438659,61.2010323 117.010976,58.8514194 117.010976,56.3030323 C117.010976,53.7520968 117.438659,51.4050323 118.294024,49.2592903 C119.146829,47.111 120.332561,45.2710645 121.85122,43.7445806 C123.364756,42.213 125.180488,41.0229032 127.295854,40.1717419 C129.41122,39.323129 131.726341,38.8975484 134.246341,38.8975484 C136.809878,38.8975484 139.15061,39.323129 141.263415,40.1717419 C143.37622,41.0229032 145.204756,42.213 146.741341,43.7445806 C148.277927,45.2710645 149.463659,47.111 150.298537,49.2592903 C151.130854,51.4050323 151.545732,53.7520968 151.545732,56.3030323 L151.545732,56.3030323 Z M150.137195,56.3030323 C150.137195,54.0935806 149.773537,51.9988065 149.04878,50.0238065 C148.321463,48.0462581 147.26378,46.3362903 145.875732,44.8913548 C144.487683,43.443871 142.810244,42.2970968 140.848537,41.4459355 C138.881707,40.5973226 136.681829,40.1717419 134.246341,40.1717419 C131.813415,40.1717419 129.610976,40.5973226 127.649268,41.4459355 C125.682439,42.2970968 124.017805,43.443871 122.650244,44.8913548 C121.282683,46.3362903 120.237805,48.0462581 119.510488,50.0238065 C118.783171,51.9988065 118.422073,54.0935806 118.422073,56.3030323 C118.422073,58.5558065 118.783171,60.6582258 119.510488,62.6153871 C120.237805,64.57 121.282683,66.2901613 122.650244,67.7784194 C124.017805,69.2666774 125.682439,70.4338387 127.649268,71.285 C129.610976,72.1361613 131.813415,72.5591935 134.246341,72.5591935 C136.681829,72.5591935 138.881707,72.1361613 140.848537,71.285 C142.810244,70.4338387 144.487683,69.2666774 145.875732,67.7784194 C147.26378,66.2901613 148.321463,64.57 149.04878,62.6153871 C149.773537,60.6582258 150.137195,58.5558065 150.137195,56.3030323 L150.137195,56.3030323 Z" id="Stroke-4" stroke="#FFFFFF" stroke-width="2" sketch:type="MSShapeGroup"></path>
                <path d="M163.333902,41.0662258 L163.333902,55.3448387 L179.736951,55.3448387 L179.736951,56.6215806 L163.333902,56.6215806 L163.333902,72.944 L161.925366,72.944 L161.925366,39.7894839 L180.955976,39.7894839 L180.955976,41.0662258 L163.333902,41.0662258 L163.333902,41.0662258 Z" id="Fill-5" fill="#FFFFFF" sketch:type="MSShapeGroup"></path>
                <path d="M163.333902,41.0662258 L163.333902,55.3448387 L179.736951,55.3448387 L179.736951,56.6215806 L163.333902,56.6215806 L163.333902,72.944 L161.925366,72.944 L161.925366,39.7894839 L180.955976,39.7894839 L180.955976,41.0662258 L163.333902,41.0662258 L163.333902,41.0662258 Z" id="Stroke-6" stroke="#FFFFFF" stroke-width="2" sketch:type="MSShapeGroup"></path>
                <path d="M192.103902,41.0662258 L192.103902,55.3448387 L208.506951,55.3448387 L208.506951,56.6215806 L192.103902,56.6215806 L192.103902,72.944 L190.692805,72.944 L190.692805,39.7894839 L209.723415,39.7894839 L209.723415,41.0662258 L192.103902,41.0662258 L192.103902,41.0662258 Z" id="Fill-7" fill="#FFFFFF" sketch:type="MSShapeGroup"></path>
                <path d="M192.103902,41.0662258 L192.103902,55.3448387 L208.506951,55.3448387 L208.506951,56.6215806 L192.103902,56.6215806 L192.103902,72.944 L190.692805,72.944 L190.692805,39.7894839 L209.723415,39.7894839 L209.723415,41.0662258 L192.103902,41.0662258 L192.103902,41.0662258 Z" id="Stroke-8" stroke="#FFFFFF" stroke-width="2" sketch:type="MSShapeGroup"></path>
                <path d="M219.460244,72.944 L219.460244,39.7894839 L238.939024,39.7894839 L238.939024,41.0662258 L220.871341,41.0662258 L220.871341,55.0925484 L237.85061,55.0925484 L237.85061,56.3667419 L220.871341,56.3667419 L220.871341,71.6698065 L239.643293,71.6698065 L239.643293,72.944 L219.460244,72.944 L219.460244,72.944 Z" id="Fill-9" fill="#FFFFFF" sketch:type="MSShapeGroup"></path>
                <path d="M219.460244,72.944 L219.460244,39.7894839 L238.939024,39.7894839 L238.939024,41.0662258 L220.871341,41.0662258 L220.871341,55.0925484 L237.85061,55.0925484 L237.85061,56.3667419 L220.871341,56.3667419 L220.871341,71.6698065 L239.643293,71.6698065 L239.643293,72.944 L219.460244,72.944 L219.460244,72.944 Z" id="Stroke-10" stroke="#FFFFFF" stroke-width="2" sketch:type="MSShapeGroup"></path>
                <path d="M250.020366,72.944 L250.020366,39.7894839 L269.499146,39.7894839 L269.499146,41.0662258 L251.431463,41.0662258 L251.431463,55.0925484 L268.410732,55.0925484 L268.410732,56.3667419 L251.431463,56.3667419 L251.431463,71.6698065 L270.203415,71.6698065 L270.203415,72.944 L250.020366,72.944 L250.020366,72.944 Z" id="Fill-11" fill="#FFFFFF" sketch:type="MSShapeGroup"></path>
                <path d="M250.020366,72.944 L250.020366,39.7894839 L269.499146,39.7894839 L269.499146,41.0662258 L251.431463,41.0662258 L251.431463,55.0925484 L268.410732,55.0925484 L268.410732,56.3667419 L251.431463,56.3667419 L251.431463,71.6698065 L270.203415,71.6698065 L270.203415,72.944 L250.020366,72.944 L250.020366,72.944 Z" id="Stroke-12" stroke="#FFFFFF" stroke-width="2" sketch:type="MSShapeGroup"></path>
                <path d="M321.333293,72.944 L316.20622,67.459871 C313.514634,71.7105806 309.990732,73.8359355 305.634512,73.8359355 C304.310488,73.8359355 303.070976,73.6320645 301.918537,73.2294194 C300.766098,72.8267742 299.762195,72.2304516 298.906829,71.4455484 C298.051463,70.6580968 297.380488,69.6897097 296.88878,68.5429355 C296.397073,67.3961613 296.15378,66.0990323 296.15378,64.6566452 C296.15378,62.2305806 296.88878,60.2224516 298.361341,58.6297097 C299.836463,57.0344194 301.726463,55.6863226 304.033902,54.5803226 C303.178537,53.6450645 302.484512,52.8066452 301.951829,52.0625161 C301.416585,51.3183871 300.988902,50.6175806 300.66878,49.9575484 C300.348659,49.3000645 300.123293,48.6629677 299.997805,48.0462581 C299.867195,47.4320968 299.803171,46.7822581 299.803171,46.1018387 C299.803171,44.063129 300.497195,42.3506129 301.885244,40.9693871 C303.273293,39.5881613 305.058293,38.8975484 307.237683,38.8975484 C309.414512,38.8975484 311.155976,39.5346452 312.456951,40.8088387 C313.760488,42.0855806 314.413537,43.6146129 314.413537,45.4010323 C314.413537,47.4422903 313.74,49.1751935 312.392927,50.5971935 C311.048415,52.0217419 308.966341,53.476871 306.146707,54.965129 L315.950122,65.2937419 L321.077195,55.7296452 L322.61378,55.7296452 L316.910488,66.183129 L323.19,72.944 L321.333293,72.944 L321.333293,72.944 Z M304.86622,55.4722581 C303.882805,55.9437097 302.945488,56.4737742 302.046585,57.0675484 C301.150244,57.663871 300.369146,58.3315484 299.708415,59.0756774 C299.045122,59.8198065 298.522683,60.6480323 298.138537,61.5629032 C297.75439,62.4777742 297.562317,63.5073226 297.562317,64.6566452 C297.562317,65.9308387 297.774878,67.0572258 298.202561,68.0332581 C298.627683,69.0118387 299.216707,69.8400645 299.964512,70.5204839 C300.709756,71.2009032 301.588171,71.7207742 302.592073,72.0826452 C303.593415,72.4419677 304.674146,72.6254516 305.826585,72.6254516 C307.83439,72.6254516 309.616829,72.0953871 311.176463,71.0301613 C312.736098,69.9700323 314.093415,68.4384516 315.245854,66.4405161 L304.86622,55.4722581 L304.86622,55.4722581 Z M313.002439,45.5921613 C313.002439,43.9357097 312.446707,42.6054516 311.337805,41.6064839 C310.226341,40.6075161 308.815244,40.1080323 307.107073,40.1080323 C305.485976,40.1080323 304.097927,40.6635806 302.945488,41.7644839 C301.790488,42.8730323 301.214268,44.2950323 301.214268,46.038129 C301.214268,47.4422903 301.544634,48.7496129 302.205366,49.9575484 C302.868659,51.1705806 303.905854,52.5416129 305.31439,54.0706452 C307.962439,52.7556774 309.90622,51.4050323 311.145732,50.0238065 C312.382683,48.6425806 313.002439,47.1645161 313.002439,45.5921613 L313.002439,45.5921613 Z" id="Fill-13" fill="#FFFFFF" sketch:type="MSShapeGroup"></path>
                <path d="M321.333293,72.944 L316.20622,67.459871 C313.514634,71.7105806 309.990732,73.8359355 305.634512,73.8359355 C304.310488,73.8359355 303.070976,73.6320645 301.918537,73.2294194 C300.766098,72.8267742 299.762195,72.2304516 298.906829,71.4455484 C298.051463,70.6580968 297.380488,69.6897097 296.88878,68.5429355 C296.397073,67.3961613 296.15378,66.0990323 296.15378,64.6566452 C296.15378,62.2305806 296.88878,60.2224516 298.361341,58.6297097 C299.836463,57.0344194 301.726463,55.6863226 304.033902,54.5803226 C303.178537,53.6450645 302.484512,52.8066452 301.951829,52.0625161 C301.416585,51.3183871 300.988902,50.6175806 300.66878,49.9575484 C300.348659,49.3000645 300.123293,48.6629677 299.997805,48.0462581 C299.867195,47.4320968 299.803171,46.7822581 299.803171,46.1018387 C299.803171,44.063129 300.497195,42.3506129 301.885244,40.9693871 C303.273293,39.5881613 305.058293,38.8975484 307.237683,38.8975484 C309.414512,38.8975484 311.155976,39.5346452 312.456951,40.8088387 C313.760488,42.0855806 314.413537,43.6146129 314.413537,45.4010323 C314.413537,47.4422903 313.74,49.1751935 312.392927,50.5971935 C311.048415,52.0217419 308.966341,53.476871 306.146707,54.965129 L315.950122,65.2937419 L321.077195,55.7296452 L322.61378,55.7296452 L316.910488,66.183129 L323.19,72.944 L321.333293,72.944 L321.333293,72.944 Z M304.86622,55.4722581 C303.882805,55.9437097 302.945488,56.4737742 302.046585,57.0675484 C301.150244,57.663871 300.369146,58.3315484 299.708415,59.0756774 C299.045122,59.8198065 298.522683,60.6480323 298.138537,61.5629032 C297.75439,62.4777742 297.562317,63.5073226 297.562317,64.6566452 C297.562317,65.9308387 297.774878,67.0572258 298.202561,68.0332581 C298.627683,69.0118387 299.216707,69.8400645 299.964512,70.5204839 C300.709756,71.2009032 301.588171,71.7207742 302.592073,72.0826452 C303.593415,72.4419677 304.674146,72.6254516 305.826585,72.6254516 C307.83439,72.6254516 309.616829,72.0953871 311.176463,71.0301613 C312.736098,69.9700323 314.093415,68.4384516 315.245854,66.4405161 L304.86622,55.4722581 L304.86622,55.4722581 Z M313.002439,45.5921613 C313.002439,43.9357097 312.446707,42.6054516 311.337805,41.6064839 C310.226341,40.6075161 308.815244,40.1080323 307.107073,40.1080323 C305.485976,40.1080323 304.097927,40.6635806 302.945488,41.7644839 C301.790488,42.8730323 301.214268,44.2950323 301.214268,46.038129 C301.214268,47.4422903 301.544634,48.7496129 302.205366,49.9575484 C302.868659,51.1705806 303.905854,52.5416129 305.31439,54.0706452 C307.962439,52.7556774 309.90622,51.4050323 311.145732,50.0238065 C312.382683,48.6425806 313.002439,47.1645161 313.002439,45.5921613 L313.002439,45.5921613 Z" id="Stroke-14" stroke="#FFFFFF" stroke-width="2" sketch:type="MSShapeGroup"></path>
                <path d="M378.42,56.4916129 C378.42,59.3432581 377.938537,61.7973548 376.978171,63.8564516 C376.017805,65.9206452 374.724512,67.6204194 373.100854,68.9583226 C371.479756,70.2962258 369.556463,71.2951935 367.336098,71.9552258 C365.113171,72.6152581 362.764756,72.944 360.288293,72.944 L350.740976,72.944 L350.740976,39.7894839 L360.288293,39.7894839 C362.764756,39.7894839 365.105488,40.1207742 367.305366,40.7782581 C369.502683,41.4357419 371.425976,42.4474516 373.070122,43.8057419 C374.711707,45.1665806 376.017805,46.8994839 376.978171,49.0019032 C377.938537,51.106871 378.42,53.6042903 378.42,56.4916129 L378.42,56.4916129 Z M352.149512,41.0662258 L352.149512,71.6698065 L359.968171,71.6698065 C362.403659,71.6698065 364.667561,71.3512581 366.759878,70.7116129 C368.849634,70.0745161 370.655122,69.1290645 372.17378,67.8727097 C373.689878,66.6214516 374.87561,65.0490968 375.728415,63.1581935 C376.58378,61.2672903 377.011463,59.0425484 377.011463,56.4916129 C377.011463,53.9432258 376.58378,51.7031935 375.728415,49.7689677 C374.87561,47.8347419 373.689878,46.2292581 372.17378,44.9525161 C370.655122,43.6783226 368.849634,42.7124839 366.759878,42.0524516 C364.667561,41.3949677 362.403659,41.0662258 359.968171,41.0662258 L352.149512,41.0662258 L352.149512,41.0662258 Z" id="Fill-15" fill="#FFFFFF" sketch:type="MSShapeGroup"></path>
                <path d="M378.42,56.4916129 C378.42,59.3432581 377.938537,61.7973548 376.978171,63.8564516 C376.017805,65.9206452 374.724512,67.6204194 373.100854,68.9583226 C371.479756,70.2962258 369.556463,71.2951935 367.336098,71.9552258 C365.113171,72.6152581 362.764756,72.944 360.288293,72.944 L350.740976,72.944 L350.740976,39.7894839 L360.288293,39.7894839 C362.764756,39.7894839 365.105488,40.1207742 367.305366,40.7782581 C369.502683,41.4357419 371.425976,42.4474516 373.070122,43.8057419 C374.711707,45.1665806 376.017805,46.8994839 376.978171,49.0019032 C377.938537,51.106871 378.42,53.6042903 378.42,56.4916129 L378.42,56.4916129 Z M352.149512,41.0662258 L352.149512,71.6698065 L359.968171,71.6698065 C362.403659,71.6698065 364.667561,71.3512581 366.759878,70.7116129 C368.849634,70.0745161 370.655122,69.1290645 372.17378,67.8727097 C373.689878,66.6214516 374.87561,65.0490968 375.728415,63.1581935 C376.58378,61.2672903 377.011463,59.0425484 377.011463,56.4916129 C377.011463,53.9432258 376.58378,51.7031935 375.728415,49.7689677 C374.87561,47.8347419 373.689878,46.2292581 372.17378,44.9525161 C370.655122,43.6783226 368.849634,42.7124839 366.759878,42.0524516 C364.667561,41.3949677 362.403659,41.0662258 359.968171,41.0662258 L352.149512,41.0662258 L352.149512,41.0662258 Z" id="Stroke-16" stroke="#FFFFFF" stroke-width="2" sketch:type="MSShapeGroup"></path>
                <path d="M388.797073,72.944 L388.797073,39.7894839 L408.275854,39.7894839 L408.275854,41.0662258 L390.208171,41.0662258 L390.208171,55.0925484 L407.187439,55.0925484 L407.187439,56.3667419 L390.208171,56.3667419 L390.208171,71.6698065 L408.980122,71.6698065 L408.980122,72.944 L388.797073,72.944 L388.797073,72.944 Z" id="Fill-17" fill="#FFFFFF" sketch:type="MSShapeGroup"></path>
                <path d="M388.797073,72.944 L388.797073,39.7894839 L408.275854,39.7894839 L408.275854,41.0662258 L390.208171,41.0662258 L390.208171,55.0925484 L407.187439,55.0925484 L407.187439,56.3667419 L390.208171,56.3667419 L390.208171,71.6698065 L408.980122,71.6698065 L408.980122,72.944 L388.797073,72.944 L388.797073,72.944 Z" id="Stroke-18" stroke="#FFFFFF" stroke-width="2" sketch:type="MSShapeGroup"></path>
                <path d="M436.018902,64.9089355 C436.018902,66.3564194 435.742317,67.6306129 435.186585,68.7340645 C434.630854,69.8400645 433.893293,70.7753226 432.973902,71.5398387 C432.057073,72.3069032 430.976341,72.8777419 429.73939,73.2625484 C428.499878,73.6448065 427.216829,73.8359355 425.895366,73.8359355 C423.844024,73.8359355 421.966829,73.463871 420.258659,72.7197419 C418.547927,71.9781613 417.13939,70.9435161 416.027927,69.6285484 L417.116341,68.6729032 C418.227805,69.9037742 419.541585,70.8390323 421.057683,71.476129 C422.57378,72.1132258 424.166707,72.4317742 425.831341,72.4317742 C426.986341,72.4317742 428.095244,72.2737742 429.163171,71.9552258 C430.228537,71.6366774 431.158171,71.1575806 431.949512,70.5204839 C432.740854,69.8833871 433.381098,69.0959355 433.872805,68.1632258 C434.361951,67.2254194 434.607805,66.1449032 434.607805,64.9089355 C434.607805,63.6347419 434.361951,62.5720645 433.872805,61.7209032 C433.381098,60.8722903 432.720366,60.1485484 431.888049,59.5547742 C431.053171,58.9584516 430.113293,58.4615161 429.065854,58.0563226 C428.020976,57.6536774 426.963293,57.2816129 425.895366,56.940129 C424.571341,56.5145484 423.342073,56.071129 422.210122,55.6022258 C421.078171,55.1333226 420.097317,54.5497419 419.265,53.8463871 C418.432683,53.1455806 417.779634,52.3071613 417.308415,51.3285806 C416.839756,50.3525484 416.606707,49.1624516 416.606707,47.7608387 C416.606707,46.3566774 416.880732,45.102871 417.439024,43.996871 C417.992195,42.8934194 418.74,41.9556129 419.679878,41.1936452 C420.619756,40.4265806 421.708171,39.843 422.947683,39.4378065 C424.187195,39.0351613 425.490732,38.8338387 426.855732,38.8338387 C428.650976,38.8338387 430.295122,39.1753226 431.788171,39.8531935 C433.286341,40.5336129 434.502805,41.468871 435.440122,42.6589677 L434.351707,43.6146129 C433.498902,42.5086129 432.420732,41.6701935 431.117195,41.0968065 C429.813659,40.5234194 428.37439,40.238 426.791707,40.238 C425.682805,40.238 424.602073,40.396 423.557195,40.7145484 C422.507195,41.0330968 421.580122,41.5121935 420.770854,42.1492903 C419.956463,42.7863871 419.295732,43.5738387 418.783537,44.5065484 C418.271341,45.4443548 418.015244,46.524871 418.015244,47.7608387 C418.015244,48.9917097 418.248293,50.0314516 418.719512,50.8826129 C419.190732,51.7337742 419.797683,52.4575161 420.545488,53.0512903 C421.293293,53.6450645 422.148659,54.1470968 423.109024,54.5497419 C424.06939,54.9549355 425.04,55.3040645 426.023415,55.6022258 C427.431951,56.071129 428.745732,56.5476774 429.964756,57.0344194 C431.18122,57.5262581 432.236341,58.1200323 433.135244,58.8208387 C434.031585,59.5216452 434.738415,60.3626129 435.25061,61.3386452 C435.760244,62.3172258 436.018902,63.5073226 436.018902,64.9089355 L436.018902,64.9089355 Z" id="Fill-19" fill="#FFFFFF" sketch:type="MSShapeGroup"></path>
                <path d="M436.018902,64.9089355 C436.018902,66.3564194 435.742317,67.6306129 435.186585,68.7340645 C434.630854,69.8400645 433.893293,70.7753226 432.973902,71.5398387 C432.057073,72.3069032 430.976341,72.8777419 429.73939,73.2625484 C428.499878,73.6448065 427.216829,73.8359355 425.895366,73.8359355 C423.844024,73.8359355 421.966829,73.463871 420.258659,72.7197419 C418.547927,71.9781613 417.13939,70.9435161 416.027927,69.6285484 L417.116341,68.6729032 C418.227805,69.9037742 419.541585,70.8390323 421.057683,71.476129 C422.57378,72.1132258 424.166707,72.4317742 425.831341,72.4317742 C426.986341,72.4317742 428.095244,72.2737742 429.163171,71.9552258 C430.228537,71.6366774 431.158171,71.1575806 431.949512,70.5204839 C432.740854,69.8833871 433.381098,69.0959355 433.872805,68.1632258 C434.361951,67.2254194 434.607805,66.1449032 434.607805,64.9089355 C434.607805,63.6347419 434.361951,62.5720645 433.872805,61.7209032 C433.381098,60.8722903 432.720366,60.1485484 431.888049,59.5547742 C431.053171,58.9584516 430.113293,58.4615161 429.065854,58.0563226 C428.020976,57.6536774 426.963293,57.2816129 425.895366,56.940129 C424.571341,56.5145484 423.342073,56.071129 422.210122,55.6022258 C421.078171,55.1333226 420.097317,54.5497419 419.265,53.8463871 C418.432683,53.1455806 417.779634,52.3071613 417.308415,51.3285806 C416.839756,50.3525484 416.606707,49.1624516 416.606707,47.7608387 C416.606707,46.3566774 416.880732,45.102871 417.439024,43.996871 C417.992195,42.8934194 418.74,41.9556129 419.679878,41.1936452 C420.619756,40.4265806 421.708171,39.843 422.947683,39.4378065 C424.187195,39.0351613 425.490732,38.8338387 426.855732,38.8338387 C428.650976,38.8338387 430.295122,39.1753226 431.788171,39.8531935 C433.286341,40.5336129 434.502805,41.468871 435.440122,42.6589677 L434.351707,43.6146129 C433.498902,42.5086129 432.420732,41.6701935 431.117195,41.0968065 C429.813659,40.5234194 428.37439,40.238 426.791707,40.238 C425.682805,40.238 424.602073,40.396 423.557195,40.7145484 C422.507195,41.0330968 421.580122,41.5121935 420.770854,42.1492903 C419.956463,42.7863871 419.295732,43.5738387 418.783537,44.5065484 C418.271341,45.4443548 418.015244,46.524871 418.015244,47.7608387 C418.015244,48.9917097 418.248293,50.0314516 418.719512,50.8826129 C419.190732,51.7337742 419.797683,52.4575161 420.545488,53.0512903 C421.293293,53.6450645 422.148659,54.1470968 423.109024,54.5497419 C424.06939,54.9549355 425.04,55.3040645 426.023415,55.6022258 C427.431951,56.071129 428.745732,56.5476774 429.964756,57.0344194 C431.18122,57.5262581 432.236341,58.1200323 433.135244,58.8208387 C434.031585,59.5216452 434.738415,60.3626129 435.25061,61.3386452 C435.760244,62.3172258 436.018902,63.5073226 436.018902,64.9089355 L436.018902,64.9089355 Z" id="Stroke-20" stroke="#FFFFFF" stroke-width="2" sketch:type="MSShapeGroup"></path>
                <path d="M446.011829,39.7894839 L447.422927,39.7894839 L447.422927,72.944 L446.011829,72.944 L446.011829,39.7894839 Z" id="Fill-21" fill="#FFFFFF" sketch:type="MSShapeGroup"></path>
                <path d="M446.011829,39.7894839 L447.422927,39.7894839 L447.422927,72.944 L446.011829,72.944 L446.011829,39.7894839 Z" id="Stroke-22" stroke="#FFFFFF" stroke-width="2" sketch:type="MSShapeGroup"></path>
                <path d="M482.116463,72.944 C480.088171,73.5377742 477.790976,73.8359355 475.227439,73.8359355 C472.622927,73.8359355 470.254024,73.3874194 468.118171,72.4954839 C465.982317,71.5984516 464.143537,70.3650323 462.609512,68.790129 C461.070366,67.2152258 459.884634,65.3498065 459.052317,63.2015161 C458.22,61.0532258 457.802561,58.7392903 457.802561,56.2724516 C457.802561,53.8005161 458.230244,51.5044194 459.083049,49.3739677 C459.938415,47.2435161 461.124146,45.3908387 462.637683,43.8159355 C464.15378,42.2410323 465.972073,41.0152581 468.084878,40.1411613 C470.200244,39.2721613 472.538415,38.8338387 475.101951,38.8338387 C477.406829,38.8338387 479.522195,39.1931613 481.442927,39.9194516 C483.36622,40.6406452 485.010366,41.6192258 486.377927,42.8500968 L485.353537,43.8694516 C484.114024,42.6385806 482.55439,41.7262581 480.674634,41.1273871 C478.794878,40.5336129 476.917683,40.238 475.037927,40.238 C472.645976,40.238 470.476829,40.6635806 468.533049,41.5121935 C466.589268,42.3633548 464.924634,43.510129 463.536585,44.9525161 C462.148537,46.4 461.08061,48.1023226 460.332805,50.0543871 C459.585,52.0115484 459.211098,54.0935806 459.211098,56.3030323 C459.211098,58.5124839 459.574756,60.5970645 460.299512,62.5516774 C461.026829,64.5062903 462.084512,66.229 463.472561,67.7147097 C464.86061,69.2029677 466.548293,70.382871 468.533049,71.251871 C470.520366,72.1234194 472.771463,72.5591935 475.294024,72.5591935 C477.470854,72.5591935 479.424878,72.3272903 481.156098,71.8583871 C482.887317,71.3920323 484.434146,70.7982581 485.799146,70.0745161 L485.799146,57.7046452 L477.345366,57.7046452 L477.345366,56.4304516 L487.210244,56.4304516 L487.210244,70.9027419 C485.842683,71.6698065 484.144756,72.3476774 482.116463,72.944 L482.116463,72.944 Z" id="Fill-23" fill="#FFFFFF" sketch:type="MSShapeGroup"></path>
                <path d="M482.116463,72.944 C480.088171,73.5377742 477.790976,73.8359355 475.227439,73.8359355 C472.622927,73.8359355 470.254024,73.3874194 468.118171,72.4954839 C465.982317,71.5984516 464.143537,70.3650323 462.609512,68.790129 C461.070366,67.2152258 459.884634,65.3498065 459.052317,63.2015161 C458.22,61.0532258 457.802561,58.7392903 457.802561,56.2724516 C457.802561,53.8005161 458.230244,51.5044194 459.083049,49.3739677 C459.938415,47.2435161 461.124146,45.3908387 462.637683,43.8159355 C464.15378,42.2410323 465.972073,41.0152581 468.084878,40.1411613 C470.200244,39.2721613 472.538415,38.8338387 475.101951,38.8338387 C477.406829,38.8338387 479.522195,39.1931613 481.442927,39.9194516 C483.36622,40.6406452 485.010366,41.6192258 486.377927,42.8500968 L485.353537,43.8694516 C484.114024,42.6385806 482.55439,41.7262581 480.674634,41.1273871 C478.794878,40.5336129 476.917683,40.238 475.037927,40.238 C472.645976,40.238 470.476829,40.6635806 468.533049,41.5121935 C466.589268,42.3633548 464.924634,43.510129 463.536585,44.9525161 C462.148537,46.4 461.08061,48.1023226 460.332805,50.0543871 C459.585,52.0115484 459.211098,54.0935806 459.211098,56.3030323 C459.211098,58.5124839 459.574756,60.5970645 460.299512,62.5516774 C461.026829,64.5062903 462.084512,66.229 463.472561,67.7147097 C464.86061,69.2029677 466.548293,70.382871 468.533049,71.251871 C470.520366,72.1234194 472.771463,72.5591935 475.294024,72.5591935 C477.470854,72.5591935 479.424878,72.3272903 481.156098,71.8583871 C482.887317,71.3920323 484.434146,70.7982581 485.799146,70.0745161 L485.799146,57.7046452 L477.345366,57.7046452 L477.345366,56.4304516 L487.210244,56.4304516 L487.210244,70.9027419 C485.842683,71.6698065 484.144756,72.3476774 482.116463,72.944 L482.116463,72.944 Z" id="Stroke-24" stroke="#FFFFFF" stroke-width="2" sketch:type="MSShapeGroup"></path>
                <path d="M523.732317,72.944 L501.177805,41.7033226 L501.049756,41.7033226 L501.049756,72.944 L499.64122,72.944 L499.64122,39.7894839 L501.564512,39.7894839 L524.113902,71.0301613 L524.244512,71.0301613 L524.244512,39.7894839 L525.653049,39.7894839 L525.653049,72.944 L523.732317,72.944 L523.732317,72.944 Z" id="Fill-25" fill="#FFFFFF" sketch:type="MSShapeGroup"></path>
                <path d="M523.732317,72.944 L501.177805,41.7033226 L501.049756,41.7033226 L501.049756,72.944 L499.64122,72.944 L499.64122,39.7894839 L501.564512,39.7894839 L524.113902,71.0301613 L524.244512,71.0301613 L524.244512,39.7894839 L525.653049,39.7894839 L525.653049,72.944 L523.732317,72.944 L523.732317,72.944 Z" id="Stroke-26" stroke="#FFFFFF" stroke-width="2" sketch:type="MSShapeGroup"></path>
                <path d="M17.3736585,22.8095806 C16.6207317,22.8095806 15.9984146,22.2183548 15.9676829,21.4640323 C15.7090244,14.9350645 17.2328049,13.4468065 20.1753659,11.1761935 C20.8591463,10.6486774 21.632561,10.0498065 22.47,9.27509677 C25.8837805,6.11509677 25.1078049,1.62993548 25.0745122,1.43880645 C24.9362195,0.681935484 25.4381707,-0.0494516129 26.2013415,-0.19216129 C26.9670732,-0.332322581 27.6969512,0.164612903 27.8429268,0.921483871 C27.8915854,1.17122581 28.9620732,7.09367742 24.3881707,11.3265484 C23.4610976,12.1879032 22.6313415,12.8275484 21.9014634,13.3907419 C19.5453659,15.2102903 18.5696341,15.9620645 18.7821951,21.3519032 C18.8129268,22.1266129 18.2085366,22.779 17.43,22.8070323 C17.4120732,22.8095806 17.3915854,22.8095806 17.3736585,22.8095806" id="Fill-28" fill="#FFFFFF" sketch:type="MSShapeGroup"></path>
                <path d="M27.1847561,23.4925484 C26.4292683,23.4925484 25.8043902,22.8962258 25.7787805,22.1393548 C25.6071951,17.1623548 26.7032927,15.9493226 28.6547561,14.2342581 C29.1157317,13.8265161 29.5946341,13.4060323 30.129878,12.8428387 C32.2529268,10.6028065 31.7509756,7.26441935 31.7458537,7.23129032 C31.6229268,6.46932258 32.1453659,5.75067742 32.9085366,5.62580645 C33.6768293,5.50093548 34.3964634,6.01316129 34.5245122,6.77512903 C34.5578049,6.96625806 35.277439,11.4972903 32.1786585,14.766871 C31.5563415,15.4243548 31.0057317,15.9085484 30.5191463,16.334129 C29.0209756,17.6516452 28.460122,18.1460323 28.5932927,22.0425161 C28.6214634,22.8146774 28.0119512,23.4645161 27.2359756,23.49 C27.2180488,23.4925484 27.2026829,23.4925484 27.1847561,23.4925484" id="Fill-29" fill="#FFFFFF" sketch:type="MSShapeGroup"></path>
                <path d="M57.429878,48.8286129 C57.429878,44.9729032 56.3107317,42.3811935 54.1057317,41.1222903 C52.395,40.1462581 50.1797561,40.0647097 47.5240244,40.8801935 C47.0297561,41.0305484 46.5687805,41.1987419 46.1564634,41.3669355 C46.1820732,41.1146452 46.2102439,40.87 46.2358537,40.6151613 C46.8556098,34.0632581 46.8095122,29.4022581 46.8069512,29.2085806 L46.7890244,27.8222581 L0.00512195122,27.8222581 L0.0537804878,29.2722903 C1.50585366,71.5653226 14.7870732,77.5489355 15.3530488,77.7833871 L15.6117073,77.8929677 L31.9353659,77.8929677 L32.3220732,77.5795161 C35.9970732,74.6233871 39.0292683,69.9776774 41.372561,63.7417742 C47.0143902,63.035871 57.429878,59.0578387 57.429878,48.8286129 L57.429878,48.8286129 Z M43.9796341,30.6254839 C43.9591463,32.0704194 43.884878,34.5601935 43.6569512,37.6590323 C37.7026829,41.626871 30.1170732,40.2074194 22.7670732,38.8261935 C21.5454878,38.5942903 20.3879268,38.3776774 19.2329268,38.184 C13.1403659,37.1646452 6.8352439,38.0336452 3.44195122,38.691129 C3.21914634,36.1733226 3.045,33.489871 2.92463415,30.6254839 L43.9796341,30.6254839 L43.9796341,30.6254839 Z M30.9263415,75.0897419 L16.2468293,75.0897419 C14.8254878,74.2258387 6.57146341,68.1071613 3.71597561,41.4994516 C6.82756098,40.8852903 12.9815854,39.9780645 18.7642683,40.949 C19.8936585,41.1375806 21.0358537,41.3516452 22.2446341,41.5784516 C26.0271951,42.2894516 30.0504878,43.0463226 33.9918293,43.0463226 C37.2289024,43.0463226 40.4096341,42.5366452 43.3547561,41.073871 C42.7247561,47.3760323 41.6952439,53.0844194 40.2841463,58.0384839 C38.0228049,65.9869032 34.8753659,71.7207742 30.9263415,75.0897419 L30.9263415,75.0897419 Z M47.9619512,58.7418387 C45.887561,59.8121613 43.787561,60.3982903 42.422561,60.699 C42.6171951,60.0771935 42.8092683,59.4477419 42.9936585,58.8004516 C44.199878,54.5675806 45.1320732,49.8097419 45.7876829,44.628871 C47.0860976,43.9102258 50.6817073,42.4015806 52.704878,43.556 C53.97,44.2771935 54.6128049,46.050871 54.6128049,48.8286129 C54.6128049,53.1302903 52.3745122,56.466129 47.9619512,58.7418387 L47.9619512,58.7418387 Z" id="Fill-30" fill="#FFFFFF" sketch:type="MSShapeGroup"></path>
            </g>
        </g>
    </g>
</svg>