<?xml version="1.0" encoding="UTF-8" standalone="no"?>
<svg width="199px" height="97px" viewBox="0 0 199 97" version="1.1" xmlns="http://www.w3.org/2000/svg" xmlns:xlink="http://www.w3.org/1999/xlink" xmlns:sketch="http://www.bohemiancoding.com/sketch/ns">
    <!-- Generator: Sketch 3.1.1 (8761) - http://www.bohemiancoding.com/sketch -->
    <title>logo-wazoo</title>
    <desc>Created with Sketch.</desc>
    <defs></defs>
    <g id="Page-1" stroke="none" stroke-width="1" fill="none" fill-rule="evenodd" sketch:type="MSPage">
        <g id="Desktop" sketch:type="MSArtboardGroup" transform="translate(-501.000000, -2012.000000)" fill="#FFFFFF">
            <g id="logo-wazoo" sketch:type="MSLayerGroup" transform="translate(501.000000, 2013.000000)">
                <path d="M34.5784242,81.5142128 L34.5784242,81.4228085 C34.5958175,81.4197447 34.6116761,81.4182128 34.6254884,81.4182128 C34.6807378,81.4182128 34.708874,81.4427234 34.708874,81.4902128 L34.5784242,81.5142128 M43.4147404,25.5824681 C43.1487249,25.5824681 42.7865347,25.6228085 42.3276581,25.7029787 C40.5479126,26.0165106 39.6577841,26.6553191 39.6577841,27.6199149 C40.0051388,27.9518298 40.1795835,28.6815319 40.1795835,29.8120851 C40.1795835,30.9426383 39.8859434,33.1588085 39.2986632,36.4570213 C38.714964,39.755234 38.4213239,43.0784681 38.4213239,46.4236596 C38.4213239,49.7708936 38.0719229,55.763234 37.3787481,64.4006809 C36.6840386,73.0411915 35.7504267,78.5938723 34.5784242,81.0612766 C33.3184319,78.9921702 32.5377789,75.5719149 32.2339075,70.8020426 C31.3647532,58.3225532 28.8908098,47.6486809 24.8115656,38.7804255 C25.0269357,38.4413617 25.1353882,38.1196596 25.1353882,37.8188936 C25.1353882,37.517617 24.897509,37.2954894 24.4202159,37.1525106 C24.1388535,37.0697872 23.842144,37.0284255 23.530599,37.0284255 C23.3136941,37.0284255 23.0891157,37.0488511 22.8578869,37.0891915 L20.4473779,38.2365957 C20.4473779,39.0505532 20.1982442,40.6942979 19.6984422,43.1627234 C19.1986401,45.6321702 18.8512853,48.858383 18.6563779,52.8418723 C18.4614704,56.8253617 18.1683419,60.2537872 17.7780154,63.1261277 C17.5166041,65.0119149 17.3002108,66.5724255 17.1267892,67.8076596 C16.9523445,69.0449362 16.6489846,70.7867234 16.2151748,73.0335319 C15.781365,75.2803404 15.4437301,77.1191489 15.2063625,78.5468936 C14.9669486,79.9761702 14.3479512,83.0389787 13.3488586,87.7363404 L13.2194319,87.7593191 C12.9150488,87.3921702 12.6659152,86.6144681 12.4710077,85.427234 C12.2761003,84.2410213 12.0464062,83.4439149 11.7875527,83.0374468 C11.6125964,77.4612766 10.6037841,69.5882553 8.75855784,59.4219574 C6.91282005,49.2561702 5.93674807,43.5109787 5.82829563,42.1889362 C5.71984319,40.8668936 5.62162211,39.6403404 5.5351671,38.5108085 C5.49117224,37.9460426 5.39346272,37.3526809 5.24203856,36.7297021 C5.0906144,36.1082553 4.81897172,35.6440851 4.42762211,35.3346383 C4.16007198,35.124766 3.79481234,35.0190638 3.33337789,35.0190638 C3.12158869,35.0190638 2.88984833,35.0410213 2.63764524,35.0854468 C1.83448329,35.226383 1.23697172,35.573617 0.846645244,36.1240851 C2.27903599,38.5261277 3.16814139,41.7002553 3.51703085,45.6490213 C3.64645758,47.0430638 3.78816195,48.8721702 3.93958612,51.1358298 C4.09152185,53.4005106 4.24294602,55.266383 4.39488175,56.7314043 C4.54732905,58.1969362 5.01387918,60.6919149 5.79555527,64.2173617 C6.57723136,67.7428085 7.05452442,70.0100426 7.22743445,71.0195745 C7.40187918,72.029617 7.70523907,75.0587234 8.14007198,80.1074043 C8.57285861,85.1571064 9.14990746,88.9945532 9.8666144,91.6289362 C10.5224447,94.043234 11.4442905,95.2514043 12.6321517,95.2514043 C12.7390694,95.2514043 12.848545,95.2417021 12.9595553,95.2222979 C14.087563,95.0236596 14.9991774,93.5218723 15.6933753,90.7164255 C16.0407301,89.4188936 16.333347,88.2153191 16.5727609,87.1026383 C16.8111517,85.9899574 17.0183368,84.8231489 17.1912468,83.6022128 C17.3641568,82.3797447 17.5058612,81.4825532 17.6158483,80.904 C17.7227661,80.3285106 18.2338226,77.9024681 19.1449254,73.6258723 C20.057563,69.3502979 20.6965116,65.891234 21.0658638,63.2471489 C21.4341928,60.605617 21.6209152,58.5002553 21.6209152,56.9331064 C21.6209152,55.3664681 22.0767224,51.0194043 22.9878252,43.8954894 C24.506671,44.6828936 26.1349923,52.2347234 27.8707429,66.5499574 C28.5654524,72.2772766 28.9992622,75.5923404 29.1737069,76.4956596 C29.346617,77.4 29.8244216,79.290383 30.6055861,82.1673191 C31.3867506,85.0457872 31.8645553,87.2818723 32.0384884,88.8806809 C32.0384884,91.3782128 32.6697635,92.6292766 33.9318021,92.6292766 C34.0545784,92.6292766 34.1834936,92.6175319 34.318036,92.5935319 C36.706036,92.1737872 37.8990129,88.5870638 37.8990129,81.8338723 C37.8990129,81.1097872 38.1266607,80.0594043 38.5829794,78.683234 C39.0398098,77.3075745 39.3753985,76.0274043 39.5923033,74.843234 C39.8097198,73.6595745 40.2762699,69.258383 40.9924653,61.6401702 C41.7081491,54.0234894 42.0677815,49.098383 42.0677815,46.8668936 C43.1860694,45.504 42.5844653,41.6154894 42.6335758,40.0779574 C42.7266812,37.1683404 43.3241928,34.1989787 43.7416324,31.2505532 C43.8592931,30.4222979 45.0650591,26.0415319 43.7927892,25.6279149 C43.7022416,25.5972766 43.5763959,25.5824681 43.4147404,25.5824681" id="Fill-1" sketch:type="MSShapeGroup"></path>
                <path d="M65.8894627,22.0805106 C65.0443522,22.0805106 63.863653,22.548766 63.05691,22.8168511 C62.0665141,23.1446809 60.6269614,22.9057021 59.9716427,23.6849362 C59.7618997,23.933617 59.7102314,24.9589787 59.6237763,25.2674043 C59.0298458,27.3799149 58.8395424,29.5317447 58.5259512,31.6258723 C58.2236144,33.6388085 57.9514602,35.2391489 57.7130694,36.4253617 C57.4736555,37.613617 56.7784344,40.1627234 55.6279177,44.0747234 C54.477401,47.9826383 53.7729717,50.5215319 53.5130951,51.6806809 C53.2521954,52.8418723 52.7083985,55.2597447 51.8837506,58.9317447 C51.060126,62.6037447 50.4943316,65.0486809 50.1925064,66.2624681 C49.8881234,67.476766 49.12691,70.5411064 47.9119357,75.4575319 C46.6949152,80.3744681 45.5239357,84.0934468 44.3964396,86.6129362 C44.3964396,87.005617 44.6987763,87.3145532 45.3070308,87.539234 C45.728563,87.6949787 46.1398638,87.7725957 46.5409332,87.7725957 C46.7174242,87.7725957 46.8923805,87.7572766 47.0652905,87.7271489 C48.4117378,87.4902128 49.6911697,85.1101277 50.9087018,80.5843404 C51.559928,78.2680851 51.9722519,76.3123404 52.145162,74.7135319 L52.4060617,72.8139574 C52.4480103,72.7465532 52.4920051,72.6331915 52.5354884,72.4748936 C52.5784602,72.3160851 52.6659383,72.1955745 52.7968997,72.1118298 C52.9258149,72.029617 53.7494396,71.8534468 55.2713548,71.5853617 C56.2658432,71.4102128 57.2055938,71.322383 58.089072,71.322383 C58.554599,71.322383 59.0042674,71.3468936 59.4385887,71.3959149 L62.9556195,70.6861277 C65.2377249,70.284766 67.2246555,70.0835745 68.9107841,70.0835745 L68.9471054,70.0835745 C69.0325373,70.4900426 69.2612082,71.4081702 69.6295373,72.8348936 C69.9978663,74.2621277 70.2572314,75.3104681 70.4117249,75.9758298 C70.5631491,76.6422128 70.7140617,77.5424681 70.8670206,78.6755745 C71.0179332,79.8102128 71.0936452,80.7768511 71.0936452,81.576 C71.0936452,82.3751489 71.3003188,82.9184681 71.7141774,83.2085106 C71.9090848,83.3453617 72.2615553,83.4132766 72.7715887,83.4132766 C73.3404524,83.4132766 74.1052468,83.3285106 75.0669949,83.16 C75.7617044,82.7673191 76.1090591,82.019234 76.1090591,80.9193191 C76.1090591,79.8178723 75.7402185,77.9846809 75.0020257,75.4161702 C73.9804242,71.8657021 73.6913882,68.2825532 72.9736581,64.6595745 C71.3468715,56.4490213 69.6551157,48.282383 68.5552442,39.9002553 C67.4707198,31.6187234 66.9274344,26.0006809 66.9274344,23.0471489 C66.9274344,22.3205106 66.4946478,22.0805106 65.8894627,22.0805106" id="Fill-2" sketch:type="MSShapeGroup"></path>
                <path d="M104.355805,15.9906383 C103.907671,15.9906383 103.371548,16.0452766 102.747434,16.1555745 C92.8920746,17.8891915 87.9661851,19.2525957 87.9661851,20.2488511 C87.9661851,20.6093617 88.1493265,20.9172766 88.5191902,21.1685106 C88.7887866,21.3533617 89.0993085,21.444766 89.4517789,21.444766 C89.5801825,21.444766 89.7142134,21.4330213 89.8538715,21.4085106 L102.357108,18.6204255 C102.357108,22.9618723 100.20801,30.1981277 95.9093033,40.3297021 C93.9561362,44.8948085 92.6751697,48.0745532 92.0669152,49.8699574 C91.4586607,51.6658723 90.635036,54.4177021 89.5929717,58.128 C88.5524422,61.8388085 86.7491645,67.146383 84.1887661,74.0486809 C83.1467018,76.8255319 82.6249023,78.7399149 82.6249023,79.794383 C82.6249023,80.5409362 83.0525733,80.9131915 83.9089383,80.9131915 C84.1263548,80.9131915 84.3719075,80.8886809 84.6445733,80.8406809 C84.9463985,80.7875745 85.5674422,80.5138723 86.5005424,80.0170213 C87.4331311,79.5217021 88.3984602,79.1851915 89.3980643,79.0100426 L97.2777481,77.8942979 C99.3183933,77.5348085 100.336925,76.9485957 100.336925,76.1346383 C100.336925,75.6107234 99.8069409,75.348766 98.7464602,75.3492766 C98.1591799,75.3492766 97.4092211,75.4294468 96.4965835,75.5897872 L90.8959357,76.8914043 C89.2021337,77.189617 87.9221902,77.3560851 87.0545707,77.3882553 C87.139491,71.3734468 92.1390463,61.0713191 97.6967224,47.250383 C99.9107892,41.7058723 101.255702,38.0486809 101.734018,36.2747234 C101.734018,35.4005106 102.819054,32.4449362 104.989638,27.4034043 C107.160221,22.3654468 106.068535,19.1724255 106.068535,17.0624681 C106.068535,16.3475745 105.498136,15.9906383 104.355805,15.9906383" id="Fill-3" sketch:type="MSShapeGroup"></path>
                <path d="M127.020319,72.2088511 C125.675918,72.2088511 124.456339,71.7145532 123.363118,70.7254468 C121.996208,69.4891915 120.964375,67.9373617 120.270177,66.0689362 C118.358447,61.1009362 117.404884,55.6759149 117.404884,49.7964255 L117.143473,42.5177872 L117.795211,33.7194894 C117.969144,33.0862979 118.337473,29.9693617 118.902756,24.3676596 C119.464969,18.7664681 120.116195,15.8997447 120.856434,15.7705532 L126.457082,14.784 C127.253594,14.6440851 128.018388,14.5741277 128.753,14.5741277 C130.900051,14.5741277 132.783134,15.1731064 134.401224,16.3705532 C137.351437,18.5565957 137.474213,21.5325957 137.958668,24.6893617 C139.444774,34.3618723 139.937414,44.364766 138.893815,54.5147234 C138.676398,56.6338723 138.308581,58.5768511 137.785247,60.3400851 C137.266005,62.1053617 136.614267,63.8634894 135.833103,65.6134468 C135.051938,67.3644255 133.999131,68.808 132.674681,69.9457021 C131.350231,71.0828936 129.808877,71.8069787 128.052663,72.1164255 C127.700704,72.1782128 127.356419,72.2088511 127.020319,72.2088511 M123.329355,12.437617 C117.811069,12.4381277 116.618093,16.1157447 115.580632,20.0451064 C113.84437,26.802383 112.976751,34.5681702 112.976751,43.3399149 C112.976751,64.3761702 117.437113,74.892766 126.359373,74.892766 C127.078638,74.892766 127.828085,74.8243404 128.604645,74.6874894 C130.559859,74.3428085 132.316584,73.656 133.879424,72.6291064 C140.305231,68.4827234 143.517879,59.4617872 143.517879,45.5617021 L143.256979,34.5737872 L143.517879,34.0769362 C143.517879,25.1535319 141.650656,18.8195745 137.917743,15.0745532 C134.857031,12.0045957 129.941884,13.0565106 124.869686,12.5234043 C124.321285,12.4651915 123.809717,12.437617 123.329355,12.437617" id="Fill-4" sketch:type="MSShapeGroup"></path>
                <path d="M165.511728,65.435234 C164.167326,65.435234 162.947748,64.9404255 161.854015,63.9508085 C160.486082,62.7150638 159.453226,61.1627234 158.760563,59.2953191 C156.849344,54.3262979 155.894758,48.9022979 155.894758,43.0212766 L155.634882,35.7426383 L156.286108,26.9458723 C156.45953,26.3121702 156.82837,23.1942128 157.39263,17.5925106 C157.955866,11.9918298 158.606069,9.12612766 159.346308,8.99591489 L164.945933,8.01038298 C165.742445,7.86995745 166.507751,7.8 167.242362,7.8 C169.390437,7.8 171.274542,8.39897872 172.892121,9.59591489 C178.632938,13.8454468 176.668005,21.8354043 177.133021,27.9033191 C177.409779,31.5268085 177.655332,35.1594894 177.906512,38.7860426 C177.906512,41.3785532 177.732067,44.364766 177.384712,47.741617 C177.167807,49.8602553 176.799478,51.8017021 176.27819,53.5654468 C175.757414,55.3307234 175.105165,57.0893617 174.324512,58.8388085 C173.542835,60.5892766 172.490028,62.034383 171.166602,63.1705532 C169.841129,64.3082553 168.299774,65.0323404 166.543049,65.3422979 C166.19109,65.4040851 165.847316,65.435234 165.511728,65.435234 M165.666733,4.6667234 C164.084452,4.6667234 162.4459,4.83880851 160.811951,5.20238298 C155.713663,6.33497872 154.858321,10.2919149 154.07153,13.2714894 C152.334244,20.028766 151.466113,27.7930213 151.466113,36.5652766 C151.466113,57.6005106 155.928522,68.117617 164.849758,68.117617 C165.569023,68.117617 166.31847,68.0491915 167.096054,67.9123404 C169.049733,67.5681702 170.807992,66.8813617 172.370321,65.8534468 C178.794594,61.7085957 182.008776,52.6866383 182.008776,38.7865532 L181.748388,27.7986383 L182.008776,27.3017872 C182.008776,18.378383 180.141553,12.0444255 176.40864,8.30042553 C174.145974,6.03012766 170.127095,4.6667234 165.666733,4.6667234" id="Fill-5" sketch:type="MSShapeGroup"></path>
                <path d="M194.85374,57.5208511 C194.564193,57.5208511 194.256229,57.5494468 193.929848,57.6066383 C192.845324,57.7986383 191.847254,58.2551489 190.93564,58.973617 C190.024026,59.6966809 189.566684,60.3150638 189.566684,60.8359149 C189.566684,61.9036596 192.272368,62.3892766 193.757961,62.3892766 C193.903758,62.3892766 194.037789,62.3846809 194.156473,62.3749787 C196.070761,62.2248511 197.576817,61.3884255 197.576817,59.8948085 C197.576817,59.064 197.240717,58.4262128 196.569028,57.9829787 C196.096851,57.6750638 195.524918,57.5208511 194.85374,57.5208511 M197.533334,0.542297872 C197.364517,0.542297872 197.17319,0.561191489 196.959355,0.598468085 C195.939288,0.778723404 194.960658,1.17089362 194.027558,1.77855319 C193.093946,2.38570213 192.628419,2.96170213 192.628419,3.50757447 L193.604491,15.9135319 L193.279645,29.6410213 L193.279645,48.8175319 L193.409584,49.1075745 C193.41828,49.1264681 193.449486,49.1346383 193.498085,49.1346383 C193.800422,49.1346383 194.764216,48.8175319 194.898247,48.7664681 C195.069622,46.704 195.814465,44.5102979 195.806792,42.4677447 C195.795537,40.0483404 195.843113,37.619234 195.950031,35.1804255 C196.155681,30.3814468 196.565959,25.5523404 197.08827,20.7094468 C198.019835,12.0689362 198.488432,5.61651064 198.488432,1.34553191 C198.488432,0.80987234 198.170748,0.542297872 197.533334,0.542297872" id="Fill-6" sketch:type="MSShapeGroup"></path>
                <path d="M33.5685887,91.8444255 C32.0476967,92.112 31.288018,90.8731915 31.288018,88.1310638 C31.1130617,86.5322553 30.6373033,84.2956596 29.8556272,81.4187234 C29.0739512,78.540766 28.5966581,76.6514043 28.4242596,75.7460426 C28.2487918,74.8427234 27.814982,71.5271489 27.1207841,65.8003404 C25.3845219,51.4861277 23.7562005,43.932766 22.2368432,43.1453617 C21.3252288,50.2702979 20.8704447,54.6163404 20.8704447,56.184 C20.8704447,57.7516596 20.6842339,59.8570213 20.3153933,62.4995745 C19.9460411,65.1421277 19.3070925,68.6011915 18.3939434,72.876766 C17.4828406,77.1523404 16.9728072,79.5794043 16.8653779,80.1554043 C16.7543676,80.7329362 16.6147095,81.6311489 16.4407763,82.8520851 C16.2688895,84.0740426 16.0606812,85.2403404 15.8222905,86.3540426 C15.5833882,87.4657021 15.2912828,88.6702979 14.9434165,89.9678298 C14.2487069,92.7722553 13.3370925,94.2745532 12.2090848,94.4742128 C10.8611028,94.7111489 9.83182776,93.5106383 9.11512082,90.8793191 C8.39892545,88.2469787 7.82341131,84.4069787 7.38908997,79.3577872 C6.95476864,74.3101277 6.6503856,71.28 6.47747558,70.2704681 C6.30405398,69.2614468 5.82676093,66.9931915 5.04457326,63.4677447 C4.26443188,59.9433191 3.79685861,57.4478298 3.64492288,55.9833191 C3.49247558,54.5177872 3.34105141,52.6519149 3.18911568,50.3862128 C3.03769152,48.1230638 2.89701028,46.2944681 2.76656041,44.8999149 C2.41767095,40.9501277 1.52907712,37.7765106 0.0961748072,35.3749787 C0.487012853,34.8250213 1.08401285,34.4777872 1.88717481,34.3363404 C2.69033676,34.1948936 3.28682519,34.2791489 3.67715167,34.5865532 C4.06850129,34.8954894 4.33963239,35.3601702 4.49156812,35.9805957 C4.64299229,36.6030638 4.7407018,37.1964255 4.78469666,37.7611915 C4.87115167,38.8917447 4.96834961,40.1182979 5.07833676,41.4398298 C5.1852545,42.762383 6.16234961,48.5065532 8.00859897,58.6738723 C9.85229049,68.8396596 10.8611028,76.7131915 11.0365707,82.2893617 C11.2959357,82.6942979 11.5246067,83.4908936 11.7195141,84.6786383 C11.9159563,85.8648511 12.1645784,86.6430638 12.4689614,87.0102128 L12.5983882,86.9882553 C13.5974807,82.2893617 14.2175013,79.2270638 14.4553805,77.7972766 C14.6937712,76.3710638 15.0298715,74.5317447 15.4647044,72.2844255 C15.897491,70.0381277 16.2023856,68.2963404 16.3758072,67.0585532 C16.5502519,65.8238298 16.7666452,64.2628085 17.0280566,62.3765106 C17.4178715,59.5051915 17.7115116,56.076766 17.906419,52.0937872 C18.1013265,48.1097872 18.4491928,44.8825532 18.9479717,42.4131064 C19.4472622,39.9446809 19.6969075,38.3019574 19.6969075,37.4874894 L22.1074165,36.3395745 C22.6701414,36.2410213 23.1914293,36.264 23.6697455,36.4034043 C24.1470386,36.5458723 24.3854293,36.7690213 24.3854293,37.0697872 C24.3854293,37.3710638 24.2774884,37.692766 24.0605835,38.0313191 C28.1408509,46.8995745 30.6153059,57.5729362 31.483437,70.0534468 C31.7862853,74.8233191 32.5689846,78.2435745 33.8279537,80.3121702 C34.9989332,77.8452766 35.9340797,72.2920851 36.6282776,63.6525957 C37.3224756,55.0141277 37.6703419,49.0212766 37.6703419,45.6745532 C37.6703419,42.3288511 37.9634704,39.005617 38.5481928,35.7068936 C39.135473,32.4086809 39.4286015,30.1935319 39.4286015,29.0629787 C39.4286015,27.9324255 39.2536452,27.203234 38.9068021,26.8708085 C38.9068021,25.9067234 39.7979537,25.2684255 41.5771877,24.954383 C42.3153805,24.8241702 42.8034165,24.7991489 43.0433419,24.8777872 C44.3156118,25.2929362 43.1093342,29.6737021 42.9916735,30.5009362 C42.5737224,33.450383 41.9767224,36.4197447 41.883617,39.3283404 C41.8329717,40.8653617 42.435599,44.7554043 41.3178226,46.1172766 C41.3178226,48.3482553 40.9581902,53.2733617 40.2425064,60.8910638 C39.5263111,68.5092766 39.0592494,72.9099574 38.8423445,74.0941277 C38.6244165,75.2788085 38.2888278,76.5574468 37.8330206,77.9331064 C37.3772134,79.3108085 37.1495656,80.3606809 37.1495656,81.084766 C37.1495656,87.8389787 35.9545424,91.4246809 33.5685887,91.8444255 L33.5685887,91.8444255 Z M33.8279537,80.6737021 L33.8279537,80.7645957 L33.9584036,80.741617 C33.9584036,80.6813617 33.9144087,80.6578723 33.8279537,80.6737021 L33.8279537,80.6737021 Z" id="Fill-7" sketch:type="MSShapeGroup"></path>
                <path d="M62.2051491,69.936 L58.6881183,70.6462979 C57.4286375,70.5058723 56.0392185,70.5702128 54.5203728,70.836766 C52.9999923,71.1048511 52.1753445,71.28 52.0454062,71.3622128 C51.9149563,71.4454468 51.8274781,71.568 51.785018,71.7257872 C51.7410231,71.8830638 51.6970283,71.9964255 51.6545681,72.0653617 L51.3952031,73.9639149 C51.2207584,75.5642553 50.8084344,77.5194894 50.1582314,79.835234 C48.9412108,84.3610213 47.6602442,86.7411064 46.3148201,86.9785532 C45.7505604,87.0765957 45.1643033,87.0148085 44.5575835,86.789617 C43.9483059,86.5654468 43.6454576,86.2570213 43.6454576,85.8648511 C44.7739769,83.3448511 45.9454679,79.626383 47.1619769,74.7094468 C48.3769512,69.792 49.1366298,66.7276596 49.4415244,65.5133617 C49.7438612,64.2985532 50.309144,61.8551489 51.1332802,58.1831489 C51.9574165,54.5106383 52.5017249,52.0937872 52.7626247,50.9320851 C53.0225013,49.7714043 53.7274422,47.2340426 54.8779589,43.3251064 C56.0284756,39.413617 56.7236967,36.8645106 56.962599,35.676766 C57.2015013,34.4890213 57.4726324,32.8897021 57.7754807,30.8772766 C58.0880488,28.7826383 58.2793753,26.6313191 58.8722828,24.5182979 C58.9587378,24.210383 59.0109177,23.1845106 59.2216838,22.9358298 C59.8770026,22.1571064 61.3150206,22.3950638 62.3054165,22.0677447 C63.6917661,21.6081702 66.1764524,20.556766 66.1764524,22.2980426 C66.1764524,25.2525957 66.7192262,30.869617 67.8052853,39.1506383 C68.9036221,47.5337872 70.5958895,55.6999149 72.2231877,63.9094468 C72.9404062,67.5339574 73.2294422,71.1171064 74.2515553,74.6670638 C74.9887249,77.2350638 75.3601234,79.0692766 75.3601234,80.1691915 C75.3601234,81.2706383 75.0107224,82.0182128 74.3175476,82.4114043 C72.4927841,82.7315745 71.3755193,82.7479149 70.9631954,82.4599149 C70.5498483,82.1698723 70.3441979,81.6255319 70.3441979,80.826383 C70.3441979,80.0282553 70.2679743,79.061617 70.1170617,77.9269787 C69.9635913,76.7938723 69.8126787,75.893617 69.6607429,75.2267234 C69.5077841,74.5603404 69.2473959,73.5135319 68.8790668,72.0857872 C68.5102262,70.6585532 68.2825784,69.7414468 68.1961234,69.3344681 C66.5023213,69.3324255 64.5036247,69.5315745 62.2051491,69.936" id="Fill-8" sketch:type="MSShapeGroup"></path>
                <path d="M96.5272776,77.1446809 L88.6481054,78.2614468 C87.6485013,78.4371064 86.6826607,78.7731064 85.7495604,79.2689362 C84.8169717,79.7642553 84.1969512,80.0389787 83.8946144,80.0925957 C82.5466324,80.3295319 81.8749434,79.980766 81.8749434,79.0457872 C81.8749434,77.9908085 82.3957198,76.0759149 83.4388072,73.3000851 C85.997671,66.3972766 87.8019717,61.0902128 88.8430129,57.3794043 C89.8845656,53.6691064 90.7087018,50.916766 91.3174679,49.1198298 C91.9246992,47.3254468 93.2066889,44.1446809 95.159856,39.5805957 C99.4580514,29.4490213 101.605614,22.2117447 101.605614,17.8702979 L89.1023779,20.658383 C88.5821131,20.7513191 88.1375604,20.6716596 87.7676967,20.4188936 C87.398856,20.1681702 87.2152031,19.8617872 87.2152031,19.4997447 C87.2152031,18.504 92.1426272,17.1411064 101.997476,15.4054468 C104.210519,15.0163404 105.318576,15.317617 105.318576,16.3138723 C105.318576,18.4233191 106.409751,21.6163404 104.240702,26.6553191 C102.068072,31.6953191 100.983036,34.6529362 100.983036,35.5261277 C100.50472,37.2995745 99.1608303,40.956766 96.9462519,46.5022979 C91.389599,60.3227234 86.3895321,70.6243404 86.3030771,76.6391489 C87.1706967,76.6064681 88.4521748,76.4410213 90.1464884,76.1428085 L95.7466247,74.8406809 C98.3075347,74.3897872 99.5869666,74.5725957 99.5869666,75.3855319 C99.5869666,76.2 98.5684344,76.7857021 96.5272776,77.1446809" id="Fill-9" sketch:type="MSShapeGroup"></path>
                <path d="M142.505486,33.8246809 L142.766386,44.813617 C142.766386,58.7116596 139.553738,67.733617 133.128442,71.8789787 C131.567136,72.9068936 129.808365,73.5937021 127.854686,73.9373617 C117.43609,75.7715745 112.22628,65.322383 112.22628,42.5913191 C112.22628,33.8185532 113.092877,26.0542979 114.830162,19.2949787 C115.958681,15.0250213 117.267784,11.0507234 124.119728,11.7732766 C129.191925,12.3074043 134.106049,11.2554894 137.167784,14.3259574 C140.900185,18.0704681 142.766386,24.4044255 142.766386,33.3278298 L142.505486,33.8246809 L142.505486,33.8246809 Z M116.393003,41.7676596 L116.653902,49.0483404 C116.653902,54.9273191 117.607465,60.3513191 119.518684,65.3203404 C120.213393,67.187234 121.245738,68.7395745 122.612136,69.9763404 C123.980069,71.213617 125.543422,71.676766 127.302193,71.3673191 C129.058406,71.0578723 130.600272,70.3348085 131.924211,69.1955745 C133.248149,68.0588936 134.301979,66.6153191 135.082121,64.8653617 C135.86482,63.114383 136.515023,61.3557447 137.035799,59.5914894 C137.557087,57.827234 137.926951,55.8852766 138.142833,53.7661277 C139.187455,43.6151489 138.693792,33.612766 137.20871,23.939234 C136.723231,20.784 136.600967,17.8074894 133.651776,15.6219574 C131.479147,14.0149787 128.832293,13.4849362 125.7061,14.0354043 L120.105964,15.0209362 C119.366237,15.1511489 118.714499,18.0178723 118.152797,23.6190638 C117.587003,29.220766 117.218674,32.3382128 117.04474,32.970383 L116.393003,41.7676596 L116.393003,41.7676596 Z" id="Fill-10" sketch:type="MSShapeGroup"></path>
                <path d="M180.998429,27.0500426 L181.257283,38.0379574 C181.257283,51.9375319 178.044635,60.9589787 171.620874,65.1043404 C170.058033,66.1332766 168.298239,66.8195745 166.345584,67.1637447 C155.926476,68.9964255 150.715643,58.5482553 150.715643,35.8166809 C150.715643,27.0444255 151.583774,19.2791489 153.321059,12.5234043 C154.107339,9.54229787 154.962681,5.58689362 160.060458,4.45225532 C166.303123,3.0653617 172.59183,4.47574468 175.657147,7.55080851 C179.390059,11.2953191 181.257283,17.6297872 181.257283,26.5531915 L180.998429,27.0500426 L180.998429,27.0500426 Z M154.884411,34.9935319 L155.144799,42.2731915 C155.144799,48.1521702 156.099386,53.5761702 158.009581,58.5451915 C158.703267,60.4141277 159.736635,61.9659574 161.104057,63.2022128 C162.469943,64.4384681 164.033807,64.9021277 165.792067,64.5926809 C167.549815,64.283234 169.090658,63.5596596 170.415108,62.4219574 C171.738535,61.284766 172.793388,59.8417021 173.573018,58.0902128 C174.355717,56.339234 175.006432,54.5821277 175.528231,52.8168511 C176.048496,51.053617 176.416825,49.1106383 176.634753,46.9925106 C176.982108,43.6161702 177.155018,40.6299574 177.155018,38.0364255 C176.903838,34.4093617 176.65982,30.7766809 176.381527,27.1542128 C175.918046,21.0868085 177.881445,13.0958298 172.140627,8.84680851 C169.970044,7.24034043 167.320632,6.71080851 164.195974,7.26076596 L158.595326,8.24629787 C157.856622,8.37651064 157.205907,11.243234 156.641136,16.8439149 C156.077388,22.445617 155.708548,25.5635745 155.535638,26.1962553 L154.884411,34.9935319 L154.884411,34.9935319 Z" id="Fill-11" sketch:type="MSShapeGroup"></path>
                <path d="M188.816725,60.0878298 C188.816725,59.5664681 189.272532,58.9470638 190.184658,58.2255319 C191.096272,57.5055319 192.094342,57.0495319 193.180401,56.8585532 C194.264925,56.6670638 195.143288,56.7937021 195.817535,57.2333617 C196.490758,57.6765957 196.826859,58.314383 196.826859,59.1446809 C196.826859,60.6382979 195.321314,61.4747234 193.406514,61.6268936 C192.080018,61.7305532 188.816725,61.2597447 188.816725,60.0878298 L188.816725,60.0878298 Z M192.658602,48.3584681 L192.529686,48.0684255 L192.529686,28.8924255 L192.854532,15.1654468 L191.876925,2.75897872 C191.876925,2.21310638 192.342452,1.63761702 193.277599,1.02842553 C194.210188,0.421276596 195.187794,0.029106383 196.207861,-0.150638298 C197.227928,-0.32987234 197.738473,-0.082212766 197.738473,0.596425532 C197.738473,4.86740426 197.270388,11.3198298 196.338311,19.9603404 C195.816,24.8022128 195.406234,29.6328511 195.200072,34.4313191 C195.093154,36.8701277 195.04609,39.2982128 195.055298,41.717617 C195.065018,43.7611915 194.320175,45.9538723 194.148799,48.0168511 C193.992771,48.0755745 192.718455,48.4942979 192.658602,48.3584681 L192.658602,48.3584681 Z" id="Fill-12" sketch:type="MSShapeGroup"></path>
            </g>
        </g>
    </g>
</svg>