<svg xmlns="http://www.w3.org/2000/svg" viewBox="70 -18 199 97" enable-background="new 70 -18 199 97"><title>logo-wazoo</title><desc>Created with Sketch.</desc><path d="M112.6 23.1c.1-2.9.7-5.9 1.1-8.8.1-.8 1.3-5.2.1-5.6h-.2c-.1-.4-.2-.6-.5-.7-.2-.1-.7-.1-1.5.1-1.8.3-2.7 1-2.7 1.9.3.3.5 1.1.5 2.2s-.3 3.3-.9 6.6c-.6 3.3-.9 6.6-.9 10 0 3.3-.3 9.3-1 18-.7 8.2-1.5 13.6-2.6 16.3-.9-2.1-1.5-5.1-1.8-9.1-.9-12.5-3.3-23.2-7.4-32 .2-.3.3-.7.3-1 0-.3-.2-.5-.7-.7v-.1c0-.3-.2-.5-.7-.7-.5-.1-1-.2-1.6-.1l-2.4 1.1c0 .8-.2 2.5-.7 4.9-.5 2.5-.8 5.7-1 9.7-.2 4-.5 7.4-.9 10.3-.3 1.9-.5 3.4-.7 4.7-.2 1.2-.5 3-.9 5.2s-.8 4.1-1 5.5c-.2 1.4-.8 4.3-1.8 8.7-.1-.3-.2-.7-.2-1.1-.2-1.2-.4-2-.7-2.4-.2-5.6-1.2-13.4-3-23.6-1.8-10.2-2.8-15.9-2.9-17.2-.1-1.3-.2-2.5-.3-3.7 0-.6-.1-1.2-.3-1.8-.2-.6-.4-1.1-.8-1.4l-.2-.1c-.1-.2-.3-.4-.5-.6-.4-.3-1-.4-1.8-.3-.8.1-1.4.5-1.8 1 1.4 2.4 2.3 5.6 2.7 9.5.1 1.4.3 3.2.4 5.5.2 2.3.3 4.1.5 5.6s.6 4 1.4 7.5c.8 3.5 1.3 5.8 1.4 6.8.2 1 .5 4 .9 9.1.4 5 1 8.9 1.7 11.5.5 1.8 1.1 2.9 1.9 3.4.5.7 1 1 1.7 1h.3c1.1-.2 2-1.7 2.7-4.5.3-1.3.6-2.5.9-3.6.2-1.1.4-2.3.6-3.5.2-1.2.3-2.1.4-2.7.1-.6.6-3 1.5-7.3s1.6-7.7 1.9-10.4c.4-2.6.6-4.7.6-6.3 0-1.6.4-5.9 1.3-12.9 1.3 2.5 2.7 9.7 4.2 21.8.7 5.7 1.1 9 1.3 9.9.2.9.6 2.8 1.4 5.7.8 2.9 1.3 5.1 1.4 6.7 0 2 .4 3.2 1.3 3.6.3.6.8.9 1.4.9h.4c2.4-.4 3.6-4 3.6-10.8 0-.7.2-1.8.7-3.2.5-1.4.8-2.7 1-3.8.2-1.2.7-5.6 1.4-13.2s1.1-12.5 1.1-14.8c1-1.3.4-5.2.4-6.7zm-8 41.4h.1-.1zm38.4-16.8c-1.6-8.2-3.3-16.4-4.4-24.8-1.1-8.3-1.6-13.9-1.6-16.9 0-.6-.3-.9-.8-.9-.2-1.5-2.5-.5-3.9 0-1 .3-2.4.1-3.1.9-.2.2-.3 1.3-.3 1.6-.6 2.1-.8 4.3-1.1 6.4-.3 2-.6 3.6-.8 4.8s-.9 3.7-2.1 7.6c-1.2 3.9-1.9 6.4-2.1 7.6-.3 1.2-.8 3.6-1.6 7.3-.8 3.7-1.4 6.1-1.7 7.3-.3 1.2-1.1 4.3-2.3 9.2-1.2 4.9-2.4 8.6-3.5 11.2 0 .4.3.6.8.9.1.3.4.6.9.8.4.2.8.2 1.2.2h.5c1.3-.2 2.6-2.6 3.8-7.1.7-2.3 1.1-4.3 1.2-5.9l.3-1.9.1-.3c0-.2.1-.3.3-.4.1-.1 1-.3 2.5-.5 1-.2 1.9-.3 2.8-.3.5 0 .9 0 1.3.1l3.5-.7c2-.4 3.9-.6 5.4-.6.1.5.3 1.2.5 2 .4 1.4.6 2.5.8 3.1.2.7.3 1.6.5 2.7s.2 2.1.2 2.9c0 .8.2 1.3.6 1.6.1.1.2.1.3.1.1.3.3.5.5.6.2.1.5.2 1.1.2.6 0 1.3-.1 2.3-.3.7-.4 1-1.1 1-2.2s-.4-2.9-1.1-5.5c-1-3.6-1.3-7.2-2-10.8zm32.3-48.6c-.1-.8-1.3-1.1-3.3-.7-9.9 1.7-14.8 3.1-14.8 4.1 0 .4.2.7.6.9l.2.1c.1.2.2.4.5.6.3.2.6.3.9.3h.4l11.7-2.6c-.3 4.4-2.4 11.3-6.4 20.8-2 4.6-3.2 7.7-3.8 9.5-.6 1.8-1.4 4.5-2.5 8.3-1 3.7-2.8 9-5.4 15.9-1 2.8-1.6 4.7-1.6 5.7 0 .6.3.9.8 1.1.1.5.5.8 1.3.8.2 0 .5 0 .7-.1.3-.1.9-.3 1.9-.8.9-.5 1.9-.8 2.9-1l7.9-1.1c2-.4 3.1-.9 3.1-1.8 0-.4-.3-.6-.8-.7 0-.8-1.3-1-3.8-.5l-5.6 1.3c-1.2.2-2.3.4-3.1.4.5-6.1 5.3-16.1 10.6-29.3 2.2-5.5 3.6-9.2 4-11 0-.9 1.1-3.8 3.3-8.9 2.2-5 1.1-8.2 1.1-10.3 0-.5-.3-.8-.8-1zm32.6-1l-.3-.3-.4-.4c-3.1-3.1-8-2-13-2.6-6.9-.7-8.2 3.3-9.3 7.5-1.7 6.8-2.6 14.5-2.6 23.3 0 15.2 2.3 24.9 7 29.1 1.9 2.1 4.3 3.2 7.2 3.2.7 0 1.5-.1 2.2-.2 2-.3 3.7-1 5.3-2.1 6.4-4.1 9.6-13.2 9.6-27.1l-.3-11 .3-.5c-.1-8.8-1.9-15.2-5.7-18.9zm1 39.4c-.2 2.1-.6 4.1-1.1 5.8-.5 1.8-1.2 3.5-2 5.3-.8 1.8-1.8 3.2-3.2 4.3-1.3 1.1-2.9 1.9-4.6 2.2-.4.1-.7.1-1 .1-1.3 0-2.6-.5-3.7-1.5-1.4-1.2-2.4-2.8-3.1-4.7-1.9-5-2.9-10.4-2.9-16.3l-.3-7.3.7-8.8c.2-.6.5-3.8 1.1-9.4.6-5.6 1.2-8.5 2-8.6l5.6-1c.8-.1 1.6-.2 2.3-.2 2.1 0 4 .6 5.6 1.8 3 2.2 3.1 5.2 3.6 8.3 1.5 9.9 2 19.9 1 30zm37.5-46.2c-.1-.1-.2-.2-.4-.3l-.4-.4c-3.1-3.1-9.4-4.5-15.6-3.1-5.1 1.1-6 5.1-6.7 8.1-1.7 6.8-2.6 14.5-2.6 23.3 0 15.2 2.3 24.9 7 29.1 1.9 2.1 4.3 3.2 7.1 3.2.7 0 1.5-.1 2.2-.2 2-.3 3.7-1 5.3-2.1 6.4-4.1 9.6-13.2 9.6-27.1l-.3-11 .3-.5c.1-8.9-1.8-15.3-5.5-19zm.2 38.7c-.2 2.1-.6 4.1-1.1 5.8-.5 1.8-1.2 3.5-2 5.3-.8 1.8-1.8 3.2-3.2 4.3-1.3 1.1-2.9 1.9-4.6 2.2-1.8.3-3.3-.2-4.7-1.4-1.4-1.2-2.4-2.8-3.1-4.7-1.9-5-2.9-10.4-2.9-16.3l-.3-7.3.7-8.8c.2-.6.5-3.8 1.1-9.4.6-5.6 1.2-8.5 2-8.6l5.6-1c3.1-.5 5.8 0 7.9 1.6 5.7 4.2 3.8 12.2 4.2 18.3l.8 10.9c.2 2.7 0 5.7-.4 9.1zm20 11c-.2-.3-.4-.5-.8-.7-.7-.4-1.6-.6-2.6-.4-1.1.2-2.1.6-3 1.4-.9.7-1.4 1.3-1.4 1.9 0 .4.3.7.8.9.2 1 2.8 1.4 4.2 1.4h.4c1.9-.2 3.4-1 3.4-2.5 0-.9-.4-1.6-1-2zm-4.1-29.1v19.2l.1.3c0 .1.3 0 .6-.1v.5l.1.3h.1c.3 0 1.3-.3 1.4-.4.2-2.1.9-4.3.9-6.3 0-2.4 0-4.8.1-7.3.2-4.8.6-9.6 1.1-14.5.9-8.6 1.4-15.1 1.4-19.4 0-.5-.2-.7-.8-.8 0-.6-.5-.9-1.5-.7-1 .2-2 .6-2.9 1.2-.9.6-1.4 1.2-1.4 1.7l1 12.4-.2 13.9z" fill="#fff"/></svg>