<svg width="232" height="43" viewBox="0 0 232 43" xmlns="http://www.w3.org/2000/svg" xmlns:sketch="http://www.bohemiancoding.com/sketch/ns"><title>logo-liveblue</title><desc>Created with Sketch.</desc><g sketch:type="MSLayerGroup" fill="none"><path d="M194.943 23.851c0 .454-.163.843-.487 1.165-.321.321-.714.483-1.171.483-.459 0-.848-.162-1.17-.483-.321-.321-.48-.71-.48-1.165 0-.453.161-.837.485-1.159.321-.32.71-.479 1.165-.479.457 0 .849.159 1.171.479.324.32.487.706.487 1.159zm-1.657-1.414c-.392 0-.727.138-1.007.416-.276.276-.415.609-.415.999 0 .395.138.73.414 1.007.276.278.611.417 1.007.417.395 0 .732-.139 1.007-.417.276-.277.415-.612.415-1.007 0-.389-.139-.722-.415-.999-.278-.278-.613-.416-1.007-.416zm-.031.507c.224 0 .391.022.495.066.189.077.284.23.284.457 0 .16-.061.28-.179.355-.063.041-.15.069-.262.089.142.021.246.081.312.175.066.096.098.189.098.281v.132l.005.134.016.094.012.021h-.301l-.004-.019-.004-.019-.007-.058v-.143c0-.208-.057-.347-.171-.413-.068-.038-.186-.058-.356-.058h-.252v.709h-.321v-1.803h.637zm.466.548c0-.13-.04-.218-.121-.263-.08-.046-.208-.069-.389-.069h-.272v.655h.289c.136 0 .238-.014.305-.041.126-.049.188-.143.188-.282zm28.822.359c0 .454-.162.843-.487 1.165-.321.321-.712.483-1.169.483-.46 0-.85-.162-1.171-.483-.32-.321-.48-.71-.48-1.165 0-.453.162-.837.484-1.159.322-.32.71-.479 1.167-.479.457 0 .848.159 1.169.479.325.32.487.706.487 1.159zm-1.656-1.414c-.393 0-.728.138-1.007.416-.277.276-.416.609-.416.999 0 .395.138.73.414 1.007.275.278.611.417 1.008.417.394 0 .729-.139 1.006-.417.278-.277.417-.612.417-1.007 0-.389-.138-.722-.417-.999-.278-.278-.613-.416-1.006-.416zm-.032.507c.225 0 .391.022.495.066.189.077.284.23.284.457 0 .16-.06.28-.178.355-.064.041-.151.069-.262.089.14.021.245.081.311.175.066.096.099.189.099.281v.132l.004.134.016.094.012.021h-.301l-.003-.019-.005-.019-.006-.058v-.143c0-.208-.057-.347-.171-.413-.067-.038-.187-.058-.356-.058h-.252v.709h-.32v-1.803h.636zm.465.548c0-.13-.04-.218-.12-.263-.08-.046-.209-.069-.388-.069h-.273v.655h.288c.136 0 .24-.014.306-.041.126-.049.187-.143.187-.282zm-51.419 16.514h1.255l-.002.251h-4.063v-.251h1.089l-2.327-4.236h-.936v4.236h1.226v.251h-3.829v-.251h1.184v-7.97h-1.184v-.251h3.829v.251h-1.226v3.424h.882l2.233-3.424h-1.186v-.251h2.767v.251h-1.129l-1.681 2.519 3.098 5.451m5.424-2.448c0 .725-.073 1.196-.233 1.522-.279.533-.8.886-1.323.886-.617 0-.894-.388-.892-1.29 0-.535.105-.902.37-1.146.248-.253.48-.339 1.321-.543.302-.078.479-.129.758-.219v.789zm2.291 2.441l-.313.007c-.631 0-.73-.188-.73-1.434v-2.242c0-.799-.072-1.096-.315-1.381-.332-.394-1.019-.613-1.926-.613-1.499.004-2.379.508-2.379 1.375 0 .327.18.453.603.453.427 0 .619-.149.648-.477.031-.602.031-.602.149-.766.172-.216.48-.331.896-.331.524 0 .853.174.965.506.065.218.096.55.11 1.373-.551.171-.977.286-1.307.349-1.448.278-1.448.278-1.815.47-.47.241-.734.724-.734 1.385 0 1.081.593 1.663 1.706 1.663.963 0 1.599-.292 2.064-.95.086.557.51.87 1.18.87h.539c.524 0 .524 0 .659-.011v-.248zm3.089-4.431c.265-.445.427-.609.761-.811.425-.265.979-.421 1.536-.421.747 0 1.297.279 1.517.796.166.344.166.344.166 1.282v3.592h1.021v.251h-3.353v-.251h1.047v-3.596c0-1.238-.23-1.66-.923-1.66-.637 0-1.217.372-1.543.967-.253.493-.305.796-.305 1.966v2.322h1.082l.002.251h-3.544v-.251h1.154v-5.284l-1.14.004v-.255h.647c.495 0 1.513-.049 1.875-.086v1.183m9.89.644h-.34c-.11-.977-.689-1.548-1.555-1.548-.661 0-1.133.353-1.133.863 0 .498.307.699 1.49 1.07 1.474.444 2.035.966 2.035 1.882 0 1.093-1.003 1.879-2.383 1.879-.658 0-1.128-.076-2.243-.351v-1.905h.375c.054 1.31.659 1.957 1.859 1.957.842 0 1.419-.407 1.419-1.016 0-.524-.363-.838-1.268-1.131-.922-.29-1.35-.474-1.64-.724-.355-.295-.535-.675-.535-1.159 0-.965.881-1.692 2.05-1.692.592 0 .991.091 1.869.39v1.485m5.318 1.347c0 .725-.068 1.196-.234 1.524-.272.531-.795.884-1.317.884-.621 0-.896-.388-.896-1.293 0-.532.109-.9.374-1.145.243-.251.482-.338 1.317-.541.304-.078.484-.129.757-.219v.789zm2.294 2.441l-.316.007c-.633 0-.729-.188-.729-1.434v-2.242c0-.799-.07-1.096-.318-1.381-.328-.396-1.015-.613-1.92-.613-1.501 0-2.378.508-2.378 1.375 0 .331.174.453.603.453.425 0 .62-.149.642-.477.033-.602.033-.602.158-.766.159-.216.48-.331.891-.331.523 0 .854.174.961.506.07.218.102.552.112 1.376-.55.167-.973.282-1.308.341-1.443.282-1.443.282-1.813.471-.469.244-.73.728-.73 1.389 0 1.081.593 1.663 1.707 1.663.959 0 1.594-.292 2.061-.95.084.557.512.87 1.18.87h.539c.524 0 .524 0 .659-.011v-.248zm4.809-3.788h-.347c-.109-.977-.688-1.548-1.556-1.548-.659 0-1.13.353-1.13.863 0 .498.307.699 1.493 1.07 1.471.448 2.035.966 2.034 1.882 0 1.093-1.008 1.879-2.383 1.879-.659 0-1.128-.076-2.241-.351v-1.905h.37c.053 1.31.661 1.957 1.857 1.957.842 0 1.419-.407 1.419-1.016 0-.524-.356-.838-1.266-1.131-.92-.29-1.349-.474-1.636-.724-.358-.295-.541-.675-.541-1.159 0-.965.884-1.692 2.053-1.692.593 0 .992.091 1.875.387v1.489m12.465-1.674h-.4c-.02-.891-.204-1.351-.712-1.845-.48-.473-1.126-.716-1.871-.716-.963 0-1.792.382-2.263 1.047-.41.609-.602 1.514-.602 2.928 0 1.657.207 2.628.703 3.239.462.568 1.169.877 1.997.877 1.568 0 2.601-1.068 2.748-2.869h.4l-.002 2.367c-1.224.592-2.171.829-3.231.829-2.615 0-4.292-1.677-4.292-4.302 0-2.715 1.757-4.446 4.511-4.446.966 0 1.789.179 3.014.648v2.242m3.751-1.962c0 .383-.347.7-.756.7-.429 0-.759-.317-.759-.71 0-.38.345-.686.769-.686.4.003.745.315.745.696zm-1.385 2.148l-1.112.004v-.255h.505c.5 0 1.489-.049 1.875-.086v5.621h1.059v.251h-3.483v-.251h1.156v-5.284zm4.684-1.842v1.535h1.41v.366l-1.404.003-.005 3.627c0 .724.017.944.098 1.141.083.223.349.402.591.402.418 0 .721-.227.923-.699l.275.101c-.331.699-.824 1.001-1.675 1.001-.729 0-1.183-.202-1.358-.608-.127-.257-.141-.457-.141-1.538l.004-3.425h-.935v-.369h.935l-.004-1.535h1.288m7.194 1.843h-1.103v-.255h2.467l-.002.255-.989-.004-2.148 6.293c-.497 1.438-.979 1.914-1.931 1.914-.734 0-1.236-.386-1.236-.975 0-.383.235-.623.607-.619.388 0 .55.198.55.681.013.383.138.533.455.533.522 0 .894-.494 1.291-1.736l.182-.547-2.616-5.545-.933.004v-.255h3.465l.002.255-1.145-.004 1.766 3.914 1.318-3.911m-229.689-34.706h3.547v22.502h12.039v3.164h-15.585v-25.666m18.7.071h4.049v3.662h-4.049v-3.662zm.358 7.749h3.367v17.845h-3.367v-17.845zm7.201.001h3.761l5.733 14.149 5.589-14.149h3.726l-7.882 17.845h-3.404l-7.523-17.845m23.25 9.525c-.072 3.7 1.469 6.436 5.16 6.436 2.185 0 3.941-1.138 4.228-3.699h3.366c-.106.89-.25 2.347-1.539 3.734-.789.888-2.581 2.382-6.199 2.382-5.661 0-8.348-3.483-8.348-9.137 0-3.519.717-6.435 3.548-8.39 1.719-1.208 3.868-1.314 4.908-1.314 8.061 0 7.882 7.074 7.811 9.987h-12.935zm9.495-2.345c.035-1.706-.286-5.26-4.444-5.26-2.185 0-4.835 1.315-4.908 5.26h9.351zm100.284-6.522c-.017-.225-.138-.336-.372-.336-.179 0-.357.092-.357.286 0 .242.217.27.41.315.342.087.847.183.847.631 0 .553-.486.746-.968.746-.514 0-.879-.198-.865-.762h.495c-.02.248.123.415.377.415.191 0 .447-.06.447-.298 0-.263-.321-.281-.514-.33-.314-.078-.745-.22-.745-.616 0-.51.473-.735.936-.735.435 0 .776.234.776.682h-.467m2.332 1.597h-.401l-.595-1.915-.006.005v1.91h-.451v-2.231h.791l.47 1.622h.007l.51-1.622h.763v2.231h-.451v-1.91l-.009-.005-.628 1.915m-94.08-10.039h15.228c6.878 0 9.637 3.057 9.637 6.328 0 2.915-2.149 5.19-5.481 6.007v.072c4.014.355 6.591 2.808 6.591 6.078 0 3.484-2.507 7.181-10.713 7.181h-15.263v-25.666zm7.309 10.487h4.694c3.225 0 5.124-.889 5.124-2.879 0-2.134-1.613-2.844-4.515-2.844h-5.304v5.724zm0 10.416h6.737c2.364 0 4.192-.641 4.192-2.916 0-2.133-1.97-2.95-3.834-2.95h-7.095v5.865zm22.749-20.903h6.879v25.666h-6.879v-25.666zm34.179 22.004c0 1.138.036 2.453.143 3.661h-6.664c-.072-1.067-.142-2.132-.142-3.199h-.074c-1.791 2.38-4.478 3.874-7.632 3.874-6.555 0-9.027-3.696-9.027-8.354v-10.165h6.879v9.136c0 2.843 1.253 4.834 4.372 4.834 2.829 0 5.266-2.168 5.266-6.114v-7.855h6.88v14.183m9.813-3.591c.144 2.772 1.792 4.231 4.693 4.231 3.009 0 3.548-1.21 3.905-2.418h7.31c-1.433 5.652-6.342 6.114-11.321 6.114-6.233 0-11.68-2.275-11.68-9.314 0-6.896 5.408-9.882 11.571-9.882 8.779 0 11.789 4.301 11.825 11.269h-16.303zm8.993-3.698c-.07-2.915-2.006-3.874-4.442-3.874-3.19 0-4.121 2.027-4.444 3.874h8.886zm46.534-7.409h-7.14l.001-7.082h-11.619v7.082h-7.14v11.528h7.14v7.087h11.618l.001-7.087h7.14v-11.528m23.3-7.291s-2.536 1.987-9.078 1.985v.004c-6.473-.015-8.988-1.979-8.988-1.979-6.773 17.402 8.92 26.007 9.072 26.091l.006.004v-.007c.152-.084 15.764-8.701 8.988-26.098m-9.055 23.354c11.664-8.688 7.569-19.923 7.569-19.923s-6.305 2.562-15.029 0c0 0-3.841 11.257 7.822 19.945" fill="#999" sketch:type="MSShapeGroup"/><path d="M211.404 23.423c11.664-8.688 7.569-19.923 7.569-19.923s-6.305 2.562-15.029 0c0 0-3.841 11.257 7.822 19.945" stroke="#fff" stroke-width=".699" sketch:type="MSShapeGroup"/><path d="M210.269 6.769s-1.517-.623-2.317.616c-.799 1.24-.4 3.269 2.625 3.62 3.027.355 2.003 1.062 2.003 1.062l-.136 1.277s1.874.139 1.874-1.897c-.002-1.501-2.136-1.719-2.136-1.719s-3.384.09-3.16-1.282c0 0-.09-.623 1.198-.044 0 0 1.248.174.533-.306 0 0-1.155-.405.047-.405 0 0 .18.278.714-.208 0 0-.226-.453-.891-.626 0 0 .267.62-.357.355 0 0-.62-.313.004-.442m2.173 9.932s1.737-.352 1.296-1.636c-.445-1.278-2.226-1.187-2.226-1.187s-1.115.083-.843-.488c0 0-.138-.884-.495-.929 0 0-1.154.706-.53 1.632.623.93 1.289.894 1.868.978.577.086 1.689.346.846.875 0 0-.178.487.084.755m-1.421 0v-.533s-.043-.484-.49-.174c-.444.311-1.111 1.236.268 1.943 1.382.706 1.826.971 1.424 1.28l.088.438s1.027.136.891-1.054c-.131-1.194-1.689-1.364-1.689-1.364s-.672-.144-.491-.537m.045 3.002s-1.115.576-.398 1.329c0 0 .171.261.309-.355 0 0 .043-.31.177-.442l-.088-.533m.309-1.098v2.512s.044.529.356.526c.31.004.357-.609.357-.609v-2.036s-.223-.309-.714-.393m-.173-3.27v1.453s.129.268.973.355l.004-1.676-.978-.132m-.088-1.765l1.068.087.262-1.767s.004-.442-.664-.442l-.98-.175s-.534.306-.312.967c.224.665.626 1.329.626 1.329m-.315-4.902v.575s.846.268 1.605.268l.129-.268s1.472-1.282 1.781-1.591c.311-.306-.092-.929-.668-.665 0 0-.935.577-1.113.619l-.175-1.057s-1.56-.707-1.605-.133c0 0-.132 0 .622.484 0 0 .668.703.403.842-.265.136-.493.175-.666.175-.179 0 .577.619-.314.752m-26.459-1.7c-1.533-.004-.463 1.72-.463 1.72.664 1.458-.664 1.388-.664 1.388h-4.055l-.207.401 3.46.661s1.601 0 .532 2.056l-2.32 4.682.403.331 2.452-3.625s.331-.858.935-.858" fill="#999" sketch:type="MSShapeGroup"/><path d="M184.339 6.967c-1.533-.004-.463 1.72-.463 1.72.664 1.458-.664 1.388-.664 1.388h-4.055l-.207.401 3.46.661s1.601 0 .532 2.056l-2.32 4.682.403.331 2.452-3.625s.331-.858.935-.858" stroke="#fff" stroke-width="1.471" sketch:type="MSShapeGroup"/><path d="M184.339 6.967c1.539-.004.471 1.724.471 1.724-.664 1.455.664 1.384.664 1.384h3.809l.198.401-3.202.661s-1.601 0-.535 2.056l2.306 4.401-.486.334-2.264-3.346s-.423-.858-1.024-.858" fill="#999" sketch:type="MSShapeGroup"/><path d="M184.339 6.967c1.539-.004.471 1.724.471 1.724-.664 1.455.664 1.384.664 1.384h3.809l.198.401-3.202.661s-1.601 0-.535 2.056l2.306 4.401-.486.334-2.264-3.346s-.423-.858-1.024-.858" stroke="#fff" stroke-width="1.471" sketch:type="MSShapeGroup"/><path d="M184.21 19.755c3.688 0 6.678-2.968 6.678-6.631 0-3.661-2.991-6.626-6.678-6.626-3.691.004-6.679 2.968-6.679 6.626.002 3.663 2.988 6.631 6.679 6.631z" fill="#999" sketch:type="MSShapeGroup"/><path d="M184.21 19.755c3.688 0 6.678-2.968 6.678-6.631 0-3.661-2.991-6.626-6.678-6.626-3.691.004-6.679 2.968-6.679 6.626.002 3.663 2.988 6.631 6.679 6.631z" stroke="#fff" stroke-width=".765" sketch:type="MSShapeGroup"/><path d="M186.329 11.137l5.003-.749-.198-.399h-5.608s-1.332.157-.666-1.302c0 0 1.069-1.724-.465-1.724-1.536 0-.47 1.727-.47 1.727.67 1.455-.668 1.298-.668 1.298h-5.607l-.198.487 5.005.661s1.601 0 .532 2.056l-3.069 5.828.401.331 3.162-4.77s.35-.787.908-.847c.565.061.962.845.962.845l3.114 4.771.4-.331-3.067-5.828c-1.07-2.056.53-2.056.53-2.056" fill="#999" sketch:type="MSShapeGroup"/></g></svg>