<svg width="385" height="100" viewBox="0 0 385 100" fill="none" xmlns="http://www.w3.org/2000/svg">
<path d="M91.151 1.21418C90.748 0.606981 90.1251 0.183781 89.4198 0.0365813C88.6137 -0.129019 87.5969 0.275782 85.5817 1.08538L54.9965 13.3674C52.9996 14.1678 52.0012 14.5726 51.2684 15.2442C50.618 15.833 50.1234 16.5782 49.8119 17.397C49.4639 18.3354 49.4639 19.4118 49.4639 21.5738V98.0442C49.4639 99.0562 50.2883 99.8842 51.2867 99.8842C73.5547 99.8842 91.5999 81.7602 91.5999 59.4042V5.18858C91.609 2.99898 91.609 1.91338 91.151 1.21418Z" fill="#404040"></path>
<path d="M39.9559 19.9086C39.1498 19.743 38.1331 20.1478 36.1179 20.9574L5.53264 33.2394C3.53576 34.0398 2.53732 34.4446 1.80452 35.1162C1.15416 35.705 0.659522 36.4502 0.348082 37.269C1.68161e-06 38.2074 0 39.2838 0 41.4458V59.4042C0 81.7694 18.036 99.9026 40.3132 99.8842C41.3208 99.8842 42.136 99.0562 42.136 98.0442V25.0606C42.136 22.8802 42.136 21.7854 41.678 21.0862C41.2841 20.479 40.6612 20.0558 39.9559 19.9086Z" fill="#404040"></path>
<path d="M124.585 19.6694H137.4V42.7706H161.161V19.6694H173.976V79.3406H161.161V55.0434H137.4V79.3406H124.585V19.6694Z" fill="#404040"></path>
<path d="M199.111 25.0422C199.111 26.0082 198.928 26.9282 198.561 27.8114C198.195 28.6946 197.682 29.4582 197.031 30.1114C196.381 30.7646 195.621 31.289 194.741 31.6846C193.862 32.0802 192.919 32.2826 191.902 32.2826C190.885 32.2826 189.932 32.0802 189.062 31.6846C188.183 31.289 187.423 30.7646 186.772 30.1114C186.122 29.4582 185.609 28.6946 185.242 27.8114C184.876 26.9282 184.693 26.0082 184.693 25.0422C184.693 24.0762 184.876 23.1562 185.242 22.273C185.609 21.3898 186.122 20.6262 186.772 19.973C187.423 19.3198 188.183 18.7954 189.062 18.3998C189.942 18.0042 190.885 17.8018 191.902 17.8018C192.919 17.8018 193.871 18.0042 194.741 18.3998C195.621 18.7954 196.381 19.329 197.031 19.973C197.682 20.6262 198.195 21.399 198.561 22.273C198.918 23.147 199.111 24.0762 199.111 25.0422ZM185.7 79.3406V37.2322H198.094V79.3406H185.7Z" fill="#404040"></path>
<path d="M234.927 49.3302C234.249 48.9898 233.205 48.815 231.785 48.815C228.331 48.815 225.648 50.011 223.724 52.3938C221.8 54.7766 220.839 58.0518 220.839 62.201V79.3314H208.537V37.2322H220.756V44.1414C221.892 41.7034 223.504 39.7806 225.593 38.3914C227.69 37.0022 230.09 36.303 232.811 36.303C233.259 36.303 233.699 36.3306 234.13 36.3858C234.551 36.441 234.826 36.5054 234.936 36.5606V49.3302H234.927Z" fill="#404040"></path>
<path d="M280.415 69.285C278.665 72.7534 276.128 75.4766 272.821 77.473C269.515 79.4602 265.567 80.4538 260.977 80.4538C257.698 80.4538 254.694 79.911 251.982 78.8346C249.271 77.7582 246.935 76.231 244.984 74.2714C243.033 72.3118 241.503 69.9658 240.404 67.2426C239.305 64.5194 238.746 61.5294 238.746 58.291C238.746 55.1078 239.296 52.173 240.404 49.4682C241.512 46.7726 243.033 44.4266 244.984 42.4394C246.935 40.4522 249.225 38.9066 251.863 37.7934C254.492 36.6894 257.368 36.1282 260.483 36.1282C263.652 36.1282 266.556 36.6802 269.185 37.7934C271.814 38.9066 274.067 40.4522 275.936 42.4394C277.804 44.4266 279.261 46.8002 280.305 49.5602C281.349 52.3202 281.871 55.347 281.871 58.6406C281.871 59.3766 281.853 60.0022 281.826 60.5174C281.798 61.0326 281.752 61.4282 281.697 61.7134H250.892C251.002 62.9646 251.341 64.0962 251.909 65.1266C252.477 66.1478 253.228 67.0494 254.162 67.813C255.097 68.5766 256.141 69.1746 257.304 69.607C258.468 70.0302 259.695 70.251 260.996 70.251C263.313 70.251 265.154 69.8002 266.51 68.8894C267.866 67.9786 269.029 66.7274 269.991 65.1358L280.415 69.285ZM269.725 53.599C269.441 51.3266 268.452 49.4682 266.757 48.0146C265.063 46.5702 262.938 45.8434 260.391 45.8434C259.145 45.8434 257.982 46.055 256.91 46.4874C255.839 46.9106 254.877 47.4994 254.025 48.2354C253.173 48.9714 252.486 49.7994 251.946 50.7102C251.405 51.621 251.085 52.587 250.966 53.6082H269.725V53.599Z" fill="#404040"></path>
<path d="M316.148 37.2322H328.542V79.3406H316.148V73.9678C314.902 75.955 313.244 77.5374 311.183 78.6966C309.113 79.865 306.695 80.4446 303.929 80.4446C299.12 80.4446 295.355 78.9082 292.644 75.8446C289.932 72.7718 288.567 68.5674 288.567 63.2314V37.2322H300.961V60.2506C300.961 63.0382 301.602 65.191 302.875 66.7274C304.149 68.2638 305.971 69.0274 308.353 69.0274C310.725 69.0274 312.622 68.1902 314.041 66.5158C315.452 64.8414 316.166 62.4954 316.166 59.487V37.2322H316.148Z" fill="#404040"></path>
<path d="M338.975 97.069V37.2322H351.286V42.8626C352.761 40.7006 354.694 39.0538 357.103 37.9222C359.512 36.7906 362.095 36.2202 364.87 36.2202C367.701 36.2202 370.321 36.7906 372.721 37.9222C375.13 39.063 377.218 40.6086 379.004 42.5682C380.79 44.5278 382.192 46.8646 383.209 49.5602C384.225 52.265 384.738 55.1722 384.738 58.3002C384.738 61.4282 384.225 64.3262 383.209 66.9942C382.192 69.6622 380.79 71.999 379.004 73.9862C377.218 75.9734 375.13 77.5374 372.721 78.6782C370.311 79.819 367.701 80.3802 364.87 80.3802C362.095 80.3802 359.512 79.8558 357.103 78.807C354.694 77.7582 352.761 76.1206 351.286 73.9034V97.0874H338.975V97.069ZM372.418 58.2818C372.418 56.7454 372.134 55.3286 371.566 54.0222C370.998 52.7158 370.238 51.5658 369.276 50.5722C368.315 49.5786 367.179 48.7966 365.878 48.2262C364.577 47.6558 363.167 47.3706 361.637 47.3706C360.107 47.3706 358.697 47.6558 357.396 48.2262C356.095 48.7966 354.959 49.5786 353.997 50.5722C353.036 51.5658 352.275 52.7158 351.707 54.0222C351.14 55.3286 350.856 56.7546 350.856 58.2818C350.856 59.8182 351.14 61.235 351.707 62.5414C352.275 63.8478 353.036 64.9978 353.997 65.9914C354.959 66.985 356.095 67.767 357.396 68.3374C358.697 68.9078 360.116 69.193 361.637 69.193C363.167 69.193 364.577 68.9078 365.878 68.3374C367.179 67.767 368.315 66.985 369.276 65.9914C370.238 64.9978 370.998 63.8478 371.566 62.5414C372.134 61.2442 372.418 59.8182 372.418 58.2818Z" fill="#404040"></path>
</svg>