<svg width="447" height="87" viewBox="0 0 447 87" fill="none" xmlns="http://www.w3.org/2000/svg">
<path d="M89.5158 13.0725C81.2081 5.23895 69.6911 0.931519 57.0845 0.931519H31.4414V86.0785H57.0845C69.6911 86.0785 81.2081 81.7711 89.5158 73.9376C93.5834 69.9881 96.8174 65.26 99.026 60.0339C101.235 54.8078 102.373 49.1903 102.373 43.515C102.373 37.8397 101.235 32.2222 99.026 26.9962C96.8174 21.7701 93.5834 17.042 89.5158 13.0925V13.0725ZM44.048 12.8621H57.0445C76.1494 12.8621 89.4958 25.4639 89.4958 43.495C89.4958 61.5261 76.1494 74.1279 57.0445 74.1279H44.048V12.8621Z" fill="#404040"></path>
<path d="M115.069 0C113.41 0.0345245 111.798 0.559652 110.436 1.50935C109.074 2.45905 108.022 3.79097 107.413 5.33774C106.804 6.8845 106.665 8.57707 107.014 10.2028C107.362 11.8285 108.182 13.3149 109.371 14.475L109.661 14.7355H120.478L120.758 14.475C121.946 13.3155 122.766 11.83 123.114 10.2052C123.463 8.58039 123.325 6.88858 122.717 5.3422C122.109 3.79583 121.059 2.46382 119.699 1.51339C118.338 0.562948 116.727 0.0364391 115.069 0Z" fill="#404040"></path>
<path d="M121.078 25.524H109.051V86.0586H121.078V25.524Z" fill="#404040"></path>
<path d="M199.037 25.524H185.14C181.701 25.3236 178.002 23.0097 178.002 18.4318C178.002 12.6618 183.521 12.0407 185.9 12.0407H199.037V0.921509H184.26C173.633 0.921509 166.215 7.20235 166.215 16.1979C166.207 19.5603 167.299 22.8328 169.324 25.514H150.43C146.991 25.3136 143.282 22.9996 143.282 18.4217C143.282 12.6518 148.81 12.0307 151.179 12.0307H164.326V0.921509H149.58C138.953 0.921509 131.525 7.20235 131.525 16.1979C131.52 19.5614 132.616 22.8337 134.644 25.514H126.036V36.6232H136.083V86.0685H148.08V36.6332H170.774V86.0685H182.771V36.6332H199.017L199.037 25.524Z" fill="#404040"></path>
<path d="M253.982 58.2404C253.752 37.7951 242.165 24.5923 224.47 24.5923C207.474 24.5923 194.148 38.2959 194.148 55.7962C194.148 73.5869 207.484 87 225.14 87C234.597 87 243.415 83.4339 249.353 77.2031L249.993 76.542L242.275 68.0373L241.545 68.7686C237.186 73.0895 231.301 75.5122 225.17 75.5102C220.623 75.5486 216.221 73.9082 212.804 70.9021C209.387 67.896 207.195 63.7347 206.645 59.2121H253.992L253.982 58.2404ZM223.9 35.8116C232.468 35.6914 238.896 40.64 240.486 48.4835H207.294C208.301 44.844 210.47 41.6348 213.468 39.3465C216.467 37.0582 220.131 35.8167 223.9 35.8116Z" fill="#404040"></path>
<path d="M290.802 37.9854V25.4538L289.992 25.3136C288.583 25.0644 287.155 24.9404 285.723 24.9429C282.929 24.8646 280.148 25.346 277.542 26.3592C274.936 27.3724 272.558 28.8968 270.548 30.8431V25.5239H258.551V86.0685H270.548V45.4583C272.877 40.1492 277.956 36.9837 284.174 36.9837C285.976 36.9601 287.772 37.186 289.512 37.6549L290.802 37.9854Z" fill="#404040"></path>
<path d="M349.366 58.2404C349.136 37.7951 337.549 24.5923 319.854 24.5923C302.859 24.5923 289.532 38.2959 289.532 55.7962C289.532 73.5869 302.869 87 320.524 87C329.971 87 338.799 83.4339 344.737 77.2031L345.367 76.542L337.649 68.0373L336.93 68.7686C332.569 73.1036 326.676 75.5373 320.534 75.5402C315.987 75.5786 311.585 73.9383 308.168 70.9322C304.752 67.9261 302.559 63.7647 302.009 59.2421H349.356L349.366 58.2404ZM319.284 35.8116C327.852 35.6914 334.22 40.64 335.86 48.4835H302.669C303.679 44.844 305.85 41.6355 308.85 39.3476C311.85 37.0596 315.514 35.8178 319.284 35.8116Z" fill="#404040"></path>
<path d="M383.097 24.5923C377.968 24.5923 371.1 25.6942 365.962 30.6027V25.4938H353.965V86.0684H365.962V47.3816C368.031 40.069 373.32 36.0521 380.868 36.0521C389.095 36.0521 394.614 41.6317 394.614 49.936V86.0684H406.611V49.355C406.641 34.5395 397.173 24.5923 383.097 24.5923Z" fill="#404040"></path>
<path d="M429.085 66.5648V36.6331H444.301L447 25.5239H429.085V7.35254L417.088 13.3629V25.5139H405.221L407.92 36.6231H417.058V68.0774C417.058 79.6674 423.676 86.0484 435.693 86.0484H445.56V74.9492H436.743C431.304 74.9492 429.085 72.525 429.085 66.5648Z" fill="#404040"></path>
<path d="M257 3.56491V2H265.222V3.56491H262.037V12.3054H260.185V3.56491H257Z" fill="#404040"></path>
<path d="M266.63 2H268.915L271.974 9.46735H272.095L275.154 2H277.439V12.3054H275.647V5.22546H275.552L272.704 12.2752H271.365L268.517 5.21036H268.421V12.3054H266.63V2Z" fill="#404040"></path>
<path d="M9.26751 30.9733C11.1009 30.9733 12.8931 30.4284 14.4173 29.4076C15.9416 28.3868 17.1294 26.936 17.8305 25.2386C18.5317 23.5412 18.7146 21.6736 18.3562 19.872C17.9978 18.0704 17.1142 16.4158 15.8171 15.1175C14.52 13.8192 12.8678 12.9356 11.0694 12.5785C9.271 12.2213 7.4073 12.4066 5.71406 13.111C4.02082 13.8154 2.57412 15.0071 1.55699 16.5355C0.539867 18.0639 -0.00197235 19.8603 5.39487e-06 21.6973C0.00529569 24.1575 0.983696 26.5154 2.72083 28.2541C4.45797 29.9928 6.81215 30.9707 9.26751 30.9733Z" fill="#404040"></path>
<path d="M9.25751 74.6288C14.3703 74.6288 18.515 70.4758 18.515 65.3528C18.515 60.2298 14.3703 56.0768 9.25751 56.0768C4.14473 56.0768 0 60.2298 0 65.3528C0 70.4758 4.14473 74.6288 9.25751 74.6288Z" fill="#404040"></path>
</svg>