<svg width="340" height="80" viewBox="0 0 340 80" fill="none" xmlns="http://www.w3.org/2000/svg">
<path d="M84.6663 65.4735C92.4515 65.4735 98.7627 59.1706 98.7627 51.3956C98.7627 43.6206 92.4515 37.3177 84.6663 37.3177C76.881 37.3177 70.5698 43.6206 70.5698 51.3956C70.5698 59.1706 76.881 65.4735 84.6663 65.4735Z" fill="#404040"></path>
<path d="M110.939 41.3956C108.906 35.9775 105.262 31.3103 100.496 28.021C95.7297 24.7318 90.0697 22.9779 84.2762 22.9949C82.4132 23.0034 80.5584 23.2412 78.7537 23.703C78.8706 22.7967 78.9287 21.8839 78.9278 20.9702C78.9977 15.5678 76.9501 10.3521 73.2221 6.43676C69.4942 2.52141 64.3813 0.216636 58.975 0.0145076C53.5688 -0.187621 48.2977 1.72892 44.287 5.35493C40.2764 8.98095 37.844 14.0291 37.5092 19.4216C40.4131 20.3331 43.179 21.6356 45.7307 23.2931C45.5998 22.5674 45.5318 21.8318 45.5276 21.0944C45.5155 18.5127 46.296 15.9893 47.7639 13.8641C49.2319 11.739 51.3168 10.1142 53.7378 9.20872C56.1587 8.30323 58.7994 8.16054 61.3041 8.79986C63.8088 9.43917 66.057 10.8298 67.746 12.7843C68.5254 13.692 69.1743 14.7038 69.6739 15.7904C70.8057 18.2564 71.1112 21.0211 70.5451 23.6742C69.979 26.3273 68.5714 28.7274 66.5313 30.5183C66.0752 30.9324 65.6316 31.3464 65.1921 31.7605C66.8505 34.8866 68.6374 36.8368 70.3249 38.0417C75.9013 32.3981 80.8765 31.0773 84.2845 31.0649C89.6582 31.0446 94.8199 33.157 98.634 36.9374C102.448 40.7178 104.602 45.8566 104.623 51.2232C104.643 56.5898 102.528 61.7447 98.7425 65.5538C94.9571 69.363 89.8116 71.5144 84.4379 71.5347C80.4121 71.5347 74.1641 69.7584 67.2817 61.1377C64.9079 58.1258 62.8373 54.8874 61.1 51.4695C59.1255 48.7138 57.4245 45.7726 56.0211 42.6874C51.1123 34.779 41.6179 23.144 28.2429 23.1937C20.7228 23.2233 13.5224 26.2352 8.22593 31.5667C2.92941 36.8982 -0.0294677 44.1125 0.000221281 51.6227C0.0299102 59.1329 3.04573 66.3238 8.38424 71.6133C13.7227 76.9029 20.9466 79.8578 28.4667 79.8282L68.5545 79.6791C65.026 77.4659 61.8354 74.7563 59.0809 71.634L51.7424 71.663H46.8833L28.8482 71.7293H28.4336C23.0599 71.749 17.8984 69.6361 14.0846 65.8553C10.2708 62.0745 8.11717 56.9355 8.09738 51.5689C8.07759 46.2023 10.1933 41.0476 13.9791 37.2389C17.7649 33.4301 22.9106 31.2793 28.2843 31.2595C32.3101 31.2595 38.5498 33.0358 45.4281 41.6523C47.8195 44.6902 49.9028 47.958 51.6471 51.4074L58.2268 62.471C63.4549 70.1393 72.3771 79.646 84.4586 79.6005C89.0286 79.5839 93.5268 78.4643 97.5699 76.337C101.613 74.2097 105.081 71.1378 107.679 67.383C110.277 63.6283 111.928 59.302 112.49 54.7728C113.053 50.2435 112.511 45.6456 110.91 41.3707L110.939 41.3956Z" fill="#404040"></path>
<path d="M169.787 3.48938V65.0926C169.787 69.6182 169.961 74.707 170.202 78.2182H161.968L161.499 69.4153H161.251C158.415 75.1045 152.287 79.3775 143.962 79.3775C131.611 79.3775 122.087 68.9474 122.087 53.5156C122.004 36.502 132.577 26.1631 144.986 26.1631C152.813 26.1631 158.083 29.8233 160.363 33.8852H160.575V3.48938H169.787ZM160.575 48.0294C160.583 46.7013 160.452 45.3761 160.185 44.0751C158.742 38.2328 153.742 33.4215 146.76 33.4215C137.162 33.4215 131.42 41.8268 131.42 53.0146C131.42 63.366 136.574 71.9369 146.57 71.9369C152.789 71.9369 158.406 67.755 160.115 60.8195C160.441 59.5232 160.594 58.1894 160.571 56.8529L160.575 48.0294Z" fill="#404040"></path>
<path d="M187.235 12.9297C187.235 16.0765 185.021 18.6809 181.34 18.6809C177.985 18.6809 175.738 16.0765 175.742 12.9297C175.724 12.168 175.86 11.4105 176.143 10.703C176.426 9.99558 176.85 9.3529 177.39 8.81397C177.929 8.27505 178.572 7.8511 179.28 7.56783C179.988 7.28455 180.747 7.14786 181.51 7.16603C184.967 7.16603 187.21 9.69591 187.235 12.9297ZM176.87 78.218V27.3181H186.091V78.218H176.87Z" fill="#404040"></path>
<path d="M208.445 12.6648V27.3182H221.766V34.3323H208.445V61.7635C208.445 68.1027 210.273 71.7008 215.456 71.7008C217.276 71.7449 219.092 71.5189 220.846 71.0301L221.26 78.069C219.461 78.777 216.584 79.3401 212.968 79.3401C208.71 79.3401 205.17 77.9365 202.964 75.4232C200.41 72.6159 199.365 68.1234 199.365 62.1444V34.3323H191.488V27.3182H199.365V15.058L208.445 12.6648Z" fill="#404040"></path>
<path d="M227.161 41.0647C227.161 35.7524 226.987 31.5414 226.747 27.3181H234.935L235.445 35.6903H235.706C238.194 30.9079 244.139 26.167 252.56 26.167C259.558 26.167 270.52 30.3738 270.52 47.8594V78.2221H261.295V48.8697C261.295 40.6424 258.19 33.7525 249.512 33.7525C243.43 33.7525 238.683 38.067 237.02 43.2509C236.596 44.6383 236.382 46.0815 236.386 47.5323V78.2055H227.161V41.0647Z" fill="#404040"></path>
<path d="M326.311 52.2815C326.311 71.1293 313.214 79.3773 300.963 79.3773C287.14 79.3773 276.464 69.3157 276.464 53.1551C276.464 36.1209 287.658 26.1628 301.755 26.1628C316.444 26.1628 326.311 36.7668 326.311 52.2815ZM285.896 52.8694C285.896 64.0489 292.302 72.4418 301.344 72.4418C310.233 72.4418 316.875 64.1607 316.875 52.5962C316.875 43.9838 312.53 33.0983 301.535 33.0983C290.656 33.0983 285.913 43.2219 285.913 52.8694H285.896Z" fill="#404040"></path>
<path d="M330.264 74.446C330.264 71.5476 332.217 69.4442 334.97 69.4442C337.722 69.4442 339.609 71.5145 339.625 74.446C339.625 77.2243 337.78 79.3815 334.92 79.3815C332.163 79.3608 330.222 77.2036 330.264 74.446Z" fill="#404040"></path>
</svg>