<svg width="410" height="64" viewBox="0 0 410 64" fill="none" xmlns="http://www.w3.org/2000/svg">
<path d="M41.28 0C53.7937 1.45478e-05 63.9385 10.1448 63.9385 22.6584V41.28C63.9385 53.7937 53.7937 63.9385 41.28 63.9385H22.6584C10.1448 63.9385 1.45487e-05 53.7937 0 41.28V22.6584C0 10.1448 10.1448 0 22.6584 0H41.28ZM29.3091 10.2764C28.9257 10.0214 28.4628 9.99796 28.0854 10.2131L14.0583 18.2105C13.6623 18.4365 13.4206 18.8924 13.427 19.4003C13.4337 19.9081 13.6873 20.3891 14.0896 20.6569C14.8111 21.1373 15.2388 22.0067 15.3912 23.5456C15.5458 25.1066 15.3789 26.9898 15.1874 29.0758C15.0041 31.0741 14.7966 33.2764 14.9871 35.1957C15.18 37.1375 15.8179 39.144 17.6009 40.3313C19.3837 41.5182 21.2093 41.1532 22.7642 40.3755C24.3016 39.6065 25.8526 38.2978 27.2625 37.1157C28.7339 35.8819 30.0649 34.7741 31.3149 34.1481C32.5472 33.5311 33.4144 33.5238 34.136 34.0042C34.8575 34.4846 35.2852 35.3539 35.4376 36.8928C35.5922 38.4539 35.4253 40.3369 35.2339 42.423C35.0505 44.4214 34.8429 46.6236 35.0335 48.5429C35.2264 50.4848 35.865 52.4922 37.6482 53.6794C37.9835 53.9024 38.3796 53.9489 38.7261 53.813L38.8709 53.7427L52.898 45.7453C53.294 45.5194 53.5348 45.0642 53.5285 44.5564C53.5221 44.0483 53.2693 43.5669 52.8668 43.2989C52.1435 42.8173 51.7159 41.9461 51.5625 40.4068C51.4071 38.8452 51.5729 36.962 51.7637 34.8757C51.9465 32.8769 52.1536 30.6741 51.9632 28.7549C51.7705 26.8139 51.1334 24.8068 49.3512 23.6202C47.5688 22.4336 45.7427 22.8012 44.1887 23.5794C42.6524 24.3489 41.1023 25.6572 39.693 26.8393C38.222 28.0732 36.8914 29.1818 35.6414 29.8077C34.4092 30.4248 33.542 30.432 32.8204 29.9517C32.0989 29.4713 31.6712 28.6018 31.5187 27.063C31.3642 25.502 31.5311 23.6189 31.7225 21.5328C31.9059 19.5344 32.1134 17.3323 31.9228 15.4129C31.73 13.4711 31.0921 11.4637 29.3091 10.2764Z" fill="#404040"></path>
<path d="M83.1191 56.0933V9.45447H91.3262V26.8985H91.6663C92.0895 26.0483 92.6865 25.145 93.4574 24.1885C94.2282 23.2169 95.2711 22.3895 96.586 21.7063C97.901 21.0079 99.5787 20.6587 101.619 20.6587C104.309 20.6587 106.735 21.3495 108.897 22.7311C111.073 24.0974 112.796 26.1242 114.066 28.8114C115.35 31.4834 115.993 34.7627 115.993 38.6493C115.993 42.4903 115.366 45.7544 114.111 48.4416C112.857 51.1288 111.149 53.1784 108.987 54.5903C106.826 56.0022 104.377 56.7082 101.642 56.7082C99.6467 56.7082 97.9917 56.3742 96.6767 55.7062C95.3618 55.0382 94.3038 54.2335 93.5027 53.2923C92.7168 52.3358 92.1046 51.4325 91.6663 50.5823H91.1902V56.0933H83.1191ZM91.1675 38.6038C91.1675 40.8659 91.4849 42.8471 92.1197 44.5475C92.7697 46.2478 93.6992 47.5763 94.9083 48.5327C96.1326 49.474 97.6138 49.9446 99.352 49.9446C101.166 49.9446 102.685 49.4588 103.909 48.4872C105.133 47.5004 106.055 46.1568 106.675 44.4564C107.31 42.7408 107.627 40.7899 107.627 38.6038C107.627 36.4327 107.317 34.5046 106.698 32.8194C106.078 31.1342 105.156 29.8134 103.932 28.857C102.707 27.9005 101.181 27.4223 99.352 27.4223C97.5987 27.4223 96.1099 27.8853 94.8857 28.8114C93.6614 29.7375 92.7319 31.0356 92.0971 32.7056C91.4774 34.3756 91.1675 36.3416 91.1675 38.6038Z" fill="#404040"></path>
<path d="M121.055 56.0933V21.1142H129.012V26.944H129.375C130.01 24.9248 131.098 23.3687 132.64 22.2756C134.197 21.1673 135.973 20.6132 137.968 20.6132C138.421 20.6132 138.927 20.6359 139.487 20.6815C140.061 20.7119 140.537 20.765 140.915 20.8409V28.4243C140.567 28.3028 140.016 28.1965 139.26 28.1055C138.519 27.9992 137.801 27.946 137.106 27.946C135.61 27.946 134.265 28.2725 133.071 28.9253C131.892 29.5629 130.962 30.4511 130.282 31.5897C129.602 32.7283 129.262 34.0416 129.262 35.5294V56.0933H121.055Z" fill="#404040"></path>
<path d="M153.211 56.7993C151.004 56.7993 149.017 56.4045 147.249 55.6151C145.495 54.8104 144.105 53.6263 143.077 52.0625C142.064 50.4988 141.558 48.5707 141.558 46.2782C141.558 44.3046 141.921 42.6725 142.646 41.382C143.372 40.0916 144.362 39.0592 145.616 38.2849C146.871 37.5107 148.284 36.9261 149.856 36.5314C151.443 36.1215 153.083 35.8255 154.775 35.6433C156.816 35.4307 158.471 35.241 159.741 35.074C161.01 34.8918 161.932 34.6185 162.506 34.2541C163.096 33.8746 163.391 33.2901 163.391 32.5006V32.364C163.391 30.6484 162.884 29.32 161.872 28.3787C160.859 27.4375 159.4 26.9668 157.496 26.9668C155.486 26.9668 153.891 27.4071 152.712 28.2876C151.549 29.1682 150.763 30.2081 150.355 31.4075L142.692 30.3144C143.296 28.189 144.294 26.4127 145.684 24.9856C147.075 23.5433 148.775 22.4654 150.785 21.7518C152.795 21.0231 155.017 20.6587 157.451 20.6587C159.128 20.6587 160.799 20.8561 162.461 21.2508C164.124 21.6455 165.643 22.2984 167.018 23.2093C168.394 24.105 169.497 25.3272 170.328 26.8757C171.175 28.4243 171.598 30.36 171.598 32.6828V56.0933H163.708V51.2882H163.436C162.937 52.2599 162.234 53.1708 161.328 54.021C160.436 54.856 159.31 55.5316 157.949 56.0478C156.604 56.5488 155.025 56.7993 153.211 56.7993ZM155.342 50.7417C156.99 50.7417 158.418 50.4153 159.627 49.7625C160.836 49.0945 161.766 48.2139 162.416 47.1208C163.081 46.0277 163.413 44.8359 163.413 43.5455V39.4236C163.156 39.6361 162.718 39.8335 162.098 40.0157C161.494 40.1978 160.814 40.3573 160.058 40.4939C159.302 40.6305 158.554 40.752 157.813 40.8583C157.073 40.9645 156.43 41.0556 155.886 41.1315C154.662 41.2985 153.566 41.5718 152.599 41.9514C151.632 42.3309 150.868 42.8623 150.309 43.5455C149.75 44.2135 149.47 45.0788 149.47 46.1416C149.47 47.6598 150.022 48.806 151.125 49.5803C152.229 50.3546 153.634 50.7417 155.342 50.7417Z" fill="#404040"></path>
<path d="M177.935 56.0933V21.1142H186.142V56.0933H177.935ZM182.061 16.1497C180.761 16.1497 179.643 15.717 178.706 14.8516C177.769 13.9711 177.3 12.9159 177.3 11.6862C177.3 10.4413 177.769 9.38615 178.706 8.52078C179.643 7.64023 180.761 7.19995 182.061 7.19995C183.376 7.19995 184.495 7.64023 185.416 8.52078C186.354 9.38615 186.822 10.4413 186.822 11.6862C186.822 12.9159 186.354 13.9711 185.416 14.8516C184.495 15.717 183.376 16.1497 182.061 16.1497Z" fill="#404040"></path>
<path d="M200.873 35.5977V56.0933H192.666V21.1142H200.511V27.0579H200.919C201.72 25.0994 202.997 23.5433 204.75 22.3895C206.518 21.2356 208.702 20.6587 211.302 20.6587C213.705 20.6587 215.799 21.1749 217.582 22.2073C219.381 23.2396 220.771 24.7351 221.754 26.6935C222.751 28.652 223.243 31.028 223.227 33.8214V56.0933H215.02V35.0967C215.02 32.7587 214.416 30.9293 213.207 29.6085C212.013 28.2876 210.358 27.6272 208.242 27.6272C206.806 27.6272 205.528 27.946 204.41 28.5837C203.307 29.2061 202.438 30.1095 201.803 31.2937C201.183 32.4778 200.873 33.9125 200.873 35.5977Z" fill="#404040"></path>
<path d="M235.565 56.0933L225.726 21.1142H234.092L240.213 45.7089H240.53L246.788 21.1142H255.063L261.32 45.5723H261.66L267.691 21.1142H276.079L266.217 56.0933H257.67L251.141 32.4551H250.664L244.135 56.0933H235.565Z" fill="#404040"></path>
<path d="M289.277 56.7993C287.07 56.7993 285.082 56.4045 283.314 55.6151C281.561 54.8104 280.17 53.6263 279.142 52.0625C278.13 50.4988 277.623 48.5707 277.623 46.2782C277.623 44.3046 277.986 42.6725 278.712 41.382C279.437 40.0916 280.427 39.0592 281.682 38.2849C282.936 37.5107 284.349 36.9261 285.921 36.5314C287.508 36.1215 289.148 35.8255 290.841 35.6433C292.881 35.4307 294.536 35.241 295.806 35.074C297.076 34.8918 297.998 34.6185 298.572 34.2541C299.161 33.8746 299.456 33.2901 299.456 32.5006V32.364C299.456 30.6484 298.95 29.32 297.937 28.3787C296.924 27.4375 295.466 26.9668 293.562 26.9668C291.551 26.9668 289.957 27.4071 288.778 28.2876C287.614 29.1682 286.828 30.2081 286.42 31.4075L278.757 30.3144C279.362 28.189 280.359 26.4127 281.75 24.9856C283.14 23.5433 284.841 22.4654 286.851 21.7518C288.861 21.0231 291.083 20.6587 293.516 20.6587C295.194 20.6587 296.864 20.8561 298.527 21.2508C300.189 21.6455 301.708 22.2984 303.084 23.2093C304.459 24.105 305.562 25.3272 306.394 26.8757C307.24 28.4243 307.663 30.36 307.663 32.6828V56.0933H299.774V51.2882H299.501C299.003 52.2599 298.3 53.1708 297.393 54.021C296.501 54.856 295.375 55.5316 294.015 56.0478C292.67 56.5488 291.09 56.7993 289.277 56.7993ZM291.408 50.7417C293.055 50.7417 294.483 50.4153 295.693 49.7625C296.902 49.0945 297.831 48.2139 298.481 47.1208C299.146 46.0277 299.479 44.8359 299.479 43.5455V39.4236C299.222 39.6361 298.784 39.8335 298.164 40.0157C297.559 40.1978 296.879 40.3573 296.123 40.4939C295.368 40.6305 294.62 40.752 293.879 40.8583C293.138 40.9645 292.496 41.0556 291.952 41.1315C290.728 41.2985 289.632 41.5718 288.664 41.9514C287.697 42.3309 286.934 42.8623 286.375 43.5455C285.815 44.2135 285.536 45.0788 285.536 46.1416C285.536 47.6598 286.087 48.806 287.191 49.5803C288.294 50.3546 289.7 50.7417 291.408 50.7417Z" fill="#404040"></path>
<path d="M343.859 21.1142L331.457 56.0933H322.389L309.987 21.1142H318.739L326.742 47.098H327.105L335.13 21.1142H343.859Z" fill="#404040"></path>
<path d="M361.216 56.7765C357.725 56.7765 354.71 56.0478 352.17 54.5903C349.646 53.1177 347.704 51.0377 346.344 48.3505C344.983 45.6482 344.303 42.4675 344.303 38.8087C344.303 35.2106 344.983 32.0528 346.344 29.3352C347.719 26.6024 349.639 24.477 352.102 22.9588C354.566 21.4254 357.46 20.6587 360.786 20.6587C362.932 20.6587 364.957 21.0079 366.862 21.7063C368.781 22.3895 370.474 23.4522 371.94 24.8945C373.421 26.3368 374.585 28.1738 375.431 30.4055C376.278 32.6221 376.701 35.2637 376.701 38.3305V40.8583H348.158V35.3017H368.834C368.819 33.7228 368.479 32.3184 367.814 31.0887C367.149 29.8438 366.219 28.8645 365.025 28.151C363.846 27.4374 362.471 27.0807 360.899 27.0807C359.221 27.0807 357.748 27.4906 356.478 28.3104C355.208 29.1151 354.218 30.1778 353.508 31.4986C352.813 32.8043 352.458 34.239 352.442 35.8027V40.6533C352.442 42.6877 352.813 44.4336 353.553 45.8911C354.294 47.3334 355.329 48.4416 356.659 49.2159C357.989 49.975 359.546 50.3546 361.33 50.3546C362.524 50.3546 363.604 50.1876 364.572 49.8536C365.539 49.5044 366.378 48.9958 367.088 48.3278C367.799 47.6598 368.335 46.8324 368.698 45.8455L376.361 46.7109C375.877 48.7453 374.955 50.5216 373.595 52.0397C372.25 53.5428 370.527 54.7118 368.426 55.5468C366.325 56.3666 363.922 56.7765 361.216 56.7765Z" fill="#404040"></path>
<path d="M409.252 30.36L401.77 31.1798C401.559 30.4207 401.189 29.7071 400.66 29.0391C400.146 28.3711 399.45 27.8322 398.574 27.4223C397.697 27.0124 396.624 26.8074 395.354 26.8074C393.647 26.8074 392.211 27.1794 391.047 27.9233C389.898 28.6672 389.331 29.6312 389.346 30.8154C389.331 31.8326 389.702 32.66 390.457 33.2977C391.228 33.9353 392.498 34.4591 394.266 34.869L400.206 36.1443C403.501 36.8578 405.95 37.9889 407.552 39.5374C409.169 41.086 409.985 43.1128 410 45.6178C409.985 47.8192 409.343 49.7625 408.073 51.4477C406.819 53.1177 405.073 54.4233 402.836 55.3646C400.599 56.3059 398.03 56.7765 395.128 56.7765C390.865 56.7765 387.435 55.8808 384.835 54.0893C382.235 52.2827 380.686 49.7701 380.187 46.5515L388.19 45.7772C388.553 47.3561 389.324 48.5479 390.503 49.3526C391.682 50.1572 393.216 50.5595 395.105 50.5595C397.055 50.5595 398.619 50.1572 399.798 49.3526C400.992 48.5479 401.589 47.5535 401.589 46.3693C401.589 45.3673 401.204 44.5399 400.433 43.8871C399.677 43.2342 398.498 42.7332 396.896 42.384L390.956 41.1315C387.616 40.4332 385.145 39.2566 383.543 37.6017C381.94 35.9317 381.147 33.8214 381.162 31.2709C381.147 29.1151 381.729 27.2477 382.908 25.6688C384.102 24.0747 385.757 22.8449 387.873 21.9795C390.004 21.099 392.46 20.6587 395.241 20.6587C399.322 20.6587 402.534 21.5317 404.876 23.2776C407.234 25.0235 408.693 27.3843 409.252 30.36Z" fill="#404040"></path>
</svg>