<svg width="54" height="54" viewBox="0 0 54 54" xmlns="http://www.w3.org/2000/svg" xmlns:sketch="http://www.bohemiancoding.com/sketch/ns"><title>rdio</title><desc>Created with Sketch.</desc><path d="M27 0c-14.913 0-27 12.087-27 27s12.087 27 27 27 27-12.087 27-27-12.087-27-27-27zm11.84 24.9c.087.687.132 1.388.132 2.1 0 8.837-6.933 16-15.488 16-8.551 0-15.484-7.162-15.484-16 0-8.838 6.935-16 15.484-16 1.231 0 2.422.156 3.569.436v9.111c-1.813-.676-4.041-.576-6.137.456-3.792 1.866-5.712 6.064-4.292 9.376 1.419 3.314 5.644 4.486 9.434 2.62 2.611-1.286 4.916-4.382 4.916-8.264v-11.743c.326.187.643.385.953.594 2.944 1.888 7.315 4.411 12.424 4.678 1.986.102-.785 5.21-5.51 6.637z" sketch:type="MSShapeGroup" fill="#fff"/></svg>