<svg width="54" height="54" viewBox="0 0 54 54" xmlns="http://www.w3.org/2000/svg" xmlns:sketch="http://www.bohemiancoding.com/sketch/ns"><title>twitter</title><desc>Created with Sketch.</desc><path d="M27 0c-14.913 0-27 12.089-27 27 0 14.913 12.087 27 27 27s27-12.087 27-27c0-14.911-12.087-27-27-27zm14.727 20.474c.012.283.02.565.02.851 0 8.671-6.606 18.675-18.682 18.675-3.709 0-7.157-1.086-10.064-2.951.516.062 1.037.094 1.565.094 3.076 0 5.909-1.051 8.156-2.81-2.873-.053-5.297-1.952-6.134-4.556.4.075.813.117 1.236.117.599 0 1.181-.082 1.73-.233-3.003-.603-5.267-3.255-5.267-6.435v-.082c.885.491 1.899.786 2.975.821-1.764-1.18-2.921-3.189-2.921-5.464 0-1.205.324-2.332.889-3.299 3.238 3.969 8.078 6.584 13.533 6.858-.112-.482-.171-.983-.171-1.5 0-3.621 2.937-6.561 6.565-6.561 1.888 0 3.593.796 4.792 2.073 1.495-.295 2.9-.841 4.17-1.593-.489 1.532-1.529 2.817-2.888 3.63 1.328-.156 2.594-.51 3.771-1.033-.878 1.317-1.99 2.474-3.273 3.397z" sketch:type="MSShapeGroup" fill="#fff"/></svg>