<?xml version="1.0" encoding="UTF-8" standalone="no"?>
<svg width="20px" height="13px" viewBox="0 0 20 13" version="1.1" xmlns="http://www.w3.org/2000/svg" xmlns:xlink="http://www.w3.org/1999/xlink" xmlns:sketch="http://www.bohemiancoding.com/sketch/ns">
    <!-- Generator: Sketch 3.1.1 (8761) - http://www.bohemiancoding.com/sketch -->
    <title>icon-envelope</title>
    <desc>Created with Sketch.</desc>
    <defs></defs>
    <g id="Page-1" stroke="none" stroke-width="1" fill="none" fill-rule="evenodd" sketch:type="MSPage">
        <g id="Desktop" sketch:type="MSArtboardGroup" transform="translate(-497.000000, -1038.000000)" fill="#FFFFFF">
            <g id="e-button" sketch:type="MSLayerGroup" transform="translate(450.000000, 1017.000000)">
                <g id="ACCEPTING-FREELANCE-+-Fill-59" transform="translate(48.000000, 0.000000)" sketch:type="MSShapeGroup">
                    <path d="M17.8862433,24.212002 C17.308924,24.5132573 10.2174533,28.2215914 9.86394153,28.4058422 C9.51022158,28.5905094 9.26247189,28.6146598 8.92041075,28.6146598 C8.57855781,28.6146598 8.33080811,28.5905094 7.97708816,28.4058422 C7.62357641,28.2215914 0.532522062,24.5132573 -0.0452135762,24.212002 C-0.451606356,24.0002696 -0.448275268,24.2486439 -0.448275268,24.4405979 L-0.448275268,32.0769098 C-0.448275268,32.5132823 0.132999651,33.0751953 0.584153931,33.0751953 L17.2568758,33.0751953 C17.7078218,33.0751953 18.2890968,32.5132823 18.2890968,32.0769098 L18.2890968,24.4405979 C18.2890968,24.2486439 18.2930524,24.0002696 17.8862433,24.212002 C17.8862433,24.212002 18.2930524,24.0002696 17.8862433,24.212002 L17.8862433,24.212002 L17.8862433,24.212002 Z M0.170058009,22.1300717 C0.678257177,22.4034292 7.71518134,26.1831735 7.97708816,26.323912 C8.23920318,26.4646505 8.57855781,26.5327296 8.92041075,26.5327296 C9.26247189,26.5327296 9.60182651,26.4646505 9.86394153,26.323912 C10.1258484,26.1831735 17.1625643,22.4034292 17.6709717,22.1300717 C18.179379,21.8571307 18.6607213,21 17.726351,21 L0.114470472,21 C-0.819067041,21 -0.338349352,21.8571307 0.170058009,22.1300717 L0.170058009,22.1300717 Z" id="icon-envelope"></path>
                </g>
            </g>
        </g>
    </g>
</svg>