<svg width="54" height="54" viewBox="0 0 54 54" xmlns="http://www.w3.org/2000/svg" xmlns:sketch="http://www.bohemiancoding.com/sketch/ns"><title>Shape</title><desc>Created with Sketch.</desc><path d="M27 0c-14.913 0-27 12.087-27 27s12.087 27 27 27 27-12.087 27-27-12.087-27-27-27zm14 36.523c0 2.472-1.961 4.477-4.374 4.477h-19.252c-2.416 0-4.374-2.004-4.374-4.477v-11.522h5.694c-.105.538-.16 1.095-.16 1.665 0 4.788 3.79 8.667 8.466 8.667 4.675 0 8.466-3.879 8.466-8.667 0-.57-.054-1.127-.16-1.667h5.694v11.523zm-19-9.523c0-2.76 2.239-5 5-5s5 2.24 5 5c0 2.764-2.239 5-5 5s-5-2.236-5-5zm19-5h-7.088c-1.534-2.139-4.057-3.534-6.91-3.534-2.853 0-5.38 1.396-6.912 3.534h-7.09v-4.68c0-2.386 1.958-4.32 4.374-4.32h19.252c2.413 0 4.374 1.935 4.374 4.32v4.68z" sketch:type="MSShapeGroup" fill="#fff"/></svg>