<svg width="54" height="54" viewBox="0 0 54 54" xmlns="http://www.w3.org/2000/svg" xmlns:sketch="http://www.bohemiancoding.com/sketch/ns"><title>dribbble</title><desc>Created with Sketch.</desc><path d="M25 22.919c-1.53-3.114-3.434-6.108-5.668-8.919-3.92 2.177-6.66 6.275-7.332 10.927.54.04 1.151.073 1.764.073 3.848 0 7.624-.699 11.236-2.081zm3 4.228c-.27-.72-.561-1.44-.864-2.147-4.216 1.612-8.626 2.427-13.125 2.427-.617 0-1.258-.026-2.011-.078.16 3.621 1.512 6.991 3.868 9.651 2.928-4.639 7.189-8.096 12.132-9.853zm9-11.146c-2.754-2.586-6.345-4.001-10.196-4.001-1.275 0-2.55.169-3.804.498 2.287 2.687 4.247 5.542 5.844 8.502 2.881-1.264 5.615-2.939 8.156-4.999zm-19 23.113c2.665 1.888 5.79 2.886 9.087 2.886 1.656 0 3.306-.268 4.913-.799-.353-3.886-1.122-7.65-2.291-11.201-4.812 1.594-8.925 4.794-11.709 9.114zm9-39.114c-14.913 0-27 12.087-27 27s12.087 27 27 27 27-12.087 27-27-12.087-27-27-27zm-.5 44c-9.648 0-17.5-7.849-17.5-17.5 0-9.65 7.852-17.5 17.5-17.5s17.5 7.85 17.5 17.5c0 9.651-7.852 17.5-17.5 17.5zm5.5-14.622c1.021 3.379 1.726 6.943 2.1 10.622 3.569-2.222 6.087-5.946 6.9-10.247-1.765-.497-3.516-.753-5.215-.753-1.244-.002-2.512.126-3.785.378zm-2-4.922c.381.789.74 1.576 1.068 2.357 1.711-.327 3.411-.49 5.064-.49 1.916 0 3.886.227 5.868.677-.015-2.878-.947-5.627-2.711-8-2.902 2.247-6.014 4.08-9.289 5.456z" sketch:type="MSShapeGroup" fill="#fff"/></svg>