<svg width="54" height="54" viewBox="0 0 54 54" xmlns="http://www.w3.org/2000/svg" xmlns:sketch="http://www.bohemiancoding.com/sketch/ns"><title>linkedin</title><desc>Created with Sketch.</desc><path d="M27 0c-14.913 0-27 12.087-27 27s12.087 27 27 27 27-12.087 27-27-12.087-27-27-27zm-7 41h-5v-19h5v19zm-1.5-21c-1.935 0-3.5-1.567-3.5-3.499 0-1.936 1.565-3.501 3.5-3.501s3.5 1.565 3.5 3.501c0 1.934-1.565 3.499-3.5 3.499zm20.5 21h-5.334v-11.534c0-.543-.535-1.432-.915-1.648-.497-.287-1.678-.309-2.221-.046l-2.199 1.077v12.151h-5.33v-19h5.33v.836c2.113-.981 5.041-.886 7.027.247 2.111 1.204 3.643 3.888 3.643 6.383v11.534z" sketch:type="MSShapeGroup" fill="#fff"/></svg>